<svg width="326" height="325" viewBox="0 0 326 325" fill="none" xmlns="http://www.w3.org/2000/svg">
<mask id="mask0_1_7" style="mask-type:alpha" maskUnits="userSpaceOnUse" x="0" y="0" width="326" height="325">
<path d="M-8.96454e-05 0H326V325H-8.96454e-05V0Z" fill="#EFD8B8"/>
</mask>
<g mask="url(#mask0_1_7)">
<path d="M31.4999 238L8.49991 242L10.9999 289.5L-8.96454e-05 312L31.9999 345L34.9999 353.5H50.4999L68.4999 360L73.9999 375L86.9999 379L95.9999 375L119 357V348.5L151.5 316.5L156 303L174 286L165.5 274L164.5 264L68.4999 229.5L46.9999 238H31.4999Z" fill="url(#paint0_linear_1_7)"/>
<path d="M95.9999 375V367L80.4999 353.5V334.5L64.9999 308L92.4999 295.5L97.4999 286M95.9999 375L86.9999 379L73.9999 375L68.4999 360L50.4999 353.5H34.9999L31.9999 345L-8.96454e-05 312L10.9999 289.5L8.49991 242L31.4999 238H46.9999L68.4999 229.5L164.5 264L165.5 274L174 286L156 303L151.5 316.5L119 348.5V357L95.9999 375Z" stroke="url(#paint1_linear_1_7)"/>
<path d="M176.5 7.5L173.5 -15L195 -27.5C200.833 -26.1667 212.8 -23.7 214 -24.5C215.2 -25.3 221.833 -35.8333 225 -41L231 -9L256.5 20V28L272 24L289.5 28L292.5 45L327.5 43.5L339.5 58.5L330.5 73.5V85.5L334 97L327.5 110.5V131L333.5 164V182L330.5 193L317.5 202.5L302 207.5L297.5 225L279 230.5L203 164L173.5 36.5L170.5 24L179 20L176.5 7.5Z" fill="url(#paint2_linear_1_7)"/>
<path d="M256.5 28V20L231 -9L225 -41C221.833 -35.8333 215.2 -25.3 214 -24.5C212.8 -23.7 200.833 -26.1667 195 -27.5L173.5 -15L176.5 7.5L179 20L170.5 24L173.5 36.5L203 164L279 230.5L297.5 225L302 207.5L317.5 202.5L330.5 193L333.5 182V164L327.5 131V110.5M256.5 28L248.5 47.5L225 56M256.5 28L272 24L289.5 28L292.5 45L327.5 43.5L339.5 58.5L330.5 73.5V85.5L334 97L327.5 110.5M327.5 110.5L317.5 116.5L292.5 104H276" stroke="url(#paint3_linear_1_7)"/>
<path d="M97.0278 285.298L97.6183 285.771L98.2337 285.331L120.035 269.759L163.798 264.132L164.068 264.097L164.283 263.931L197.336 238.361H219.001H219.065L219.13 238.353L276.975 230.808L278.227 230.645L277.781 229.463L267.182 201.408L270.919 174.625L270.982 174.174L270.684 173.831L246.501 146.021L270.259 137.706L270.828 137.507L270.918 136.911L277.834 91.0126L278.117 89.1375L276.41 89.9634L257.409 99.1572L232.435 83.9289L223.737 52.2454L223.479 51.3029L222.53 51.5399L200.701 56.9972L194.131 42.6622L193.943 42.251L193.509 42.1211L174.647 36.4623L173.788 36.2048L173.439 37.0302L150.935 90.1628L124.821 105.085L124.548 105.241L124.414 105.525L101.977 152.892L38.9208 169.748L37.8419 170.037L38.2473 171.077L56.9449 219.068L42.065 247.588L41.6554 248.373L42.3851 248.874L72.5649 269.623L72.5851 269.637L72.6059 269.65C76.1664 271.849 81.6642 275.273 86.5849 278.398C91.5376 281.544 95.8246 284.336 97.0278 285.298Z" fill="url(#paint4_radial_1_7)" stroke="black" stroke-width="2"/>
<mask id="mask1_1_7" style="mask-type:alpha" maskUnits="userSpaceOnUse" x="39" y="37" width="238" height="248">
<path d="M73.1314 268.799C80.2572 273.2 95.1375 282.505 97.6525 284.517L119.659 268.799L163.671 263.14L196.994 237.361H219.001L276.845 229.817L266.156 201.523L269.929 174.487L244.779 145.565L269.929 136.762L276.845 90.8636L257.354 100.295L231.575 84.5761L222.773 52.5101L200.138 58.1688L193.222 43.0789L174.36 37.4202L151.725 90.8636L125.317 105.954L102.682 153.738L39.1791 170.714L58.0415 219.128L42.9516 248.05L73.1314 268.799Z" fill="url(#paint5_radial_1_7)"/>
</mask>
<g mask="url(#mask1_1_7)">
<path d="M95.7669 121.044L103.312 202.152V244.907L122.803 280.745M103.312 141.792L132.863 173.23L152.354 166.942L175.618 199.008L187.564 173.23L213.342 145.565L191.965 137.391V116.642L175.618 99.0375L147.953 83.3188" stroke="white" stroke-opacity="0.4"/>
<path d="M213.342 144.936L235.348 134.247L258.612 144.936" stroke="white" stroke-opacity="0.4"/>
<path d="M175.856 199.155L180.647 221.014L196.995 237.99" stroke="white" stroke-opacity="0.4"/>
</g>
<path d="M193.774 19.78L191.856 18.184L194.39 11.688L194.138 10.708C195.762 10.05 197.638 9.756 199.318 9.728L199.584 11.114L196.168 11.87L195.202 14.502C196.056 14.208 196.924 14.068 197.918 13.956L198.142 15.076L194.614 16.07L193.858 18.1L197.68 17.176L197.988 18.66L193.774 19.78ZM204.308 19.78L202.6 19.136L203.188 17.582C202.25 18.492 200.976 19.486 200.094 19.78L198.484 18.45L201.9 9.7L203.524 10.302L200.668 18.156L203.832 15.748L206.142 9.7L207.752 10.302L204.308 19.78ZM212.137 19.78L209.309 16.63L208.161 19.78L206.369 19.01L209.239 11.688L208.987 10.708C210.583 10.036 212.655 9.77 214.349 9.7L215.427 11.87C214.937 13.69 213.537 15.356 211.367 16.252L213.481 18.464L212.137 19.78ZM209.799 15.286C211.913 14.698 213.355 13.34 213.859 11.226L211.073 11.856L209.799 15.286ZM216.51 19.78L214.592 18.184L217.126 11.688L216.874 10.708C218.498 10.05 220.374 9.756 222.054 9.728L222.32 11.114L218.904 11.87L217.938 14.502C218.792 14.208 219.66 14.068 220.654 13.956L220.878 15.076L217.35 16.07L216.594 18.1L220.416 17.176L220.724 18.66L216.51 19.78ZM225.67 19.78L223.752 18.184L226.286 11.688L226.034 10.708C227.658 10.05 229.534 9.756 231.214 9.728L231.48 11.114L228.064 11.87L227.098 14.502C227.952 14.208 228.82 14.068 229.814 13.956L230.038 15.076L226.51 16.07L225.754 18.1L229.576 17.176L229.884 18.66L225.67 19.78ZM237.842 11.982L235.882 11.8L232.998 19.766L231.094 19.024L233.978 11.646L231.808 11.45L232.368 9.7L238.276 10.484L237.842 11.982ZM199.125 33.78L197.221 32.184L200.539 23.7L202.149 24.302L199.279 32.086L202.779 31.232L203.101 32.73L199.125 33.78ZM206.76 33.808L204.31 32.8C204.38 28.446 206.326 24.232 210.442 23.7L212.906 24.708C212.822 29.062 210.89 33.276 206.76 33.808ZM206.172 32.38C209.588 31.722 210.75 28.67 211.03 25.114C207.628 25.786 206.452 28.824 206.172 32.38ZM217.272 24.302L213.828 33.78L212.008 33.01L215.648 23.7L217.272 24.302ZM221.659 33.78L218.831 30.63L217.683 33.78L215.891 33.01L218.761 25.688L218.509 24.708C220.105 24.036 222.177 23.77 223.871 23.7L224.949 25.87C224.459 27.69 223.059 29.356 220.889 30.252L223.003 32.464L221.659 33.78ZM219.321 29.286C221.435 28.698 222.877 27.34 223.381 25.226L220.595 25.856L219.321 29.286ZM226.032 33.78L224.114 32.184L226.648 25.688L226.396 24.708C228.02 24.05 229.896 23.756 231.576 23.728L231.842 25.114L228.426 25.87L227.46 28.502C228.314 28.208 229.182 28.068 230.176 27.956L230.4 29.076L226.872 30.07L226.116 32.1L229.938 31.176L230.246 32.66L226.032 33.78Z" fill="black"/>
<path d="M265.247 74.78L263.343 73.184L266.661 64.7L268.271 65.302L265.401 73.086L268.901 72.232L269.223 73.73L265.247 74.78ZM272.882 74.808L270.432 73.8C270.502 69.446 272.448 65.232 276.564 64.7L279.028 65.708C278.944 70.062 277.012 74.276 272.882 74.808ZM272.294 73.38C275.71 72.722 276.872 69.67 277.152 66.114C273.75 66.786 272.574 69.824 272.294 73.38ZM283.394 65.302L279.95 74.78L278.13 74.01L281.77 64.7L283.394 65.302ZM287.781 74.78L284.953 71.63L283.805 74.78L282.013 74.01L284.883 66.688L284.631 65.708C286.227 65.036 288.299 64.77 289.993 64.7L291.071 66.87C290.581 68.69 289.181 70.356 287.011 71.252L289.125 73.464L287.781 74.78ZM285.443 70.286C287.557 69.698 288.999 68.34 289.503 66.226L286.717 66.856L285.443 70.286ZM292.154 74.78L290.236 73.184L292.77 66.688L292.518 65.708C294.142 65.05 296.018 64.756 297.698 64.728L297.964 66.114L294.548 66.87L293.582 69.502C294.436 69.208 295.304 69.068 296.298 68.956L296.522 70.076L292.994 71.07L292.238 73.1L296.06 72.176L296.368 73.66L292.154 74.78ZM304.327 66.982L302.367 66.8L299.483 74.766L297.579 74.024L300.463 66.646L298.293 66.45L298.853 64.7L304.761 65.484L304.327 66.982Z" fill="black"/>
<path d="M290.566 170.058L286.31 171.794L283.916 170.8C283.986 166.446 286.016 162.372 289.824 161.7C290.706 162.05 291.63 162.54 292.232 163.114L290.916 166.978L289.348 166.558L290.37 163.072C287.402 163.968 286.184 166.81 285.834 170.226L290.104 168.56L290.566 170.058ZM297.425 171.78L295.605 171.01L296.809 167.916L293.995 168.616L292.847 171.78L291.027 171.01L294.667 161.7L296.291 162.302L294.527 167.132L297.369 166.502L299.245 161.7L300.869 162.302L297.425 171.78ZM301.66 171.78L299.742 170.184L302.276 163.688L302.024 162.708C303.648 162.05 305.524 161.756 307.204 161.728L307.47 163.114L304.054 163.87L303.088 166.502C303.942 166.208 304.81 166.068 305.804 165.956L306.028 167.076L302.5 168.07L301.744 170.1L305.566 169.176L305.874 170.66L301.66 171.78ZM311.985 171.78L309.157 168.63L308.009 171.78L306.217 171.01L309.087 163.688L308.835 162.708C310.431 162.036 312.503 161.77 314.197 161.7L315.275 163.87C314.785 165.69 313.385 167.356 311.215 168.252L313.329 170.464L311.985 171.78ZM309.647 167.286C311.761 166.698 313.203 165.34 313.707 163.226L310.921 163.856L309.647 167.286Z" fill="black"/>
<path d="M22.6424 285.058L18.3864 286.794L15.9924 285.8C16.0624 281.446 18.0924 277.372 21.9004 276.7C22.7824 277.05 23.7064 277.54 24.3084 278.114L22.9924 281.978L21.4244 281.558L22.4464 278.072C19.4784 278.968 18.2604 281.81 17.9104 285.226L22.1804 283.56L22.6424 285.058ZM29.501 286.78L27.681 286.01L28.885 282.916L26.071 283.616L24.923 286.78L23.103 286.01L26.743 276.7L28.367 277.302L26.603 282.132L29.445 281.502L31.321 276.7L32.945 277.302L29.501 286.78ZM36.4805 286.29L36.7605 283.854L33.5965 284.652L32.3365 286.78L30.9505 285.8L36.4665 276.7L39.2105 277.778L38.3565 286.738L36.4805 286.29ZM34.4505 283.196L36.9145 282.65L37.3625 278.24L34.4505 283.196ZM45.0725 286.78L42.2445 283.63L41.0965 286.78L39.3045 286.01L42.1745 278.688L41.9225 277.708C43.5185 277.036 45.5905 276.77 47.2845 276.7L48.3625 278.87C47.8725 280.69 46.4725 282.356 44.3025 283.252L46.4165 285.464L45.0725 286.78ZM42.7345 282.286C44.8485 281.698 46.2905 280.34 46.7945 278.226L44.0085 278.856L42.7345 282.286ZM49.4455 286.78L47.5275 285.184L50.0615 278.688L49.8095 277.708C51.4335 277.05 53.3095 276.756 54.9895 276.728L55.2555 278.114L51.8395 278.87L50.8735 281.502C51.7275 281.208 52.5955 281.068 53.5895 280.956L53.8135 282.076L50.2855 283.07L49.5295 285.1L53.3515 284.176L53.6595 285.66L49.4455 286.78ZM60.5397 286.78L58.2857 285.87L58.2997 279.416L55.6537 286.78L53.9877 286.01L57.6277 276.7L59.6717 277.54L59.5877 284.358L62.5137 276.7L63.9837 277.302L60.5397 286.78ZM70.2173 278.982L68.2573 278.8L65.3733 286.766L63.4693 286.024L66.3533 278.646L64.1833 278.45L64.7433 276.7L70.6513 277.484L70.2173 278.982ZM70.5412 286.78L68.6232 285.184L71.1572 278.688L70.9052 277.708C72.5292 277.05 74.4052 276.756 76.0852 276.728L76.3512 278.114L72.9352 278.87L71.9692 281.502C72.8232 281.208 73.6912 281.068 74.6852 280.956L74.9092 282.076L71.3812 283.07L70.6252 285.1L74.4472 284.176L74.7552 285.66L70.5412 286.78ZM25.3038 300.78L23.6238 300.01L26.4518 292.94L21.6498 300.78L20.0818 300.01L21.0058 293.024L18.2338 300.78L16.5678 300.01L20.2078 290.7L22.5598 291.624L21.6778 298.4L26.3678 290.7L28.6078 291.596L25.3038 300.78ZM32.2422 300.29L32.5222 297.854L29.3582 298.652L28.0982 300.78L26.7122 299.8L32.2282 290.7L34.9722 291.778L34.1182 300.738L32.2422 300.29ZM30.2122 297.196L32.6762 296.65L33.1242 292.24L30.2122 297.196ZM40.8342 300.78L38.0062 297.63L36.8582 300.78L35.0662 300.01L37.9362 292.688L37.6842 291.708C39.2802 291.036 41.3522 290.77 43.0462 290.7L44.1242 292.87C43.6342 294.69 42.2342 296.356 40.0642 297.252L42.1782 299.464L40.8342 300.78ZM38.4962 296.286C40.6102 295.698 42.0522 294.34 42.5562 292.226L39.7702 292.856L38.4962 296.286ZM48.2732 291.302L44.8292 300.78L43.0092 300.01L46.6492 290.7L48.2732 291.302ZM54.5084 292.982L52.5484 292.8L49.6644 300.766L47.7604 300.024L50.6444 292.646L48.4744 292.45L49.0344 290.7L54.9424 291.484L54.5084 292.982ZM57.8982 291.302L54.4542 300.78L52.6342 300.01L56.2742 290.7L57.8982 291.302ZM65.2394 300.78L63.5594 300.01L66.3874 292.94L61.5854 300.78L60.0174 300.01L60.9414 293.024L58.1694 300.78L56.5034 300.01L60.1434 290.7L62.4954 291.624L61.6134 298.4L66.3034 290.7L68.5434 291.596L65.2394 300.78ZM69.4338 300.78L67.5158 299.184L70.0498 292.688L69.7978 291.708C71.4218 291.05 73.2978 290.756 74.9778 290.728L75.2438 292.114L71.8278 292.87L70.8618 295.502C71.7158 295.208 72.5838 295.068 73.5778 294.956L73.8018 296.076L70.2738 297.07L69.5178 299.1L73.3398 298.176L73.6478 299.66L69.4338 300.78Z" fill="black"/>
<path d="M91.6424 313.058L87.3864 314.794L84.9924 313.8C85.0624 309.446 87.0924 305.372 90.9004 304.7C91.7824 305.05 92.7064 305.54 93.3084 306.114L91.9924 309.978L90.4244 309.558L91.4464 306.072C88.4784 306.968 87.2604 309.81 86.9104 313.226L91.1804 311.56L91.6424 313.058ZM98.501 314.78L96.681 314.01L97.885 310.916L95.071 311.616L93.923 314.78L92.103 314.01L95.743 304.7L97.367 305.302L95.603 310.132L98.445 309.502L100.321 304.7L101.945 305.302L98.501 314.78ZM105.481 314.29L105.761 311.854L102.597 312.652L101.337 314.78L99.9505 313.8L105.467 304.7L108.211 305.778L107.357 314.738L105.481 314.29ZM103.451 311.196L105.915 310.65L106.363 306.24L103.451 311.196ZM114.072 314.78L111.244 311.63L110.096 314.78L108.304 314.01L111.174 306.688L110.922 305.708C112.518 305.036 114.59 304.77 116.284 304.7L117.362 306.87C116.872 308.69 115.472 310.356 113.302 311.252L115.416 313.464L114.072 314.78ZM111.734 310.286C113.848 309.698 115.29 308.34 115.794 306.226L113.008 306.856L111.734 310.286ZM118.445 314.78L116.527 313.184L119.061 306.688L118.809 305.708C120.433 305.05 122.309 304.756 123.989 304.728L124.255 306.114L120.839 306.87L119.873 309.502C120.727 309.208 121.595 309.068 122.589 308.956L122.813 310.076L119.285 311.07L118.529 313.1L122.351 312.176L122.659 313.66L118.445 314.78ZM129.54 314.78L127.286 313.87L127.3 307.416L124.654 314.78L122.988 314.01L126.628 304.7L128.672 305.54L128.588 312.358L131.514 304.7L132.984 305.302L129.54 314.78ZM139.217 306.982L137.257 306.8L134.373 314.766L132.469 314.024L135.353 306.646L133.183 306.45L133.743 304.7L139.651 305.484L139.217 306.982ZM139.541 314.78L137.623 313.184L140.157 306.688L139.905 305.708C141.529 305.05 143.405 304.756 145.085 304.728L145.351 306.114L141.935 306.87L140.969 309.502C141.823 309.208 142.691 309.068 143.685 308.956L143.909 310.076L140.381 311.07L139.625 313.1L143.447 312.176L143.755 313.66L139.541 314.78Z" fill="black"/>
</g>
<defs>
<linearGradient id="paint0_linear_1_7" x1="-40.0001" y1="421.5" x2="-0.257223" y2="196.385" gradientUnits="userSpaceOnUse">
<stop stop-opacity="0"/>
<stop offset="1" stop-opacity="0.2"/>
</linearGradient>
<linearGradient id="paint1_linear_1_7" x1="123" y1="224" x2="90.3169" y2="400.153" gradientUnits="userSpaceOnUse">
<stop stop-opacity="0.2"/>
<stop offset="1" stop-opacity="0"/>
</linearGradient>
<linearGradient id="paint2_linear_1_7" x1="216" y1="134" x2="353.5" y2="-58" gradientUnits="userSpaceOnUse">
<stop stop-opacity="0.2"/>
<stop offset="1" stop-opacity="0"/>
</linearGradient>
<linearGradient id="paint3_linear_1_7" x1="216" y1="134" x2="353.5" y2="-58" gradientUnits="userSpaceOnUse">
<stop stop-opacity="0.2"/>
<stop offset="1" stop-opacity="0"/>
</linearGradient>
<radialGradient id="paint4_radial_1_7" cx="0" cy="0" r="1" gradientUnits="userSpaceOnUse" gradientTransform="translate(158.012 160.969) scale(433.773 450.986)">
<stop stop-color="#EFD8B8"/>
<stop offset="1" stop-color="#897C69"/>
</radialGradient>
<radialGradient id="paint5_radial_1_7" cx="0" cy="0" r="1" gradientUnits="userSpaceOnUse" gradientTransform="translate(158.012 160.969) scale(433.773 450.986)">
<stop offset="0.266423" stop-color="#EFD8B8"/>
<stop offset="1" stop-color="#897C69"/>
</radialGradient>
</defs>
</svg>
