<svg width="911" height="315" viewBox="0 0 911 315" fill="none" xmlns="http://www.w3.org/2000/svg">
<path d="M466.973 314.679L466.511 314.569L237.937 260.675L18.5016 250.198L0.61499 106.449L36.5117 42.7082L160.041 0L404.058 35.1427L748.232 5.86254L891.611 73.6067L891.76 74.8611L910.875 236.23L908.756 236.601L655.023 281.103L466.973 314.679ZM22.5443 245.83L238.574 256.151L238.776 256.197L467.103 310.032L654.23 276.625L905.851 232.493L887.392 76.6615L747.406 10.5032L403.921 39.7184L160.502 4.66013L39.6119 46.4454L5.32062 107.372L22.5443 245.83Z" fill="white"/>
<path d="M77.075 198.371H101.149V163.079H157.968V142.566H101.149V123.334H160.262V102.822H77.075V198.371Z" fill="white"/>
<path d="M379.763 124.095H416.959V198.371H441.04V124.095H478.237V102.822H379.763V124.095Z" fill="white"/>
<path d="M513.906 102.822H489.832V198.371H513.906V102.822Z" fill="white"/>
<path d="M615.057 102.822L582.3 176.032L549.321 102.822H523.59L568.43 198.371H595.565L640.412 102.822H615.057Z" fill="white"/>
<path d="M656.076 102.822L611.996 198.364H637.604L646.086 179.126H697.243L705.758 198.364H731.366L687.286 102.822H656.076ZM654.633 159.77L671.622 121.248L688.677 159.77H654.633Z" fill="white"/>
<path d="M238.834 100.255C228.383 100.255 219.21 102.334 211.315 106.494C203.659 110.43 197.26 116.433 192.844 123.822C191.027 126.867 189.58 130.118 188.535 133.506H174.236V142.17H186.663C186.359 144.621 186.21 147.09 186.214 149.56C186.212 151.857 186.34 154.153 186.598 156.436H174.249V165.1H188.353C190.084 171.026 193.009 176.535 196.948 181.289C200.887 186.042 205.756 189.94 211.257 192.742C219.199 196.906 228.435 198.988 238.964 198.988C243.943 199.006 248.913 198.558 253.809 197.649C258.228 196.852 262.53 195.502 266.613 193.633V182.428C262.655 184.551 258.432 186.14 254.056 187.153C249.276 188.275 244.381 188.831 239.471 188.81C230.974 188.81 223.669 187.218 217.555 184.033C211.597 181.004 206.671 176.277 203.399 170.449C202.433 168.737 201.611 166.948 200.942 165.1H246.965V156.436H198.869C198.575 154.197 198.43 151.941 198.433 149.683C198.427 147.17 198.601 144.659 198.953 142.17H246.972V133.506H201.17C201.795 131.858 202.547 130.261 203.419 128.729C206.715 122.923 211.656 118.223 217.62 115.223C223.777 112.047 231.061 110.459 239.471 110.459C244.394 110.428 249.302 110.98 254.095 112.103C258.446 113.118 262.644 114.702 266.581 116.815V105.604C262.476 103.733 258.152 102.386 253.712 101.594C248.804 100.689 243.824 100.241 238.834 100.255Z" fill="#32D2C3"/>
<path d="M352.484 148.663C347.345 146.293 340.486 144.679 331.907 143.821L329.489 143.548V109.958C335.989 110.604 341.125 112.402 344.899 115.353C347.201 117.062 349.125 119.228 350.55 121.715C351.975 124.203 352.87 126.958 353.18 129.808H364.775C364.624 124.163 362.708 118.708 359.296 114.209C355.89 109.746 351.197 106.241 345.218 103.693C340.207 101.635 334.895 100.408 329.489 100.06V91.0838H319.935V99.9881C314.134 100.19 308.408 101.357 302.991 103.439C297.128 105.818 292.605 109.068 289.42 113.189C286.271 117.198 284.586 122.162 284.643 127.26C284.643 134.652 287.424 140.502 292.988 144.809C298.552 149.116 306.685 151.854 317.387 153.024L319.935 153.323V188.563C313.5 187.796 308.149 185.866 303.881 182.772C301.15 180.877 298.868 178.406 297.195 175.534C295.522 172.661 294.498 169.457 294.197 166.146H282.498C282.756 172.267 284.863 178.166 288.542 183.065C292.234 187.991 297.351 191.832 303.894 194.588C309.015 196.691 314.43 197.987 319.948 198.429V207.529H329.489V198.676C336.73 198.429 343.012 197.238 348.338 195.102C354.36 192.675 358.966 189.341 362.156 185.099C365.289 181.007 366.97 175.987 366.933 170.833C366.933 165.737 365.808 161.363 363.559 157.71C361.311 154.057 357.619 151.042 352.484 148.663ZM319.675 142.423C313.821 141.739 309.193 140.718 305.792 139.362C302.391 138.006 299.99 136.288 298.591 134.208C297.176 132.076 296.444 129.564 296.491 127.007C296.491 121.993 298.764 117.853 303.309 114.586C307.209 111.791 312.751 110.192 319.935 109.789V142.449L319.675 142.423ZM347.961 183.955C343.684 186.923 337.527 188.561 329.489 188.869V154.421C336.132 155.18 341.312 156.321 345.029 157.847C348.747 159.372 351.366 161.281 352.887 163.573C354.393 165.927 355.169 168.675 355.117 171.47C355.099 176.478 352.714 180.64 347.961 183.955Z" fill="#32D2C3"/>
<path d="M762.212 189.473C764.416 188.454 766.535 187.26 768.549 185.905C771.661 183.86 774.291 181.164 776.258 178.002C778.015 175.125 778.941 171.818 778.935 168.447C778.973 165.731 778.36 163.046 777.148 160.615C776.719 159.77 776.238 158.945 775.731 158.133H810.906V149.215H768.855C768.361 148.598 767.867 147.993 767.373 147.369C765.581 145.104 764.083 142.621 762.914 139.98C761.667 137.018 761.058 133.827 761.127 130.614C761.055 127.947 761.646 125.304 762.847 122.921C764.049 120.539 765.823 118.493 768.01 116.965C772.59 113.568 778.747 111.869 786.481 111.869C793.358 111.869 799.09 113.397 803.679 116.451C805.847 117.816 807.704 119.62 809.13 121.747C810.557 123.874 811.52 126.277 811.959 128.8H824.191C823.943 123.609 822.046 118.633 818.777 114.593C815.51 110.563 811.071 107.421 805.46 105.168C799.849 102.915 793.438 101.789 786.228 101.789C778.922 101.789 772.488 102.978 766.924 105.357C761.361 107.736 757.008 111.026 753.867 115.229C750.712 119.478 749.055 124.653 749.155 129.944C749.066 133.825 749.692 137.69 751.001 141.344C752.058 144.124 753.464 146.758 755.186 149.183H740.491V158.1H762.303C763.471 159.59 764.527 161.165 765.462 162.812C766.667 165 767.281 167.464 767.243 169.962C767.243 174.039 765.014 177.796 760.555 181.232C756.096 184.668 749.365 187.45 740.361 189.577V199.008H825.465V189.454L762.212 189.473Z" fill="#32D2C3"/>
</svg>
