<svg width="309" height="327" viewBox="0 0 309 327" fill="none" xmlns="http://www.w3.org/2000/svg">
<rect x="1" y="1" width="307" height="325" rx="19" stroke="#FF0023" stroke-width="2"/>
<path d="M25.688 29.768H25.448L23.576 41H20.48L23.264 24.248H27.536L29.48 35.48H29.72L31.592 24.248H34.688L31.904 41H27.632L25.688 29.768ZM43.9906 41L43.5826 36.944H38.8786L37.2226 41H33.5026L40.8706 24.248H45.8146L47.6386 41H43.9906ZM42.9346 27.728H42.7186L40.0786 34.064H43.4386L42.9346 27.728ZM54.4693 29.768H54.2293L52.3573 41H49.2613L52.0453 24.248H56.3173L58.2613 35.48H58.5013L60.3733 24.248H63.4693L60.6853 41H56.4133L54.4693 29.768ZM73.4199 27.176L71.1159 41H67.5639L69.8679 27.176H65.0199L65.4999 24.248H78.7479L78.2679 27.176H73.4199ZM78.4745 41L81.2825 24.248H91.9865L91.5065 27.176H84.3065L83.6585 31.064H90.5225L90.0425 33.992H83.1545L82.4825 38.072H89.6585L89.1785 41H78.4745ZM98.3851 41.288C96.9931 41.288 95.7451 41.064 94.6411 40.616C93.5531 40.168 92.7531 39.536 92.2411 38.72L94.4731 36.464C94.9691 37.104 95.5931 37.584 96.3451 37.904C97.0971 38.208 97.8491 38.36 98.6011 38.36C99.5131 38.36 100.201 38.144 100.665 37.712C101.145 37.264 101.385 36.656 101.385 35.888C101.385 35.328 101.225 34.92 100.905 34.664C100.601 34.392 100.113 34.176 99.4411 34.016L97.7851 33.632C96.5691 33.36 95.6811 32.856 95.1211 32.12C94.5771 31.368 94.3051 30.472 94.3051 29.432C94.3051 28.6 94.4491 27.848 94.7371 27.176C95.0411 26.504 95.4731 25.928 96.0331 25.448C96.5931 24.968 97.2731 24.6 98.0731 24.344C98.8731 24.088 99.7691 23.96 100.761 23.96C101.961 23.96 103.049 24.168 104.025 24.584C105.001 25 105.729 25.576 106.209 26.312L103.881 28.448C103.513 27.936 103.049 27.544 102.489 27.272C101.945 26.984 101.313 26.84 100.593 26.84C99.7131 26.84 99.0571 27.04 98.6251 27.44C98.1931 27.84 97.9771 28.376 97.9771 29.048C97.9771 29.528 98.1211 29.896 98.4091 30.152C98.7131 30.408 99.2411 30.632 99.9931 30.824L101.577 31.232C103.913 31.824 105.081 33.24 105.081 35.48C105.081 36.344 104.929 37.136 104.625 37.856C104.337 38.56 103.905 39.168 103.329 39.68C102.753 40.192 102.049 40.592 101.217 40.88C100.385 41.152 99.4411 41.288 98.3851 41.288Z" fill="#FF0023"/>
<g clip-path="url(#clip0_194_30)">
<path d="M147.049 261.541C146.892 261.541 146.734 261.531 146.577 261.514L101.74 256.573C100.189 256.402 98.8904 255.446 98.2649 254.017C97.6394 252.588 97.8191 250.985 98.7449 249.729L108.204 236.908C108.847 236.039 109.785 235.445 110.846 235.237L121.459 233.167C122.087 233.044 122.748 233.064 123.37 233.228L143.103 238.376C143.562 238.495 144.045 238.479 144.497 238.327L169.458 229.932C170.001 229.749 170.567 229.679 171.134 229.718L184.738 230.677C185.217 230.711 185.688 230.605 186.106 230.371L195.382 225.156C196.553 224.497 197.942 224.783 198.759 225.849C199.576 226.915 199.491 228.331 198.552 229.291L183.982 244.191C183.625 244.556 183.21 244.851 182.749 245.071L148.893 261.125C148.314 261.399 147.684 261.541 147.048 261.541H147.049ZM99.496 250.283L100.246 250.837C99.7211 251.549 99.6191 252.457 99.9742 253.268C100.329 254.079 101.065 254.621 101.944 254.717L146.78 259.659C147.231 259.708 147.685 259.632 148.094 259.439L181.949 243.385C182.211 243.261 182.447 243.092 182.649 242.886L197.219 227.986C197.649 227.546 197.374 227.108 197.279 226.985C197.184 226.861 196.832 226.482 196.296 226.783L187.02 231.997C186.284 232.412 185.452 232.599 184.607 232.539L171.003 231.579C170.682 231.556 170.361 231.596 170.052 231.7L145.091 240.095C144.296 240.363 143.445 240.393 142.631 240.181L122.9 235.033C122.547 234.941 122.173 234.929 121.816 234.999L111.203 237.069C110.601 237.186 110.069 237.522 109.705 238.016L100.245 250.836L99.4948 250.282L99.496 250.283Z" fill="#FF0023"/>
<path d="M218.891 225.563C217.962 225.563 217.148 225 216.818 224.076C216.429 222.989 216.874 221.861 217.9 221.334L237.089 211.455C237.777 211.101 238.515 210.866 239.281 210.756L260.873 207.657C261.905 207.506 262.872 208.06 263.264 209.034C263.656 210.006 263.349 211.072 262.498 211.686L247.64 222.404C246.325 223.353 244.704 223.815 243.089 223.699L232.283 222.936C231.804 222.905 231.322 222.937 230.855 223.038L219.394 225.509C219.225 225.546 219.055 225.563 218.891 225.563ZM261.207 209.499C261.185 209.499 261.162 209.501 261.138 209.504L239.546 212.603C238.986 212.684 238.446 212.856 237.943 213.115L218.754 222.993C218.515 223.116 218.524 223.308 218.574 223.447C218.625 223.587 218.738 223.738 219.001 223.685L230.462 221.213C231.101 221.075 231.756 221.028 232.414 221.074L243.221 221.837C244.401 221.921 245.587 221.584 246.55 220.89L261.409 210.172C261.614 210.024 261.577 209.833 261.535 209.732C261.499 209.642 261.409 209.499 261.208 209.499H261.207Z" fill="#FF0023"/>
<path d="M170.17 227.357C169.502 227.357 168.838 227.179 168.253 226.831L151.603 216.944C150.759 216.443 150.153 215.646 149.897 214.699L144.365 194.357C143.999 193.013 144.402 191.586 145.416 190.632L152.355 184.112C152.734 183.756 152.952 183.254 152.952 182.734V177.985C152.952 175.914 154.636 174.228 156.706 174.228H165.147C165.297 174.228 165.446 174.265 165.58 174.335L188.105 186.152C188.235 186.22 188.347 186.318 188.431 186.437L205.959 211.034C206.664 212.024 206.848 213.252 206.463 214.405C206.079 215.558 205.194 216.429 204.036 216.796L171.304 227.181C170.934 227.299 170.551 227.357 170.17 227.357ZM156.706 176.094C155.664 176.094 154.816 176.942 154.816 177.985V182.734C154.816 183.767 154.385 184.765 153.632 185.472L146.694 191.992C146.183 192.472 145.98 193.19 146.164 193.867L151.696 214.21C151.825 214.687 152.13 215.087 152.554 215.339L169.204 225.226C169.666 225.5 170.225 225.564 170.74 225.402L203.472 215.017C204.055 214.832 204.499 214.394 204.693 213.813C204.887 213.233 204.795 212.615 204.44 212.117L187.042 187.701L164.917 176.094H156.706L156.706 176.094Z" fill="#FF0023"/>
<path d="M209.097 215.515C207.708 215.515 206.38 214.84 205.566 213.699L187.382 188.18C187.159 187.867 186.861 187.607 186.521 187.429L175.701 181.752C175.462 181.627 175.289 181.404 175.227 181.142C175.164 180.879 175.219 180.603 175.375 180.383L202.732 142.183C203.059 141.725 203.469 141.341 203.945 141.039L241.171 117.61C242.308 116.893 243.685 116.745 244.949 117.203C246.213 117.661 247.177 118.657 247.593 119.936L255.399 143.963C255.488 144.235 255.622 144.488 255.798 144.714L261.117 151.556C261.82 152.46 262.134 153.584 261.999 154.721L260.423 168.123C260.362 168.646 260.466 169.164 260.724 169.622L270.442 186.856C271.038 187.912 271.163 189.179 270.786 190.332C270.409 191.484 269.558 192.431 268.454 192.93L221.275 214.246C220.826 214.448 220.351 214.572 219.861 214.614L209.459 215.5C209.338 215.51 209.217 215.515 209.097 215.515H209.097ZM177.517 180.598L187.387 185.775C187.984 186.088 188.508 186.545 188.901 187.095L207.086 212.615C207.589 213.321 208.442 213.717 209.301 213.639L219.702 212.754C219.981 212.73 220.252 212.66 220.507 212.544L267.687 191.228C268.324 190.94 268.795 190.415 269.014 189.75C269.232 189.085 269.162 188.382 268.818 187.772L259.1 170.538C258.646 169.732 258.464 168.821 258.572 167.904L260.148 154.501C260.224 153.854 260.045 153.215 259.645 152.7L254.326 145.858C254.017 145.46 253.782 145.017 253.626 144.539L245.819 120.512C245.582 119.784 245.034 119.217 244.315 118.957C243.595 118.696 242.812 118.78 242.165 119.188L204.939 142.618C204.667 142.789 204.435 143.008 204.249 143.268L177.517 180.597V180.598Z" fill="#FF0023"/>
<path d="M176.133 181.859C175.987 181.859 175.838 181.824 175.701 181.752L165.589 176.447C165.149 176.216 164.653 176.094 164.156 176.094H157.901C155.171 176.094 152.95 173.873 152.95 171.142V167.157C152.95 165.516 153.759 163.986 155.113 163.063L159.057 160.376C159.597 160.008 160.001 159.488 160.222 158.873L169.782 132.389C169.902 132.058 170.057 131.74 170.242 131.444L179.422 116.766C179.789 116.18 179.949 115.478 179.873 114.791L178.266 100.179C178.116 98.8134 178.546 97.4344 179.445 96.3962L193.498 80.1548C193.671 79.9557 193.818 79.7343 193.934 79.4961L199.931 67.2878C200.35 66.4356 200.35 65.418 199.931 64.5658L190.584 45.5309C190.02 44.3808 189.921 43.0739 190.309 41.8517L192.65 34.4572C193.366 32.193 195.591 30.7524 197.955 31.0355L219.428 33.5932C220.141 33.6778 220.869 33.5092 221.474 33.1161C223.039 32.0979 225.018 32.0425 226.639 32.9743C228.258 33.9054 229.208 35.6433 229.117 37.51L227.199 76.8295C227.178 77.2661 227.248 77.6941 227.406 78.1009L235.142 97.9531C235.838 99.7377 235.433 101.786 234.111 103.172L229.29 108.225C228.528 109.024 228.249 110.176 228.563 111.234L231.624 121.549C232.254 123.67 231.386 125.973 229.515 127.151L205.042 142.553C204.702 142.767 204.411 143.042 204.177 143.368L176.892 181.469C176.711 181.721 176.426 181.859 176.133 181.859ZM197.369 32.8667C196.04 32.8667 194.838 33.7282 194.429 35.0207L192.087 42.4159C191.846 43.1778 191.907 43.992 192.259 44.7086L201.606 63.7435C202.277 65.1113 202.276 66.7441 201.604 68.1113L195.609 80.319C195.42 80.7015 195.185 81.0573 194.907 81.377L180.854 97.6179C180.295 98.2647 180.027 99.1244 180.12 99.9759L181.727 114.587C181.848 115.69 181.591 116.815 181.003 117.756L171.823 132.433C171.707 132.619 171.611 132.817 171.536 133.023L161.977 159.506C161.621 160.492 160.975 161.327 160.107 161.917L156.163 164.605C155.319 165.18 154.815 166.133 154.815 167.155V171.141C154.815 172.843 156.199 174.227 157.9 174.227H164.156C164.953 174.227 165.748 174.422 166.454 174.794L175.847 179.721L202.66 142.281C203.035 141.757 203.502 141.317 204.047 140.973L228.52 125.57C229.686 124.836 230.227 123.4 229.835 122.079L226.774 111.764C226.27 110.067 226.716 108.216 227.938 106.936L232.76 101.882C233.583 101.019 233.836 99.7427 233.403 98.6299L225.667 78.777C225.412 78.1239 225.3 77.4378 225.335 76.7368L227.252 37.4173C227.31 36.2368 226.732 35.1799 225.708 34.5909C224.684 34.0019 223.48 34.0348 222.489 34.6792C221.519 35.3099 220.35 35.5824 219.205 35.4443L197.733 32.8866C197.61 32.8723 197.488 32.8648 197.367 32.8648L197.369 32.8667Z" fill="#FF0023"/>
<path d="M144.569 235.306C144.323 235.306 144.077 235.28 143.832 235.229L123.305 230.905C123.091 230.86 122.874 230.857 122.657 230.895L114.656 232.321C112.992 232.618 111.336 231.692 110.717 230.118L106.086 218.339C105.987 218.089 106.002 217.808 106.125 217.569C106.248 217.33 106.469 217.157 106.729 217.091L119.724 213.87L129.475 207.062C129.632 206.953 129.818 206.894 130.009 206.894H140.436C142.408 206.894 144.216 208.052 145.042 209.846L149.316 219.126C149.44 219.398 149.635 219.631 149.878 219.803L156.749 224.648C157.827 225.408 158.383 226.645 158.237 227.956C158.09 229.266 157.275 230.35 156.056 230.853L145.925 235.035C145.492 235.214 145.032 235.306 144.569 235.306ZM122.956 229.002C123.202 229.002 123.446 229.028 123.689 229.079L144.216 233.403C144.553 233.472 144.897 233.441 145.213 233.311L155.344 229.128C155.925 228.889 156.313 228.372 156.383 227.748C156.452 227.124 156.188 226.535 155.674 226.173L148.803 221.328C148.292 220.967 147.882 220.475 147.621 219.906L143.347 210.626C142.826 209.493 141.682 208.76 140.435 208.76H130.301L120.649 215.499C120.556 215.564 120.451 215.612 120.34 215.64L108.21 218.646L112.452 229.436C112.747 230.185 113.532 230.626 114.328 230.485L122.33 229.058C122.538 229.021 122.746 229.003 122.955 229.003L122.956 229.002Z" fill="#FF0023"/>
<path d="M98.1351 244.397C97.5227 244.397 96.9059 244.22 96.3705 243.852L77.9726 231.243L68.8264 231.975C68.7587 231.98 68.6921 231.978 68.6262 231.969L40.3771 228.115C39.2542 227.962 38.3284 227.244 37.8993 226.194C37.471 225.145 37.6289 223.983 38.3234 223.088L49.2534 208.972C49.3964 208.787 49.4859 208.567 49.512 208.335L51.2424 192.756C51.3307 191.96 51.7155 191.234 52.3261 190.715L59.7325 184.409C60.4774 183.775 61.4927 183.523 62.4478 183.736L75.7796 186.72C75.8716 186.741 75.9605 186.776 76.042 186.823L99.0503 200.11C99.2107 200.202 99.3401 200.341 99.4215 200.508L107.792 217.587C107.804 217.61 107.813 217.633 107.823 217.656L112.421 229.351C112.732 230.141 112.712 231.003 112.367 231.777C112.02 232.552 111.392 233.142 110.596 233.438L107.85 234.459C107.635 234.538 107.445 234.676 107.302 234.855L100.589 243.229C99.9755 243.994 99.0609 244.398 98.137 244.398L98.1351 244.397ZM78.2275 229.354C78.4153 229.354 78.5987 229.41 78.7547 229.517L97.425 242.314C97.9703 242.688 98.7202 242.576 99.1324 242.061L105.845 233.687C106.2 233.244 106.668 232.906 107.2 232.709L109.945 231.688C110.268 231.569 110.522 231.33 110.662 231.016C110.802 230.702 110.81 230.354 110.684 230.034L106.1 218.374L97.8708 201.584L75.2318 188.51L62.0399 185.557C61.6532 185.471 61.2428 185.573 60.9406 185.83L53.5348 192.135C53.288 192.345 53.1319 192.639 53.0958 192.962L51.3655 208.541C51.3021 209.114 51.0813 209.658 50.7282 210.114L39.7982 224.23C39.5172 224.593 39.4531 225.063 39.6266 225.487C39.8001 225.912 40.175 226.203 40.6295 226.265L68.7786 230.106L78.1535 229.356C78.1784 229.354 78.2032 229.353 78.2281 229.353L78.2275 229.354Z" fill="#FF0023"/>
<path d="M106.953 218.93C106.603 218.93 106.275 218.734 106.116 218.408L97.8701 201.583L80.4086 191.499C80.0734 191.305 79.8925 190.924 79.954 190.542C80.0156 190.16 80.3072 189.855 80.6865 189.777L104.666 184.823L126.083 173.66L129.126 164.73C129.149 164.662 129.18 164.598 129.218 164.537L135.241 154.889C135.411 154.616 135.71 154.45 136.031 154.45H145.937C148.593 154.45 150.835 156.525 151.041 159.175L151.957 170.96C152.014 171.684 151.918 172.398 151.673 173.084L148.678 181.443C148.521 181.881 148.306 182.295 148.037 182.674L141.064 192.532C140.498 193.333 140.323 194.334 140.584 195.28L143.155 204.575C143.432 205.578 143.23 206.629 142.6 207.457C141.97 208.286 141.011 208.761 139.971 208.761H130.303L120.651 215.5C120.558 215.564 120.453 215.613 120.341 215.64L107.179 218.903C107.105 218.921 107.029 218.931 106.955 218.931L106.953 218.93ZM83.4639 191.109L99.049 200.11C99.2094 200.202 99.3387 200.341 99.4202 200.507L107.46 216.91L119.724 213.87L129.476 207.062C129.632 206.953 129.819 206.894 130.009 206.894H139.97C140.424 206.894 140.841 206.687 141.116 206.326C141.389 205.966 141.477 205.509 141.357 205.072L138.786 195.777C138.375 194.29 138.65 192.714 139.541 191.454L146.515 181.595C146.686 181.354 146.823 181.091 146.922 180.813L149.917 172.454C150.073 172.019 150.134 171.564 150.098 171.104L149.182 159.319C149.051 157.634 147.625 156.316 145.937 156.316H136.549L130.857 165.433L127.728 174.616C127.651 174.842 127.489 175.031 127.276 175.142L105.413 186.537C105.336 186.577 105.255 186.606 105.17 186.624L83.4639 191.109Z" fill="#FF0023"/>
<path d="M59.1742 271.862C58.9603 271.862 58.7452 271.841 58.5319 271.796L28.5742 265.555C27.6285 265.359 26.8127 264.721 26.3918 263.851L20.3134 251.284C19.8191 250.262 19.9161 249.049 20.5671 248.119L35.1916 227.24C35.8681 226.274 37.0158 225.774 38.1816 225.932L68.7786 230.108L78.1535 229.358C78.3668 229.342 78.5788 229.397 78.7548 229.518L97.098 242.09C97.828 242.591 98.3148 243.381 98.4329 244.259C98.5505 245.136 98.2906 246.028 97.7179 246.704L86.482 259.976C86.0002 260.545 85.3293 260.925 84.5925 261.044L75.1355 262.583C74.9682 262.61 74.8116 262.67 74.6685 262.759L60.8287 271.388C60.3263 271.701 59.7556 271.864 59.1742 271.864V271.862ZM37.7557 227.769C37.3447 227.769 36.9586 227.967 36.7186 228.309L22.0948 249.188C21.8311 249.564 21.7914 250.056 21.9916 250.469L28.0699 263.038C28.2403 263.39 28.5704 263.647 28.9528 263.727L58.9106 269.968C59.232 270.035 59.5622 269.977 59.8407 269.803L73.6799 261.173C74.0331 260.953 74.4217 260.806 74.8352 260.739L84.2922 259.201C84.5906 259.152 84.8623 258.999 85.057 258.768L96.2928 245.496C96.5279 245.218 96.6304 244.866 96.5819 244.506C96.5334 244.145 96.3413 243.834 96.0416 243.628L77.9707 231.242L68.8246 231.974C68.7568 231.979 68.6903 231.977 68.6244 231.969L37.9273 227.78C37.8695 227.772 37.8111 227.768 37.7539 227.768L37.7557 227.769Z" fill="#FF0023"/>
<path d="M80.8742 191.624C80.7113 191.624 80.5503 191.582 80.4079 191.499L75.2311 188.51L64.7003 186.153C63.5929 185.905 62.7305 185.111 62.3923 184.026C62.0547 182.943 62.3127 181.798 63.0831 180.964L65.3475 178.514C65.8039 178.02 66.394 177.692 67.0543 177.565L78.4133 175.365C78.8877 175.274 79.2632 174.927 79.3938 174.462L82.3198 164.041C82.4317 163.644 82.3428 163.215 82.0817 162.895L79.8415 160.148C79.2906 159.473 79.045 158.591 79.1662 157.728C79.2875 156.865 79.7675 156.086 80.4831 155.59L96.9766 144.14C97.9192 143.486 99.1428 143.399 100.169 143.914L112.671 150.187L136.197 154.466C136.501 154.521 136.758 154.723 136.884 155.006C137.009 155.289 136.985 155.615 136.822 155.878L130.856 165.434L127.727 174.616C127.649 174.843 127.488 175.032 127.275 175.143L105.411 186.538C105.335 186.578 105.254 186.607 105.169 186.624L81.0626 191.605C81.0004 191.618 80.937 191.624 80.8742 191.624ZM98.7636 145.446C98.5093 145.446 98.2568 145.523 98.0404 145.673L81.5469 157.122C81.2529 157.326 81.0638 157.634 81.0141 157.988C80.9644 158.343 81.0613 158.69 81.2877 158.968L83.5279 161.715C84.1727 162.506 84.3928 163.564 84.1167 164.545L81.1907 174.966C80.868 176.116 79.9397 176.97 78.7683 177.197L67.4081 179.397C67.1444 179.448 66.8995 179.584 66.7173 179.78L64.4528 182.23C64.1413 182.568 64.0362 183.031 64.173 183.47C64.3098 183.909 64.6592 184.231 65.1075 184.331L75.7776 186.719C75.8696 186.74 75.9585 186.774 76.04 186.822L81.0328 189.705L104.665 184.823L126.082 173.66L129.125 164.73C129.148 164.662 129.179 164.597 129.216 164.536L134.511 156.055L112.205 151.999C112.118 151.983 112.033 151.955 111.954 151.915L99.3318 145.581C99.1515 145.491 98.9569 145.446 98.7623 145.446L98.7636 145.446Z" fill="#FF0023"/>
<path d="M148.209 156.316H136.031C135.975 156.316 135.919 156.311 135.864 156.301L112.206 151.999C112.118 151.983 112.034 151.955 111.955 151.915L99.7013 145.766C98.413 145.119 97.7328 143.685 98.0474 142.279L102.162 123.864C102.323 123.147 102.171 122.392 101.747 121.791L80.9906 92.4197C80.7879 92.1335 80.6187 91.8225 80.4882 91.4947L74.8892 77.4421C74.2674 75.8803 74.5435 74.1815 75.6291 72.8983C76.7153 71.6151 78.3425 71.0609 79.9864 71.4161L121.735 80.4527C122.598 80.6399 123.379 81.0728 123.994 81.7061L143.214 101.471C143.746 102.019 144.132 102.698 144.328 103.436L148.087 117.515C148.362 118.546 149.223 119.296 150.28 119.429L163.784 121.123C165.401 121.325 166.738 122.345 167.36 123.853C167.981 125.36 167.754 127.026 166.752 128.311L166.293 128.899C166.137 129.099 166.011 129.321 165.918 129.558L159.992 144.783C159.801 145.272 159.531 145.718 159.187 146.11L151.567 154.795C150.719 155.762 149.495 156.316 148.209 156.316ZM136.115 154.45H148.209C148.958 154.45 149.672 154.127 150.166 153.563L157.786 144.879C157.986 144.651 158.144 144.39 158.255 144.105L164.181 128.88C164.339 128.475 164.555 128.095 164.822 127.752L165.281 127.163C165.865 126.414 165.998 125.443 165.635 124.565C165.273 123.687 164.494 123.092 163.551 122.974L150.047 121.281C148.234 121.053 146.756 119.764 146.284 117.998L142.525 103.917C142.41 103.487 142.186 103.091 141.876 102.772L122.656 83.0067C122.297 82.6378 121.842 82.3853 121.339 82.2764L79.5904 73.2398C78.6347 73.0314 77.684 73.3549 77.0517 74.1032C76.4187 74.8508 76.2577 75.8405 76.6208 76.7505L82.2198 90.803C82.2956 90.994 82.3939 91.175 82.512 91.3417L103.269 120.714C103.996 121.744 104.256 123.04 103.981 124.271L99.8666 142.685C99.7392 143.255 100.015 143.835 100.536 144.097L112.671 150.186L136.115 154.45L136.115 154.45Z" fill="#FF0023"/>
<path d="M198.825 307C198.741 307 198.658 306.996 198.575 306.989L177.766 305.272C176.898 305.201 176.096 304.763 175.568 304.069L147.531 267.34C146.818 266.405 146.695 265.168 147.212 264.111C147.728 263.055 148.78 262.392 149.954 262.382L158.748 262.302C158.947 262.3 159.145 262.249 159.319 262.154L180.449 250.644C181.208 250.231 182.111 250.156 182.927 250.436C183.744 250.717 184.41 251.333 184.753 252.125L186.278 255.638C186.632 256.457 186.616 257.387 186.234 258.192L184.522 261.793C184.339 262.179 184.365 262.607 184.592 262.969C184.821 263.33 185.196 263.537 185.623 263.537H188.245C189.945 263.537 191.329 264.921 191.329 266.622V270.372C191.329 271.018 191.131 271.638 190.755 272.165L188.975 274.66C188.605 275.179 188.7 275.902 189.192 276.308L199.917 285.162C200.099 285.313 200.319 285.407 200.554 285.433L208.274 286.317C209.488 286.456 210.507 287.3 210.869 288.469L211.397 290.173C211.656 291.007 211.548 291.916 211.101 292.667C210.653 293.417 209.906 293.945 209.049 294.113L203.055 295.297C202.489 295.409 202.084 295.891 202.073 296.468L201.911 303.979C201.893 304.827 201.521 305.638 200.891 306.206C200.325 306.716 199.583 306.999 198.825 306.999L198.825 307ZM181.921 252.133C181.722 252.133 181.523 252.184 181.341 252.283L160.211 263.793C159.769 264.034 159.268 264.164 158.764 264.169L149.971 264.249C149.5 264.253 149.095 264.508 148.887 264.932C148.68 265.357 148.727 265.833 149.013 266.209L177.05 302.938C177.259 303.212 177.576 303.385 177.918 303.413L198.727 305.131C199.066 305.161 199.39 305.049 199.643 304.822C199.896 304.594 200.039 304.282 200.046 303.942L200.207 296.43C200.239 294.97 201.261 293.752 202.693 293.469L208.688 292.284C209.031 292.217 209.319 292.014 209.498 291.713C209.678 291.412 209.719 291.062 209.615 290.727L209.087 289.024C208.944 288.562 208.541 288.228 208.062 288.173L200.341 287.29C199.747 287.222 199.189 286.985 198.729 286.603L188.004 277.75C186.76 276.723 186.519 274.89 187.457 273.577L189.236 271.083C189.385 270.875 189.463 270.63 189.463 270.374V266.624C189.463 265.951 188.916 265.405 188.244 265.405H185.622C184.558 265.405 183.583 264.867 183.015 263.966C182.447 263.067 182.38 261.956 182.837 260.994L184.549 257.392C184.7 257.074 184.707 256.706 184.566 256.383L183.042 252.87C182.904 252.552 182.648 252.315 182.32 252.202C182.189 252.158 182.054 252.135 181.921 252.135L181.921 252.133Z" fill="#FF0023"/>
</g>
<defs>
<clipPath id="clip0_194_30">
<rect width="251" height="276" fill="white" transform="translate(20 31)"/>
</clipPath>
</defs>
</svg>
