<svg width="408" height="60" viewBox="0 0 408 60" fill="none" xmlns="http://www.w3.org/2000/svg"><script xmlns=""/>
<path d="M112.217 59.5417V35.7929L103.612 53.0522H98.6982L90.0937 35.7929V59.5291H80.9368V19.8892H90.8782L101.159 40.6004L111.489 19.8892H121.374V59.5417H112.217Z" fill="#0D233D"/>
<path d="M170.675 59.5415V19.889H185.474C188.416 19.8264 191.34 20.3579 194.072 21.4517C196.387 22.3856 198.472 23.81 200.184 25.627C201.896 27.4439 203.194 29.6102 203.988 31.9768C204.838 34.448 205.263 37.0455 205.244 39.6588C205.28 42.4406 204.808 45.2056 203.85 47.8177C202.981 50.1699 201.621 52.3096 199.859 54.0938C198.071 55.8579 195.933 57.2264 193.583 58.1106C190.987 59.0905 188.229 59.5738 185.455 59.5352L170.675 59.5415ZM195.917 39.6588C195.937 38.0401 195.702 36.4284 195.221 34.8826C194.792 33.5218 194.099 32.2592 193.181 31.1672C192.284 30.1224 191.156 29.3015 189.886 28.7697C188.494 28.1944 186.999 27.9082 185.493 27.9287H179.844V51.483H185.493C187.026 51.5142 188.548 51.2145 189.955 50.6043C191.226 50.034 192.346 49.1742 193.225 48.0939C194.127 46.9777 194.809 45.6996 195.233 44.3282C195.702 42.8167 195.933 41.2413 195.917 39.6588Z" fill="#0D233D"/>
<path d="M209.41 59.5417V19.8892H218.573V59.5417H209.41Z" fill="#0D233D"/>
<path d="M236.477 19.8892H244.743L259.209 59.5417H249.795L246.726 50.661H234.412L231.375 59.5417H222.011L236.477 19.8892ZM245.264 44.366L240.632 30.3452L235.881 44.366H245.264Z" fill="#0D233D"/>
<path d="M257.346 39.3828C257.355 36.9462 257.81 34.5319 258.689 32.2594C259.57 29.9134 260.898 27.7607 262.599 25.9205C264.373 24.0139 266.506 22.4761 268.875 21.3954C271.505 20.2047 274.367 19.613 277.254 19.6632C280.641 19.5778 283.989 20.4083 286.944 22.067C289.544 23.5285 291.668 25.7072 293.063 28.3431L285.977 33.2385C285.582 32.2714 285.005 31.3894 284.277 30.6402C283.613 29.9697 282.851 29.4046 282.017 28.9644C281.228 28.5465 280.383 28.2462 279.507 28.0732C278.68 27.9077 277.839 27.8236 276.996 27.8222C275.404 27.7824 273.828 28.1474 272.415 28.8828C271.151 29.5521 270.047 30.4854 269.176 31.6192C268.317 32.7448 267.678 34.0224 267.293 35.3849C266.883 36.7812 266.671 38.2286 266.666 39.684C266.662 41.2218 266.908 42.75 267.394 44.2091C267.85 45.6116 268.56 46.9179 269.49 48.0627C270.388 49.1705 271.511 50.0753 272.785 50.7175C274.128 51.3813 275.611 51.7148 277.109 51.6903C277.955 51.6848 278.798 51.5816 279.62 51.3827C280.496 51.1819 281.34 50.8631 282.13 50.435C282.948 49.9952 283.691 49.4297 284.333 48.7593C285.032 48.0365 285.582 47.1836 285.952 46.2489L293.44 50.6421C292.833 52.1143 291.929 53.4454 290.785 54.5522C289.592 55.7223 288.227 56.7024 286.737 57.458C285.196 58.2484 283.565 58.849 281.879 59.2467C280.236 59.6512 278.551 59.8619 276.858 59.8743C274.124 59.9035 271.419 59.2999 268.957 58.1107C266.603 56.9793 264.496 55.3947 262.756 53.4476C261.023 51.5154 259.659 49.2818 258.733 46.8576C257.811 44.4735 257.341 41.9388 257.346 39.3828Z" fill="#0D233D"/>
<path d="M298.687 59.5417V19.8892H307.85V59.5417H298.687Z" fill="#0D233D"/>
<path d="M371.867 51.4832V59.5229H344.001V19.8892H371.365V27.9289H353.164V35.6359H368.823V43.0669H353.133V51.4832H371.867Z" fill="#0D233D"/>
<path d="M402.646 31.5063C402.294 31.1753 401.899 30.8925 401.472 30.6653C400.663 30.1935 399.825 29.7743 398.962 29.4101C397.895 28.9366 396.793 28.5443 395.667 28.2365C394.504 27.9037 393.3 27.7347 392.09 27.7344C388.813 27.7344 387.175 28.8327 387.175 31.0293C387.152 31.633 387.341 32.2257 387.709 32.7051C388.138 33.2122 388.671 33.621 389.272 33.9038C390.104 34.3127 390.974 34.6406 391.87 34.8829C392.912 35.1779 394.123 35.5105 395.497 35.8871C397.241 36.3576 398.957 36.9254 400.638 37.5879C402.049 38.135 403.361 38.9088 404.523 39.8787C405.58 40.7894 406.418 41.9262 406.977 43.205C407.589 44.6904 407.884 46.2873 407.843 47.8933C407.899 49.8511 407.468 51.7922 406.587 53.5418C405.797 55.0456 404.656 56.3371 403.261 57.3075C401.822 58.2847 400.213 58.9849 398.516 59.3723C396.704 59.7974 394.848 60.008 392.987 59.9999C391.491 59.9969 389.998 59.8836 388.518 59.661C387.007 59.4454 385.513 59.1182 384.05 58.6819C382.613 58.262 381.204 57.7505 379.832 57.1506C378.516 56.5774 377.256 55.8841 376.067 55.0794L380.09 47.0962C380.531 47.5039 381.017 47.8598 381.539 48.1569C382.514 48.7564 383.534 49.2789 384.59 49.7196C385.905 50.278 387.258 50.7456 388.638 51.1192C390.111 51.5308 391.633 51.7419 393.163 51.7468C396.401 51.7468 398.021 50.7615 398.021 48.7908C398.031 48.4499 397.972 48.1105 397.846 47.7932C397.721 47.476 397.533 47.1876 397.292 46.9456C396.706 46.3933 396.026 45.9492 395.284 45.6339C394.297 45.1979 393.28 44.833 392.24 44.5418C391.069 44.2113 389.792 43.8389 388.412 43.4247C386.785 42.9443 385.199 42.3378 383.667 41.6109C382.444 41.0414 381.321 40.2785 380.341 39.3515C379.483 38.517 378.817 37.5062 378.389 36.3892C377.94 35.1358 377.727 33.8101 377.761 32.4791C377.725 30.5706 378.127 28.6792 378.935 26.9499C379.69 25.3863 380.776 24.0051 382.117 22.9018C383.498 21.7732 385.083 20.9208 386.786 20.3913C388.602 19.8238 390.495 19.5401 392.397 19.5503C393.767 19.5497 395.133 19.6822 396.477 19.9457C397.782 20.1965 399.069 20.532 400.33 20.9499C401.504 21.3368 402.651 21.8023 403.763 22.3432C404.822 22.8704 405.799 23.3934 406.694 23.9122L402.646 31.5063Z" fill="#0D233D"/>
<path d="M154.217 57.8908C151.613 59.0492 148.802 59.6703 145.952 59.7171C143.406 59.7638 140.878 59.2915 138.522 58.329C136.165 57.3665 134.029 55.934 132.245 54.1188C130.427 52.2957 128.978 50.1391 127.977 47.7674C126.926 45.3556 126.33 42.7703 126.22 40.1419C126.113 37.6161 126.519 35.0949 127.412 32.7298C128.347 30.2993 129.767 28.0848 131.586 26.2215C133.609 24.1577 136.03 22.5264 138.703 21.4265C141.32 20.2549 144.151 19.6394 147.019 19.619C149.58 19.6111 152.118 20.1169 154.481 21.1064C156.779 22.0813 158.853 23.5167 160.575 25.324C162.337 27.1569 163.75 29.2967 164.742 31.6378C164.993 32.2152 165.219 32.78 165.426 33.326C165.61 33.7838 165.747 34.2591 165.834 34.7444L138.665 46.3741C139.317 47.611 140.194 48.7156 141.251 49.6314C143.161 51.2814 145.634 52.1312 148.155 52.0038C149.4 51.946 150.625 51.6632 151.77 51.169C153.544 50.4136 155.095 49.2167 156.276 47.6921C157.42 46.3366 158.049 44.6207 158.052 42.8469L166.682 41.6921C166.494 45.0454 165.32 48.2684 163.305 50.9557C160.977 54.0651 157.831 56.4662 154.217 57.8908ZM154.268 32.7863C153.112 30.4242 151.088 28.6003 148.619 27.6964C146.253 26.8588 143.659 26.9457 141.355 27.9395C139.05 28.9334 137.207 30.7609 136.192 33.0562C135.703 34.1966 135.43 35.4183 135.389 36.6587C135.345 38.0004 135.558 39.3383 136.017 40.6001L154.268 32.7863Z" fill="#0D233D"/>
<path d="M339.702 57.282C338.082 57.9814 336.422 58.5849 334.731 59.0896C332.732 59.6984 330.652 60.0031 328.562 59.9933C327.226 60.0027 325.895 59.8253 324.608 59.4661C323.421 59.1372 322.317 58.5596 321.37 57.7716C320.411 56.9498 319.653 55.9193 319.154 54.759C318.565 53.3404 318.283 51.8133 318.326 50.2779V27.6336H313.129V19.8701H318.326V7.07935H328.411V19.8701H336.69V27.6336H328.411V46.9013C328.411 48.3072 328.775 49.2988 329.503 49.8762C330.266 50.4626 331.209 50.7665 332.171 50.736C333.222 50.7387 334.266 50.5625 335.259 50.2151C336.263 49.8637 337.066 49.5624 337.669 49.3114L339.702 57.282Z" fill="#0D233D"/>
<path d="M214.017 15.4143C217.65 15.4143 220.595 12.4695 220.595 8.8369C220.595 5.20431 217.65 2.25952 214.017 2.25952C210.385 2.25952 207.44 5.20431 207.44 8.8369C207.44 12.4695 210.385 15.4143 214.017 15.4143Z" fill="#D02E2E"/>
<path d="M344.001 15.2635H371.346V0L344.001 15.2635Z" fill="#D02E2E"/>
<path d="M44.0267 41.3974C44.0267 42.6908 44.4103 43.9552 45.1289 45.0307C45.8475 46.1061 46.8688 46.9443 48.0638 47.4393C49.2588 47.9343 50.5737 48.0638 51.8423 47.8114C53.1109 47.5591 54.2762 46.9363 55.1908 46.0217C56.1053 45.1071 56.7282 43.9418 56.9805 42.6732C57.2328 41.4046 57.1033 40.0897 56.6084 38.8947C56.1134 37.6998 55.2752 36.6784 54.1997 35.9598C53.1243 35.2412 51.8599 34.8577 50.5664 34.8577C48.8325 34.8593 47.1701 35.5489 45.944 36.7749C44.7179 38.001 44.0284 39.6634 44.0267 41.3974ZM51.8593 43.9078C51.8593 43.6347 51.9403 43.3678 52.092 43.1407C52.2438 42.9137 52.4594 42.7367 52.7117 42.6322C52.964 42.5277 53.2416 42.5003 53.5094 42.5536C53.7773 42.6069 54.0233 42.7384 54.2164 42.9315C54.4095 43.1246 54.541 43.3706 54.5943 43.6385C54.6476 43.9063 54.6202 44.1839 54.5157 44.4362C54.4112 44.6885 54.2343 44.9042 54.0072 45.0559C53.7801 45.2076 53.5132 45.2886 53.2401 45.2886C52.8733 45.282 52.5241 45.1303 52.2689 44.8669C52.0136 44.6034 51.8731 44.2495 51.8782 43.8827L51.8593 43.9078Z" fill="#0D233D"/>
<path d="M44.0267 41.3974C44.0267 42.6908 44.4103 43.9552 45.1289 45.0307C45.8475 46.1061 46.8688 46.9443 48.0638 47.4393C49.2588 47.9343 50.5737 48.0638 51.8423 47.8114C53.1109 47.5591 54.2762 46.9363 55.1908 46.0217C56.1053 45.1071 56.7282 43.9418 56.9805 42.6732C57.2328 41.4046 57.1033 40.0897 56.6084 38.8947C56.1134 37.6998 55.2752 36.6784 54.1997 35.9598C53.1243 35.2412 51.8599 34.8577 50.5664 34.8577C48.8325 34.8593 47.1701 35.5489 45.944 36.7749C44.7179 38.001 44.0284 39.6634 44.0267 41.3974ZM51.8593 43.9078C51.8593 43.6347 51.9403 43.3678 52.092 43.1407C52.2438 42.9137 52.4594 42.7367 52.7117 42.6322C52.964 42.5277 53.2416 42.5003 53.5094 42.5536C53.7773 42.6069 54.0233 42.7384 54.2164 42.9315C54.4095 43.1246 54.541 43.3706 54.5943 43.6385C54.6476 43.9063 54.6202 44.1839 54.5157 44.4362C54.4112 44.6885 54.2343 44.9042 54.0072 45.0559C53.7801 45.2076 53.5132 45.2886 53.2401 45.2886C52.8733 45.282 52.5241 45.1303 52.2689 44.8669C52.0136 44.6034 51.8731 44.2495 51.8782 43.8827L51.8593 43.9078Z" fill="white"/>
<path d="M44.0273 41.3974C44.0273 42.6908 44.4109 43.9552 45.1295 45.0307C45.8481 46.1061 46.8694 46.9443 48.0644 47.4393C49.2594 47.9343 50.5743 48.0638 51.8429 47.8114C53.1115 47.5591 54.2768 46.9363 55.1914 46.0217C56.106 45.1071 56.7288 43.9418 56.9811 42.6732C57.2335 41.4046 57.1039 40.0897 56.609 38.8947C56.114 37.6998 55.2758 36.6784 54.2003 35.9598C53.1249 35.2412 51.8605 34.8577 50.5671 34.8577C48.8331 34.8593 47.1707 35.5489 45.9446 36.7749C44.7185 38.001 44.029 39.6634 44.0273 41.3974ZM51.8599 43.9078C51.8599 43.6347 51.9409 43.3678 52.0926 43.1407C52.2444 42.9137 52.46 42.7367 52.7123 42.6322C52.9646 42.5277 53.2422 42.5003 53.5101 42.5536C53.7779 42.6069 54.0239 42.7384 54.217 42.9315C54.4101 43.1246 54.5416 43.3706 54.5949 43.6385C54.6482 43.9063 54.6208 44.1839 54.5163 44.4362C54.4118 44.6885 54.2349 44.9042 54.0078 45.0559C53.7807 45.2076 53.5138 45.2886 53.2407 45.2886C52.8739 45.282 52.5247 45.1303 52.2695 44.8669C52.0142 44.6034 51.8737 44.2495 51.8788 43.8827L51.8599 43.9078Z" fill="#0D233D"/>
<path d="M5.14643 34.8136V59.5791H14.2217V57.0059H8.88699L8.94347 38.4537L16.3681 45.5583V59.5854H25.4434L25.412 56.9181H20.1652L20.0648 49.1357L25.4936 54.3386L33.1379 46.3616C35.1053 49.3017 37.8798 51.6111 41.1279 53.0125C44.3761 54.4139 47.9598 54.8476 51.4485 54.2615C54.9372 53.6755 58.1824 52.0946 60.7944 49.7088C63.4063 47.323 65.2739 44.2337 66.1726 40.8122C67.0714 37.3907 66.9631 33.7825 65.8608 30.421C64.7585 27.0596 62.7091 24.0879 59.9587 21.863C57.2084 19.6381 53.8741 18.2547 50.3566 17.8789C46.839 17.5031 43.2878 18.1509 40.1295 19.7446L24.2886 4.5564L0 29.9119L5.14643 34.8136ZM36.276 43.1169C34.7526 40.4703 34.1447 37.3951 34.5466 34.368C34.9486 31.3408 36.3378 28.5308 38.499 26.3734C40.6602 24.216 43.4727 22.8318 46.5006 22.4353C49.5284 22.0388 52.6026 22.6521 55.2464 24.1802C57.8903 25.7083 59.9562 28.0659 61.1241 30.8875C62.2919 33.709 62.4964 36.8371 61.7059 39.7867C60.9153 42.7363 59.1739 45.3427 56.7515 47.2021C54.3291 49.0614 51.361 50.0697 48.3073 50.0708C45.8662 50.0787 43.4666 49.4393 41.353 48.2177C39.2395 46.9962 37.4877 45.2361 36.276 43.1169ZM20.435 18.0124L21.8283 16.5563L29.6798 24.0877L28.2927 25.5437L20.435 18.0124Z" fill="#0D233D"/>
<path d="M70.2791 59.4412V48.6462L59.3398 59.5918H70.2791V59.4412Z" fill="#D02E2E"/>
</svg>