<?xml version="1.0" encoding="utf-8"?>
<!-- Generator: Adobe Illustrator 24.3.0, SVG Export Plug-In . SVG Version: 6.00 Build 0)  -->
<svg version="1.1" id="Calque_1" xmlns="http://www.w3.org/2000/svg" xmlns:xlink="http://www.w3.org/1999/xlink" x="0px" y="0px"
	 viewBox="0 0 189.2 85.1" style="enable-background:new 0 0 189.2 85.1;" xml:space="preserve">
<style type="text/css">
	.st0{fill:#FFFFFF;}
</style>
<g>
	<g>
		<g>
			<g>
				<g>
					<g>
						<g>
							<path class="st0" d="M50.7,1.4l-5.2,21.4H35l2.6-21.4H50.7z"/>
							<path class="st0" d="M93.8,1.4v12H69.2V22h23.1v12H69.2v9.6h26.2l-1.2,12H54.9V1.4H93.8z"/>
							<path class="st0" d="M113.6,43.4c1.6,1.2,3.9,1.9,6.9,1.9c2.6,0,4.5-0.5,5.8-1.4s1.9-2.2,1.9-3.9c0-1.3-0.4-2.3-1.3-3.2
								c-0.9-0.8-2.4-1.5-4.7-1.9l-7.2-1.4c-6-1.1-10.5-3-13.4-5.6c-2.9-2.6-4.3-6.3-4.3-10.9c0-5.6,1.9-9.9,5.8-12.7
								c3.9-2.9,9.2-4.3,16-4.3c3.9,0,7.3,0.5,10.1,1.4c2.8,0.9,5.1,2.1,6.8,3.6s3.1,3.3,4,5.3c0.9,2,1.5,4.1,1.7,6.3L127.7,18
								c-0.5-2.2-1.3-3.8-2.6-4.9c-1.3-1.1-3.3-1.6-6-1.6c-2.5,0-4.3,0.4-5.5,1.3s-1.8,2-1.8,3.4c0,1.3,0.5,2.3,1.4,3
								c1,0.8,2.5,1.3,4.6,1.8l7.4,1.4c6.4,1.3,10.9,3.3,13.6,6.1c2.7,2.8,4,6.4,4,10.7c0,2.7-0.5,5.1-1.4,7.3
								c-0.9,2.2-2.3,4-4.2,5.6c-1.9,1.5-4.3,2.7-7.1,3.6c-2.9,0.9-6.3,1.3-10.2,1.3c-15-0.1-22.9-6.5-23.7-19.2h14.5
								C111.1,40.3,112,42.2,113.6,43.4z"/>
						</g>
						<g>
							<rect y="1.4" class="st0" width="14.6" height="33.6"/>
							<polygon class="st0" points="14.6,43.2 0,43.2 0,55.6 37.3,55.6 38.6,43.2 14.6,43.2 							"/>
						</g>
					</g>
				</g>
			</g>
		</g>
		<g>
			<g>
				<path class="st0" d="M70.7,64.6h6.1c1.9,0,3.5,0.5,4.5,1.5c1.1,1,1.6,2.3,1.6,3.8c0,1.4-0.3,2.6-1,3.9c-0.7,1.2-1.8,2.2-3.2,3
					l2.4,4.7h-3.8l-1.8-3.9c-0.5,0-1.3,0.1-2.3,0.1h-1.4l-0.7,3.8h-3.4L70.7,64.6z M75.3,74.5c1.2,0,2.2-0.4,2.9-1.2
					s1.2-1.8,1.2-2.9c0-0.8-0.2-1.4-0.7-1.9c-0.5-0.5-1.2-0.7-2-0.7h-3.1l-1.2,6.8H75.3z"/>
				<path class="st0" d="M85,70.3c1.2-1.4,2.7-2.1,4.6-2.1c1.8,0,3.2,0.6,4.2,1.7s1.5,2.7,1.5,4.5c0,0.7-0.1,1.2-0.2,1.7h-8.7
					c0.1,0.6,0.3,1.1,0.7,1.5c0.4,0.4,0.8,0.7,1.2,0.8c0.4,0.1,0.8,0.2,1.2,0.2c1,0,1.9-0.3,2.5-0.9l1.9,2.2
					c-1.3,1.1-2.8,1.7-4.6,1.7c-1.8,0-3.3-0.6-4.4-1.8c-1.2-1.2-1.7-2.6-1.7-4.4C83.2,73.5,83.8,71.7,85,70.3z M92.3,73.7
					c-0.1-0.7-0.3-1.3-0.8-1.8c-0.5-0.4-1.1-0.7-1.8-0.7c-0.6,0-1.3,0.2-1.8,0.7s-1,1-1.2,1.8H92.3z M91.5,62.6h3.2L91,66.7h-2.6
					L91.5,62.6z"/>
				<path class="st0" d="M97.9,68.5h3.1l-0.4,1.9c0.8-1.4,2-2.1,3.6-2.1c1.4,0,2.6,0.6,3.5,1.7c0.9,1.1,1.4,2.6,1.4,4.2
					c0,2-0.6,3.8-1.7,5.3c-1.1,1.5-2.6,2.3-4.5,2.3c-1.8,0-3-0.7-3.7-2.1l-1,5.4h-3.2L97.9,68.5z M100.7,77.4c0.5,0.6,1.1,0.9,2,0.9
					c0.9,0,1.6-0.3,2.2-1.1c0.6-0.7,0.9-1.6,0.9-2.7c0-0.9-0.3-1.6-0.8-2.2s-1.1-0.8-1.9-0.8c-1,0-1.7,0.4-2.3,1.1s-0.8,1.6-0.8,2.5
					C99.9,76.1,100.2,76.8,100.7,77.4z"/>
				<path class="st0" d="M111.5,68.5h3.2l-1.2,6.8c-0.1,0.6-0.2,1.1-0.2,1.5c0,1.1,0.6,1.7,1.8,1.7c0.8,0,1.5-0.3,2-0.9
					c0.5-0.6,0.9-1.4,1.1-2.5l1.2-6.5h3.2l-2.3,13h-3.2l0.3-1.7c-1.1,1.3-2.4,1.9-3.8,1.9c-2.4,0-3.6-1.3-3.6-3.8
					c0-0.6,0.1-1.4,0.3-2.3L111.5,68.5z"/>
				<path class="st0" d="M125.2,64.4h3.2l-1.3,6c0.8-1.4,2-2.1,3.6-2.1c1.4,0,2.6,0.6,3.5,1.7c0.9,1.1,1.4,2.6,1.4,4.2
					c0,2-0.6,3.8-1.7,5.3s-2.6,2.3-4.5,2.3c-1.8,0-3-0.7-3.7-2.1l-0.4,1.8h-3.2L125.2,64.4z M127.4,72.7c-0.6,0.7-0.8,1.6-0.8,2.6
					c0,0.8,0.2,1.6,0.7,2.2c0.5,0.6,1.1,0.9,2,0.9c0.9,0,1.6-0.3,2.2-1.1c0.6-0.7,0.9-1.6,0.9-2.7c0-0.9-0.3-1.6-0.8-2.2
					s-1.1-0.8-1.8-0.8C128.8,71.6,128,72,127.4,72.7z"/>
				<path class="st0" d="M138.8,64.4h3.2L139,81.5h-3.2L138.8,64.4z"/>
				<path class="st0" d="M143.3,68.5h3.2l-2.3,13H141L143.3,68.5z M144.2,63.7c0.4-0.4,0.8-0.6,1.3-0.6c0.5,0,1,0.2,1.4,0.6
					c0.4,0.4,0.6,0.9,0.6,1.5c0,0.6-0.2,1.1-0.6,1.5s-0.8,0.6-1.4,0.6c-0.5,0-1-0.2-1.3-0.6s-0.6-0.9-0.6-1.5
					C143.6,64.6,143.8,64.1,144.2,63.7z"/>
				<path class="st0" d="M148.6,70.4c1.3-1.4,2.8-2.1,4.7-2.1c1.9,0,3.5,0.6,4.8,1.9l-2.5,2.4c-0.5-0.6-1.3-0.9-2.3-0.9
					c-0.9,0-1.7,0.4-2.3,1.1c-0.6,0.7-0.9,1.6-0.9,2.6c0,0.9,0.3,1.6,0.8,2.2c0.6,0.6,1.3,0.9,2.2,0.9c0.9,0,1.7-0.3,2.3-0.9
					l2.1,2.4c-1.1,1.3-2.7,1.9-4.6,1.9c-1.9,0-3.4-0.6-4.5-1.7c-1.1-1.1-1.7-2.6-1.7-4.5C146.7,73.5,147.3,71.8,148.6,70.4z"/>
				<path class="st0" d="M159.5,70.5c1.1-1.5,2.5-2.3,4.3-2.3c0.8,0,1.6,0.2,2.3,0.6s1.3,1,1.7,1.8l0.4-2.1h3.2l-2.3,13h-3l0.3-1.5
					c-0.9,1.2-2.1,1.8-3.7,1.8c-1.4,0-2.6-0.6-3.5-1.7s-1.4-2.6-1.4-4.3C157.9,73.8,158.4,72,159.5,70.5z M161.9,77.6
					c0.5,0.5,1.1,0.8,1.8,0.8c1,0,1.8-0.4,2.4-1.1c0.6-0.7,0.9-1.6,0.9-2.5c0-0.8-0.3-1.5-0.8-2.2c-0.5-0.6-1.2-0.9-2.1-0.9
					c-0.9,0-1.6,0.4-2.2,1.1c-0.6,0.7-0.9,1.6-0.9,2.7C161.2,76.3,161.4,77,161.9,77.6z"/>
				<path class="st0" d="M173.4,68.5h3.2l-2.3,13h-3.2L173.4,68.5z M174.3,63.7c0.4-0.4,0.8-0.6,1.3-0.6c0.5,0,1,0.2,1.4,0.6
					c0.4,0.4,0.6,0.9,0.6,1.5c0,0.6-0.2,1.1-0.6,1.5s-0.8,0.6-1.4,0.6c-0.5,0-1-0.2-1.3-0.6s-0.6-0.9-0.6-1.5
					C173.7,64.6,173.9,64.1,174.3,63.7z"/>
				<path class="st0" d="M178.6,68.5h3.2l-0.3,1.7c1.1-1.3,2.5-1.9,4-1.9c2.4,0,3.6,1.3,3.6,3.8c0,0.5-0.1,1.3-0.3,2.3l-1.3,7.2
					h-3.2l1.2-6.8c0.1-0.5,0.2-1,0.2-1.4c0-1.1-0.6-1.7-1.8-1.7c-0.8,0-1.5,0.3-2.2,0.9c-0.6,0.6-1,1.4-1.2,2.4l-1.1,6.5h-3.2
					L178.6,68.5z"/>
			</g>
		</g>
	</g>
	<g>
		<polygon class="st0" points="158.9,13.8 173.5,13.8 173.5,13.8 189.2,13.8 189.2,1.4 143.3,1.4 143.3,13.8 158.9,13.8 		"/>
		<rect x="158.9" y="22.1" class="st0" width="14.6" height="33.6"/>
	</g>
</g>
</svg>
