<svg width="87" height="36" viewBox="0 0 87 36" fill="none" xmlns="http://www.w3.org/2000/svg">
    <g clip-path="url(#clip0_65_498)">
        <path
            d="M5.85111 0H7.33735L12.9851 13.241H11.139L9.79356 9.98529H3.16022L1.78349 13.241H0L5.85111 0ZM6.57076 2.0251H6.53947L3.78601 8.53656H9.21471L6.5864 2.0251H6.57076Z"
            fill="black" />
        <path
            d="M24.7186 8.19386C24.7186 8.91043 24.6247 9.59585 24.4526 10.2501C24.2805 10.9044 23.9833 11.4652 23.5922 11.9637C23.201 12.4621 22.6848 12.8516 22.0433 13.1476C21.4019 13.4435 20.6353 13.5837 19.7123 13.5837C18.7892 13.5837 18.0227 13.4435 17.3812 13.1476C16.7398 12.8516 16.2235 12.4621 15.8324 11.9637C15.4413 11.4652 15.144 10.9044 14.9719 10.2501C14.7842 9.59585 14.706 8.91043 14.706 8.19386V0H16.2861V7.96019C16.2861 8.48983 16.3487 9.01947 16.4582 9.51796C16.5677 10.0164 16.7554 10.4526 17.0214 10.8421C17.2874 11.2315 17.6315 11.5431 18.0696 11.7611C18.5076 11.9948 19.0552 12.1039 19.7279 12.1039C20.4006 12.1039 20.9482 11.9948 21.3863 11.7611C21.8243 11.5275 22.1685 11.2159 22.4345 10.8421C22.7004 10.4526 22.8881 10.0164 22.9977 9.51796C23.1072 9.01947 23.1698 8.50541 23.1698 7.96019V0H24.7499V8.19386H24.7186Z"
            fill="black" />
        <path d="M33.198 0H41.4427V1.4643H34.7781V5.84163H40.9734V7.30593H34.7781V13.2566H33.198V0Z" fill="black" />
        <path d="M43.633 0H45.2131V13.241H43.633V0Z" fill="black" />
        <path d="M48.5141 0H50.0942V11.7767H56.18V13.241H48.5141V0Z" fill="black" />
        <path
            d="M62.8759 0H67.9761C68.4141 0 68.8835 0.046733 69.3685 0.155777C69.8534 0.249243 70.3384 0.420597 70.8234 0.638684C71.3084 0.856772 71.7621 1.13717 72.2158 1.49546C72.6538 1.83817 73.045 2.25876 73.3891 2.75725C73.7333 3.25573 73.9993 3.81653 74.2027 4.45521C74.406 5.0939 74.4999 5.82605 74.4999 6.63609C74.4999 7.44613 74.406 8.17828 74.2027 8.81696C73.9993 9.45565 73.7333 10.032 73.3891 10.5149C73.045 11.0134 72.6538 11.434 72.2158 11.7767C71.7777 12.1194 71.3084 12.4154 70.8234 12.6335C70.3384 12.8516 69.8534 13.0074 69.3685 13.1164C68.8835 13.2099 68.4141 13.2722 67.9761 13.2722H62.8759V0ZM64.456 11.7767H67.4598C68.2264 11.7767 68.9304 11.6833 69.5875 11.4807C70.2446 11.2782 70.8078 10.9667 71.2771 10.5617C71.7464 10.1411 72.1219 9.61142 72.4035 8.95716C72.6851 8.3029 72.8103 7.52401 72.8103 6.62051C72.8103 5.71701 72.6695 4.93812 72.4035 4.28386C72.1376 3.6296 71.7464 3.09996 71.2771 2.67936C70.8078 2.25876 70.2446 1.94721 69.5875 1.76028C68.9304 1.55777 68.2264 1.4643 67.4598 1.4643H64.456V11.7767Z"
            fill="black" />
        <path
            d="M87 8.19386C87 8.91043 86.9061 9.59585 86.734 10.2501C86.5619 10.9044 86.2647 11.4652 85.8736 11.9637C85.4825 12.4621 84.9662 12.8516 84.3248 13.1476C83.6833 13.4435 82.9167 13.5837 81.9937 13.5837C81.0707 13.5837 80.3041 13.4435 79.6626 13.1476C79.0212 12.8516 78.5049 12.4621 78.1138 11.9637C77.7227 11.4652 77.4255 10.9044 77.2534 10.2501C77.0656 9.59585 76.9874 8.91043 76.9874 8.19386V0H78.5675V7.96019C78.5675 8.48983 78.6301 9.01947 78.7396 9.51796C78.8491 10.0164 79.0369 10.4526 79.3028 10.8421C79.5688 11.2315 79.913 11.5431 80.351 11.7611C80.7891 11.9948 81.3366 12.1039 82.0093 12.1039C82.6821 12.1039 83.2296 11.9948 83.6677 11.7611C84.1057 11.5275 84.4499 11.2159 84.7159 10.8421C84.9818 10.4526 85.1696 10.0164 85.2791 9.51796C85.3886 9.01947 85.4512 8.50541 85.4512 7.96019V0H87.0313V8.19386H87Z"
            fill="black" />
        <path
            d="M8.80795 25.672C8.60457 25.376 8.30732 25.1579 7.93185 25.0022C7.54073 24.862 7.16526 24.7841 6.80543 24.7841C6.58641 24.7841 6.36738 24.8152 6.13271 24.862C5.89804 24.9087 5.67901 24.9866 5.45999 25.0956C5.25661 25.2047 5.06887 25.3449 4.92807 25.5162C4.77162 25.6876 4.67776 25.9057 4.64647 26.1549C4.61518 26.4509 4.66211 26.7001 4.80291 26.8871C4.94372 27.074 5.1471 27.2454 5.4287 27.37C5.7103 27.4946 6.00755 27.6192 6.36738 27.7127C6.72721 27.8062 7.08704 27.9308 7.44686 28.0554C7.80669 28.18 8.16652 28.3358 8.5107 28.5071C8.85488 28.6785 9.15213 28.8966 9.40245 29.177C9.65276 29.4574 9.8405 29.7845 9.95001 30.1895C10.0752 30.5946 10.0908 31.0775 9.99694 31.6538C9.90308 32.386 9.6684 33.0247 9.30858 33.5855C8.94875 34.1307 8.5107 34.5824 7.99443 34.9563C7.47815 35.3302 6.8993 35.5794 6.24222 35.7663C5.60079 35.9377 4.92807 36.0312 4.23971 36.0312C3.37925 36.0312 2.59701 35.9065 1.893 35.6417C1.18899 35.3769 0.563208 34.9563 0 34.3643L2.42492 32.09C2.67524 32.495 3.00378 32.791 3.42618 33.0091C3.84859 33.2272 4.30228 33.3362 4.78727 33.3362C5.02194 33.3362 5.27225 33.3051 5.52257 33.2583C5.77288 33.196 6.00755 33.1181 6.21093 33.0091C6.42996 32.9 6.60205 32.7598 6.74285 32.5729C6.88365 32.386 6.97752 32.1991 7.00881 31.9498C7.07139 31.5448 6.96188 31.2332 6.68027 30.9996C6.39867 30.7659 6.03884 30.579 5.60079 30.4076C5.16274 30.2518 4.6934 30.0805 4.17713 29.9247C3.66085 29.7689 3.19151 29.5509 2.76911 29.2705C2.3467 28.9901 2.00252 28.6318 1.76785 28.18C1.51753 27.7283 1.45495 27.1363 1.54882 26.4042C1.64269 25.6876 1.87736 25.0645 2.23719 24.5348C2.59701 24.0052 3.03507 23.5534 3.56698 23.1952C4.0989 22.8369 4.67776 22.5565 5.31919 22.3851C5.96062 22.1982 6.60205 22.1203 7.25913 22.1203C8.01007 22.1203 8.71408 22.2293 9.3868 22.4319C10.0595 22.6499 10.6384 22.9927 11.1234 23.4911L8.80795 25.672Z"
            fill="#D61E00" />
        <path
            d="M20.7448 22.4318H25.6885C26.3769 22.4318 27.0183 22.4941 27.6128 22.6188C28.2073 22.7434 28.708 22.9615 29.1304 23.2575C29.5371 23.569 29.85 23.974 30.0534 24.4881C30.2568 25.0022 30.3037 25.6564 30.1786 26.4353C30.0691 27.2142 29.85 27.8529 29.5215 28.3825C29.193 28.9121 28.7862 29.3172 28.3168 29.6287C27.8319 29.9403 27.2843 30.1584 26.6585 30.2986C26.0327 30.4388 25.3757 30.5011 24.6716 30.5011H22.5283L21.8087 35.6573H18.8831L20.7448 22.4163V22.4318ZM26.4551 25.1579C26.2205 25.0489 25.9545 24.971 25.6729 24.9398C25.3757 24.9087 25.094 24.8931 24.8124 24.8931H23.3106L22.8725 28.0398H24.8281C25.094 28.0398 25.3444 28.0086 25.5947 27.9619C25.845 27.9152 26.0797 27.8217 26.283 27.7127C26.5021 27.588 26.6742 27.4323 26.8306 27.2298C26.9871 27.0272 27.0809 26.7624 27.1122 26.4509"
            fill="#D61E00" />
        <path
            d="M36.3895 29.0523C36.5459 27.9931 36.8588 27.0273 37.3438 26.1705C37.8288 25.3137 38.4233 24.5816 39.143 23.974C39.8626 23.3665 40.6918 22.8992 41.6148 22.5876C42.5379 22.2605 43.5235 22.1047 44.556 22.1047C45.5886 22.1047 46.5272 22.2605 47.3564 22.5876C48.1856 22.9147 48.8739 23.3821 49.4215 23.974C49.9691 24.5816 50.3602 25.3137 50.6105 26.1705C50.8452 27.0273 50.8921 27.9931 50.7357 29.0523C50.5792 30.1116 50.2663 31.0774 49.797 31.9342C49.3276 32.791 48.7175 33.5231 47.9978 34.1307C47.2782 34.7382 46.449 35.2055 45.526 35.5171C44.6029 35.8442 43.633 36 42.5848 36C41.5366 36 40.6136 35.8442 39.7844 35.5171C38.9552 35.19 38.2669 34.7226 37.7036 34.1307C37.1561 33.5231 36.765 32.791 36.5147 31.9342C36.28 31.0774 36.233 30.1116 36.3895 29.0523Z"
            fill="#D61E00" />
        <path
            d="M58.6675 22.4319H63.8146C64.4873 22.4319 65.1288 22.4942 65.7076 22.6344C66.2865 22.7746 66.8027 22.9771 67.2095 23.2886C67.6163 23.6002 67.9291 24.0052 68.1325 24.5193C68.3359 25.0333 68.3828 25.6876 68.2577 26.4509C68.1169 27.3856 67.7571 28.18 67.1938 28.8343C66.615 29.4885 65.8484 29.9091 64.8784 30.0805L67.4755 35.6729H63.971L61.9216 30.3765H60.4823L59.747 35.6729H56.8214L58.6831 22.4319H58.6675ZM60.8265 27.9152H62.5474C62.8133 27.9152 63.0949 27.9152 63.3765 27.884C63.6738 27.8685 63.9398 27.8062 64.1901 27.7127C64.4404 27.6192 64.6594 27.479 64.8471 27.2765C65.0349 27.074 65.16 26.7936 65.207 26.4353C65.2539 26.0926 65.2226 25.8278 65.1131 25.6253C65.0036 25.4228 64.8471 25.267 64.6438 25.1735C64.4404 25.0801 64.2057 25.0022 63.9398 24.9554C63.6738 24.9243 63.4078 24.8931 63.1419 24.8931H61.2332L60.8265 27.8996V27.9152Z"
            fill="#D61E00" />
        <path
            d="M79.913 25.0177H76.127L76.4868 22.4319H87L86.6402 25.0177H82.8542L81.3523 35.6729H78.4267L79.9286 25.0177H79.913Z"
            fill="#D61E00" />
    </g>
    <defs>
        <clipPath id="clip0_65_498">
            <rect width="87" height="36" fill="white" />
        </clipPath>
    </defs>
</svg>