<svg width="34" height="20" viewBox="0 0 34 20" fill="none" xmlns="http://www.w3.org/2000/svg">
    <g clip-path="url(#clip0_65_443)">
        <path
            d="M15.6817 3.39048L14.7675 5.96287L14.7904 6.05736C16.5212 7.73226 18.2417 9.42523 19.9788 11.0966C21.3411 12.4077 23.061 14.3032 24.7172 15.2772C28.3135 17.3844 32.6851 14.3401 31.9345 10.386C31.4295 7.71405 28.6384 6.11892 25.9866 6.82223C25.232 7.02028 24.6891 7.4674 23.8954 7.57179C23.1016 7.67618 22.2768 7.49676 21.5656 7.09308L15.6791 3.40018L15.6817 3.39048ZM25.9666 14.2916C23.8753 13.5026 23.2919 10.9032 24.6679 9.26543C26.2327 7.40277 29.3762 7.78244 30.3067 10.1058C31.3705 12.7507 28.6656 15.3111 25.9653 14.2965L25.9666 14.2916Z"
            fill="white" />
        <path
            d="M18.5324 10.6987C18.5324 10.6987 18.4735 10.5789 18.4537 10.5528C17.7005 9.70645 16.6088 8.76418 15.775 7.95859C15.2638 7.46815 14.75 6.98741 14.2325 6.50047L10.5297 6.84938L14.8849 11.0208L18.5337 10.6938L18.5324 10.6987Z"
            fill="white" />
        <path
            d="M25.0085 16.2285L23.5111 15.2815C22.7662 14.744 22.1326 14.0908 21.4521 13.4926L17.8732 13.8384L19.5605 15.4757C20.1593 15.9792 20.9536 16.3323 21.734 16.4375C22.7947 16.5762 23.9477 16.2302 25.0085 16.2285Z"
            fill="white" />
        <path
            d="M14.0417 5.77361C14.0849 5.7124 14.1244 5.64501 14.1489 5.5736C14.3531 5.05133 14.8584 3.82486 14.9295 3.3397C14.9388 3.28501 14.969 3.2723 14.8852 3.26543L11.2134 3.63827L10.2687 6.12451L14.0367 5.77227L14.0417 5.77361Z"
            fill="white" />
        <path d="M20.7831 12.8715L20.703 12.7305L19.2414 11.3305L15.6173 11.6849L17.2029 13.2221L20.7831 12.8715Z"
            fill="white" />
        <path
            d="M3.03529 8.41752C3.12003 8.46102 3.19388 8.46521 3.28552 8.44298L7.4862 7.51533C7.94809 7.41038 7.81883 6.79356 7.34475 6.86406L3.11019 7.79823C2.81529 7.85956 2.76609 8.28301 3.03529 8.41752Z"
            fill="white" />
        <path
            d="M4.90843 12.8387L8.35017 10.3666C8.54046 10.1161 8.40858 9.76891 8.06911 9.77671L4.53964 12.2565C4.25451 12.6011 4.46433 12.9173 4.90344 12.8374L4.90843 12.8387Z"
            fill="white" />
        <path
            d="M2.30015 3.76579C2.40228 3.82434 2.70097 3.88878 2.83218 3.91874C4.08689 4.19256 5.39058 4.32357 6.65289 4.58903C6.95328 4.60714 7.1191 4.16816 6.88138 4.01609C6.77556 3.95135 6.5681 3.90616 6.44189 3.87754C5.16739 3.57763 3.77966 3.46049 2.49627 3.17378C2.17069 3.16971 2.06483 3.62476 2.30015 3.76579Z"
            fill="white" />
        <path
            d="M26.2656 13.6752C22.8965 12.419 25.2523 7.38436 28.5008 9.07089C31.2882 10.5195 29.2792 14.7998 26.2656 13.6752Z"
            fill="white" />
        <path
            d="M26.2656 13.6752C29.2792 14.7998 31.2895 10.5147 28.5008 9.07089C25.2523 7.38436 22.9015 12.4203 26.2656 13.6752Z"
            fill="white" />
    </g>
    <defs>
        <clipPath id="clip0_65_443">
            <rect width="31" height="12" fill="white"
                transform="matrix(0.965926 0.258819 0.258819 -0.965926 0 11.5911)" />
        </clipPath>
    </defs>
</svg>