<svg width="127" height="127" viewBox="0 0 127 127" fill="none" xmlns="http://www.w3.org/2000/svg">
<g clip-path="url(#clip0_124_196)">
<path d="M68.7 65.1841C70.7599 65.2606 72.4873 63.6491 72.5634 61.5822L65.1171 61.3002C65.041 63.367 66.644 65.1075 68.7 65.1841Z" fill="white"/>
<path d="M55.8434 66.5257C58.0276 66.6103 59.8671 64.894 59.9473 62.6983L52.0401 62.4001C51.9559 64.5959 53.6592 66.4411 55.8434 66.5257Z" fill="white"/>
<path d="M48.1606 56.5501L48.0684 56.542C47.9121 56.5823 47.7798 56.6992 47.7678 56.9691C47.8159 58.6733 49.1144 60.1237 50.8537 60.301C52.7414 60.4904 54.4286 59.1125 54.621 57.2108L48.5974 56.5984C48.4772 56.6065 48.3289 56.5904 48.1646 56.5541L48.1606 56.5501Z" fill="white"/>
<path d="M39.9207 54.4228C40.0249 54.6283 40.121 54.8096 40.2172 54.9788C40.2252 54.9949 40.2333 55.0111 40.2453 55.0272C40.4617 54.9788 40.6781 54.9063 40.8825 54.8136C41.3153 54.6202 41.7161 54.3342 42.0447 53.9595C42.0928 53.9071 42.1369 53.8507 42.181 53.7943L42.3654 53.5365L38.4258 50.9781C38.8386 52.1586 39.3435 53.3189 39.9207 54.4269V54.4228Z" fill="white"/>
<path d="M44.5457 60.8127C44.5738 60.8409 44.6018 60.8651 44.6258 60.8933C45.9083 60.5992 46.9984 59.6403 47.3952 58.2825L41.043 56.3809C42.0489 57.9763 43.2272 59.467 44.5417 60.8087L44.5457 60.8127Z" fill="white"/>
<path d="M71.3691 58.6894C71.7459 59.04 72.0545 59.4711 72.2629 59.9505C73.3169 60.6475 74.7156 60.7241 75.8778 60.0432C76.6874 59.5678 77.2364 58.8103 77.4608 57.9642C77.4769 57.7144 77.5129 57.4687 77.5771 57.231C77.5771 57.231 77.5771 57.2296 77.5771 57.2269C77.6091 56.5823 77.4608 55.9175 77.1122 55.3172L71.3691 58.6894Z" fill="white"/>
<path d="M63.2015 127V83.6608C63.2055 80.5666 62.0272 77.565 59.7068 74.7488C59.4343 74.4184 59.1417 74.08 58.8411 73.7375H57.6428C58.0757 74.2129 58.4844 74.6843 58.8612 75.1396C61.0814 77.839 62.2116 80.7035 62.2076 83.6608V127H63.1975H63.2015Z" fill="white"/>
<path d="M66.4635 83.6003L66.4555 125.425L126.675 4.34319C127.148 3.39236 127.1 2.32872 126.543 1.42221C125.986 0.515703 125.06 0 124.002 0H2.99352C1.93549 0 1.00971 0.519732 0.452643 1.42221C-0.104427 2.32872 -0.15252 3.39236 0.320389 4.34319L60.5401 125.425V83.6567C60.5441 80.8123 59.446 77.9961 57.2979 75.3853C56.7167 74.6803 56.0835 73.9712 55.4022 73.2621V71.9325C61.2014 73.6207 66.5677 73.5441 71.5893 71.9325V73.2379C70.92 73.9269 70.2948 74.6158 69.7217 75.3048C67.5536 77.9195 66.4595 80.7438 66.4595 83.5923L66.4635 83.6003ZM62.2834 70.9132C57.5624 70.7037 52.9214 69.3178 48.8576 66.9085C44.6656 64.4226 41.1468 60.8651 38.6821 56.6226C36.7263 53.2584 35.488 49.6082 34.999 45.7727C34.5261 42.0661 34.7666 38.3474 35.7164 34.7133C36.6662 31.0792 38.2733 27.7191 40.4976 24.7256C42.798 21.6273 45.6635 19.0568 49.0059 17.0948C53.7791 14.2906 59.2135 12.9409 64.7241 13.1827C69.4452 13.3922 74.0861 14.7781 78.1499 17.1874C82.342 19.6733 85.8607 23.2308 88.3255 27.4733C96.3208 41.2321 91.6919 58.9634 78.0016 67.0011C73.2285 69.8053 67.794 71.155 62.2834 70.9132Z" fill="white"/>
<path d="M82.0737 53.8144C82.2741 54.1609 82.5306 54.4631 82.8191 54.7089C83.1237 54.8499 83.4163 55.0271 83.6728 55.2447C84.6226 55.6557 85.7447 55.6315 86.7106 55.0916C86.7627 54.9989 86.8148 54.9022 86.8669 54.8096C87.4079 53.8064 87.8889 52.7548 88.2976 51.6831C88.3337 51.5864 88.3738 51.4857 88.4099 51.385C88.3377 51.0224 88.2015 50.6638 88.0051 50.3254L82.0657 53.8144H82.0737Z" fill="white"/>
<path d="M83.308 49.0885C84.6506 48.2988 86.3058 48.5285 87.3879 49.5478L89.3516 48.2867C89.3677 48.2263 89.3797 48.1659 89.3957 48.1095C90.2173 44.5761 90.3215 40.9863 89.7043 37.4368C89.6963 37.3845 89.6883 37.3401 89.6803 37.2958L89.6562 37.1669C89.0992 34.1371 88.0291 31.2403 86.4701 28.5611C81.8933 20.6845 73.7296 15.741 64.6281 15.3381C59.5263 15.1125 54.4967 16.3655 50.0802 18.9601C43.708 22.703 39.1352 29.0123 37.5361 36.2765C37.512 36.3692 37.492 36.4618 37.472 36.5585C36.6344 40.5593 36.7225 44.7534 37.7204 48.6856C38.8025 48.045 40.2012 48.0289 41.3354 48.7581C42.9305 49.7936 43.3833 51.937 42.3574 53.5405C42.3574 53.5405 42.4215 53.5808 42.5297 53.6533C43.2551 53.3914 44.0646 53.3511 44.8582 53.5888C46.1967 53.9877 47.1425 55.0674 47.4471 56.3406C47.5634 56.3849 47.6756 56.4252 47.7838 56.4574C48.0042 54.588 49.6714 53.2383 51.543 53.4277C53.4306 53.6211 54.8093 55.3172 54.6169 57.2149C56.1358 58.0448 57.6467 58.3188 59.1496 58.1294C59.4342 56.8442 60.4321 55.7806 61.7947 55.4945C63.6543 55.0997 65.4778 56.2963 65.8705 58.1617L63.8146 58.5968L59.1456 59.5839C59.5384 61.4533 61.3619 62.6459 63.2174 62.2551C63.9949 62.0899 64.6562 61.6709 65.1291 61.1028C65.1972 60.3453 65.4898 59.6564 65.9387 59.0964C65.9427 59.0198 66.119 58.8909 66.119 58.8909C66.8324 58.1214 67.8583 57.6621 68.9805 57.7024C69.7179 57.7306 70.3952 57.9683 70.9563 58.3671C70.3191 56.7999 70.9122 54.9587 72.4071 54.0803C74.0462 53.1174 76.1503 53.6734 77.1081 55.3213C78.5028 55.2568 80.1339 54.5276 81.8893 53.4559C81.2 51.8725 81.7891 49.987 83.308 49.0925V49.0885ZM85.8008 37.1387C86.8709 36.3772 88.2896 36.5303 89.023 37.465C89.031 37.5094 89.039 37.5496 89.043 37.594C88.49 37.6665 87.8888 37.8679 87.3157 38.1983C86.2256 38.8268 85.4842 39.7656 85.2798 40.6439C85.2037 40.5673 85.1355 40.4867 85.0714 40.3981C84.3621 39.3828 84.6867 37.9243 85.7968 37.1427L85.8008 37.1387ZM85.5403 43.1821C86.8068 42.3682 88.3497 42.5173 88.9789 43.5165C88.9829 43.5245 88.9869 43.5326 88.991 43.5447C88.3738 43.6253 87.6965 43.8469 87.0232 44.2054C85.7928 44.8622 84.8991 45.821 84.5825 46.7034C84.5103 46.6268 84.4462 46.5462 84.3901 46.4616C83.7569 45.4665 84.2739 43.9959 85.5403 43.1861V43.1821ZM37.9008 35.922C38.9909 35.2894 40.3856 35.6601 41.0228 36.7559C41.66 37.8518 41.2953 39.2619 40.2012 39.9025C40.1892 39.9066 40.1812 39.9106 40.1732 39.9146C40.1772 39.3586 40.0529 38.7543 39.7884 38.1701C39.3436 37.1911 38.6102 36.4779 37.8407 36.1879C37.8567 36.0952 37.8808 36.0066 37.9008 35.9179V35.922ZM41.9526 46.1836C41.9526 46.1836 41.9365 46.1998 41.9285 46.2078C41.7281 45.6317 41.3795 45.0515 40.8905 44.5398C39.9928 43.6051 38.8506 43.1337 37.8928 43.2063C37.9569 43.1015 38.025 43.0048 38.1052 42.9081C39.0069 41.8405 40.598 41.7115 41.66 42.614C42.7221 43.5205 42.8503 45.12 41.9526 46.1877V46.1836ZM44.1007 43.2909C44.1448 43.1982 44.1889 43.1055 44.249 43.0169C44.8982 42.0338 46.2969 41.8203 47.375 42.5415C48.4491 43.2586 48.7937 44.6446 48.1405 45.6277C48.1365 45.6357 48.1284 45.6397 48.1244 45.6478C47.8639 45.1603 47.4712 44.6768 46.9622 44.2659C46.0284 43.5084 44.9423 43.17 44.1007 43.2909ZM49.9039 51.2802C49.9039 51.2802 49.8918 51.3004 49.8878 51.3084C49.5512 50.8008 49.0662 50.3294 48.4611 49.9588C47.355 49.2819 46.1366 49.1167 45.2229 49.431C45.2589 49.3141 45.299 49.2013 45.3551 49.0885C45.9563 47.8234 47.4632 47.2956 48.7176 47.9C49.976 48.5043 50.501 50.0192 49.8998 51.2802H49.9039ZM52.1842 47.5414C52.2083 47.4407 52.2403 47.344 52.2804 47.2473C52.7373 46.1554 54.0679 45.6841 55.2581 46.1836C56.4484 46.6873 57.0456 47.9765 56.5887 49.0684C56.5847 49.0764 56.5807 49.0885 56.5767 49.0966C56.228 48.6655 55.7551 48.2666 55.174 47.9564C54.1119 47.3923 52.9898 47.2634 52.1802 47.5414H52.1842ZM59.6386 53.5163C59.6386 53.5163 59.6305 53.5324 59.6265 53.5445C59.2177 53.1779 58.6807 52.8636 58.0595 52.6541C56.9213 52.2714 55.7912 52.3358 55.0377 52.7427C55.0457 52.642 55.0578 52.5373 55.0818 52.4365C55.3503 51.2843 56.5887 50.5953 57.8471 50.8935C59.1055 51.1916 59.9071 52.364 59.6386 53.5163ZM64.8125 50.2287C64.8125 50.2287 64.8085 50.2488 64.8045 50.2569C64.3917 49.8903 63.8587 49.576 63.2335 49.3665C62.0953 48.9838 60.9651 49.0482 60.2157 49.4592C60.2237 49.3584 60.2317 49.2537 60.2598 49.153C60.5323 48.0047 61.7707 47.3117 63.0251 47.6099C64.2795 47.908 65.085 49.0845 64.8125 50.2327V50.2287ZM68.5276 52.7307C67.2532 52.8999 66.1911 53.4962 65.6621 54.2455C65.6221 54.1448 65.586 54.0401 65.5619 53.9273C65.2814 52.6944 66.1511 51.4414 67.5017 51.1352C68.8482 50.829 70.1708 51.5784 70.4513 52.8153C70.4513 52.8233 70.4513 52.8354 70.4553 52.8475C69.8862 52.6904 69.221 52.638 68.5276 52.7307ZM69.4414 44C68.2711 44.5318 67.4295 45.4181 67.137 46.2884C67.0688 46.2038 67.0047 46.1111 66.9486 46.0144C66.3234 44.9186 66.7923 43.4641 67.9986 42.7752C69.1969 42.0862 70.6798 42.4206 71.305 43.5165C71.309 43.5245 71.313 43.5366 71.317 43.5447C70.7279 43.5608 70.0746 43.7059 69.4374 43.9959L69.4414 44ZM73.6054 47.9685C72.4432 48.2706 71.5294 48.9475 71.1246 49.7049C71.0765 49.6123 71.0324 49.5196 70.9924 49.4229C70.5916 48.3109 71.2569 47.0539 72.4712 46.6107C73.6896 46.1716 74.9961 46.7114 75.3928 47.8234C75.3928 47.8315 75.3968 47.8436 75.4008 47.8516C74.8518 47.771 74.2346 47.7992 73.6014 47.9685H73.6054ZM75.7054 42.7228C75.0802 41.6269 75.5491 40.1725 76.7554 39.4835C77.9537 38.7946 79.4366 39.125 80.0618 40.2249C80.0658 40.2329 80.0698 40.245 80.0738 40.2531C79.4807 40.2692 78.8314 40.4142 78.1942 40.7043C77.024 41.2361 76.1823 42.1225 75.8898 42.9927C75.8216 42.9081 75.7575 42.8155 75.7014 42.7188L75.7054 42.7228ZM78.4507 49.6767C77.3967 49.9547 76.5671 50.5631 76.1984 51.252C76.1543 51.1715 76.1142 51.0869 76.0781 50.9942C75.7174 49.987 76.3146 48.8468 77.4167 48.4439C78.5188 48.045 79.7091 48.5365 80.0698 49.5438C80.0698 49.5518 80.0698 49.5599 80.0778 49.5679C79.5809 49.4954 79.0198 49.5236 78.4467 49.6727L78.4507 49.6767ZM78.2784 46.369C78.2142 46.2844 78.1541 46.1917 78.106 46.095C77.541 44.9911 78.066 43.593 79.2723 42.9726C80.4786 42.3521 81.9134 42.7429 82.4784 43.8428C82.4824 43.8509 82.4865 43.863 82.4905 43.871C81.9093 43.863 81.2721 43.9758 80.6349 44.2336C79.4646 44.705 78.607 45.531 78.2824 46.369H78.2784Z" fill="white"/>
<path d="M81.184 62.0295C81.2361 61.9851 81.2882 61.9408 81.3403 61.8925C82.6668 60.6878 83.8691 59.3462 84.9191 57.9038C84.9592 57.8515 84.9993 57.795 85.0353 57.7386C84.9873 57.3438 84.879 56.949 84.6987 56.5662L77.8135 59.8337C78.4507 61.1914 79.7813 61.9972 81.1799 62.0254L81.184 62.0295Z" fill="white"/>
</g>
<defs>
<clipPath id="clip0_124_196">
<rect width="127" height="127" fill="white"/>
</clipPath>
</defs>
</svg>
