<svg width="170" height="56" viewBox="0 0 170 56" fill="none" xmlns="http://www.w3.org/2000/svg">
<path fill-rule="evenodd" clip-rule="evenodd" d="M15.3712 33.1254H19.9006V36.7522C21.4054 34.08 24.1385 32.5246 26.9591 32.5246H28.6174V37.0377H26.9591C23.1261 37.0377 20.2095 39.0839 20.4113 44.0656V55.3922H15.3712V33.1254ZM28.2636 39.9424C28.2636 35.586 31.3855 32.5239 38.2941 32.5239C45.6518 32.5239 47.3662 35.8436 47.3662 38.937V55.3323H43.1248L42.8838 53.3835H42.7773L42.2147 53.7873C41.1554 54.62 38.3453 55.9986 35.1582 55.9986C28.4668 55.9986 27.4075 51.6777 27.4075 49.2687C27.4075 44.4464 30.7774 43.2419 34.0001 42.7497L37.4884 42.2943C40.7721 41.8056 42.6743 41.8056 42.6743 39.3471C42.6743 37.839 41.6612 36.4368 38.1407 36.4368C34.6202 36.4368 33.1902 37.956 33.1902 39.9417H28.2636V39.9424ZM3.77974 36.7828H0V33.1247H3.77974V30.3098C3.77974 27.2658 5.39602 24.8053 8.60197 24.8053H13.2897V28.7147H11.2362C9.47072 28.7147 8.60197 29.0726 8.60197 30.9142V33.1254H13.2897V36.7835H8.60197V55.3922H3.77974V36.7828ZM42.4235 44.3601C41.423 44.8468 40.2082 45.0564 38.4868 45.2074L36.4284 45.463C34.6041 45.7665 32.3383 46.5066 32.3383 49.1266C32.3383 50.6751 33.6533 52.1832 36.4284 52.0704C37.9333 52.0704 42.4228 51.6784 42.4228 48.0328V44.3601H42.4235ZM26.1485 9.76977C21.2583 9.76977 19.745 14.4827 19.745 17.5879C19.745 20.6932 21.2576 25.3999 26.1485 25.3999C31.0394 25.3999 32.552 20.6988 32.552 17.5879C32.552 14.4771 31.0429 9.76977 26.1485 9.76977ZM26.1485 29.3225C18.1378 29.3225 14.8163 23.701 14.8163 17.5879C14.8163 11.4749 18.1371 5.85963 26.1485 5.85963C34.1599 5.85963 37.4884 11.47 37.4884 17.5879C37.4884 23.7059 34.1606 29.3225 26.1485 29.3225ZM65.9552 18.8468C65.9552 22.4554 68.0668 25.5099 71.9804 25.5099C75.3216 25.5099 77.326 23.7957 77.747 20.5435H82.3703C81.7433 27.5165 75.7188 29.3225 72.0939 29.3225C64.6899 29.3225 61.0146 23.905 61.0146 17.7857C61.0146 9.61868 66.6972 5.85963 71.9489 5.85963C77.2006 5.85963 82.6099 9.61868 82.6099 17.4877C82.6099 18.1477 82.5798 18.4882 82.5146 18.8468H65.9552ZM77.5235 15.5382C77.5235 13.2392 75.5626 9.66254 72.0469 9.66254C67.9078 9.66254 66.1472 12.9245 66.0316 15.5382H77.5235ZM49.3657 33.1254H54.2118V35.79H54.3063C57.0849 32.5239 60.052 32.5239 60.9144 32.5239C68.2539 32.5239 69.2775 38.0883 69.2775 40.3971V55.3915H64.2332V41.1984C64.2332 37.9866 62.8235 36.3818 59.6428 36.3818C56.4621 36.3818 54.4086 38.7873 54.4086 42.0465V55.3901H49.3643V33.124H49.365L49.3657 33.1254ZM54.3561 26.3001H54.2524C51.492 29.5725 48.5082 29.5725 47.664 29.5725C40.3055 29.5725 39.2918 23.9948 39.2918 21.707V6.70697H44.334V20.9021C44.334 24.1007 45.7373 25.7187 48.9194 25.7187C52.1016 25.7187 54.1648 23.3021 54.1648 20.0394V6.70697H59.186V28.9716H54.3568V26.3008L54.3561 26.3001ZM92.2572 47.2245C92.2572 49.3745 89.8149 55.9993 82.4305 55.9993C74.071 55.9993 71.0829 50.4258 71.0829 44.2619C71.0829 38.098 74.1109 32.5246 82.4305 32.5246C90.7502 32.5246 92.2572 38.9377 92.2572 40.6038H87.2983C87.2983 39.6493 86.2944 36.4382 82.13 36.4382C76.9196 36.4382 76.0341 40.8496 76.0341 44.2619C76.0341 47.6743 76.9203 52.0697 82.13 52.0697C86.2944 52.0697 87.2983 47.6673 87.2983 47.2252H92.2572V47.2245ZM98.0736 45.5047C98.0736 49.1259 100.202 52.1825 104.131 52.1825C107.46 52.1825 109.477 50.4746 109.883 47.2252H114.519C113.891 54.1863 107.855 56 104.244 56C96.8223 56 93.156 50.5818 93.156 44.4478C93.156 36.2857 98.8372 32.5253 104.088 32.5253C109.339 32.5253 114.767 36.2857 114.767 44.1554C114.767 44.8148 114.707 45.1587 114.664 45.5061H98.0736V45.5054V45.5047ZM109.675 42.201C109.675 39.8784 107.71 36.3365 104.169 36.3365C100.045 36.3365 98.2823 39.5922 98.1779 42.201H109.675H109.675ZM114.611 28.9716H109.914C109.675 28.9716 105.435 28.9716 105.435 24.4906V10.2697H101.674V6.66449H105.435V0H110.282V6.66519H114.611V10.2704H110.282V23.3981C110.282 25.3588 111.531 25.3588 111.844 25.3588H114.611V28.9716ZM87.6647 20.5435C87.6647 23.1057 88.469 25.5099 92.728 25.5099C95.3069 25.5099 97.8858 24.9598 97.8858 22.5912C97.8858 21.2474 96.9155 19.9886 93.5007 19.4434L90.6297 18.9763C84.6367 17.9751 83.2587 14.9318 83.2587 12.0771C83.2587 9.9125 84.7418 5.85963 93.0005 5.85963C100.694 5.85963 101.867 11.0724 102.009 12.6279H96.9155C96.823 11.2117 95.3069 9.66254 92.6866 9.66254C88.9699 9.66254 88.1559 10.8246 88.1559 12.0771C88.1559 13.3297 89.3273 14.5746 93.0509 15.1302L95.6081 15.5375C100.81 16.3827 102.73 18.7368 102.73 21.9966C102.73 29.3218 93.8055 29.3218 92.7931 29.3218C82.9224 29.3218 82.8208 23.2457 82.8208 20.5428H87.6654L87.6647 20.5435ZM154.35 7.70121C163.515 11.4108 170 20.4447 170 30.9135C170 44.7605 158.744 55.9986 144.825 55.9986C142.458 55.9986 140.15 55.6338 137.873 54.9737V40.3546H154.351V37.8397H135.37V54.1382C126.191 50.4746 119.636 41.4484 119.636 30.9135C119.636 17.0894 130.921 5.85893 144.827 5.85893C147.253 5.85893 149.613 6.2182 151.833 6.86014V21.4862H135.371V23.9941H154.353V7.70121H154.351H154.35Z" fill="#CC2229"/>
</svg>