<svg width="101" height="101" viewBox="0 0 101 101" fill="none" xmlns="http://www.w3.org/2000/svg">
<g clip-path="url(#clip0_357_508)">
<path d="M61.4585 15.7893C58.4184 13.9963 54.9436 12.9649 51.4149 12.809C47.2925 12.6261 43.2271 13.6335 39.6563 15.7204C37.1529 17.1836 35.0123 19.0935 33.2914 21.3993C31.6274 23.6271 30.4252 26.1277 29.7146 28.8322C29.0041 31.5368 28.8242 34.3073 29.178 37.0628C29.5437 39.9172 30.4731 42.6337 31.9332 45.1374C33.777 48.2946 36.4094 50.9422 39.5454 52.7922C42.5855 54.5852 46.0603 55.6167 49.589 55.7726C53.7114 55.9555 57.7768 54.948 61.3476 52.8612C71.5861 46.8794 75.0489 33.6836 69.0707 23.4442C67.2268 20.2869 64.5945 17.6393 61.4585 15.7893ZM36.3824 48.3186C36.3614 48.2976 36.3404 48.2796 36.3224 48.2587C35.3391 47.2602 34.4576 46.1508 33.7051 44.9635L38.4571 46.3787C38.1573 47.3891 37.3418 48.1027 36.3854 48.3216L36.3824 48.3186ZM44.7741 52.5073C43.1401 52.4444 41.8659 51.0711 41.9289 49.437L47.8441 49.6589C47.7812 51.293 46.408 52.5673 44.7741 52.5073ZM54.392 51.5089C52.854 51.4519 51.6517 50.1566 51.7117 48.6185L57.2821 48.8284C57.2252 50.3665 55.93 51.5659 54.392 51.5089ZM66.5253 46.0908C65.7398 47.1643 64.8374 48.1627 63.848 49.0592C63.809 49.0922 63.77 49.1282 63.7311 49.1612C62.6847 49.1402 61.6894 48.5405 61.2127 47.5301L66.3634 45.0984C66.4983 45.3832 66.5793 45.6771 66.6152 45.9709C66.5853 46.0129 66.5553 46.0519 66.5283 46.0938L66.5253 46.0908ZM69.0557 41.4614C68.7499 42.2589 68.3901 43.0415 67.9854 43.7881C67.9464 43.8601 67.9074 43.929 67.8684 43.998C67.1459 44.4028 66.3064 44.4208 65.5959 44.1119C65.401 43.95 65.1851 43.8181 64.9573 43.7131C64.7414 43.5302 64.5495 43.3054 64.3996 43.0475L68.8428 40.4509C68.9897 40.7028 69.0887 40.9696 69.1456 41.2395C69.1186 41.3144 69.0917 41.3864 69.0617 41.4614H69.0557ZM70.069 30.6552L70.087 30.7512C70.093 30.7872 70.099 30.8202 70.105 30.8561C70.5637 33.4977 70.4858 36.1692 69.8742 38.7988C69.8652 38.8438 69.8532 38.8888 69.8412 38.9307L68.3721 39.8692C67.5626 39.1136 66.3244 38.9427 65.3201 39.5274C64.1808 40.1931 63.7431 41.5963 64.2587 42.7747C62.9456 43.5722 61.7253 44.1179 60.682 44.1629C60.9428 44.6096 61.0538 45.1044 61.0298 45.5841C61.0298 45.5841 61.0298 45.5851 61.0298 45.5871C60.9848 45.764 60.9548 45.9469 60.9428 46.1328C60.7719 46.7625 60.3642 47.3262 59.7586 47.68C58.8891 48.1867 57.8428 48.1297 57.0543 47.614C56.8984 47.2542 56.6675 46.9364 56.3857 46.6725L60.682 44.1629C59.9654 42.9366 58.3914 42.5228 57.1652 43.2394C56.0469 43.893 55.6002 45.2633 56.0799 46.4297C55.6602 46.1358 55.1535 45.9559 54.6018 45.9349C53.7624 45.9049 52.9919 46.2468 52.4612 46.8194C52.4612 46.8194 52.3293 46.9154 52.3263 46.9724C51.9905 47.3891 51.7716 47.9019 51.7207 48.4655C51.3669 48.8883 50.8722 49.1972 50.2906 49.3231C48.8995 49.6169 47.5353 48.7264 47.2445 47.3352L50.7373 46.6006L52.2753 46.2737C51.9815 44.8855 50.6174 43.995 49.2263 44.2888C48.2069 44.5017 47.4574 45.2933 47.2475 46.2498C46.1202 46.3907 44.9899 46.1898 43.8567 45.5691C43.7127 46.9844 42.4505 48.0128 41.0384 47.8689C39.7373 47.7369 38.7689 46.6605 38.7299 45.3892C38.7389 45.1853 38.8378 45.0984 38.9548 45.0714L39.0237 45.0774C39.1466 45.1044 39.2576 45.1164 39.3475 45.1104L43.8537 45.5661C43.9976 44.1539 42.9692 42.8916 41.5541 42.7477C40.154 42.6067 38.9068 43.6142 38.7419 45.0024C38.6609 44.9754 38.577 44.9485 38.4901 44.9155C38.2652 43.968 37.5546 43.1644 36.5533 42.8676C35.9597 42.6907 35.354 42.7207 34.8114 42.9156C34.7304 42.8616 34.6825 42.8316 34.6825 42.8316L34.5446 43.0235C34.5116 43.0655 34.4756 43.1075 34.4426 43.1464C34.1968 43.4253 33.897 43.6382 33.5732 43.7821C33.4203 43.8511 33.2614 43.905 33.0965 43.941C33.0905 43.929 33.0845 43.917 33.0755 43.905C33.0065 43.7821 32.9346 43.6472 32.8536 43.4913C32.4189 42.6637 32.0441 41.8032 31.7353 40.9247L34.6825 42.8286C35.453 41.6353 35.1112 40.0431 33.918 39.2696C33.0725 38.7269 32.0262 38.7358 31.2137 39.2156C30.4641 36.2892 30.4012 33.1679 31.0278 30.1905C31.0428 30.1185 31.0578 30.0526 31.0758 29.9806C32.272 24.5776 35.6928 19.8791 40.4598 17.0936C43.7637 15.1627 47.5293 14.2302 51.3429 14.3981C58.1486 14.6979 64.2587 18.3769 67.6826 24.2387C68.8458 26.2327 69.6493 28.3855 70.066 30.6433L70.069 30.6552Z" fill="#CC2229"/>
<path d="M34.16 34.7092C33.3655 34.0375 32.1753 34.1335 31.5007 34.928C31.4437 35 31.3898 35.072 31.3418 35.1499C32.0583 35.099 32.9128 35.4468 33.5844 36.1424C33.9501 36.5232 34.211 36.9549 34.3609 37.3837C34.3669 37.3777 34.3729 37.3717 34.3789 37.3657C35.0504 36.5712 34.9545 35.3808 34.16 34.7062V34.7092Z" fill="#CC2229"/>
<path d="M53.4924 41.0536C52.482 41.2815 51.8314 42.214 52.0413 43.1315C52.0593 43.2125 52.0863 43.2934 52.1163 43.3684C52.512 42.8107 53.3065 42.3669 54.2599 42.241C54.7786 42.172 55.2763 42.211 55.702 42.3279C55.702 42.3189 55.702 42.3129 55.699 42.304C55.4891 41.3835 54.4997 40.8258 53.4924 41.0536Z" fill="#CC2229"/>
<path d="M56.3402 35.3837C55.8725 34.5652 54.7632 34.3193 53.8667 34.832C52.9673 35.3447 52.6165 36.4242 53.0812 37.2427C53.1232 37.3147 53.1712 37.3836 53.2221 37.4466C53.441 36.799 54.0706 36.1393 54.9461 35.7435C55.4228 35.5276 55.9084 35.4167 56.3522 35.4077C56.3462 35.3987 56.3462 35.3927 56.3432 35.3867L56.3402 35.3837Z" fill="#CC2229"/>
<path d="M61.4968 33.2937C61.9735 33.0779 62.4592 32.9669 62.9029 32.9579C62.8969 32.9519 62.8969 32.9429 62.8939 32.9369C62.4262 32.1184 61.3169 31.8725 60.4204 32.3852C59.521 32.898 59.1702 33.9774 59.6349 34.7959C59.6769 34.8679 59.7249 34.9369 59.7759 34.9998C59.9947 34.3522 60.6243 33.6925 61.4998 33.2967L61.4968 33.2937Z" fill="#CC2229"/>
<path d="M66.6384 33.0629C66.6864 33.1319 66.7373 33.1888 66.7943 33.2458C66.9472 32.5952 67.5019 31.8965 68.3173 31.4258C68.7461 31.1799 69.1928 31.03 69.6095 30.976C69.6035 30.9431 69.6005 30.9131 69.5945 30.8801C69.0459 30.1845 67.9876 30.0705 67.1841 30.6372C66.3536 31.2189 66.1107 32.3043 66.6414 33.0599L66.6384 33.0629Z" fill="#CC2229"/>
<path d="M46.2726 40.8737C45.3342 40.6518 44.4077 41.1646 44.2039 42.0221C44.1859 42.097 44.1739 42.175 44.1709 42.25C44.7345 41.9441 45.583 41.8992 46.4315 42.184C46.8962 42.3399 47.2949 42.5738 47.6037 42.8466C47.6067 42.8406 47.6097 42.8346 47.6127 42.8256C47.8136 41.9681 47.214 41.0956 46.2726 40.8737Z" fill="#CC2229"/>
<path d="M50.1437 38.427C49.2023 38.2081 48.2758 38.7208 48.075 39.5753C48.057 39.6503 48.048 39.7283 48.042 39.8032C48.6026 39.4974 49.4511 39.4494 50.2996 39.7343C50.7643 39.8902 51.163 40.124 51.4748 40.3969C51.4748 40.3909 51.4808 40.3849 51.4808 40.3759C51.6817 39.5214 51.0821 38.6458 50.1437 38.424V38.427Z" fill="#CC2229"/>
<path d="M62.2971 34.979C61.3947 35.4407 61.0049 36.4812 61.4247 37.3027C61.4636 37.3747 61.5086 37.4437 61.5536 37.5066C61.7964 36.88 62.438 36.2683 63.3135 35.9175C63.7902 35.7256 64.2699 35.6416 64.7016 35.6476C64.6986 35.6416 64.6956 35.6326 64.6926 35.6266C64.2699 34.8051 63.1995 34.5143 62.2941 34.979H62.2971Z" fill="#CC2229"/>
<path d="M32.7637 31.4079C32.9646 31.8427 33.0545 32.2924 33.0515 32.7062C33.0575 32.7032 33.0665 32.7002 33.0725 32.6972C33.891 32.2204 34.1638 31.171 33.6871 30.3555C33.2104 29.5399 32.1671 29.2611 31.3516 29.7348C31.3366 29.8008 31.3186 29.8697 31.3066 29.9357C31.8793 30.1516 32.4279 30.6823 32.7637 31.4109V31.4079Z" fill="#CC2229"/>
<path d="M66.9863 35.135C66.0389 35.7376 65.6551 36.832 66.1258 37.5726C66.1678 37.6386 66.2188 37.6986 66.2697 37.7525C66.5096 37.0959 67.1752 36.3823 68.0956 35.8935C68.5993 35.6267 69.1059 35.4618 69.5676 35.4018C69.5676 35.3958 69.5617 35.3868 69.5587 35.3808C69.085 34.6402 67.9337 34.5293 66.9863 35.132V35.135Z" fill="#CC2229"/>
<path d="M45.325 39.5364C45.325 39.5364 45.331 39.5244 45.334 39.5154C45.6758 38.7058 45.229 37.7463 44.3386 37.3685C43.4482 36.9938 42.4498 37.3476 42.111 38.1601C42.081 38.2321 42.06 38.307 42.0391 38.379C42.6447 38.1721 43.4871 38.2651 44.2786 38.6878C44.7104 38.9187 45.0671 39.2155 45.328 39.5364H45.325Z" fill="#CC2229"/>
<path d="M39.4434 38.646C38.502 38.1963 37.3778 38.592 36.928 39.5305C36.8861 39.6145 36.8561 39.6984 36.8291 39.7854C37.5097 39.5515 38.4241 39.6745 39.2516 40.1782C39.7013 40.451 40.0641 40.8048 40.3189 41.1826C40.3219 41.1766 40.3279 41.1676 40.3309 41.1617C40.7806 40.2202 40.3849 39.0958 39.4464 38.646H39.4434Z" fill="#CC2229"/>
<path d="M38.9994 36.9698C38.9994 36.9698 39.0083 36.9609 39.0113 36.9549C39.497 36.2233 39.2422 35.1948 38.4387 34.6581C37.6322 34.1214 36.5859 34.2803 36.1002 35.0119C36.0552 35.0779 36.0222 35.1468 35.9893 35.2158C36.6219 35.1259 37.4313 35.3777 38.1299 35.9414C38.5107 36.2502 38.8045 36.607 38.9994 36.9698Z" fill="#CC2229"/>
<path d="M60.9122 39.0508C60.0877 39.3506 59.638 40.1992 59.9108 40.9488C59.9348 41.0177 59.9678 41.0777 60.0008 41.1407C60.2766 40.6309 60.8972 40.1752 61.6857 39.9683C62.1144 39.8574 62.5342 39.8334 62.9059 39.8903C62.9029 39.8843 62.8999 39.8783 62.8999 39.8723C62.6301 39.1228 61.7397 38.757 60.9152 39.0538L60.9122 39.0508Z" fill="#CC2229"/>
<path d="M57.21 37.6864C56.3016 38.0162 55.8069 38.9517 56.1037 39.7792C56.1307 39.8542 56.1637 39.9202 56.2027 39.9891C56.5055 39.4284 57.192 38.9217 58.0585 38.6968C58.5322 38.5709 58.9939 38.5499 59.4046 38.6099C59.4016 38.6039 59.3986 38.5949 59.3986 38.5889C59.0988 37.7613 58.1215 37.3596 57.213 37.6864H57.21Z" fill="#CC2229"/>
<path d="M100.215 2.48265C99.2555 0.929494 97.5915 0 95.7657 0H5.23803C3.40919 0 1.74824 0.926495 0.785853 2.48265C-0.173539 4.0358 -0.260484 5.93977 0.557998 7.57088L45.8203 98.1066C46.7138 99.8906 48.5066 101 50.5004 101C52.4941 101 54.287 99.8906 55.1804 98.1066L100.443 7.57088C101.258 5.93677 101.174 4.0328 100.215 2.47965V2.48265ZM50.2785 97.5129H49.538V65.2595C49.541 63.0587 48.6985 60.9268 47.0375 58.9179C46.7557 58.5791 46.4499 58.2283 46.1261 57.8745H47.0226C47.2504 58.1293 47.4663 58.3812 47.6701 58.6271C49.406 60.7229 50.2875 62.9567 50.2845 65.2595V97.5129H50.2785ZM97.7624 6.23061L52.713 96.3405L52.7189 65.2145C52.7189 63.0946 53.5404 60.9928 55.1594 59.0468C55.5881 58.5341 56.0528 58.0184 56.5565 57.5087V56.5372C52.7999 57.7336 48.7854 57.7935 44.4472 56.5372V57.5267C44.9569 58.0544 45.4306 58.5821 45.8653 59.1068C47.4753 61.0498 48.2938 63.1456 48.2938 65.2625V96.3465L3.2383 6.23061C2.88452 5.52299 2.9205 4.73142 3.33724 4.05679C3.75397 3.38216 4.44653 2.99837 5.23803 2.99837H95.7657C96.5572 2.99837 97.2497 3.38516 97.6665 4.05679C98.0832 4.73142 98.1192 5.52299 97.7654 6.23061H97.7624Z" fill="#CC2229"/>
</g>
<defs>
<clipPath id="clip0_357_508">
<rect width="101" height="101" fill="white"/>
</clipPath>
</defs>
</svg>
