<svg width="101" height="101" viewBox="0 0 101 101" fill="none" xmlns="http://www.w3.org/2000/svg">
<g clip-path="url(#clip0_357_496)">
<path d="M54.6356 51.8393C56.2739 51.9001 57.6476 50.6185 57.7081 48.9748L51.7863 48.7505C51.7257 50.3942 53.0006 51.7784 54.6356 51.8393Z" fill="#CC2229"/>
<path d="M44.4108 52.9063C46.1479 52.9735 47.6108 51.6086 47.6746 49.8623L41.3862 49.6252C41.3192 51.3715 42.6738 52.839 44.4108 52.9063Z" fill="#CC2229"/>
<path d="M38.3006 44.973L38.2273 44.9666C38.103 44.9986 37.9978 45.0915 37.9883 45.3062C38.0265 46.6615 39.0592 47.815 40.4424 47.956C41.9436 48.1066 43.2854 47.0108 43.4384 45.4984L38.648 45.0114C38.5524 45.0178 38.4345 45.005 38.3038 44.9762L38.3006 44.973Z" fill="#CC2229"/>
<path d="M31.7484 43.281C31.8313 43.4444 31.9078 43.5886 31.9843 43.7232C31.9906 43.736 31.997 43.7488 32.0066 43.7616C32.1787 43.7232 32.3508 43.6655 32.5133 43.5918C32.8576 43.438 33.1763 43.2105 33.4376 42.9125C33.4759 42.8709 33.5109 42.826 33.546 42.7812L33.6926 42.5761L30.5596 40.5415C30.8879 41.4803 31.2894 42.4031 31.7484 43.2842V43.281Z" fill="#CC2229"/>
<path d="M35.4263 48.3629C35.4486 48.3853 35.4709 48.4046 35.49 48.427C36.5099 48.1931 37.3768 47.4305 37.6924 46.3507L32.6406 44.8384C33.4406 46.1072 34.3777 47.2927 35.4231 48.3597L35.4263 48.3629Z" fill="#CC2229"/>
<path d="M56.7578 46.6743C57.0574 46.953 57.3028 47.2959 57.4686 47.6772C58.3068 48.2315 59.4191 48.2923 60.3434 47.7509C60.9873 47.3728 61.4239 46.7704 61.6024 46.0975C61.6151 45.8989 61.6438 45.7034 61.6948 45.5144C61.6948 45.5144 61.6948 45.5133 61.6948 45.5112C61.7203 44.9985 61.6024 44.4698 61.3251 43.9924L56.7578 46.6743Z" fill="#CC2229"/>
<path d="M50.2625 101V66.5333C50.2657 64.0726 49.3286 61.6855 47.4832 59.4458C47.2665 59.1831 47.0338 58.914 46.7948 58.6416H45.8418C46.186 59.0197 46.5111 59.3946 46.8107 59.7566C48.5764 61.9034 49.4752 64.1815 49.472 66.5333V101H50.2593H50.2625Z" fill="#CC2229"/>
<path d="M52.857 66.4853L52.8506 99.7472L100.742 3.45403C101.118 2.69786 101.08 1.85198 100.637 1.13105C100.194 0.410126 99.4574 0 98.616 0H2.38086C1.53943 0 0.803183 0.41333 0.360159 1.13105C-0.0828658 1.85198 -0.121113 2.69786 0.25498 3.45403L48.1462 99.7472V66.5302C48.1494 64.2681 47.2761 62.0284 45.5678 59.9521C45.1056 59.3914 44.602 58.8275 44.0602 58.2636V57.2062C48.6721 58.5487 52.9398 58.4879 56.9334 57.2062V58.2443C56.4011 58.7922 55.9039 59.3401 55.4482 59.8881C53.7239 61.9675 52.8538 64.2136 52.8538 66.4789L52.857 66.4853ZM49.5327 56.3956C45.7781 56.229 42.0873 55.1267 38.8555 53.2107C35.5216 51.2337 32.7232 48.4045 30.7631 45.0306C29.2077 42.3551 28.2229 39.4522 27.834 36.4019C27.458 33.4541 27.6492 30.4967 28.4046 27.6066C29.1599 24.7165 30.438 22.0443 32.2069 19.6636C34.0364 17.1997 36.3153 15.1554 38.9734 13.595C42.7694 11.365 47.0913 10.2916 51.4737 10.4839C55.2282 10.6505 58.9191 11.7527 62.1509 13.6687C65.4847 15.6457 68.2831 18.4749 70.2433 21.8488C76.6018 32.7909 72.9205 46.8922 62.033 53.2844C58.237 55.5144 53.9151 56.5878 49.5327 56.3956Z" fill="#CC2229"/>
<path d="M65.271 42.7972C65.4304 43.0728 65.6344 43.3131 65.8638 43.5085C66.1061 43.6207 66.3387 43.7617 66.5427 43.9347C67.2981 44.2615 68.1905 44.2423 68.9586 43.8129C69.0001 43.7392 69.0415 43.6623 69.0829 43.5886C69.5132 42.7908 69.8957 41.9545 70.2208 41.1022C70.2495 41.0253 70.2813 40.9452 70.31 40.8651C70.2527 40.5768 70.1443 40.2916 69.9881 40.0225L65.2646 42.7972H65.271Z" fill="#CC2229"/>
<path d="M66.2532 39.0389C67.3209 38.4109 68.6372 38.5935 69.4978 39.4042L71.0595 38.4013C71.0722 38.3532 71.0818 38.3052 71.0946 38.2603C71.7479 35.4503 71.8308 32.5954 71.34 29.7726C71.3336 29.731 71.3272 29.6957 71.3209 29.6605L71.3017 29.5579C70.8587 27.1485 70.0077 24.8447 68.7679 22.714C65.1281 16.4499 58.6357 12.5185 51.3975 12.1981C47.3402 12.0186 43.3402 13.0151 39.8279 15.0786C34.7602 18.0552 31.1236 23.0728 29.8519 28.8498C29.8327 28.9235 29.8168 28.9972 29.8009 29.0741C29.1347 32.2558 29.2048 35.5913 29.9985 38.7185C30.859 38.209 31.9714 38.1962 32.8733 38.7762C34.1419 39.5996 34.502 41.3042 33.6861 42.5795C33.6861 42.5795 33.7371 42.6115 33.8231 42.6692C34.4 42.4609 35.0438 42.4289 35.6749 42.6179C36.7395 42.9351 37.4916 43.7938 37.7339 44.8063C37.8263 44.8416 37.9155 44.8736 38.0016 44.8992C38.1769 43.4125 39.5028 42.3391 40.9912 42.4897C42.4924 42.6435 43.5888 43.9925 43.4358 45.5016C44.6438 46.1617 45.8454 46.3795 47.0406 46.2289C47.2669 45.2068 48.0605 44.3609 49.1441 44.1335C50.623 43.8195 52.0732 44.7711 52.3855 46.2546L50.7505 46.6006L47.0374 47.3856C47.3497 48.8723 48.7999 49.8208 50.2756 49.51C50.8939 49.3786 51.4198 49.0454 51.7959 48.5936C51.8501 47.9912 52.0828 47.4433 52.4397 46.9979C52.4429 46.937 52.5831 46.8345 52.5831 46.8345C53.1505 46.2225 53.9664 45.8573 54.8588 45.8893C55.4453 45.9117 55.9839 46.1008 56.4301 46.418C55.9234 45.1716 56.3951 43.7073 57.5839 43.0088C58.8875 42.243 60.5608 42.6852 61.3225 43.9957C62.4317 43.9444 63.7289 43.3645 65.1249 42.5122C64.5767 41.253 65.0452 39.7534 66.2532 39.0421V39.0389ZM68.2356 29.5355C69.0866 28.9299 70.2149 29.0517 70.7981 29.7951C70.8045 29.8303 70.8109 29.8623 70.8141 29.8976C70.3742 29.9553 69.8962 30.1155 69.4404 30.3782C68.5735 30.878 67.9838 31.6246 67.8213 32.3231C67.7607 32.2622 67.7065 32.1981 67.6555 32.1276C67.0914 31.3202 67.3496 30.1603 68.2324 29.5387L68.2356 29.5355ZM68.0284 34.3417C69.0356 33.6945 70.2627 33.813 70.7631 34.6076C70.7663 34.614 70.7695 34.6204 70.7726 34.6301C70.2818 34.6941 69.7432 34.8704 69.2077 35.1555C68.2292 35.6778 67.5185 36.4404 67.2667 37.1421C67.2093 37.0812 67.1583 37.0171 67.1137 36.9498C66.6101 36.1584 67.0213 34.9889 68.0284 34.3449V34.3417ZM30.1419 28.5679C31.0088 28.0648 32.118 28.3596 32.6247 29.2311C33.1315 30.1026 32.8415 31.2241 31.9714 31.7335C31.9618 31.7367 31.9554 31.7399 31.949 31.7432C31.9522 31.301 31.8534 30.8204 31.6431 30.3558C31.2893 29.5772 30.706 29.01 30.0941 28.7794C30.1068 28.7057 30.126 28.6352 30.1419 28.5647V28.5679ZM33.3642 36.7288C33.3642 36.7288 33.3514 36.7416 33.3451 36.748C33.1857 36.2898 32.9084 35.8284 32.5196 35.4215C31.8056 34.6781 30.8973 34.3032 30.1355 34.3609C30.1865 34.2776 30.2407 34.2007 30.3044 34.1238C31.0216 33.2747 32.2869 33.1722 33.1315 33.8899C33.9761 34.6108 34.0781 35.8829 33.3642 36.732V36.7288ZM35.0725 34.4282C35.1076 34.3545 35.1427 34.2808 35.1905 34.2103C35.7068 33.4285 36.8191 33.2587 37.6765 33.8322C38.5307 34.4026 38.8048 35.5048 38.2853 36.2866C38.2821 36.293 38.2757 36.2962 38.2725 36.3026C38.0653 35.9149 37.753 35.5304 37.3482 35.2036C36.6056 34.6012 35.7418 34.3321 35.0725 34.4282ZM39.6876 40.782C39.6876 40.782 39.6781 40.798 39.6749 40.8044C39.4072 40.4007 39.0215 40.0258 38.5402 39.731C37.6606 39.1927 36.6916 39.0613 35.965 39.3113C35.9936 39.2183 36.0255 39.1286 36.0701 39.0389C36.5482 38.0328 37.7466 37.6131 38.7442 38.0937C39.745 38.5743 40.1625 39.7791 39.6844 40.782H39.6876ZM41.5012 37.8085C41.5203 37.7284 41.5458 37.6515 41.5777 37.5746C41.941 36.7063 42.9992 36.3314 43.9458 36.7288C44.8924 37.1293 45.3673 38.1546 45.0039 39.0229C45.0007 39.0293 44.9976 39.0389 44.9944 39.0453C44.7171 38.7025 44.341 38.3853 43.8788 38.1386C43.0342 37.69 42.1418 37.5875 41.498 37.8085H41.5012ZM47.4294 42.5602C47.4294 42.5602 47.423 42.573 47.4198 42.5827C47.0947 42.2911 46.6677 42.0412 46.1736 41.8746C45.2685 41.5702 44.3697 41.6214 43.7705 41.945C43.7768 41.8649 43.7864 41.7816 43.8055 41.7015C44.0191 40.7852 45.0039 40.2373 46.0047 40.4744C47.0055 40.7115 47.643 41.6439 47.4294 42.5602ZM51.5441 39.9457C51.5441 39.9457 51.5409 39.9617 51.5377 39.9681C51.2095 39.6765 50.7856 39.4266 50.2883 39.26C49.3832 38.9556 48.4844 39.0069 47.8884 39.3337C47.8947 39.2536 47.9011 39.1703 47.9234 39.0902C48.1402 38.177 49.125 37.6259 50.1226 37.863C51.1202 38.1001 51.7608 39.0357 51.5441 39.9489V39.9457ZM54.4987 41.9354C53.4851 42.07 52.6405 42.5442 52.2198 43.1402C52.1879 43.0601 52.1592 42.9768 52.1401 42.8871C51.917 41.9066 52.6086 40.9101 53.6827 40.6666C54.7536 40.4231 55.8054 41.0191 56.0285 42.0027C56.0285 42.0091 56.0285 42.0187 56.0317 42.0284C55.5791 41.9034 55.0501 41.8617 54.4987 41.9354ZM55.2254 34.9921C54.2947 35.4151 53.6254 36.12 53.3927 36.8121C53.3385 36.7448 53.2875 36.6711 53.2429 36.5942C52.7457 35.7227 53.1186 34.566 54.078 34.0181C55.0309 33.4702 56.2102 33.7361 56.7074 34.6076C56.7106 34.614 56.7138 34.6236 56.717 34.6301C56.2485 34.6429 55.7289 34.7582 55.2222 34.9889L55.2254 34.9921ZM58.5369 38.1482C57.6126 38.3885 56.8859 38.9268 56.564 39.5291C56.5257 39.4555 56.4907 39.3818 56.4588 39.3049C56.1401 38.4205 56.6692 37.4208 57.6349 37.0684C58.6038 36.7191 59.6429 37.1485 59.9584 38.0328C59.9584 38.0392 59.9616 38.0488 59.9648 38.0553C59.5281 37.9912 59.0373 38.0136 58.5337 38.1482H58.5369ZM60.207 33.9764C59.7098 33.1049 60.0827 31.9482 61.042 31.4003C61.995 30.8524 63.1743 31.1151 63.6715 31.9899C63.6747 31.9963 63.6779 32.0059 63.6811 32.0123C63.2094 32.0251 62.693 32.1405 62.1863 32.3712C61.2556 32.7941 60.5863 33.499 60.3536 34.1911C60.2994 34.1238 60.2484 34.0501 60.2038 33.9732L60.207 33.9764ZM62.3902 39.5067C61.552 39.7278 60.8922 40.2116 60.599 40.7595C60.564 40.6954 60.5321 40.6282 60.5034 40.5545C60.2166 39.7534 60.6915 38.8467 61.5679 38.5263C62.4444 38.209 63.391 38.6 63.6779 39.401C63.6779 39.4074 63.6779 39.4138 63.6843 39.4202C63.289 39.3625 62.8428 39.385 62.3871 39.5035L62.3902 39.5067ZM62.2532 36.8761C62.2022 36.8089 62.1544 36.7352 62.1161 36.6583C61.6667 35.7803 62.0843 34.6685 63.0436 34.1751C64.003 33.6816 65.144 33.9924 65.5934 34.8672C65.5966 34.8736 65.5998 34.8832 65.603 34.8896C65.1408 34.8832 64.634 34.9729 64.1273 35.178C63.1966 35.5528 62.5145 36.2097 62.2564 36.8761H62.2532Z" fill="#CC2229"/>
<path d="M64.5633 49.3306C64.6047 49.2954 64.6461 49.2601 64.6876 49.2217C65.7425 48.2636 66.6987 47.1967 67.5338 46.0496C67.5656 46.008 67.5975 45.9631 67.6262 45.9182C67.5879 45.6042 67.5019 45.2902 67.3585 44.9858L61.8828 47.5844C62.3896 48.6642 63.4477 49.305 64.5601 49.3274L64.5633 49.3306Z" fill="#CC2229"/>
</g>
<defs>
<clipPath id="clip0_357_496">
<rect width="101" height="101" fill="white"/>
</clipPath>
</defs>
</svg>
