<?xml version="1.0" encoding="UTF-8"?>
<svg id="Calque_1" data-name="Calque 1" xmlns="http://www.w3.org/2000/svg" viewBox="0 0 200 200">
  <path d="M159.88,78.1c0,14.29-21.25,17.87-21.25,17.87,0,0,5.53-3.94,1.29-28.35C135.1,39.9,87.52,0,87.52,0c0,45.48-70.86,94.05-70.86,140.48,0,37.38,37.43,59.52,80.83,59.52,35.43,0,85.84-30,85.84-67.62,0-35.48-23.45-54.29-23.45-54.29ZM97.49,193.57c-36.17,0-47.39-21.43-47.39-35.48,0-35.56,41.89-40.16,41.89-80,46.17,44.06,36.44,50.18,36.44,50.18,0,0,7.17-.76,7.17-6.21,5.88,5.62,12.68,12.7,12.68,34.01,0,16.94-19.34,37.5-50.79,37.5Z"/>
  <g>
    <path d="M82.53,139.92l11.65,6.72c.32.19.74.1.95-.2l5.48-7.67c.29-.41.93-.39,1.19.04l2.14,3.44c.2.31.09.72-.23.91l-3.97,2.41c-.58.35-.34,1.21.35,1.24l15.32.61c.27.01.52-.12.65-.34l7.83-13.34c.35-.59-.34-1.25-.96-.92l-4.16,2.2c-.34.18-.77.06-.96-.26l-4.29-7.23c-.12-.2-.34-.33-.58-.34l-21.34-.93c-.25-.01-.48.1-.62.3l-8.67,12.39c-.22.32-.12.75.22.95Z"/>
    <path d="M122.9,144.92l-12.04,6.06c-.33.17-.47.55-.31.88l4.07,8.43c.22.45-.13.96-.65.96l-4.19-.02c-.38,0-.69-.29-.7-.66l-.12-4.49c-.02-.66-.92-.9-1.3-.35l-8.44,12.22c-.15.21-.16.49-.02.71l7.95,13.27c.35.59,1.29.37,1.32-.31l.17-4.54c.01-.37.34-.66.72-.65l8.71.22c.24,0,.47-.11.61-.3l11.82-16.98c.14-.2.16-.45.05-.66l-6.67-13.47c-.17-.35-.61-.49-.97-.31Z"/>
    <path d="M97.57,176.12l-.25-12.99c0-.36-.31-.65-.68-.66l-9.72-.34c-.52-.02-.84-.54-.6-.98l1.91-3.56c.17-.32.59-.46.93-.3l4.26,1.92c.63.28,1.26-.37.91-.94l-7.62-12.7c-.13-.22-.38-.35-.65-.34l-16,.79c-.71.04-.93.94-.3,1.26l4.17,2.19c.34.18.47.58.28.91l-4.13,7.32c-.12.2-.11.45,0,.65l10.55,17.72c.12.21.35.33.6.34l15.61.39c.4.01.73-.3.73-.69Z"/>
  </g>
</svg>