<?xml version="1.0" encoding="UTF-8"?>
<svg id="Calque_1" data-name="Calque 1" xmlns="http://www.w3.org/2000/svg" viewBox="0 0 200 200">
  <path d="M68.92,163.72c0,9.69-7.79,17.55-17.42,17.55s-17.41-7.86-17.41-17.55c0-7.26,4.36-13.48,10.58-16.17v-64.8c0-3.35,1.96-8.64,6.85-8.64s6.83,5.28,6.83,8.64v64.81c6.22,2.67,10.58,8.9,10.58,16.15Z"/>
  <g>
    <path d="M114.26,41.77c-1.12,0-2.24-.43-3.1-1.29-1.71-1.72-1.71-4.52,0-6.25L143.11,2.02c1.71-1.72,4.48-1.72,6.2,0,1.71,1.72,1.71,4.52,0,6.25l-31.95,32.21c-.86.86-1.98,1.29-3.1,1.29Z"/>
    <path d="M178.73,88.73h-45.18c-2.42,0-4.38-1.98-4.38-4.42s1.96-4.42,4.38-4.42h45.18c2.42,0,4.38,1.98,4.38,4.42s-1.96,4.42-4.38,4.42Z"/>
    <path d="M146.21,167.91c-1.12,0-2.24-.43-3.1-1.29l-31.95-32.21c-1.71-1.72-1.71-4.52,0-6.25,1.71-1.73,4.48-1.73,6.2,0l31.95,32.21c1.71,1.72,1.71,4.52,0,6.25-.86.86-1.98,1.29-3.1,1.29Z"/>
    <path d="M92.93,27.26c-.56,0-1.13-.11-1.67-.34-2.24-.93-3.3-3.52-2.37-5.77l7.45-18.13c.93-2.25,3.49-3.32,5.72-2.39,2.24.93,3.3,3.52,2.37,5.77l-7.45,18.13c-.7,1.7-2.33,2.73-4.05,2.73Z"/>
    <path d="M128.65,63.27c-1.72,0-3.35-1.03-4.05-2.73-.93-2.25.14-4.84,2.37-5.77l17.99-7.51c2.23-.93,4.8.14,5.72,2.39.93,2.25-.14,4.84-2.37,5.77l-17.99,7.51c-.55.23-1.12.34-1.67.34Z"/>
    <path d="M146.64,121.71c-.56,0-1.13-.11-1.67-.34l-17.99-7.51c-2.24-.93-3.3-3.52-2.37-5.77.93-2.25,3.49-3.32,5.72-2.39l17.99,7.51c2.24.93,3.3,3.52,2.37,5.77-.7,1.7-2.33,2.73-4.05,2.73Z"/>
    <path d="M100.38,168.34c-1.72,0-3.35-1.03-4.05-2.73l-7.45-18.13c-.93-2.25.14-4.84,2.37-5.77s4.8.14,5.72,2.39l7.45,18.13c.93,2.25-.14,4.84-2.37,5.77-.55.23-1.12.34-1.67.34Z"/>
  </g>
  <path d="M125,85.45c0-29.03-20.99-53.12-48.5-57.71-.81-12.14-6-28.03-24.99-28.03C29.03-.29,26.39,19.1,26.39,31.42v108.57c-6.07,6.28-9.51,14.83-9.51,24.3,0,19.27,15.5,34.9,34.63,34.9s34.6-15.62,34.6-34.9c0-8.17-2.56-15.66-7.17-21.59,26.3-5.55,46.06-29.07,46.06-57.25ZM51.51,189.46c-13.77,0-24.98-11.29-24.98-25.18,0-6.78,2.4-12.99,6.76-17.51l2.74-2.83V31.42c0-6.9.99-12.21,2.93-15.8,1.57-2.88,4.41-6.18,12.54-6.18,5.83,0,9.55,1.97,12.06,6.38,2.96,5.16,3.4,12,3.4,15.61v112.53l2.73,2.83c4.37,4.52,6.77,10.73,6.77,17.51,0,13.88-11.2,25.18-24.96,25.18ZM77.55,133.87c-1.42,0-2.56-1.16-2.56-2.58s1.15-2.58,2.56-2.58c19.66,0,35.66-17.83,35.66-39.75,0-1.43,1.15-2.58,2.56-2.58s2.56,1.16,2.56,2.58c0,24.77-18.29,44.91-40.78,44.91Z"/>
</svg>