<?xml version="1.0" encoding="UTF-8"?>
<svg id="Calque_1" data-name="Calque 1" xmlns="http://www.w3.org/2000/svg" viewBox="0 0 200 200">
  <g>
    <path d="M20.29,69.18c.39.06.78.07,1.18.07h59.02c.38,0,.76-.02,1.13-.06.03,0,.06,0,.08,0H20.29Z"/>
    <path d="M142.06,69.18s.1,0,.15,0c.36.05.72.06,1.09.06h34.19c.37,0,.73,0,1.09-.06.06,0,.13,0,.19-.02h-36.71Z"/>
    <path d="M101.97,69.18s.08,0,.12,0c.42.04.84.06,1.27.06h21.28c.44,0,.86-.02,1.29-.06.05,0,.1,0,.15,0h-24.1Z"/>
    <path d="M20.29,69.18h61.32s.06,0,.08,0H20.29ZM101.97,69.18s.08,0,.12,0h23.83s.1,0,.15,0h-24.1ZM142.06,69.18s.1,0,.15,0h36.37c.06,0,.13,0,.19,0h-36.71Z"/>
    <path d="M67.34,170.38c2.64,0,4.78,2.14,4.78,4.76s-2.15,4.76-4.78,4.76-4.78-2.14-4.78-4.76,2.15-4.76,4.78-4.76h0ZM67.34,164.82c-5.72,0-10.36,4.62-10.36,10.32s4.64,10.32,10.36,10.32,10.36-4.62,10.36-10.32-4.64-10.32-10.36-10.32h0Z"/>
    <path d="M134.39,170.38c2.64,0,4.78,2.14,4.78,4.76s-2.15,4.76-4.78,4.76-4.78-2.14-4.78-4.76,2.15-4.76,4.78-4.76h0ZM134.39,164.82c-5.72,0-10.36,4.62-10.36,10.32s4.64,10.32,10.36,10.32,10.36-4.62,10.36-10.32-4.64-10.32-10.36-10.32h0Z"/>
    <path d="M141.08,141.97c-2.31,0-4.18-1.87-4.18-4.17v-27.78c0-2.3,1.87-4.17,4.18-4.17s4.18,1.87,4.18,4.17v27.78c0,2.3-1.87,4.17-4.18,4.17Z"/>
    <path d="M100.02,141.97c-2.31,0-4.18-1.87-4.18-4.17v-27.78c0-2.3,1.87-4.17,4.18-4.17s4.18,1.87,4.18,4.17v27.78c0,2.3-1.87,4.17-4.18,4.17Z"/>
    <path d="M58.95,141.97c-2.31,0-4.18-1.87-4.18-4.17v-27.78c0-2.3,1.87-4.17,4.18-4.17s4.18,1.87,4.18,4.17v27.78c0,2.3-1.87,4.17-4.18,4.17Z"/>
  </g>
  <path d="M192.79,61.93h-4.3c1.42-3.38,1.19-7.18-.69-10.43l-18.36-31.85c-2.9-5.02-8.95-7.21-14.41-5.23l-6.94,2.53c.05-4.03-2.05-7.71-5.6-9.75l-9.94-5.71c-2.63-1.51-5.81-1.9-8.74-1.05l-17.37,5.04c-1.69.49-3.26,1.38-4.54,2.58-2.09,1.94-3.31,4.56-3.51,7.35-1.94-.12-3.9.19-5.73.92-.8-3.23-2.94-5.94-6.02-7.49-.36-.19-.69-.42-.98-.69l-4.72-4.45c-3.16-2.98-7.68-3.95-11.79-2.54l-11.14,3.84c-2.38.81-4.46,2.43-5.87,4.51l-2.81,4.21c-1.56,2.32-2.19,5.12-1.85,7.84l-.39-.09c-4.43-1.11-9.01.75-11.42,4.6l-7.17,11.46c-.19.31-.44.58-.73.81l-8.64,6.55c-.84.64-1.58,1.41-2.19,2.27l-4.02,5.65c-1.91,2.69-2.42,6.04-1.46,9.11h-4.25c-3.98,0-7.21,3.29-7.21,7.33v17.6c0,4.05,3.23,7.33,7.21,7.33h1.45l14.92,77.43c.66,3.43,3.64,5.92,7.07,5.92h11.83c1.21,12.59,11.9,22.47,24.85,22.47s23.63-9.87,24.84-22.47h17.82c1.21,12.34,11.69,22,24.38,22s23.17-9.67,24.38-22h10.57c3.44,0,6.42-2.49,7.07-5.92l14.81-76.89.1-.54h1.45c1.02,0,1.99-.22,2.86-.59,0,0,.02,0,.02,0,2.55-1.14,4.33-3.72,4.33-6.73v-17.6c0-4.04-3.23-7.33-7.21-7.33ZM83.81,177.53c-1.17,8.01-8.11,14.18-16.46,14.18s-15.3-6.17-16.46-14.18c-.12-.78-.18-1.58-.18-2.4,0-.41.02-.81.05-1.22.09-1.25.32-2.47.69-3.63,2.08-6.78,8.43-11.71,15.91-11.71s13.81,4.94,15.91,11.71c.36,1.16.59,2.38.69,3.63.03.41.05.81.05,1.22,0,.81-.06,1.62-.18,2.4ZM151.32,177.53c-1.18,8.27-8.32,14.64-16.94,14.64s-15.77-6.37-16.94-14.64c-.11-.78-.17-1.58-.17-2.4,0-.41.02-.82.05-1.22.08-1.26.31-2.47.67-3.63,2.1-7.04,8.66-12.18,16.4-12.18s14.29,5.14,16.39,12.18c.35,1.16.58,2.37.67,3.63.03.4.05.81.05,1.22,0,.81-.06,1.62-.17,2.4ZM183.29,97.49l-13.61,70.54c-.25,1.31-1.39,2.25-2.72,2.25h-8.56c-2.26-11.13-12.17-19.54-24.01-19.54s-21.75,8.41-24.01,19.54h-18.56c-2.27-11.39-12.39-20-24.48-20s-22.22,8.61-24.49,20h-9.82c-1.32,0-2.47-.94-2.72-2.24-2.08-10.83-11.1-57.65-13.58-70.55-.33-1.71.98-3.31,2.73-3.31h161.1c1.75,0,3.06,1.59,2.73,3.31ZM192.71,84.55c0,1.02-.82,1.84-1.85,1.84H9.14c-1.02,0-1.85-.82-1.85-1.85v-13.5c0-1.02.83-1.85,1.85-1.85h72.56s-.06,0-.08,0h20.48s-.08,0-.12,0h24.1s-.1,0-.15,0h16.28s-.1,0-.15,0h36.71c-.06,0-.13.02-.19.02h12.3c1.02,0,1.85.82,1.85,1.85,0,3.31,0,10.19,0,13.49Z"/>
</svg>