<?xml version="1.0" encoding="UTF-8"?>
<svg id="Calque_1" data-name="Calque 1" xmlns="http://www.w3.org/2000/svg" viewBox="0 0 200 200">
  <defs>
    <style>
      .cls-1 {
        fill: none;
        stroke: #000;
        stroke-linecap: round;
        stroke-miterlimit: 10;
        stroke-width: 4.04px;
      }
    </style>
  </defs>
  <circle cx="104.91" cy="106.21" r="14.55"/>
  <path class="cls-1" d="M43.15,50.19c14.09-15.79,34.14-26.29,56.93-27.81"/>
  <path class="cls-1" d="M88.06,187.85c-21.44-4.59-40.03-17.45-52-35.28"/>
  <path class="cls-1" d="M185.01,79.15c2.26,6.71,3.7,13.83,4.19,21.23,1.02,15.35-2.16,30.01-8.56,42.85"/>
  <path class="cls-1" d="M57.53,63.84c9.36-10.7,22.27-18.29,37.05-20.87"/>
  <path class="cls-1" d="M92.65,168.56c-14.41-2.98-27.16-10.85-36.3-21.89"/>
  <path class="cls-1" d="M166.09,85.09c1.81,5.24,2.95,10.81,3.34,16.61.62,9.25-.77,18.18-3.78,26.35"/>
  <path d="M114.91,0h-.39c-1.59,0-2.99,1.04-3.46,2.55l-22.31,72.49c-.92,2.97.13,6.19,2.62,8.05,3.57,2.5,7.71,4.99,8.64,9.4l11.77.88L118.52,3.89c.16-2.1-1.5-3.89-3.61-3.89Z"/>
  <path d="M7.92,150.65l.2.34c.79,1.38,2.39,2.07,3.94,1.72l73.94-16.92c3.03-.69,5.3-3.21,5.66-6.3.38-4.34.46-9.17,3.83-12.18l-5.13-10.63L9.49,145.58c-1.9.91-2.62,3.25-1.57,5.07Z"/>
  <path d="M191.88,167.98l.2-.34c.79-1.38.6-3.11-.48-4.27l-51.63-55.57c-2.11-2.28-5.43-2.99-8.28-1.75-3.95,1.84-8.17,4.18-12.46,2.78l-6.65,9.75,74.13,50.58c1.74,1.19,4.12.64,5.17-1.18Z"/>
  <path d="M104.91,124.43c-2.15,0-4.21-.38-6.13-1.07-.57-.21-1.18.21-1.21.82l-3.79,74.86c-.03.52.39.96.92.96h20.44c.52,0,.94-.44.92-.96l-3.79-74.87c-.03-.61-.64-1.02-1.21-.82-1.92.69-3.98,1.07-6.13,1.07Z"/>
</svg>