<?xml version="1.0" encoding="UTF-8"?>
<svg id="Calque_1" data-name="Calque 1" xmlns="http://www.w3.org/2000/svg" viewBox="0 0 200 200">
  <g>
    <path d="M119.85,117.68l17.01-15.86c.75-.7,1.12-1.58,1.18-2.45-.38-1-.78-1.99-1.19-2.99-.63-.59-1.49-.97-2.51-.97h-9.12l5.54-11.64c-1.14-2.11-2.33-4.21-3.54-6.27l-21.53,22.81c-2.23,2.36-.56,6.25,2.69,6.25h9.77l-3.99,6.48c-2.26,3.68,2.52,7.59,5.68,4.65Z"/>
    <path d="M134.18,90.45c-.29-.6-.58-1.2-.87-1.8.12.67.43,1.29.87,1.8Z"/>
    <path d="M102.32,139.08c-3.16,2.94-7.94-.98-5.68-4.65h0s11.41-18.53,11.41-18.53c1.52-2.47-.26-5.65-3.15-5.65h-5.1c-3.25,0-4.92-3.88-2.69-6.25h0l28.14-29.81c-9.39-15.35-19.85-28.54-23.71-34.31-.73-1.1-2.34-1.1-3.08,0-7.63,11.41-41.05,52.12-41.05,80.55,0,23.52,19.07,42.59,42.59,42.59s42.59-19.07,42.59-42.59c0-5.11-1.07-10.6-2.86-16.23l-37.41,34.87ZM71.03,128.11c-.57-2.41-.86-4.9-.86-7.4,0-1.35.09-2.71.25-4.04.13-1.01,1.05-1.74,2.07-1.61,1.01.13,1.73,1.05,1.61,2.07-.15,1.18-.22,2.38-.22,3.57,0,2.21.26,4.42.76,6.55.24.99-.38,1.99-1.37,2.23-.14.03-.29.05-.43.05-.84,0-1.6-.57-1.8-1.42ZM88.38,147.53c-.35.58-.96.91-1.6.91-.32,0-.65-.08-.94-.26-5.77-3.42-10.42-8.68-13.07-14.83-.41-.94.03-2.03.97-2.43.94-.41,2.03.03,2.43.97,2.35,5.43,6.45,10.09,11.56,13.11.88.52,1.17,1.66.65,2.54Z"/>
  </g>
  <path d="M34.25,137.96c.66-.38,1.47.15,1.38.91l-1.4,12.33-1.16,10.22c-.06.57-.62.94-1.17.79l-13.02-3.71-11.42-3.26c-.79-.22-.92-1.28-.21-1.69l5.33-3.08c.44-.25.59-.81.34-1.25C4.7,134.68,0,117.89,0,100c0-21.01,6.48-40.5,17.55-56.59.29-.42.88-.53,1.3-.23l6.06,4.25,6.07,4.25c.42.29.52.86.23,1.28-9.18,13.38-14.54,29.59-14.54,47.04,0,14.85,3.88,28.8,10.69,40.86.25.45.83.6,1.28.34l5.62-3.24Z"/>
  <path d="M153.55,192.74l-3.08-5.33c-.25-.44-.81-.59-1.25-.34-14.53,8.24-31.33,12.93-49.22,12.93-21.01,0-40.5-6.48-56.59-17.55-.42-.29-.53-.88-.23-1.3l4.25-6.06,4.25-6.07c.29-.42.86-.52,1.28-.23,13.38,9.18,29.59,14.54,47.04,14.54,14.85,0,28.8-3.88,40.86-10.69.45-.25.6-.83.34-1.28l-3.24-5.62c-.38-.66.15-1.47.91-1.38l22.55,2.55c.57.06.94.62.79,1.17l-6.97,24.44c-.22.79-1.28.92-1.69.21Z"/>
  <path d="M200,100c0,21.01-6.48,40.5-17.55,56.59-.29.42-.88.53-1.3.23l-6.06-4.25-6.07-4.25c-.42-.29-.52-.86-.23-1.28,9.18-13.38,14.54-29.59,14.54-47.04,0-14.85-3.88-28.8-10.69-40.86-.25-.45-.83-.6-1.28-.34l-5.62,3.24c-.66.38-1.47-.15-1.38-.91l2.55-22.55c.06-.57.62-.94,1.17-.79l24.44,6.97c.79.22.92,1.28.21,1.69l-5.33,3.08c-.44.25-.59.81-.34,1.25,8.24,14.53,12.93,31.33,12.93,49.22Z"/>
  <path d="M156.59,17.55c.42.29.53.88.23,1.3l-4.25,6.06-4.25,6.07c-.29.42-.86.52-1.28.23-13.38-9.18-29.59-14.54-47.04-14.54-14.85,0-28.8,3.88-40.86,10.69-.45.25-.6.83-.34,1.28l3.24,5.62c.38.66-.15,1.47-.91,1.38l-12.33-1.4-10.22-1.16c-.57-.06-.94-.62-.79-1.17l3.71-13.01,3.26-11.43c.22-.79,1.28-.92,1.69-.21l3.08,5.33c.25.44.81.59,1.25.34C65.32,4.7,82.11,0,100,0c21.01,0,40.5,6.48,56.59,17.55Z"/>
  <path d="M138.38,65.69l-37.84,40.09c-.28.3-.07.78.34.78h13.97c1.45,0,2.34,1.59,1.58,2.82l-14.83,24.08c-.28.46.32.95.71.58l40.58-37.83c.31-.29.1-.8-.32-.8h-14.41c-1.36,0-2.26-1.42-1.67-2.65l12.65-26.56c.23-.48-.39-.9-.75-.52Z"/>
</svg>