<?xml version="1.0" encoding="UTF-8"?>
<svg id="Calque_1" data-name="Calque 1" xmlns="http://www.w3.org/2000/svg" viewBox="0 0 200 200">
  <g>
    <path d="M144.17,77.51c-14.88,0-26.98-12.1-26.98-26.98s12.1-26.98,26.98-26.98,26.98,12.1,26.98,26.98-12.1,26.98-26.98,26.98ZM144.17,29.22c-11.75,0-21.31,9.56-21.31,21.31s9.56,21.31,21.31,21.31,21.31-9.56,21.31-21.31-9.56-21.31-21.31-21.31Z"/>
    <g>
      <path d="M144.17,21.34c-1.57,0-2.84-1.27-2.84-2.84V2.84c0-1.57,1.27-2.84,2.84-2.84s2.84,1.27,2.84,2.84v15.67c0,1.57-1.27,2.84-2.84,2.84Z"/>
      <path d="M128.16,25.63c-.98,0-1.93-.51-2.46-1.42l-7.83-13.57c-.78-1.36-.32-3.09,1.04-3.88,1.36-.78,3.09-.32,3.87,1.04l7.83,13.57c.78,1.36.32,3.09-1.04,3.88-.45.26-.93.38-1.42.38Z"/>
      <path d="M116.43,37.36c-.48,0-.97-.12-1.42-.38l-13.57-7.83c-1.36-.78-1.82-2.52-1.04-3.88.78-1.36,2.52-1.82,3.87-1.04l13.57,7.83c1.36.78,1.82,2.52,1.04,3.88-.53.91-1.48,1.42-2.46,1.42Z"/>
      <path d="M112.14,53.37h-15.67c-1.57,0-2.84-1.27-2.84-2.84s1.27-2.84,2.84-2.84h15.67c1.57,0,2.84,1.27,2.84,2.84s-1.27,2.84-2.84,2.84Z"/>
      <path d="M102.86,77.22c-.98,0-1.93-.51-2.46-1.42-.78-1.36-.32-3.09,1.04-3.88l13.57-7.83c1.36-.78,3.09-.32,3.87,1.04.78,1.36.32,3.09-1.04,3.88l-13.57,7.83c-.45.26-.93.38-1.42.38Z"/>
      <path d="M120.32,94.68c-.48,0-.97-.12-1.42-.38-1.36-.78-1.82-2.52-1.04-3.88l7.83-13.57c.78-1.36,2.52-1.82,3.87-1.04,1.36.78,1.82,2.52,1.04,3.88l-7.83,13.57c-.53.91-1.48,1.42-2.46,1.42Z"/>
      <path d="M144.17,101.07c-1.57,0-2.84-1.27-2.84-2.84v-15.67c0-1.57,1.27-2.84,2.84-2.84s2.84,1.27,2.84,2.84v15.67c0,1.57-1.27,2.84-2.84,2.84Z"/>
      <path d="M168.02,94.68c-.98,0-1.93-.51-2.46-1.42l-7.83-13.57c-.78-1.36-.32-3.09,1.04-3.88,1.36-.78,3.09-.32,3.87,1.04l7.83,13.57c.78,1.36.32,3.09-1.04,3.88-.45.26-.93.38-1.42.38Z"/>
      <path d="M185.47,77.22c-.48,0-.97-.12-1.42-.38l-13.57-7.83c-1.36-.78-1.82-2.52-1.04-3.88.78-1.36,2.52-1.82,3.87-1.04l13.57,7.83c1.36.78,1.82,2.52,1.04,3.88-.53.91-1.48,1.42-2.46,1.42Z"/>
      <path d="M191.86,53.37h-15.67c-1.57,0-2.84-1.27-2.84-2.84s1.27-2.84,2.84-2.84h15.67c1.57,0,2.84,1.27,2.84,2.84s-1.27,2.84-2.84,2.84Z"/>
      <path d="M171.91,37.36c-.98,0-1.93-.51-2.46-1.42-.78-1.36-.32-3.09,1.04-3.88l13.57-7.83c1.36-.78,3.09-.32,3.87,1.04.78,1.36.32,3.09-1.04,3.88l-13.57,7.83c-.45.26-.93.38-1.42.38Z"/>
      <path d="M160.18,25.63c-.48,0-.97-.12-1.42-.38-1.36-.78-1.82-2.52-1.04-3.88l7.83-13.57c.78-1.36,2.52-1.82,3.87-1.04,1.36.78,1.82,2.52,1.04,3.88l-7.83,13.57c-.53.91-1.48,1.42-2.46,1.42Z"/>
    </g>
  </g>
  <path d="M130.06,200H47.49c-3.25,0-5.9-2.65-5.9-5.9v-6.91c0-3.25,2.65-5.9,5.9-5.9h14.8c1.48-6.14,7.08-10.63,13.5-10.63h25.97c3.71,0,7.2,1.45,9.82,4.08,1.83,1.82,3.09,4.07,3.69,6.55h14.79c3.25,0,5.9,2.65,5.9,5.9v6.91c0,3.25-2.65,5.9-5.9,5.9ZM48.1,193.5h81.36v-5.7h-15.34c-2.52,0-4.68-1.86-5.04-4.33-.23-1.57-.95-3-2.08-4.13-1.4-1.41-3.25-2.17-5.22-2.17h-25.97c-3.64,0-6.78,2.71-7.3,6.31-.36,2.47-2.53,4.33-5.04,4.33h-15.34v5.7Z"/>
  <path d="M165.34,99.04c-1.66-.62-3.09-1.78-4-3.35l-3.78-6.54.97,7.84c.41,3.32-2.18,6.26-5.53,6.26h-3.03c-1.41,1.63-3.49,2.67-5.82,2.67s-4.4-1.04-5.82-2.67h-17.11c-2.97,0-5.41-2.32-5.56-5.28-3.06-2.31-3.99-6.59-2.03-9.99l1.41-2.45-.44-9.06-6.32,3.65.84,17.28c.16,3.18-2.38,5.84-5.57,5.84h-29.6c-3.18,0-5.72-2.66-5.57-5.84l1.18-24.24c.14-2.97,2.59-5.3,5.57-5.3h23.6c.08-.05.16-.11.25-.16l10.98-6.34H21.8c-2.81,0-5.18,2.1-5.53,4.89l-10.93,88.09c-.41,3.32,2.18,6.26,5.53,6.26h155.8c3.35,0,5.94-2.93,5.53-6.26l-6.86-55.31ZM59.39,148.81c-.14,2.97-2.59,5.3-5.57,5.3H18.23c-3.35,0-5.94-2.93-5.53-6.26l4.12-33.21c.35-2.79,2.72-4.89,5.53-4.89h33.1c3.18,0,5.72,2.66,5.57,5.84l-1.62,33.21ZM61.87,97.96c-.15,2.97-2.59,5.3-5.56,5.3h-31.77c-3.35,0-5.94-2.93-5.53-6.26l3.01-24.24c.35-2.79,2.72-4.89,5.53-4.89h29.95c3.18,0,5.72,2.66,5.56,5.84l-1.19,24.24ZM106.06,154.11h-34.56c-3.18,0-5.72-2.66-5.57-5.84l1.62-33.21c.14-2.97,2.59-5.3,5.57-5.3h31.32c2.97,0,5.42,2.33,5.57,5.3l1.62,33.21c.16,3.18-2.38,5.84-5.57,5.84ZM159.32,154.11h-35.6c-2.97,0-5.42-2.33-5.57-5.3l-1.62-33.21c-.16-3.18,2.38-5.84,5.57-5.84h33.1c2.81,0,5.18,2.1,5.53,4.89l4.12,33.21c.41,3.32-2.18,6.26-5.53,6.26Z"/>
</svg>