<?xml version="1.0" encoding="UTF-8"?>
<svg id="Calque_1" xmlns="http://www.w3.org/2000/svg" version="1.1" viewBox="0 0 352 190">
  <!-- Generator: Adobe Illustrator 29.1.0, SVG Export Plug-In . SVG Version: 2.1.0 Build 142)  -->
  <defs>
    <style>
      .st0, .st1, .st2, .st3, .st4, .st5, .st6, .st7 {
        fill: none;
      }

      .st1, .st2, .st3, .st4, .st8, .st5, .st6, .st7, .st9, .st10 {
        stroke-miterlimit: 10;
      }

      .st1, .st2, .st8, .st5, .st10 {
        stroke-width: .1px;
      }

      .st1, .st4, .st8, .st6, .st9 {
        stroke: #1d1d1b;
      }

      .st2, .st5, .st7, .st10 {
        stroke: #000;
      }

      .st3 {
        stroke: #991756;
      }

      .st3, .st6, .st9 {
        stroke-width: .2px;
      }

      .st4 {
        stroke-width: .3px;
      }

      .st4, .st5 {
        stroke-linecap: round;
      }

      .st8, .st11, .st9 {
        fill: #fff;
      }

      .st12 {
        fill: #1d1d1b;
      }

      .st13, .st10 {
        fill: #f5e8f0;
      }

      .st14 {
        fill: #991756;
      }

      .st7 {
        stroke-width: .8px;
      }
    </style>
  </defs>
  <path class="st13" d="M196.3,150.6l-55.2,31.9c-2.5,1.4-4.9,1.4-7.4,0l-25.8-14.9c-2.4-1.4-2.4-2.8,0-4.2l6.8-3.9v7.9l22.6,13.1,10.1-5.8v-13.9l12,6.9,10.1-5.8v-9.6l8.3,4.8,12.6-7.2v-6.7l5.8,3.4c2.5,1.4,2.5,2.8,0,4.2h0v-.2h0Z"/>
  <path class="st10" d="M144.7,69.7l4,2.4c2.4,1.4,2.4,2.8,0,4.2l-11.5,6.6c-2.5,1.4-4.9,1.4-7.4,0l-14.7-8.5c-2.5-1.4-2.5-2.8,0-4.2l4.5-2.6v6.3l12.6,7.2,12.5-7.2v-4.3h0Z"/>
  <path class="st10" d="M48.3,135c-1.8,0-3.7-1.1-7.3-3.2l-29.5-17c-3.7-2.1-5.5-3.2-5.5-4.2s1.8-2.1,5.5-4.2l47.8-27.6c3.7-2.1,5.5-3.2,7.4-3.2s3.7,1.1,7.3,3.2l29.4,17c3.7,2.1,5.5,3.2,5.5,4.2s-1.8,2.1-5.5,4.2l-47.8,27.6c-3.7,2.1-5.5,3.2-7.3,3.2h0Z"/>
  <path class="st0" d="M72.3,45.1h-.2.2Z"/>
  <path class="st14" d="M69.9,48.4l1.7-.9,3.9,17.5-.8.5s-4.8-17.1-4.8-17.1Z"/>
  <path d="M71.6,47.6l4,17.4-.8.5-4.8-17s1.6-.9,1.6-.9ZM71.6,47.4l-1.7,1,4.8,17.2.9-.6s-4-17.6-4-17.6Z"/>
  <path class="st13" d="M68.7,47.4l1.2,1,4.6,16.4s-5.8-17.4-5.8-17.4Z"/>
  <path d="M68.8,47.5l1.1.9,4.4,15.5-5.5-16.4ZM68.7,47.4l6.1,18.2-4.8-17.2-1.2-1h0Z"/>
  <path class="st13" d="M66,43.3l-5.2-2.7-1.3.2,4-2.1h1.6l4.5,2.7,1.8,1.6-3.7,1.9s-1.7-1.6-1.7-1.6Z"/>
  <path d="M65.1,38.8l4.5,2.7,1.7,1.6-3.6,1.9-1.6-1.6h0l-5.1-2.7h0l-1,.2,3.7-2h1.6M65.1,38.7h-1.6l-3.9,2.2,1.3-.3,5.1,2.7,1.7,1.7,3.7-2-1.8-1.6-4.5-2.7h0Z"/>
  <path class="st14" d="M64.7,46.1l-4.5-2.1-.7-3.1,1.3-.3,5.1,2.7,1.7,1.6v1.5l-3,1v-1.4h.1Z"/>
  <path class="st14" d="M71.4,43v3.7l-3.7-.2v-1.5l3.7-1.9h0Z"/>
  <path class="st14" d="M68.5,46.3l1.7,38.8-1.7,1h-3.3l-1.7-1,1.2-38.2,3.8-.6Z"/>
  <path class="st14" d="M70.7,46l15.3-21.3.7.7-14.6,21.3-1.4-.7Z"/>
  <path d="M86,24.8l.6.6-14.5,21.2-1.3-.6s15.2-21.2,15.2-21.2ZM86,24.6l-15.3,21.4,1.4.7,14.6-21.4-.7-.7h0Z"/>
  <path class="st13" d="M69.7,45.3l16.3-20.6-15.3,21.3-1-.7Z"/>
  <path d="M84.9,26l-14.3,19.9-.9-.7,15.2-19.3M86,24.6l-16.3,20.6,1,.7,15.3-21.4h0Z"/>
  <path class="st13" d="M68.6,47.6c-.3-.2-.4-.5-.4-.9,0-.9.6-2,1.4-2.5.2,0,.4-.2.6-.2h.3l1.3.8-2.1,3.4-1.2-.7h0Z"/>
  <path d="M70.3,44h.5l1.1.8-2.1,3.4-1.2-.7h0c-.2-.2-.4-.5-.4-.9,0-.9.6-2,1.4-2.5.2,0,.4-.2.6-.2M70.3,44c-.2,0-.4,0-.7.2-.8.5-1.4,1.6-1.4,2.5s.2.8.4.9h0l1.2.8,2.1-3.5-1.2-.7h-.2s-.2-.2-.3-.2h0Z"/>
  <path class="st14" d="M70.2,48.4c-.5,0-.8-.4-.8-1,0-.9.6-2,1.4-2.4s.4-.2.6-.2c.5,0,.8.4.8,1,0,.9-.6,2-1.4,2.4s-.4.2-.6.2Z"/>
  <path d="M71.5,44.8c.4,0,.7.4.7.9,0,.9-.6,2-1.4,2.4s-.4.2-.6.2c-.4,0-.7-.4-.7-.9,0-.9.6-2,1.4-2.4s.4-.2.6-.2M71.5,44.8c-.2,0-.4,0-.7.2-.8.5-1.4,1.6-1.4,2.5s.3,1,.8,1,.4,0,.7-.2c.8-.5,1.4-1.6,1.4-2.5s-.3-1-.8-1Z"/>
  <path class="st14" d="M50.8,49.9l19-3.9c-.3.5-.5,1.3-.3,2.2l-19.1,2.9.4-1.2h0Z"/>
  <path d="M69.7,46.1c-.2.5-.4,1.2-.2,2l-19,2.9.3-1.1,18.8-3.8h0ZM69.8,46l-19,3.9-.4,1.2,19.2-2.9c-.2-.8,0-1.5.2-2.2Z"/>
  <path class="st13" d="M50.8,49.9l17.8-4.6,1.2.7s-19,3.9-19,3.9Z"/>
  <path class="st0" d="M28.4,70.6h-.1.1Z"/>
  <path class="st14" d="M26,73.9l1.7-.9,3.9,17.5-.9.5-4.8-17.1h0Z"/>
  <path d="M27.7,73l4,17.4-.8.5-4.8-17s1.6-.9,1.6-.9ZM27.7,72.9l-1.7,1,4.8,17.2.9-.6s-4-17.6-4-17.6Z"/>
  <path class="st13" d="M24.8,72.9l1.2,1,4.6,16.4-5.8-17.4Z"/>
  <path d="M24.8,73l1.1.9,4.4,15.6-5.5-16.4h0ZM24.8,72.9l6.1,18.2-4.8-17.2-1.2-1h0Z"/>
  <path class="st13" d="M22.1,68.8l-5.1-2.7-1.3.3,3.9-2.1h1.6l4.5,2.7,1.8,1.6-3.7,1.9-1.7-1.6h0Z"/>
  <path d="M21.2,64.2l4.5,2.7,1.7,1.6-3.6,1.9-1.6-1.6h0l-5.1-2.7h0l-1,.2,3.7-2h1.6M21.2,64.2h-1.6l-3.9,2.2,1.3-.3,5.1,2.7,1.7,1.7,3.7-1.9-1.8-1.6-4.5-2.7h0Z"/>
  <path class="st14" d="M20.8,71.6l-4.4-2.1-.7-3.1,1.3-.2,5.1,2.7,1.7,1.7v1.5l-3,1.1v-1.5h0Z"/>
  <path class="st14" d="M27.5,68.5v3.7l-3.7-.2v-1.5l3.7-1.9h0Z"/>
  <path class="st14" d="M24.6,71.8l1.7,38.8-1.7,1h-3.3l-1.7-1,1.2-38.2s3.8-.6,3.8-.6Z"/>
  <path class="st14" d="M26.8,71.4l15.3-21.3.7.7-14.6,21.3s-1.4-.7-1.4-.7Z"/>
  <path d="M42.1,50.2l.6.6-14.5,21.2-1.3-.6,15.2-21.2ZM42.1,50.1l-15.3,21.4,1.4.7,14.6-21.4-.7-.7h0Z"/>
  <path class="st13" d="M25.8,70.7l16.3-20.6-15.3,21.3-1-.7Z"/>
  <path d="M41,51.5l-14.3,19.9-.9-.7,15.2-19.3M42.1,50.1l-16.3,20.6,1,.7,15.3-21.4h0Z"/>
  <path class="st13" d="M24.7,73c-.3-.2-.4-.5-.4-.9,0-.9.6-2,1.4-2.5.2,0,.4-.2.6-.2h.3l1.3.8-2.1,3.4-1.2-.7h.1Z"/>
  <path d="M26.4,69.5h.4l1.1.8-2,3.4-1.2-.7h0c-.2-.2-.4-.5-.4-.9,0-.9.6-2,1.4-2.4.2,0,.4-.2.6-.2M26.4,69.5c-.2,0-.4,0-.6.2-.8.5-1.4,1.6-1.4,2.5s.1.8.4.9h0l1.2.8,2.1-3.5-1.2-.7h-.5v-.2Z"/>
  <path class="st14" d="M26.3,73.9c-.5,0-.8-.4-.8-1,0-.9.6-2,1.4-2.4.2,0,.4-.2.6-.2.5,0,.8.4.8,1,0,.9-.6,2-1.4,2.4-.2,0-.4.2-.6.2Z"/>
  <path d="M27.6,70.3c.4,0,.7.4.7.9,0,.9-.6,2-1.4,2.4-.2,0-.4.2-.6.2-.4,0-.7-.4-.7-.9,0-.9.6-2,1.4-2.4.2,0,.4-.2.6-.2M27.6,70.2c-.2,0-.4,0-.6.2-.8.5-1.4,1.6-1.4,2.5s.3,1,.8,1,.4,0,.6-.2c.8-.5,1.4-1.6,1.4-2.5s-.3-1-.8-1Z"/>
  <path class="st14" d="M6.9,75.4l19-3.9c-.3.5-.5,1.3-.2,2.2l-19.1,2.9.4-1.2h0Z"/>
  <path d="M25.8,71.6c-.2.6-.4,1.2-.2,2l-19,2.9.3-1.1,18.8-3.9h.1ZM25.9,71.5l-19,3.9-.4,1.2,19.2-2.9c-.2-.8,0-1.5.2-2.2h0Z"/>
  <path class="st13" d="M6.9,75.3l17.8-4.6,1.3.7-19,3.9h0Z"/>
  <path class="st10" d="M291.3,78.3c-.9,0-1.8-.5-3.7-1.6l-18.4-10.6c-1.8-1.1-2.7-1.6-2.7-2.1s.9-1,2.7-2.1l3.7-2.1h36.8l3.6,2.1c1.8,1,2.7,1.6,2.7,2.1s-.9,1-2.7,2.1l-18.4,10.6c-1.8,1.1-2.7,1.6-3.6,1.6h0Z"/>
  <path class="st13" d="M272.9,64V16.3l18.3,10.6v47.7l-18.3-10.6Z"/>
  <path d="M273,16.4l18.2,10.5v47.5l-18.2-10.5V16.4ZM272.9,16.2v47.8l18.4,10.6V26.8s-18.4-10.6-18.4-10.6Z"/>
  <path class="st14" d="M291.3,26.8l18.3-10.5v47.7l-18.3,10.5V26.8Z"/>
  <path d="M309.5,16.4v47.5l-18.2,10.5V26.9l18.2-10.5M309.6,16.2l-18.4,10.6v47.8l18.4-10.6V16.2Z"/>
  <path class="st11" d="M273,16.2l18.3-10.6,18.2,10.6-18.3,10.5-18.3-10.5h0Z"/>
  <path class="st12" d="M291.2,5.7l18.2,10.5-18.2,10.5-18.2-10.5s18.2-10.5,18.2-10.5ZM291.2,5.6l-18.4,10.6,18.4,10.6,18.4-10.6s-18.4-10.6-18.4-10.6Z"/>
  <path class="st13" d="M282.1,16.2v-2.5l9.1,5.3v2.5l-9.1-5.3Z"/>
  <path d="M282.2,13.8l9,5.2v2.4l-9-5.2v-2.4ZM282.1,13.6v2.7l9.2,5.3v-2.7s-9.2-5.3-9.2-5.3Z"/>
  <path class="st14" d="M291.3,18.9l9.1-5.2v2.6l-9.1,5.2v-2.6Z"/>
  <path d="M300.3,13.8v2.4l-9,5.2v-2.4s9-5.2,9-5.2ZM300.4,13.6l-9.2,5.3v2.7l9.2-5.3v-2.7Z"/>
  <path class="st11" d="M282.2,13.6l9.1-5.3,9,5.3-9.1,5.2-9.1-5.2s.1,0,.1,0Z"/>
  <path class="st12" d="M291.2,8.4l9,5.2-9,5.2-9-5.2,9-5.2ZM291.2,8.2l-9.2,5.3,9.2,5.3,9.2-5.3s-9.2-5.3-9.2-5.3Z"/>
  <path class="st4" d="M277.5,24.2v31.9"/>
  <path class="st4" d="M282,26.8v31.9"/>
  <path class="st4" d="M286.6,29.5v31.9"/>
  <path class="st4" d="M295.9,29.5v31.9"/>
  <path class="st4" d="M300.5,26.8v31.9"/>
  <path class="st4" d="M305,24.2v31.9"/>
  <path class="st10" d="M314.8,90v9.4l3.8-2.2v-6.8l-3.8-.4Z"/>
  <path class="st14" d="M316.7,91.5c-.5,0-1,0-1.4-.3-.2,0-.4-.3-.5-.5v-11.1l3.8.5v10.5c0,.2-.2.3-.5.5-.4.2-.8.3-1.3.3h-.1Z"/>
  <path d="M314.9,79.7l3.7.4v10.4c0,.2-.2.3-.5.5-.4.2-.8.3-1.3.3s-1,0-1.3-.3c-.2,0-.4-.3-.5-.5v-10.9h-.1ZM314.8,79.6v11.1c0,.2.3.4.5.5.4.2.9.3,1.4.3s1,0,1.4-.3c.3-.2.4-.3.5-.5v-10.6l-3.9-.4h.1Z"/>
  <path class="st14" d="M314.8,90.4v.3h0v-.3Z"/>
  <path d="M314.8,90.4v.3h0v-.3Z"/>
  <path class="st14" d="M318.6,90.4v.3h0v-.3Z"/>
  <path d="M318.6,90.4v.3h0v-.3Z"/>
  <path class="st13" d="M277,125.4v-12.7l36.8,21.3v12.6s-36.8-21.2-36.8-21.2Z"/>
  <path d="M277.1,112.9l36.6,21.1v12.5l-36.6-21.1v-12.5ZM277,112.7v12.8l36.8,21.2v-12.8l-36.8-21.2Z"/>
  <path class="st11" d="M277.1,112.7l29.4-16.9,7.2,4.2-7.3,4.2v12.8l18.3,10.6-10.9,6.3-36.7-21.2Z"/>
  <path class="st12" d="M306.4,95.8l7.1,4.1-7.2,4.2h0v12.8h0l18.2,10.5-10.8,6.2-36.6-21.1,29.2-16.9M306.4,95.7l-29.4,17,36.8,21.3,11-6.4-18.4-10.6v-12.8l7.4-4.2-7.4-4.2h0Z"/>
  <path class="st14" d="M313.9,134l11-6.3v-12.8l14.6-8.3v25.3l-25.6,14.7v-12.6h0Z"/>
  <path d="M339.4,106.7v25l-25.4,14.6v-12.3l10.9-6.3h.1v-12.8l14.3-8.3h.1ZM339.6,106.3l-14.7,8.5v12.8l-11,6.4v12.8l25.8-14.9v-25.5h0Z"/>
  <path class="st10" d="M318.6,80.1c0,.2-.2.4-.5.5-.8.4-2,.4-2.8,0-.5-.3-.6-.6-.6-.9v-5h3.8v5.4h.1Z"/>
  <path class="st10" d="M318.6,80.1h0"/>
  <path class="st11" d="M306.6,104.2l14.6-8.4,18.2,10.6-14.6,8.4-18.3-10.6h0Z"/>
  <path class="st12" d="M321.2,95.8l18.2,10.5-14.5,8.4-18.2-10.5,14.5-8.4M321.2,95.7l-14.7,8.5,18.4,10.6,14.7-8.5-18.4-10.6Z"/>
  <path class="st14" d="M313.4,129.4l6.1-3.5v1.7l-6.1,3.5v-1.6h0Z"/>
  <path d="M319.4,126.1v1.4l-5.9,3.4v-1.4l5.9-3.4ZM319.6,125.8l-6.3,3.6v1.8l6.3-3.6v-1.8Z"/>
  <path class="st13" d="M308.5,128.5l4.7,1v1.7l-4.7-2.7Z"/>
  <path d="M309,128.7l4.1.8v1.6l-4.1-2.4h0ZM308.5,128.5l4.7,2.7v-1.8l-4.7-.9Z"/>
  <path class="st11" d="M308.7,128.5l6.2-3.6,4.5.9-6.2,3.6-4.6-.9h.1Z"/>
  <path class="st12" d="M314.9,125l4.4.8-6,3.5-4.4-.8,6-3.5ZM314.8,124.9l-6.3,3.6,4.7.9,6.3-3.6s-4.7-.9-4.7-.9Z"/>
  <path class="st14" d="M306,125.2l6.1-3.5v1.7l-6.1,3.5v-1.7Z"/>
  <path d="M312,121.9v1.4l-5.9,3.4v-1.4l5.9-3.4ZM312.2,121.5l-6.3,3.6v1.8l6.3-3.6v-1.8Z"/>
  <path class="st13" d="M301.2,124.2l4.7,1v1.7l-4.7-2.7Z"/>
  <path d="M301.7,124.4l4.1.8v1.6l-4.1-2.4ZM301.2,124.3l4.7,2.7v-1.8s-4.7-.9-4.7-.9Z"/>
  <path class="st11" d="M301.3,124.2l6.2-3.6,4.5.9-6.2,3.6-4.6-.9h.1Z"/>
  <path class="st12" d="M307.5,120.7l4.4.8-6,3.5-4.4-.8,6-3.5ZM307.5,120.6l-6.3,3.6,4.7.9,6.3-3.6-4.7-.9Z"/>
  <path class="st14" d="M298.6,120.9l6.1-3.5v1.7l-6.1,3.5v-1.7Z"/>
  <path d="M304.7,117.6v1.4l-5.9,3.4v-1.4l5.9-3.4ZM304.9,117.3l-6.3,3.6v1.8l6.3-3.6v-1.8Z"/>
  <path class="st13" d="M293.8,120l4.7,1v1.7l-4.7-2.7Z"/>
  <path d="M294.3,120.2l4.1.8v1.6l-4.1-2.4ZM293.8,120l4.7,2.7v-1.8s-4.7-.9-4.7-.9Z"/>
  <path class="st11" d="M294,120l6.2-3.6,4.5.9-6.2,3.6-4.6-.9h.1Z"/>
  <path class="st12" d="M300.1,116.5l4.4.8-6,3.5-4.4-.8,6-3.5ZM300.1,116.4l-6.3,3.6,4.7.9,6.3-3.6-4.7-.9Z"/>
  <path class="st14" d="M291.8,133.9v-8.2l7.3,4.1v8.2l-7.3-4.1Z"/>
  <path d="M291.9,125.8l7,4v8.1l-7-4v-8.1ZM291.7,125.5v8.5l7.4,4.2v-8.5l-7.4-4.2Z"/>
  <path class="st11" d="M316.7,75.7c-.5,0-1,0-1.4-.3-.4-.2-.5-.5-.5-.8s.2-.5.5-.7c.4-.2.8-.3,1.3-.3s1,0,1.4.3c.4.2.5.5.5.8s-.2.5-.5.7c-.4.2-.8.3-1.3.3Z"/>
  <path class="st12" d="M316.7,73.6c.5,0,1,0,1.3.3.3.2.5.4.5.7s-.2.5-.5.7c-.4.2-.8.3-1.3.3s-1,0-1.3-.3c-.3-.2-.5-.4-.5-.7s.2-.5.5-.7c.4-.2.8-.3,1.3-.3M316.7,73.5c-.5,0-1,0-1.4.3-.8.4-.8,1.2,0,1.6.4.2.9.3,1.4.3s1,0,1.4-.3c.8-.4.8-1.2,0-1.6-.4-.2-.9-.3-1.4-.3h0Z"/>
  <path class="st10" d="M318.6,79.8h0Z"/>
  <path class="st10" d="M308.4,86.3v10.5l3.8,2.2v-12.3c-.1,0-3.8-.4-3.8-.4Z"/>
  <path class="st14" d="M310.3,87.8c-.5,0-1,0-1.4-.3-.2,0-.4-.3-.5-.5v-11.1l3.8.5v10.5c0,.2-.2.3-.5.5-.4.2-.8.3-1.3.3h-.1Z"/>
  <path d="M308.4,76.1l3.7.4v10.4c0,.2-.2.3-.5.5-.4.2-.8.3-1.3.3s-1,0-1.3-.3c-.2,0-.4-.3-.5-.5v-10.9h-.1ZM308.3,75.9v11.1c0,.2.3.4.5.5.4.2.9.3,1.4.3s1,0,1.4-.3c.3-.2.4-.3.5-.5v-10.6l-3.9-.4h.1Z"/>
  <path class="st14" d="M308.3,86.7v.3h0v-.3Z"/>
  <path d="M308.3,86.7v.3h0v-.3Z"/>
  <path class="st14" d="M312.2,86.7v.3h0v-.3Z"/>
  <path d="M312.2,86.7v.3h0v-.3Z"/>
  <path class="st10" d="M312.1,76.3c0,.2-.2.4-.5.5-.8.4-2,.4-2.8,0-.5-.3-.6-.6-.6-.9v-5h3.8v5.4h.1Z"/>
  <path class="st10" d="M312.2,76.4h0"/>
  <path class="st11" d="M310.3,72c-.5,0-1,0-1.4-.3-.4-.2-.5-.5-.5-.8s.2-.5.5-.7c.4-.2.8-.3,1.3-.3s1,0,1.4.3c.4.2.5.5.5.8s-.2.5-.5.7c-.4.2-.8.3-1.3.3Z"/>
  <path class="st12" d="M310.2,69.9c.5,0,1,0,1.3.3.3.2.5.4.5.7s-.2.5-.5.7c-.4.2-.8.3-1.3.3s-1,0-1.3-.3c-.3-.2-.5-.4-.5-.7s.2-.5.5-.7c.4-.2.8-.3,1.3-.3M310.2,69.8c-.5,0-1,0-1.4.3-.8.4-.8,1.2,0,1.6.4.2.9.3,1.4.3s1,0,1.4-.3c.8-.4.8-1.2,0-1.6-.4-.2-.9-.3-1.4-.3Z"/>
  <path class="st10" d="M312.2,76.2h0Z"/>
  <path class="st10" d="M321.1,93.6v2.2l3.8,2.1v-3.8c-.1,0-3.8-.4-3.8-.4h0Z"/>
  <path class="st14" d="M323,95.1c-.5,0-1,0-1.4-.3-.2,0-.4-.3-.5-.5v-11.1l3.8.5v10.5c0,.2-.2.3-.5.5-.4.2-.8.3-1.3.3h-.1Z"/>
  <path d="M321.1,83.3l3.7.4v10.4c0,.2-.2.3-.5.5-.4.2-.8.3-1.3.3s-1,0-1.3-.3c-.2,0-.4-.3-.5-.5v-10.9h-.1ZM321,83.2v11.1c0,.2.3.4.5.5.4.2.9.3,1.4.3s1,0,1.4-.3c.3-.2.4-.3.5-.5v-10.6l-3.9-.4h.1Z"/>
  <path class="st14" d="M321,94v.3h0v-.3Z"/>
  <path d="M321,94v.3h0v-.3Z"/>
  <path class="st14" d="M324.9,94v.3h0v-.3Z"/>
  <path d="M324.9,94v.3h0v-.3Z"/>
  <path class="st10" d="M324.8,83.7c0,.2-.2.4-.5.5-.8.4-2,.4-2.8,0-.5-.3-.6-.6-.6-.9v-5h3.8v5.4h.1Z"/>
  <path class="st10" d="M324.9,83.7h0"/>
  <path class="st11" d="M323,79.3c-.5,0-1,0-1.4-.3-.4-.2-.5-.5-.5-.8s.2-.5.5-.7c.4-.2.8-.3,1.3-.3s1,0,1.4.3c.4.2.5.5.5.8s-.2.5-.5.7c-.4.2-.8.3-1.3.3Z"/>
  <path class="st12" d="M322.9,77.2c.5,0,1,0,1.3.3.3.2.5.4.5.7s-.2.5-.5.7c-.4.2-.8.3-1.3.3s-1,0-1.3-.3c-.3-.2-.5-.4-.5-.7s.2-.5.5-.7c.4-.2.8-.3,1.3-.3M322.9,77.1c-.5,0-1,0-1.4.3-.8.4-.8,1.2,0,1.6.4.2.9.3,1.4.3s1,0,1.4-.3c.8-.4.8-1.2,0-1.6-.4-.2-.9-.3-1.4-.3Z"/>
  <path class="st10" d="M324.9,83.4h0Z"/>
  <path class="st13" d="M306.5,116.9v-12.7l18.3,10.7v12.6l-18.3-10.6Z"/>
  <path d="M306.5,104.4l18.2,10.5v12.5l-18.2-10.5v-12.5ZM306.4,104.2v12.8l18.4,10.6v-12.8l-18.4-10.6Z"/>
  <path class="st10" d="M313.8,150.4c-.9,0-1.8-.5-3.7-1.6l-19-10.9v-4.2l22.6,13.1,25.8-14.9v-4.3l3.6,2.2c1.8,1.1,2.8,1.6,2.8,2.1s-.9,1-2.7,2.1l-25.8,14.9c-1.8,1.1-2.8,1.6-3.7,1.6h.1Z"/>
  <path class="st14" d="M177.8,131.2l12.4-7.1v25.9l-12.4,7.1v-25.9h0Z"/>
  <path d="M190,124.3v25.7l-12.2,7v-25.7l12.2-7M190.2,123.9l-12.6,7.3v26.1l12.6-7.3v-26.1Z"/>
  <path class="st10" d="M162.6,148.6l15.1,8.7v-26.1l-15.1-8.7v26.1Z"/>
  <path class="st11" d="M162.7,122.5l12.5-7.2,14.9,8.6-12.4,7.2-14.9-8.6s-.1,0-.1,0Z"/>
  <path class="st12" d="M175.2,115.4l14.8,8.5-12.3,7.1-14.8-8.6,12.3-7.1M175.2,115.3l-12.6,7.2,15.1,8.7,12.6-7.3-15.1-8.7h0Z"/>
  <path class="st2" d="M175.3,116l13.7,7.9-11.4,6.6-13.7-7.9,11.4-6.6Z"/>
  <path class="st14" d="M164,122.6l11.1-6.4v.9l-10.4,6-.8-.5h0Z"/>
  <path d="M175.1,116.3v.6l-10.2,6-.6-.3,10.9-6.3h0ZM175.3,116l-11.4,6.6,1,.6,10.4-6.1v-1.1h0Z"/>
  <path class="st10" d="M189,123.9l-13.7-7.9v1.1l12.6,7.5,1.1-.6h0Z"/>
  <path class="st11" d="M165,123.1l10.4-6,12.4,7.4-10.2,5.9-12.6-7.3h0Z"/>
  <path class="st12" d="M175.3,117.2l12.3,7.3-10.1,5.8-12.4-7.2s10.2-5.9,10.2-5.9ZM175.3,117l-10.4,6.1,12.7,7.3,10.3-6-12.6-7.5h0Z"/>
  <g>
    <path class="st5" d="M189,127.6l-10.1,5.8"/>
    <path class="st5" d="M189,129.1l-10.1,5.8"/>
    <path class="st5" d="M189,130.5l-10.1,5.8"/>
    <path class="st5" d="M189,132l-10.1,5.8"/>
    <path class="st5" d="M189,133.5l-10.1,5.8"/>
    <path class="st5" d="M189,135l-10.1,5.8"/>
    <path class="st5" d="M189,136.5l-10.1,5.8"/>
    <path class="st5" d="M189,137.9l-10.1,5.8"/>
    <path class="st5" d="M189,139.4l-10.1,5.8"/>
    <path class="st5" d="M189,140.9l-10.1,5.8"/>
    <path class="st5" d="M189,142.4l-10.1,5.8"/>
    <path class="st5" d="M189,143.9l-10.1,5.8"/>
    <path class="st5" d="M189,145.3l-10.1,5.8"/>
    <path class="st5" d="M189,146.8l-10.1,5.8"/>
    <path class="st5" d="M163.8,125.9l12.6,7.5"/>
    <path class="st5" d="M163.8,127.4l12.6,7.5"/>
    <path class="st5" d="M163.8,128.9l12.6,7.5"/>
    <path class="st5" d="M163.8,130.4l12.6,7.5"/>
    <path class="st5" d="M163.8,131.9l12.6,7.5"/>
    <path class="st5" d="M163.8,133.3l12.6,7.5"/>
    <path class="st5" d="M163.8,134.8l12.6,7.5"/>
    <path class="st5" d="M163.8,136.3l12.6,7.5"/>
    <path class="st5" d="M163.8,137.8l12.6,7.5"/>
    <path class="st5" d="M163.8,139.4l12.6,7.3"/>
    <path class="st5" d="M163.8,140.7l12.6,7.5"/>
    <path class="st5" d="M163.8,142.2l12.6,7.5"/>
    <path class="st5" d="M163.8,143.7l12.6,7.5"/>
    <path class="st5" d="M163.8,145.2l12.6,7.5"/>
    <path class="st10" d="M187.6,117v-10.8l-16.3-9.4v-3.8l-12,6.9c-2.5,1.4-2.5,2.8,0,4.2l25.7,14.9,14.8,8.6c2.4,1.4,4.8,1.4,7.3,0l73.6-42.5c2.4-1.4,2.4-2.8,0-4.2l-3.7-2.1v4.2l-33.1,19.1-14.7-8.5-11,6.4v17l-15.3,8.8-15.3-8.8"/>
  </g>
  <path class="st14" d="M177.7,33.5l12.4-7.1v26l-12.4,7.1v-26Z"/>
  <path d="M190.1,26.4v25.8l-12.3,7.1v-25.8l12.3-7.1M190.2,26.2l-12.6,7.3v26.1l12.6-7.3s0-26.1,0-26.1Z"/>
  <path class="st13" d="M162.6,50.8v-26l15,8.6v26s-15-8.6-15-8.6Z"/>
  <path d="M162.7,25l14.8,8.6v25.8l-14.8-8.6s0-25.8,0-25.8ZM162.6,24.8v26.1l15.1,8.7v-26.1l-15.1-8.7Z"/>
  <path class="st11" d="M162.7,24.8l12.5-7.2,14.9,8.6-12.4,7.2-14.9-8.6s-.1,0-.1,0Z"/>
  <path class="st12" d="M175.2,17.7l14.8,8.5-12.3,7.1-14.8-8.6,12.3-7.1M175.2,17.5l-12.6,7.2,15.1,8.7,12.6-7.3-15.1-8.7h0Z"/>
  <path class="st2" d="M175.3,18.2l13.7,7.9-11.4,6.6-13.7-7.9,11.4-6.6Z"/>
  <path class="st14" d="M164,24.8l11.2-6.5v1l-10.4,6-.9-.5h0Z"/>
  <path d="M175.2,18.5v.8l-10.3,6-.7-.4,11-6.4ZM175.3,18.2l-11.4,6.6,1,.6,10.4-6.1v-1.1h0Z"/>
  <path class="st13" d="M175.3,19.2v-.9l13.5,7.8-1,.5-12.6-7.5h.1Z"/>
  <path d="M175.4,18.5l13.3,7.7-.8.5-12.5-7.4v-.8M175.3,18.2v1.1l12.6,7.5,1.1-.6-13.7-7.9h0Z"/>
  <path class="st11" d="M165,25.4l10.4-6,12.4,7.4-10.2,5.9-12.6-7.3h0Z"/>
  <path class="st12" d="M175.3,19.5l12.3,7.3-10.1,5.8-12.4-7.2s10.2-5.9,10.2-5.9ZM175.3,19.3l-10.4,6.1,12.7,7.3,10.3-6-12.6-7.5h0Z"/>
  <path class="st5" d="M189,29.8l-10.1,5.8"/>
  <path class="st5" d="M189,31.3l-10.1,5.8"/>
  <path class="st5" d="M189,32.8l-10.1,5.8"/>
  <path class="st5" d="M189,34.3l-10.1,5.8"/>
  <path class="st5" d="M189,35.8l-10.1,5.8"/>
  <path class="st5" d="M189,37.2l-10.1,5.8"/>
  <path class="st5" d="M189,38.7l-10.1,5.8"/>
  <path class="st5" d="M189,40.2l-10.1,5.8"/>
  <path class="st5" d="M189,41.7l-10.1,5.8"/>
  <path class="st5" d="M189,43.2l-10.1,5.8"/>
  <path class="st5" d="M189,44.6l-10.1,5.8"/>
  <path class="st5" d="M189,46.1l-10.1,5.8"/>
  <path class="st5" d="M189,47.6l-10.1,5.8"/>
  <path class="st5" d="M189,49.1l-10.1,5.8"/>
  <path class="st5" d="M163.8,28.2l12.6,7.5"/>
  <path class="st5" d="M163.8,29.7l12.6,7.5"/>
  <path class="st5" d="M163.8,31.2l12.6,7.5"/>
  <path class="st5" d="M163.8,32.6l12.6,7.5"/>
  <path class="st5" d="M163.8,34.1l12.6,7.5"/>
  <path class="st5" d="M163.8,35.6l12.6,7.5"/>
  <path class="st5" d="M163.8,37.1l12.6,7.5"/>
  <path class="st5" d="M163.8,38.6l12.6,7.5"/>
  <path class="st5" d="M163.8,40l12.6,7.5"/>
  <path class="st5" d="M163.8,41.7l12.6,7.3"/>
  <path class="st5" d="M163.8,43l12.6,7.5"/>
  <path class="st5" d="M163.8,44.5l12.6,7.5"/>
  <path class="st5" d="M163.8,46l12.6,7.5"/>
  <path class="st5" d="M163.8,47.5l12.6,7.5"/>
  <path class="st14" d="M159.3,44.1l12.4-7.1v26l-12.4,7.1v-26Z"/>
  <path d="M171.7,37.1v25.8l-12.3,7.1v-25.8l12.3-7.1M171.8,36.8l-12.6,7.3v26.1l12.6-7.3s0-26.1,0-26.1Z"/>
  <path class="st13" d="M144.2,61.5v-26l15,8.7v26s-15-8.7-15-8.7Z"/>
  <path d="M144.3,35.6l14.8,8.6v25.8l-14.8-8.6v-25.8ZM144.2,35.4v26.1l15.1,8.7v-26.1s-15.1-8.7-15.1-8.7Z"/>
  <path class="st11" d="M144.3,35.4l12.5-7.2,14.9,8.6-12.4,7.2-14.9-8.6h-.1Z"/>
  <path class="st12" d="M156.8,28.3l14.8,8.5-12.3,7.1-14.8-8.6,12.3-7.1M156.8,28.1l-12.6,7.2,15.1,8.7,12.6-7.3-15.1-8.7h0Z"/>
  <path class="st2" d="M156.9,28.9l13.7,7.9-11.4,6.6-13.7-7.9s11.4-6.6,11.4-6.6Z"/>
  <path class="st14" d="M145.6,35.5l11.2-6.5v1l-10.4,6-.9-.5h0Z"/>
  <path d="M156.8,29.1v.8l-10.3,6-.7-.4,11.1-6.4M156.9,28.9l-11.4,6.6,1,.6,10.4-6.1v-1.1h0Z"/>
  <path class="st13" d="M156.9,29.9v-.9l13.5,7.8-1,.5-12.6-7.4h.1Z"/>
  <path d="M157,29.1l13.3,7.7-.8.5-12.5-7.4v-.8M156.9,28.9v1.1l12.6,7.5,1.1-.6-13.7-7.9h0Z"/>
  <path class="st11" d="M146.6,36l10.3-6,12.4,7.4-10.2,5.9-12.6-7.3s.1,0,.1,0Z"/>
  <path class="st12" d="M156.9,30.1l12.3,7.3-10.1,5.8-12.4-7.2,10.2-5.9ZM156.9,29.9l-10.4,6.1,12.7,7.3,10.3-6-12.6-7.5h0Z"/>
  <path class="st5" d="M170.6,40.5l-10.1,5.8"/>
  <path class="st5" d="M170.6,41.9l-10.1,5.8"/>
  <path class="st5" d="M170.6,43.4l-10.1,5.8"/>
  <path class="st5" d="M170.6,44.9l-10.1,5.8"/>
  <path class="st5" d="M170.6,46.4l-10.1,5.8"/>
  <path class="st5" d="M170.6,47.9l-10.1,5.8"/>
  <path class="st5" d="M170.6,49.3l-10.1,5.8"/>
  <path class="st5" d="M170.6,50.8l-10.1,5.8"/>
  <path class="st5" d="M170.6,52.3l-10.1,5.8"/>
  <path class="st5" d="M170.6,53.8l-10.1,5.8"/>
  <path class="st5" d="M170.6,55.3l-10.1,5.8"/>
  <path class="st5" d="M170.6,56.8l-10.1,5.8"/>
  <path class="st5" d="M170.6,58.2l-10.1,5.8"/>
  <path class="st5" d="M170.6,59.7l-10.1,5.8"/>
  <path class="st5" d="M145.4,38.8l12.6,7.5"/>
  <path class="st5" d="M145.4,40.3l12.6,7.5"/>
  <path class="st5" d="M145.4,41.8l12.6,7.5"/>
  <path class="st5" d="M145.4,43.3l12.6,7.5"/>
  <path class="st5" d="M145.4,44.8l12.6,7.5"/>
  <path class="st5" d="M145.4,46.2l12.6,7.5"/>
  <path class="st5" d="M145.4,47.7l12.6,7.5"/>
  <path class="st5" d="M145.4,49.2l12.6,7.5"/>
  <path class="st5" d="M145.4,50.7l12.6,7.5"/>
  <path class="st5" d="M145.4,52.3l12.6,7.3"/>
  <path class="st5" d="M145.4,53.6l12.6,7.5"/>
  <path class="st5" d="M145.4,55.1l12.6,7.5"/>
  <path class="st5" d="M145.4,56.6l12.6,7.5"/>
  <path class="st5" d="M145.4,58.1l12.6,7.4"/>
  <path class="st10" d="M277,171.6c-.9,0-1.8-.5-3.7-1.6l-43.9-25.6c-1.9-1-2.9-1.5-2.9-2s1-1.1,2.9-2.2l5.3-3.1v6.4l16.5,9.6,11.7-6.9v13.5l14.1,8.2,14.2-8.2v-4.9l4.2,2.5c1.8,1.1,2.7,1.6,2.7,2.1s-.9,1-2.7,2.1l-14.7,8.5c-1.9,1.1-2.8,1.6-3.7,1.6h0Z"/>
  <path class="st14" d="M159.4,147.6l9.9-5.6v20.2l-9.9,5.6v-20.2Z"/>
  <path d="M169.1,142.2v19.9l-9.7,5.6v-19.9l9.7-5.6ZM169.3,141.8l-10.1,5.8v20.3l10.1-5.8v-20.3Z"/>
  <path class="st10" d="M159.3,167.9l-22.6-13.1v-20.3l22.6,13.1v20.3Z"/>
  <path class="st11" d="M136.6,134.5l10.1-5.7,22.6,13.1-10,5.7-22.6-13h-.1Z"/>
  <path class="st12" d="M146.7,128.9l22.5,13-9.9,5.7-22.5-13,9.9-5.7ZM146.7,128.8l-10.1,5.8,22.6,13.1,10.1-5.8-22.6-13.1Z"/>
  <path class="st11" d="M149.2,147.6v-2.8l7.5,4.3v2.8l-7.5-4.3Z"/>
  <path class="st12" d="M149.3,144.9l7.3,4.2v2.6l-7.3-4.2v-2.6ZM149.2,144.7v2.9l7.5,4.4v-2.9l-7.5-4.4Z"/>
  <path class="st11" d="M139.2,141.8v-2.8l7.5,4.3v2.8l-7.5-4.3Z"/>
  <path class="st12" d="M139.3,139.1l7.3,4.2v2.6l-7.3-4.2v-2.6ZM139.1,138.9v2.9l7.5,4.4v-2.9l-7.5-4.4Z"/>
  <path class="st11" d="M149.2,153.4v-2.8l7.5,4.3v2.8l-7.5-4.3Z"/>
  <path class="st12" d="M149.3,150.7l7.3,4.2v2.6l-7.3-4.2v-2.6ZM149.2,150.5v2.9l7.5,4.4v-2.9l-7.5-4.4Z"/>
  <path class="st11" d="M139.2,147.6v-2.8l7.5,4.3v2.8l-7.5-4.3Z"/>
  <path class="st12" d="M139.3,144.9l7.3,4.2v2.6l-7.3-4.2v-2.6ZM139.1,144.7v2.9l7.5,4.4v-2.9l-7.5-4.4Z"/>
  <path class="st11" d="M149.2,159.2v-2.8l7.5,4.3v2.8l-7.5-4.3Z"/>
  <path class="st12" d="M149.3,156.5l7.3,4.2v2.6l-7.3-4.2v-2.6ZM149.2,156.3v2.9l7.5,4.4v-2.9l-7.5-4.4Z"/>
  <path class="st13" d="M146.7,154.9v2.9l-7.5-4.4v-2.9l7.5,4.4Z"/>
  <path class="st10" d="M144.2,136v-1.3l-2.1-1.2v1.3l2.1,1.2Z"/>
  <path class="st14" d="M144.3,134.7l4.1-2.3v1.2l-4.1,2.3v-1.2Z"/>
  <path d="M148.2,132.6v.9l-3.9,2.2v-.9l3.9-2.2ZM148.4,132.2l-4.3,2.5v1.3l4.3-2.5v-1.3Z"/>
  <path class="st11" d="M142.1,133.4l4.3-2.4,2.1,1.2-4.2,2.4-2.1-1.2h-.1Z"/>
  <path class="st12" d="M146.3,131.1l2,1.1-4.1,2.4-2-1.1,4.1-2.4ZM146.3,131l-4.3,2.5,2.1,1.2,4.3-2.5-2.1-1.2Z"/>
  <path class="st10" d="M151.7,140.4v-1.4l-2.1-1.2v1.3l2.1,1.2h0Z"/>
  <path class="st14" d="M151.8,139l4.1-2.3v1.2l-4.1,2.3v-1.2Z"/>
  <path d="M155.8,136.9v.9l-3.9,2.2v-.9l3.9-2.2ZM156,136.6l-4.3,2.5v1.3l4.3-2.5v-1.3Z"/>
  <path class="st11" d="M149.6,137.8l4.3-2.4,2.1,1.2-4.3,2.4-2.1-1.2Z"/>
  <path class="st12" d="M153.9,135.4l2,1.1-4.1,2.4-2-1.1,4.1-2.4ZM153.9,135.3l-4.3,2.5,2.1,1.2,4.3-2.5-2.1-1.2Z"/>
  <path class="st7" d="M288.1,131.8v-8.5l-7.4-4.2v8.5l7.4,4.2Z"/>
  <path class="st14" d="M221.9,34.1l18.3-10.5v46.7l-18.3,10.5v-46.7Z"/>
  <path d="M240.1,23.7v46.5l-18.2,10.5v-46.5s18.2-10.5,18.2-10.5ZM240.2,23.5l-18.4,10.6v46.7l18.4-10.6V23.5Z"/>
  <path class="st13" d="M203.5,70.2V23.6l18.3,10.6v46.6s-18.3-10.6-18.3-10.6Z"/>
  <path d="M203.5,23.7l18.1,10.5v46.5l-18.1-10.5V23.7ZM203.4,23.5v46.8l18.4,10.6v-46.8s-18.4-10.6-18.4-10.6Z"/>
  <path class="st9" d="M207.1,29.9l11,6.4v4.3l-11-6.4s0-4.3,0-4.3Z"/>
  <path class="st9" d="M207.1,38.4l11,6.3v4.3l-11-6.4s0-4.2,0-4.2Z"/>
  <path class="st9" d="M207.1,46.9l11,6.3v4.3l-11-6.4s0-4.2,0-4.2Z"/>
  <path class="st9" d="M207.1,55.4l11,6.4v4.3l-11-6.4v-4.2h0Z"/>
  <path class="st9" d="M207.1,63.9l11,6.4v4.3l-11-6.4v-4.2h0Z"/>
  <path class="st13" d="M225.6,36.2l10.9-6.3v4.2l-10.9,6.3v-4.2Z"/>
  <path d="M236.4,30v4l-10.8,6.2v-4l10.8-6.2ZM236.5,29.8l-11,6.4v4.3l11-6.4v-4.3Z"/>
  <path class="st13" d="M225.6,44.7l10.9-6.3v4.2l-10.9,6.3v-4.2Z"/>
  <path d="M236.4,38.5v4l-10.8,6.2v-4l10.8-6.2ZM236.5,38.3l-11.1,6.4v4.3l11.1-6.4v-4.3Z"/>
  <path class="st13" d="M225.6,53.2l10.9-6.3v4.2l-10.9,6.3v-4.2Z"/>
  <path d="M236.4,47v4l-10.8,6.2v-4l10.8-6.2ZM236.5,46.8l-11.1,6.4v4.3l11.1-6.4v-4.3Z"/>
  <path class="st13" d="M225.6,61.7l10.9-6.3v4.2l-10.9,6.3v-4.2Z"/>
  <path d="M236.4,55.5v4l-10.8,6.2v-4s10.8-6.2,10.8-6.2ZM236.5,55.3l-11.1,6.4v4.3l11.1-6.4v-4.3Z"/>
  <path class="st13" d="M225.6,70.2l10.9-6.3v4.2l-10.9,6.3v-4.2Z"/>
  <path d="M236.4,64v4l-10.8,6.2v-4s10.8-6.2,10.8-6.2ZM236.5,63.8l-11.1,6.4v4.3l11.1-6.4v-4.3Z"/>
  <path class="st9" d="M207.1,21.4l-3.7,2.1,18.4,10.6,18.4-10.6-18.4-10.6s-14.7,8.5-14.7,8.5Z"/>
  <path class="st6" d="M206.8,23.5l15.1-8.7,15,8.7-15,8.7-15-8.7h-.1Z"/>
  <path class="st14" d="M206.9,23.5l14.9-8.6v1.8l-13.3,7.6-1.6-.9h0Z"/>
  <path d="M221.7,15v1.7l-13.3,7.6-1.4-.8,14.7-8.5M221.9,14.8l-15,8.7,1.7,1,13.4-7.7v-1.9h0Z"/>
  <path class="st6" d="M235.2,24.4l-13.4-7.7v-1.9l15,8.7-1.7,1h0Z"/>
  <path class="st6" d="M208.5,24.4l13.4-7.7,13.4,7.7-13.4,7.7s-13.4-7.7-13.4-7.7Z"/>
  <path class="st14" d="M207.3,58.6l10-5.8v37.7l-10,5.8v-37.7Z"/>
  <path d="M217.3,52.9v37.5l-9.9,5.7v-37.6l9.9-5.7M217.4,52.8l-10.1,5.8v37.8l10.1-5.8v-37.7h0Z"/>
  <path class="st13" d="M189.7,86.1v-37.6l17.5,10.1v37.6l-17.5-10.1Z"/>
  <path d="M189.8,48.6l17.3,10v37.4l-17.3-10v-37.5M189.7,48.4v37.7l17.6,10.2v-37.8l-17.6-10.2h0Z"/>
  <path class="st11" d="M189.7,48.4l10.1-5.7,17.6,10.2-10.1,5.7-17.6-10.1h0Z"/>
  <path class="st12" d="M199.8,42.7l17.4,10.1-9.9,5.7-17.4-10.1,9.9-5.7ZM199.8,42.6l-10.1,5.8,17.6,10.2,10.1-5.8-17.6-10.2h0Z"/>
  <path class="st6" d="M199.6,44.1l-7.6,4.4,15.3,8.8,7.6-4.4-15.3-8.8Z"/>
  <path class="st14" d="M192.1,48.5l7.4-4.3v1.1l-6.5,3.7-1-.6h.1Z"/>
  <path d="M199.5,44.3v1l-6.4,3.7-.8-.5,7.2-4.2ZM199.7,44.1l-7.6,4.4,1.1.6,6.5-3.8v-1.3h0Z"/>
  <path class="st13" d="M199.7,45.3v-1.1l15.1,8.7-1,.5-14.1-8.2h0Z"/>
  <path d="M199.8,44.3l14.9,8.6-.8.5-14.1-8.1v-1M199.6,44.1v1.3l14.2,8.2,1.1-.6-15.3-8.8h0Z"/>
  <path class="st11" d="M193.1,49.1l6.5-3.8,14.2,8.2-6.5,3.8-14.2-8.2Z"/>
  <path class="st13" d="M209.8,60l5-2.9v5.8l-5,2.8s0-5.7,0-5.7Z"/>
  <path d="M214.8,57.3v5.6l-4.9,2.8v-5.6l4.9-2.8ZM214.8,57.1l-5,2.9v5.8l5-2.9v-5.8Z"/>
  <path class="st13" d="M209.8,68.7l5-2.9v5.8l-5,2.8v-5.7Z"/>
  <path d="M214.8,66v5.6l-4.9,2.8v-5.6l4.9-2.8ZM214.8,65.8l-5,2.9v5.8l5-2.9v-5.8h0Z"/>
  <path class="st13" d="M209.8,77.4l5-2.9v5.8l-5,2.8v-5.7Z"/>
  <path d="M214.8,74.7v5.6l-4.9,2.8v-5.6l4.9-2.8ZM214.8,74.5l-5,2.9v5.8l5-2.9v-5.8h0Z"/>
  <path class="st13" d="M209.8,86.1l5-2.9v5.8l-5,2.8v-5.7Z"/>
  <path d="M214.8,83.4v5.6l-4.9,2.8v-5.6l4.9-2.8ZM214.8,83.2l-5,2.9v5.8l5-2.9v-5.8h0Z"/>
  <path class="st8" d="M204.8,60v5.8l-2.5-1.4v-5.8l2.5,1.5h0Z"/>
  <path class="st8" d="M199.8,57.1v5.8l-2.5-1.4v-5.8l2.5,1.5h0Z"/>
  <path class="st8" d="M194.7,54.2v5.8l-2.5-1.4v-5.8l2.5,1.5h0Z"/>
  <path class="st8" d="M204.8,68.7v5.8l-2.5-1.4v-5.8l2.5,1.5h0Z"/>
  <path class="st8" d="M199.8,65.8v5.8l-2.5-1.4v-5.8l2.5,1.5h0Z"/>
  <path class="st13" d="M192.2,67.2v-5.8l2.5,1.5v5.7l-2.5-1.4Z"/>
  <path d="M192.3,61.6l2.4,1.4v5.6l-2.4-1.3v-5.6M192.2,61.5v5.8l2.5,1.4v-5.8l-2.5-1.5h0Z"/>
  <path class="st13" d="M202.3,81.8v-5.8l2.5,1.5v5.7s-2.5-1.4-2.5-1.4Z"/>
  <path d="M202.3,76.1l2.4,1.4v5.6l-2.4-1.3v-5.6h0ZM202.2,76v5.8l2.5,1.4v-5.8l-2.5-1.5h0Z"/>
  <path class="st13" d="M197.2,78.9v-5.8l2.5,1.5v5.7s-2.5-1.4-2.5-1.4Z"/>
  <path d="M197.3,73.2l2.4,1.4v5.6l-2.4-1.3v-5.6M197.2,73.1v5.8l2.5,1.4v-5.8l-2.5-1.5h0Z"/>
  <path class="st13" d="M192.2,76v-5.8l2.5,1.5v5.7s-2.5-1.4-2.5-1.4Z"/>
  <path d="M192.3,70.3l2.4,1.4v5.6l-2.4-1.3v-5.6M192.2,70.2v5.8l2.5,1.4v-5.8l-2.5-1.5h0Z"/>
  <path class="st13" d="M202.3,90.5v-5.8l2.5,1.5v5.7s-2.5-1.4-2.5-1.4Z"/>
  <path d="M202.3,84.8l2.4,1.4v5.6l-2.4-1.3v-5.6h0ZM202.2,84.7v5.8l2.5,1.4v-5.8l-2.5-1.5h0Z"/>
  <path class="st13" d="M197.2,87.6v-5.8l2.5,1.5v5.7s-2.5-1.4-2.5-1.4Z"/>
  <path d="M197.3,81.9l2.4,1.4v5.6l-2.4-1.3v-5.6M197.2,81.8v5.8l2.5,1.4v-5.8l-2.5-1.5h0Z"/>
  <path class="st13" d="M192.2,84.7v-5.8l2.5,1.5v5.7s-2.5-1.4-2.5-1.4Z"/>
  <path d="M192.3,79l2.4,1.4v5.6l-2.4-1.3v-5.6M192.2,78.9v5.8l2.5,1.4v-5.8l-2.5-1.5h0Z"/>
  <path class="st14" d="M188.9,69.2l10.1-5.8v37.7l-10.1,5.8v-37.7Z"/>
  <path d="M198.9,63.5v37.5l-9.9,5.7v-37.6l9.9-5.7M199,63.4l-10.1,5.8v37.8l10.1-5.8v-37.7h0Z"/>
  <path class="st13" d="M171.3,96.7v-37.6l17.5,10.1v37.6l-17.5-10.1Z"/>
  <path d="M171.4,59.2l17.3,10v37.4l-17.3-10v-37.5M171.3,59v37.8l17.6,10.2v-37.8l-17.6-10.2h0Z"/>
  <path class="st11" d="M171.3,59l10.1-5.7,17.6,10.2-10.1,5.7s-17.6-10.2-17.6-10.2Z"/>
  <path class="st12" d="M181.4,53.3l17.4,10.1-9.9,5.7-17.4-10.1,9.9-5.7ZM181.4,53.2l-10.1,5.8,17.6,10.2,10.1-5.8-17.6-10.2h0Z"/>
  <path class="st6" d="M181.3,54.7l-7.6,4.4,15.3,8.8,7.6-4.4-15.3-8.8Z"/>
  <path class="st14" d="M173.8,59.1l7.4-4.3v1.2l-6.5,3.7-1-.6s.1,0,.1,0Z"/>
  <path d="M181.1,54.9v1l-6.4,3.7-.8-.5,7.2-4.2M181.3,54.7l-7.6,4.4,1.1.6,6.5-3.8v-1.3h0Z"/>
  <path class="st13" d="M181.3,55.9v-1.1l15.1,8.7-1,.6s-14.1-8.2-14.1-8.2Z"/>
  <path d="M181.4,54.9l14.9,8.6-.8.5-14.1-8.1v-1M181.3,54.7v1.3l14.2,8.2,1.1-.6-15.3-8.8h0Z"/>
  <path class="st11" d="M174.7,59.8l6.6-3.8,14.2,8.2-6.5,3.8-14.2-8.2h-.1Z"/>
  <path class="st13" d="M191.4,70.6l5-2.9v5.8l-5,2.8v-5.7Z"/>
  <path d="M196.4,67.9v5.6l-4.9,2.8v-5.6l4.9-2.8ZM196.4,67.7l-5,2.9v5.8l5-2.9v-5.8Z"/>
  <path class="st13" d="M191.4,79.3l5-2.9v5.8l-5,2.8v-5.7Z"/>
  <path d="M196.4,76.6v5.6l-4.9,2.8v-5.6l4.9-2.8ZM196.4,76.4l-5,2.9v5.8l5-2.9v-5.8Z"/>
  <path class="st13" d="M191.4,88.1l5-2.9v5.8l-5,2.8v-5.7Z"/>
  <path d="M196.4,85.3v5.6l-4.9,2.8v-5.6l4.9-2.8ZM196.4,85.2l-5,2.9v5.8l5-2.9v-5.8Z"/>
  <path class="st13" d="M191.4,96.8l5-2.9v5.8l-5,2.8v-5.7Z"/>
  <path d="M196.4,94v5.6l-4.9,2.8v-5.6l4.9-2.8ZM196.4,93.9l-5,2.9v5.8l5-2.9v-5.8Z"/>
  <path class="st8" d="M186.4,70.6v5.8l-2.5-1.4v-5.8l2.5,1.4Z"/>
  <path class="st8" d="M181.4,67.7v5.8l-2.5-1.4v-5.8l2.5,1.5h0Z"/>
  <path class="st8" d="M176.3,64.8v5.8l-2.5-1.4v-5.8l2.5,1.5h0Z"/>
  <path class="st8" d="M186.4,79.3v5.8l-2.5-1.4v-5.8l2.5,1.5h0Z"/>
  <path class="st8" d="M181.4,76.4v5.8l-2.5-1.4v-5.8l2.5,1.5h0Z"/>
  <path class="st8" d="M176.3,73.6v5.8l-2.5-1.4v-5.8l2.5,1.5h0Z"/>
  <path class="st8" d="M186.4,88.1v5.8l-2.5-1.4v-5.8l2.5,1.5h0Z"/>
  <path class="st8" d="M181.4,85.2v5.8l-2.5-1.4v-5.8l2.5,1.5h0Z"/>
  <path class="st8" d="M176.3,82.2v5.8l-2.5-1.4v-5.8l2.5,1.4Z"/>
  <path class="st8" d="M186.4,96.8v5.8l-2.5-1.4v-5.8l2.5,1.5h0Z"/>
  <path class="st8" d="M181.4,93.9v5.8l-2.5-1.4v-5.8l2.5,1.4Z"/>
  <path class="st8" d="M176.3,91v5.8l-2.5-1.4v-5.8l2.5,1.5h0Z"/>
  <path class="st10" d="M229.2,93.5l-11,6.5c-2.5,1.4-4.9,1.4-7.4,0l-18.4-10.6c-2.5-1.4-2.5-2.8,0-4.3l4.5-2.6v5.2l17.6,10.2,3.7-19,3.6,2,2.6-1.4,15.8-9.1v-4.3c.1,0,14.7,8.6,14.7,8.6,2.5,1.4,2.5,2.8,0,4.2l-25.8,14.8h0v-.2Z"/>
  <path class="st14" d="M244.1,72.7h-1.2v7.6c.4.3.8.3,1.2,0v-7.6Z"/>
  <circle class="st14" cx="243.2" cy="69.6" r="5.4"/>
  <circle class="st14" cx="245.5" cy="76.1" r="1.1"/>
  <path class="st3" d="M245.5,76.7c0,.8-.7,1.5-1.5,1.5"/>
  <path class="st14" d="M202.9,87l15.3-8.8v38.8l-15.3,8.7v-38.7Z"/>
  <path d="M218,78.3v38.6l-15.1,8.7v-38.6l15.1-8.7ZM218.1,78.1l-15.3,8.8v38.8l15.3-8.8s0-38.8,0-38.8Z"/>
  <path class="st13" d="M187.6,116.9v-38.8l15.2,8.9v38.7s-15.2-8.8-15.2-8.8Z"/>
  <path d="M187.7,78.3l15.1,8.7v38.6l-15.1-8.7v-38.6ZM187.6,78.1v38.8l15.3,8.8v-38.8l-15.3-8.8h0Z"/>
  <path class="st8" d="M190.6,83.4l9.1,5.3v3.5l-9.1-5.3v-3.5Z"/>
  <path class="st8" d="M190.6,90.5l9.1,5.3v3.5l-9.1-5.3v-3.5Z"/>
  <path class="st8" d="M190.6,97.6l9.1,5.3v3.5l-9.1-5.3v-3.5Z"/>
  <path class="st8" d="M190.6,104.7l9.1,5.3v3.6l-9.1-5.3v-3.5h0Z"/>
  <path class="st8" d="M190.6,111.7l9.1,5.3v3.5l-9.1-5.3v-3.5Z"/>
  <path class="st13" d="M205.9,88.7l9.1-5.3v3.5l-9.1,5.2s0-3.4,0-3.4Z"/>
  <path d="M214.9,83.6v3.3l-8.9,5.2v-3.3l8.9-5.2M215.1,83.4l-9.1,5.3v3.5l9.2-5.3v-3.5h0Z"/>
  <path class="st13" d="M205.9,95.8l9.2-5.3v3.5l-9.2,5.2v-3.5h0Z"/>
  <path d="M215,90.7v3.3l-9,5.2v-3.3l9-5.2ZM215.1,90.5l-9.2,5.3v3.5l9.2-5.3v-3.5Z"/>
  <path class="st13" d="M205.9,102.8l9.2-5.3v3.5l-9.2,5.2v-3.5h0Z"/>
  <path d="M215,97.7v3.3l-9,5.2v-3.3l9-5.2ZM215.1,97.6l-9.2,5.3v3.5l9.2-5.3v-3.5Z"/>
  <path class="st13" d="M205.9,109.9l9.2-5.3v3.5l-9.2,5.2v-3.5h0Z"/>
  <path d="M215,104.8v3.3l-9,5.2v-3.3l9-5.2ZM215.1,104.6l-9.2,5.3v3.5l9.2-5.3v-3.5Z"/>
  <path class="st13" d="M205.9,117l9.2-5.2v3.5l-9.2,5.2v-3.5Z"/>
  <path d="M215,111.8v3.3l-9,5.2v-3.3l9-5.2ZM215.1,111.7l-9.2,5.3v3.5l9.2-5.3v-3.5Z"/>
  <path class="st8" d="M190.6,76.4l-3,1.8,15.3,8.8,15.3-8.8-15.3-8.8-12.2,7.1h-.1Z"/>
  <path class="st1" d="M190.4,78.2l12.5-7.2,12.5,7.2-12.5,7.2-12.5-7.2Z"/>
  <path class="st14" d="M190.4,78.1l12.5-7.1v1.6l-11.1,6.3-1.4-.8Z"/>
  <path d="M202.8,71.1v1.4l-11,6.3-1.2-.7s12.2-7,12.2-7ZM202.9,70.9l-12.5,7.2,1.4.8,11.1-6.4v-1.6h0Z"/>
  <path class="st1" d="M214,78.9l-11.1-6.4v-1.6l12.5,7.2-1.4.8Z"/>
  <path class="st1" d="M191.8,78.9l11.1-6.4,11.1,6.4-11.1,6.4-11.1-6.4Z"/>
  <path class="st13" d="M229.2,93.5v-29.5l14.6,8.4v29.5l-14.6-8.4Z"/>
  <path d="M229.4,64.2l14.3,8.3v29.3l-14.3-8.3v-29.3ZM229.2,63.9v29.7l14.7,8.5v-29.7s-14.7-8.5-14.7-8.5Z"/>
  <path class="st14" d="M244,72.3l32.9-19v29.6l-32.9,19v-29.6Z"/>
  <path d="M276.8,53.6v29.3l-32.7,18.9v-29.3l32.7-18.9ZM277,53.2l-33.1,19.1v29.7l33.1-19.1v-29.7Z"/>
  <path class="st11" d="M229.3,63.8l33-19.1,14.6,8.5-33,19-14.6-8.4h0Z"/>
  <path class="st12" d="M262.3,44.9l14.5,8.4-32.9,19-14.5-8.4,32.9-19ZM262.3,44.7l-33.1,19.1,14.7,8.5,33.1-19.1-14.7-8.5h0Z"/>
  <path class="st10" d="M247.6,78.7v-4.2l11-6.4v4.2l-11,6.4Z"/>
  <path class="st10" d="M262.3,66v4.2l11-6.4v-4.2s-11,6.4-11,6.4Z"/>
  <path class="st10" d="M247.6,87.2v-4.2l11-6.4v4.2l-11,6.4Z"/>
  <path class="st10" d="M262.3,74.5v4.2l11-6.4v-4.2l-11,6.4Z"/>
  <path class="st10" d="M247.6,95.7v-4.2l11-6.4v4.2l-11,6.4Z"/>
  <path class="st10" d="M262.3,83v4.2l11-6.4v-4.2l-11,6.4Z"/>
  <path class="st14" d="M266.1,53.4l3-1.7v1.8l-3,1.7v-1.8Z"/>
  <path d="M268.9,51.9v1.6l-2.8,1.6v-1.6l2.8-1.6ZM269.1,51.6l-3.1,1.8v2l3.1-1.8v-2Z"/>
  <path class="st13" d="M259.8,51.7v-1.9l6.2,3.7v1.8l-6.2-3.6Z"/>
  <path d="M259.8,50l6,3.5v1.7l-6-3.5v-1.7ZM259.7,49.8v2l6.2,3.6v-2l-6.2-3.6Z"/>
  <path class="st11" d="M259.8,49.7l3.1-1.7,6.2,3.6-3.1,1.7-6.2-3.6Z"/>
  <path class="st12" d="M262.9,48.1l6,3.5-2.9,1.7-6-3.5,2.9-1.7ZM262.9,48l-3.1,1.8,6.2,3.6,3.1-1.8-6.2-3.6Z"/>
  <path class="st14" d="M255,59.8l3-1.7v1.8l-3,1.7v-1.8Z"/>
  <path d="M257.9,58.2v1.6l-2.8,1.6v-1.6l2.8-1.6ZM258.1,58l-3.1,1.8v2l3.1-1.8v-2Z"/>
  <path class="st13" d="M248.7,58.1v-1.9l6.2,3.7v1.8l-6.2-3.6Z"/>
  <path d="M248.8,56.3l6.1,3.5v1.7l-6.1-3.5v-1.7ZM248.7,56.2v2l6.2,3.6v-2l-6.2-3.6Z"/>
  <path class="st11" d="M248.7,56.1l3.1-1.7,6.2,3.6-3.1,1.7-6.2-3.6Z"/>
  <path class="st12" d="M251.8,54.5l6,3.5-2.9,1.7-6.1-3.5,2.9-1.7h.1ZM251.8,54.4l-3.1,1.8,6.2,3.6,3.1-1.8-6.2-3.6Z"/>
  <path class="st14" d="M137.3,160.4l9.9-5.6v20.1l-9.9,5.6v-20.1Z"/>
  <path d="M147,154.9v19.9l-9.7,5.6v-19.9l9.7-5.6ZM147.2,154.6l-10.1,5.8v20.3l10.1-5.8v-20.3Z"/>
  <path class="st10" d="M137.2,180.7l-22.6-13.1v-20.3l22.6,13.1v20.3Z"/>
  <path class="st11" d="M114.6,147.3l10.1-5.7,22.6,13.1-10,5.7-22.6-13.1h-.1Z"/>
  <path class="st12" d="M124.6,141.6l22.5,13-9.9,5.7-22.5-13,9.9-5.7h0ZM124.6,141.5l-10.1,5.8,22.6,13.1,10.1-5.8-22.6-13.1h0Z"/>
  <path class="st11" d="M127.2,160.3v-2.8l7.5,4.3v2.8l-7.5-4.3Z"/>
  <path class="st12" d="M127.2,157.7l7.3,4.2v2.6l-7.3-4.2v-2.6ZM127.1,157.5v2.9l7.5,4.4v-2.9s-7.5-4.4-7.5-4.4Z"/>
  <path class="st11" d="M117.1,154.5v-2.8l7.5,4.3v2.8l-7.5-4.3Z"/>
  <path class="st12" d="M117.2,151.9l7.3,4.2v2.6l-7.3-4.2v-2.6ZM117.1,151.7v2.9l7.5,4.4v-2.9l-7.5-4.4Z"/>
  <path class="st11" d="M127.2,166.1v-2.8l7.5,4.3v2.8l-7.5-4.3Z"/>
  <path class="st12" d="M127.2,163.5l7.3,4.2v2.6l-7.3-4.2v-2.6ZM127.1,163.3v2.9l7.5,4.4v-2.9s-7.5-4.4-7.5-4.4Z"/>
  <path class="st11" d="M117.1,160.3v-2.8l7.5,4.3v2.8l-7.5-4.3Z"/>
  <path class="st12" d="M117.2,157.7l7.3,4.2v2.6l-7.3-4.2v-2.6ZM117.1,157.5v2.9l7.5,4.4v-2.9l-7.5-4.4Z"/>
  <path class="st11" d="M127.2,171.9v-2.8l7.5,4.3v2.8l-7.5-4.3Z"/>
  <path class="st12" d="M127.2,169.3l7.3,4.2v2.6l-7.3-4.2v-2.6ZM127.1,169.1v2.9l7.5,4.4v-2.9s-7.5-4.4-7.5-4.4Z"/>
  <path class="st11" d="M117.1,166.1v-2.8l7.5,4.3v2.8l-7.5-4.3Z"/>
  <path class="st12" d="M117.2,163.5l7.3,4.2v2.6l-7.3-4.2v-2.6ZM117.1,163.3v2.9l7.5,4.4v-2.9l-7.5-4.4Z"/>
  <path class="st10" d="M122.1,148.8v-1.3l-2.1-1.2v1.3l2.1,1.2Z"/>
  <path class="st14" d="M122.2,147.4l4.1-2.3v1.2l-4.1,2.3v-1.2Z"/>
  <path d="M126.2,145.3v.9l-3.9,2.2v-.9l3.9-2.2ZM126.4,145l-4.3,2.5v1.3l4.3-2.5v-1.3Z"/>
  <path class="st11" d="M120,146.2l4.3-2.4,2.1,1.2-4.2,2.4-2.1-1.2h-.1Z"/>
  <path class="st12" d="M124.2,143.8l2,1.1-4.1,2.4-2-1.1,4.1-2.4ZM124.2,143.7l-4.3,2.5,2.1,1.2,4.3-2.5-2.1-1.2Z"/>
  <path class="st10" d="M129.6,153.1v-1.3l-2.1-1.2v1.3l2.1,1.2Z"/>
  <path class="st14" d="M129.7,151.8l4.1-2.3v1.2l-4.1,2.3v-1.2Z"/>
  <path d="M133.7,149.6v.9l-3.9,2.2v-.9l3.9-2.2ZM133.9,149.3l-4.3,2.5v1.3l4.3-2.5v-1.3Z"/>
  <path class="st11" d="M127.5,150.5l4.3-2.4,2.1,1.2-4.2,2.4-2.1-1.2h-.1Z"/>
  <path class="st12" d="M131.8,148.2l2,1.1-4.1,2.4-2-1.1,4.1-2.4ZM131.8,148.1l-4.3,2.5,2.1,1.2,4.3-2.5-2.1-1.2Z"/>
  <path class="st14" d="M170.9,100.8h-1.2v5.1c.4.2.8.2,1.2,0v-5.1Z"/>
  <path class="st14" d="M170.3,101.5c3.1,0,5.7-2.6,5.7-5.7s-3.1-6.2-5.7-9.8c-2.4,2.9-5.7,6.4-5.7,9.8s2.6,5.7,5.7,5.7Z"/>
  <path class="st14" d="M181.9,107.1h-1.2v5.1c.4.2.8.2,1.2,0v-5.1Z"/>
  <path class="st14" d="M181.4,107.8c3.1,0,5.7-2.6,5.7-5.7s-3.1-6.2-5.7-9.8c-2.4,2.9-5.7,6.4-5.7,9.8s2.6,5.7,5.7,5.7Z"/>
  <path class="st11" d="M119.7,32.4l12.4-7.2,12.4,7.2-12.4,7.2s-12.4-7.2-12.4-7.2Z"/>
  <path class="st12" d="M132.1,25.4l12.3,7.1-12.3,7.1-12.3-7.1,12.3-7.1ZM132.1,25.2l-12.5,7.2,12.5,7.2,12.5-7.2-12.5-7.2Z"/>
  <path class="st14" d="M132.2,39.7l12.4-7.1v41.4l-12.4,7.1s0-41.4,0-41.4Z"/>
  <path d="M144.5,32.7v41.2l-12.3,7.1v-41.2l12.3-7.1M144.6,32.4l-12.5,7.2v41.5l12.6-7.2v-41.5s-.1,0-.1,0Z"/>
  <path class="st13" d="M119.6,73.9v-41.3l12.5,7.2v41.3s-12.5-7.2-12.5-7.2Z"/>
  <path d="M119.7,32.7l12.3,7.1v41.2l-12.3-7.1v-41.2ZM119.6,32.4v41.5l12.5,7.2v-41.5s-12.5-7.2-12.5-7.2Z"/>
  <path class="st11" d="M125.1,22.1l7.1-4.1,7,4.1-7,4.1-7-4.1h0Z"/>
  <path class="st12" d="M132.1,18.1l6.9,4-6.9,4-6.9-4,6.9-4ZM132.1,18l-7.2,4.1,7.2,4.1,7.2-4.1-7.2-4.1Z"/>
  <path class="st14" d="M132.2,26.2l7-4v10.9l-7,4s0-10.9,0-10.9Z"/>
  <path d="M139.1,22.3v10.7l-6.9,4v-10.7l6.9-4M139.3,22.1l-7.2,4.1v11l7.2-4.1v-11Z"/>
  <path class="st13" d="M125,33.1v-10.9l7.1,4.1v10.9s-7.1-4.1-7.1-4.1Z"/>
  <path d="M125.1,22.3l6.9,4v10.7l-6.9-4v-10.7ZM125,22.1v11l7.2,4.1v-11s-7.2-4.1-7.2-4.1Z"/>
  <path class="st11" d="M130.8,13.6l1.4-.8,1.3.8-1.3.8-1.3-.8h0Z"/>
  <path class="st12" d="M132.1,12.9l1.2.7-1.2.7-1.2-.7,1.2-.7ZM132.1,12.8l-1.5.8,1.5.8,1.5-.8-1.5-.8Z"/>
  <path class="st11" d="M127.8,22.2l2.9-8.5,1.4.8v10.2l-4.3-2.5h0Z"/>
  <path class="st12" d="M130.7,13.8l1.2.7v10l-4.1-2.4,2.8-8.4M130.7,13.6l-2.9,8.7,4.4,2.5v-10.4l-1.5-.8h0Z"/>
  <path class="st14" d="M132.2,14.4l1.4-.7,2.9,8.6-4.2,2.4v-10.2h0Z"/>
  <path d="M133.5,13.8l2.8,8.4-4.1,2.4v-10l1.2-.7M133.6,13.6l-1.5.8v10.4l4.4-2.5-2.9-8.7h0Z"/>
  <path class="st6" d="M134.6,42v26.1"/>
  <path class="st6" d="M129.6,42v26.1"/>
  <path class="st6" d="M127.1,40.6v26.1"/>
  <path class="st6" d="M124.6,39.1v26.1"/>
  <path class="st6" d="M122.1,37.7v26.1"/>
  <path class="st6" d="M137.1,40.6v26.1"/>
  <path class="st6" d="M139.6,39.1v26.1"/>
  <path class="st6" d="M142.2,37.7v26.3"/>
  <path class="st14" d="M135.4,90.1l10.9-6.2v38.1l-10.9,6.2v-38.1Z"/>
  <path d="M146.2,84v37.8l-10.7,6.2v-37.8l10.7-6.2M146.4,83.7l-11,6.4v38.2l11-6.4v-38.2Z"/>
  <path class="st13" d="M124.4,121.9v-38l10.9,6.3v38s-10.9-6.3-10.9-6.3Z"/>
  <path d="M124.5,84l10.6,6.2v37.8l-10.7-6.2v-37.8M124.3,83.7v38.2l11,6.4v-38.2s-11-6.4-11-6.4Z"/>
  <path class="st11" d="M124.4,83.7l10.9-6.3,10.9,6.3-10.9,6.3-10.9-6.3Z"/>
  <path class="st12" d="M135.4,77.5l10.8,6.2-10.8,6.2-10.8-6.2,10.8-6.2ZM135.4,77.3l-11,6.4,11,6.4,11-6.4-11-6.4Z"/>
  <path class="st13" d="M130.3,83.6v-1.4l5,2.8v1.4l-5-2.8Z"/>
  <path d="M130.5,82.3l4.7,2.7v1.2l-4.7-2.7v-1.2ZM130.3,82v1.7l5.1,2.9v-1.7l-5.1-2.9Z"/>
  <path class="st14" d="M135.4,84.9l4.9-2.8v1.5l-4.9,2.8v-1.5Z"/>
  <path d="M140.2,82.3v1.2l-4.7,2.7v-1.2l4.7-2.7M140.4,82l-5.1,2.9v1.7l5.1-2.9v-1.7Z"/>
  <path class="st11" d="M130.4,82l5-2.9,4.9,2.9-4.9,2.9-4.9-2.9h-.1Z"/>
  <path class="st12" d="M135.4,79.2l4.8,2.8-4.8,2.8-4.8-2.8,4.8-2.8ZM135.4,79.1l-5.1,2.9,5.1,2.9,5.1-2.9-5.1-2.9Z"/>
  <path class="st6" d="M128,90.1v29.7"/>
  <path class="st6" d="M131.7,92.2v29.7"/>
  <path class="st6" d="M139,92.2v29.7"/>
  <path class="st6" d="M142.7,90.1v29.7"/>
  <path class="st14" d="M230,98.4h-1.2v7.6c.4.3.8.3,1.2,0v-7.6Z"/>
  <circle class="st14" cx="229.1" cy="95.2" r="5.4"/>
  <circle class="st14" cx="231.4" cy="101.8" r="1.1"/>
  <path class="st3" d="M231.4,102.4c0,.8-.7,1.5-1.5,1.5"/>
  <path class="st14" d="M251.3,111l16.5-9.5v42l-16.5,9.5v-42h0Z"/>
  <path d="M267.7,101.7v41.8l-16.4,9.4v-41.8s16.4-9.4,16.4-9.4ZM267.8,101.5l-16.6,9.6v42l16.6-9.6v-42Z"/>
  <path class="st13" d="M234.7,143.5v-42l16.5,9.6v41.9l-16.5-9.5Z"/>
  <path d="M234.8,101.7l16.3,9.4v41.8l-16.3-9.4v-41.8ZM234.7,101.5v42l16.5,9.5v-42l-16.5-9.5Z"/>
  <path class="st8" d="M238,107.2l9.9,5.7v3.8l-9.9-5.7v-3.8Z"/>
  <path class="st8" d="M238,114.9l9.9,5.7v3.8l-9.9-5.7v-3.8Z"/>
  <path class="st8" d="M238,122.5l9.9,5.7v3.8l-9.9-5.7v-3.8Z"/>
  <path class="st8" d="M238,130.2l9.9,5.7v3.8l-9.9-5.7v-3.8Z"/>
  <path class="st8" d="M238,137.8l9.9,5.7v3.8l-9.9-5.7v-3.8Z"/>
  <path class="st13" d="M254.6,113l9.9-5.7v3.8l-9.9,5.7v-3.7h0Z"/>
  <path d="M264.4,107.4v3.6l-9.7,5.6v-3.6l9.7-5.6M264.5,107.2l-9.9,5.7v3.8l9.9-5.7v-3.8h0Z"/>
  <path class="st13" d="M254.6,120.6l9.9-5.7v3.8l-9.9,5.7v-3.8Z"/>
  <path d="M264.4,115v3.6l-9.7,5.6v-3.6l9.7-5.6ZM264.5,114.9l-9.9,5.7v3.8l9.9-5.7v-3.8Z"/>
  <path class="st13" d="M254.6,128.2l9.9-5.7v3.8l-9.9,5.7v-3.8Z"/>
  <path d="M264.4,122.7v3.6l-9.7,5.6v-3.6s9.7-5.6,9.7-5.6ZM264.5,122.5l-9.9,5.7v3.8l9.9-5.7v-3.8Z"/>
  <path class="st13" d="M254.6,135.9l9.9-5.7v3.8l-9.9,5.6v-3.7h0Z"/>
  <path d="M264.4,130.3v3.6l-9.7,5.6v-3.6l9.7-5.6ZM264.5,130.2l-9.9,5.7v3.8l9.9-5.7v-3.8Z"/>
  <path class="st13" d="M254.6,143.5l9.9-5.7v3.8l-9.9,5.6v-3.7h0Z"/>
  <path d="M264.4,138v3.6l-9.7,5.6v-3.6l9.7-5.6ZM264.5,137.8l-9.9,5.7v3.8l9.9-5.7v-3.8Z"/>
  <path class="st8" d="M238,99.6l-3.3,1.9,16.5,9.6,16.6-9.6-16.5-9.6-13.2,7.7h0Z"/>
  <path class="st1" d="M237.8,101.5l13.5-7.8,13.5,7.8-13.5,7.8-13.5-7.8h0Z"/>
  <path class="st14" d="M237.8,101.4l13.5-7.7v1.7l-12.1,6.9-1.5-.8h.1Z"/>
  <path d="M251.2,93.9v1.5l-11.9,6.9-1.3-.7,13.2-7.6M251.3,93.7l-13.5,7.8,1.5.9,12-6.9v-1.7h0Z"/>
  <path class="st1" d="M263.3,102.4l-12-6.9v-1.7l13.5,7.8-1.5.9h0Z"/>
  <path class="st1" d="M239.2,102.3l12-6.9,12,6.9-12,6.9-12-7h0Z"/>
  <path class="st14" d="M277,132l14.1-8.1v35.9l-14.1,8.1v-35.9Z"/>
  <path d="M291.1,123.9v35.8l-14,8.1v-35.8l14-8.1ZM291.2,123.8l-14.2,8.2v36l14.2-8.2v-36Z"/>
  <path class="st13" d="M262.9,159.7v-35.9l14.1,8.2v35.9l-14.1-8.1h0Z"/>
  <path d="M263,123.9l14,8.1v35.8l-14-8.1v-35.8M262.9,123.8v36l14.1,8.2v-36l-14.1-8.2Z"/>
  <path class="st8" d="M265.7,128.7l8.5,4.9v3.3l-8.5-4.9v-3.3Z"/>
  <path class="st8" d="M265.7,135.3l8.5,4.9v3.3l-8.5-4.9v-3.3Z"/>
  <path class="st8" d="M265.7,141.8l8.5,4.9v3.3l-8.5-4.9v-3.3Z"/>
  <path class="st8" d="M265.7,148.4l8.5,4.9v3.3l-8.5-4.9v-3.3Z"/>
  <path class="st8" d="M265.7,154.9l8.5,4.9v3.3l-8.5-4.9v-3.3Z"/>
  <path class="st13" d="M279.9,133.6l8.5-4.9v3.2l-8.4,4.8v-3.2h-.1Z"/>
  <path d="M288.2,128.9v3.1l-8.3,4.8v-3.1l8.3-4.8M288.3,128.7l-8.5,4.9v3.3l8.5-4.9v-3.3h0Z"/>
  <path class="st13" d="M279.9,140.1l8.5-4.9v3.2l-8.5,4.8v-3.2h0Z"/>
  <path d="M288.3,135.4v3.1l-8.3,4.8v-3.1l8.3-4.8ZM288.4,135.2l-8.5,4.9v3.3l8.5-4.9v-3.3Z"/>
  <path class="st13" d="M279.9,146.7l8.5-4.9v3.2l-8.5,4.8v-3.2h0Z"/>
  <path d="M288.3,141.9v3.1l-8.3,4.8v-3.1l8.3-4.8ZM288.4,141.8l-8.5,4.9v3.3l8.5-4.9v-3.3Z"/>
  <path class="st13" d="M279.9,153.2l8.5-4.9v3.2l-8.5,4.8v-3.2h0Z"/>
  <path d="M288.3,148.5v3.1l-8.3,4.8v-3.1l8.3-4.8ZM288.4,148.3l-8.5,4.9v3.3l8.5-4.9v-3.3Z"/>
  <path class="st13" d="M279.9,159.8l8.5-4.9v3.2l-8.5,4.8v-3.2h0Z"/>
  <path d="M288.3,155v3.1l-8.3,4.8v-3.1l8.3-4.8ZM288.4,154.9l-8.5,4.9v3.3l8.5-4.9v-3.3Z"/>
  <path class="st8" d="M265.7,122.2l-2.8,1.6,14.1,8.2,14.2-8.2-14.2-8.2-11.3,6.5h0Z"/>
  <path class="st1" d="M265.5,123.8l11.6-6.7,11.6,6.7-11.6,6.7-11.6-6.7Z"/>
  <path class="st14" d="M265.5,123.8l11.6-6.6v1.4l-10.3,5.9-1.3-.7h0Z"/>
  <path d="M276.9,117.3v1.3l-10.2,5.9-1.1-.6,11.3-6.5M277,117.1l-11.6,6.7,1.3.7,10.3-5.9v-1.5h0Z"/>
  <path class="st1" d="M287.3,124.5l-10.3-5.9v-1.5l11.6,6.7-1.3.7h0Z"/>
  <path class="st1" d="M266.7,124.5l10.3-5.9,10.3,5.9-10.3,6-10.3-6Z"/>
  <path class="st10" d="M91.4,141.1l11,6.4v-21.2l-11-6.4v21.2Z"/>
  <path class="st14" d="M102.5,126.2l25.6-14.7v21.1l-25.6,14.7s0-21.1,0-21.1Z"/>
  <path d="M128,111.7v20.8l-25.4,14.6v-20.8s25.4-14.6,25.4-14.6ZM128.2,111.3l-25.8,14.9v21.2l25.8-14.9v-21.2h0Z"/>
  <path class="st11" d="M91.5,119.8l25.7-14.8,10.9,6.3-25.6,14.8-10.9-6.3h0Z"/>
  <path class="st12" d="M117.1,105.1l10.8,6.2-25.5,14.7-10.8-6.2,25.5-14.7ZM117.1,105l-25.8,14.9,11,6.4,25.8-14.9s-11-6.4-11-6.4Z"/>
  <path class="st11" d="M95.1,130.4v-4.1l3.6,2.1v4.1l-3.6-2.1Z"/>
  <path class="st12" d="M95.2,126.4l3.4,2v4l-3.4-2s0-4,0-4ZM95,126.2v4.2l3.7,2.1v-4.2s-3.7-2.1-3.7-2.1Z"/>
  <path class="st10" d="M109.8,126.2v4.2l-3.7,2.1v-4.2s3.7-2.1,3.7-2.1Z"/>
  <path class="st10" d="M117.1,121.9v4.2l-3.7,2.1v-4.2l3.7-2.1Z"/>
  <path class="st10" d="M124.5,117.7v4.2l-3.7,2.1v-4.2l3.7-2.1Z"/>
  <path class="st10" d="M109.8,134.7v4.2l-3.7,2.1v-4.2l3.7-2.1Z"/>
  <path class="st10" d="M117.1,130.4v4.2l-3.7,2.1v-4.2l3.7-2.1Z"/>
  <path class="st10" d="M124.5,126.2v4.2l-3.7,2.1v-4.2s3.7-2.1,3.7-2.1Z"/>
  <path class="st11" d="M95.1,138.9v-4.1l3.6,2.1v4.1l-3.6-2.1Z"/>
  <path class="st12" d="M95.2,134.9l3.4,2v4l-3.4-2v-4ZM95,134.7v4.2l3.7,2.1v-4.2l-3.7-2.1Z"/>
  <path class="st10" d="M104.2,123v-2.5l-7.4-4.2v2.5l7.4,4.2Z"/>
  <path class="st14" d="M104.3,120.5l18.2-10.4v2.3l-18.2,10.4v-2.3Z"/>
  <path d="M122.4,110.2v2l-18,10.4v-2l18-10.4ZM122.6,109.9l-18.4,10.6v2.5l18.4-10.6v-2.5Z"/>
  <path class="st11" d="M97,116.3l18.3-10.6,7.2,4.2-18.3,10.6-7.2-4.2Z"/>
  <path class="st12" d="M115.3,105.8l7.1,4.1-18.2,10.5-7.1-4.1,18.2-10.5M115.3,105.7l-18.4,10.6,7.4,4.2,18.4-10.6-7.4-4.2Z"/>
  <path class="st10" d="M102.2,151.1c-.9,0-1.8-.5-3.6-1.6l-11-6.4c-1.8-1-2.7-1.6-2.7-2s1-1,2.7-2l3.7-2.1v4.2l11.1,6.5,25.9-14.9v-8.4l7.1,4.2,11.1-6.4v-4.2l3.6,2.1c1.8,1,2.7,1.6,2.7,2s-1,1-2.7,2l-44.2,25.5c-1.8,1.1-2.7,1.6-3.6,1.6h-.1Z"/>
  <path class="st0" d="M98.5,56.5h-.2.2Z"/>
  <path class="st14" d="M95.9,60l1.9-1,4.3,19-.9.6-5.2-18.6h-.1Z"/>
  <path d="M97.7,59.1l4.3,18.9-.8.5-5.2-18.5,1.7-1h0ZM97.8,59l-1.9,1.1,5.2,18.7,1-.6-4.3-19.1h0Z"/>
  <path class="st13" d="M94.6,59l1.3,1.1,5,17.8s-6.3-18.9-6.3-18.9Z"/>
  <path d="M94.6,59.1l1.2,1,4.7,16.9-5.9-17.8M94.5,59l6.6,19.7-5.2-18.7-1.3-1.1h0Z"/>
  <path class="st13" d="M91.7,54.5l-5.6-2.9-1.4.3,4.3-2.3h1.7l4.9,2.9,1.9,1.8-4,2.1-1.8-1.8h0Z"/>
  <path d="M90.6,49.6l4.9,2.9,1.9,1.7-4,2.1-1.8-1.8h0l-5.6-2.9h0l-1.1.2,4-2.2h1.7ZM90.7,49.5h-1.7l-4.3,2.4,1.4-.3,5.6,2.9,1.8,1.8,4-2.1-1.9-1.8-4.9-2.9h0Z"/>
  <path class="st14" d="M90.2,57.5l-4.8-2.3-.7-3.4,1.4-.3,5.6,2.9,1.8,1.8v1.6l-3.2,1.1v-1.6.2h-.1Z"/>
  <path class="st14" d="M97.5,54.2v4l-4-.2v-1.6l4-2.1h0Z"/>
  <path class="st14" d="M94.3,57.8l1.8,42.2-1.8,1.1h-3.6l-1.8-1.1,1.3-41.5,4.1-.7Z"/>
  <path class="st14" d="M96.8,57.4l16.7-23.1.7.8-15.9,23.1-1.5-.7h0Z"/>
  <path d="M113.4,34.4l.7.6-15.8,23.1-1.4-.7s16.5-23,16.5-23ZM113.4,34.2l-16.6,23.2,1.6.7,15.9-23.2-.8-.8h0Z"/>
  <path class="st13" d="M95.7,56.7l17.7-22.4-16.7,23.2-1.1-.8h0Z"/>
  <path d="M112.2,35.7l-15.5,21.7-1-.7,16.5-20.9M113.4,34.2l-17.7,22.5,1.1.8,16.6-23.2h0Z"/>
  <path class="st13" d="M94.5,59.2c-.3-.2-.4-.5-.4-1,0-1,.7-2.2,1.6-2.7.2,0,.5-.2.7-.2h.3l1.4.9-2.3,3.7-1.3-.8h0Z"/>
  <path d="M96.3,55.3h.5l1.2.9-2.2,3.7-1.3-.8h0c-.3-.2-.4-.5-.4-1,0-1,.7-2.2,1.5-2.7.2,0,.5-.2.7-.2M96.3,55.3c-.2,0-.4,0-.7.2-.9.5-1.6,1.7-1.6,2.7s.2.8.4,1h0l1.3.8,2.3-3.8-1.3-.8h-.2s-.2-.2-.3-.2h0Z"/>
  <path class="st14" d="M96.2,60c-.5,0-.8-.4-.8-1.1,0-1,.7-2.2,1.5-2.7.2,0,.5-.2.7-.2.5,0,.8.4.8,1.1,0,1-.7,2.2-1.5,2.7-.2,0-.5.2-.7.2Z"/>
  <path d="M97.6,56.2c.5,0,.8.4.8,1,0,1-.7,2.1-1.5,2.6-.2,0-.5.2-.7.2-.5,0-.8-.4-.8-1,0-1,.7-2.1,1.5-2.6.2,0,.5-.2.7-.2M97.6,56.1c-.2,0-.4,0-.7.2-.9.5-1.6,1.7-1.6,2.7s.3,1.1.9,1.1.4,0,.7-.2c.9-.5,1.6-1.7,1.6-2.7s-.3-1.1-.9-1.1h0Z"/>
  <path class="st14" d="M75.2,61.7l20.7-4.2c-.3.6-.6,1.4-.3,2.3l-20.8,3.1.4-1.3h0Z"/>
  <path d="M95.7,57.6c-.2.6-.4,1.4-.2,2.2l-20.7,3.2.4-1.2,20.5-4.2M95.8,57.4l-20.7,4.2-.4,1.3,20.9-3.2c-.3-.8,0-1.6.2-2.4h0Z"/>
  <path class="st13" d="M75.1,61.7l19.3-5,1.4.7-20.7,4.2h0Z"/>
  <path class="st0" d="M54,82.2h-.2.2Z"/>
  <path class="st14" d="M51.5,85.7l1.9-1,4.3,19.1-.9.6-5.2-18.6h0Z"/>
  <path d="M53.2,84.8l4.3,18.9-.8.5-5.2-18.5,1.7-1h0ZM53.3,84.7l-1.9,1.1,5.2,18.7,1-.6-4.3-19.1h0Z"/>
  <path class="st13" d="M50.1,84.7l1.3,1.1,5,17.8s-6.3-18.9-6.3-18.9Z"/>
  <path d="M50.2,84.8l1.2,1,4.7,16.9-6-17.8M50.1,84.7l6.6,19.7-5.2-18.7-1.3-1.1h0Z"/>
  <path class="st13" d="M47.2,80.2l-5.6-2.9-1.4.3,4.3-2.3h1.7l4.9,2.9,1.9,1.8-4,2.1-1.8-1.8h0Z"/>
  <path d="M46.2,75.2l4.9,2.9,1.9,1.7-4,2.1-1.8-1.8h0l-5.6-2.9h0l-1.1.2,4-2.2s1.7,0,1.7,0ZM46.2,75.2h-1.7l-4.3,2.4,1.4-.3,5.6,2.9,1.8,1.8,4-2.1-1.9-1.8-4.9-2.9h0Z"/>
  <path class="st14" d="M45.7,83.2l-4.8-2.3-.7-3.4,1.4-.3,5.6,2.9,1.8,1.8v1.6l-3.2,1.1v-1.6.2h0Z"/>
  <path class="st14" d="M53,79.9v4l-4-.2v-1.6l4-2.1h0Z"/>
  <path class="st14" d="M49.9,83.4l1.8,42.2-1.8,1.1h-3.6l-1.8-1.1,1.3-41.5s4.1-.7,4.1-.7Z"/>
  <path class="st14" d="M52.3,83.1l16.6-23.2.7.8-15.9,23.1-1.5-.7h.1Z"/>
  <path d="M68.9,60l.7.6-15.8,23.1-1.4-.7s16.5-23,16.5-23ZM68.9,59.9l-16.6,23.2,1.6.7,15.9-23.2-.8-.8h0Z"/>
  <path class="st13" d="M51.2,82.3l17.7-22.4-16.7,23.2-1.1-.8h0Z"/>
  <path d="M67.8,61.4l-15.5,21.7-1-.7,16.5-20.9M68.9,59.9l-17.7,22.5,1.1.8,16.6-23.2h0Z"/>
  <path class="st13" d="M50,84.8c-.3-.2-.4-.5-.4-1,0-1,.7-2.2,1.5-2.7.2,0,.5-.2.7-.2h.3l1.4.9-2.3,3.7-1.3-.8h0Z"/>
  <path d="M51.8,81h.5l1.2.9-2.2,3.7-1.3-.8h0c-.3-.2-.4-.5-.4-1,0-1,.7-2.2,1.5-2.7.2,0,.5-.2.7-.2M51.8,80.9c-.2,0-.5,0-.7.2-.9.5-1.6,1.7-1.6,2.7s.2.8.4,1h0l1.3.8,2.3-3.8-1.3-.8h-.2s-.2-.2-.3-.2h0Z"/>
  <path class="st14" d="M51.7,85.7c-.5,0-.8-.4-.8-1.1,0-1,.7-2.2,1.5-2.7.2,0,.5-.2.7-.2.5,0,.8.4.8,1.1,0,1-.7,2.2-1.5,2.7-.2,0-.5.2-.7.2Z"/>
  <path d="M53.1,81.9c.5,0,.8.4.8,1,0,1-.7,2.1-1.5,2.6-.2,0-.5.2-.7.2-.5,0-.8-.4-.8-1,0-1,.7-2.1,1.5-2.6.2,0,.5-.2.7-.2M53.1,81.8c-.2,0-.5,0-.7.2-.9.5-1.6,1.7-1.6,2.7s.3,1.1.9,1.1.5,0,.7-.2c.9-.5,1.6-1.7,1.6-2.7s-.3-1.1-.9-1.1Z"/>
  <path class="st14" d="M30.7,87.4l20.7-4.2c-.3.6-.6,1.4-.3,2.3l-20.8,3.1.4-1.3h0Z"/>
  <path d="M51.2,83.2c-.2.6-.4,1.4-.2,2.2l-20.6,3.2.4-1.2,20.5-4.2M51.3,83.1l-20.7,4.2-.4,1.3,20.9-3.2c-.3-.8,0-1.6.2-2.4h0Z"/>
  <path class="st13" d="M30.6,87.3l19.3-5,1.4.7-20.7,4.2h0Z"/>
  <path class="st14" d="M238.8,65.4l-.8-.4,1-1.7v2h-.2Z"/>
  <path d="M238.9,63.4v1.9h0l-.8-.4.9-1.6h0ZM238.9,63.3l-1,1.7.8.4h.1v-2h0Z"/>
  <rect class="st13" x="233.8" y="61" width="4.3" height="4.9" rx=".3" ry=".3" transform="translate(63 236.1) rotate(-60)"/>
  <path d="M235,60.5h0l3.8,2.2s.1.2,0,.2l-1.9,3.2h-.1c-.1,0,0,0,0,0l-3.8-2.2s-.1-.2,0-.2l1.9-3.2s.1,0,.1,0ZM235,60.5h-.2l-1.9,3.2v.4l3.8,2.2h.3l1.9-3.2v-.3l-3.8-2.2h-.1Z"/>
  <path class="st0" d="M236,61l-2.1,3.7"/>
  <path d="M233.8,64.6l2.1-3.7h0l-2.1,3.7h0Z"/>
  <path class="st0" d="M237.1,61.6l-2.1,3.7"/>
  <path d="M234.9,65.2l2.1-3.7h0l-2.1,3.7h0Z"/>
  <path class="st0" d="M238.1,62.2l-2.1,3.7"/>
  <path d="M235.9,65.9l2.1-3.7h0l-2.1,3.7h0Z"/>
  <path class="st0" d="M234.4,61.3l4.3,2.5"/>
  <path d="M234.4,61.3h0l4.3,2.4h0l-4.3-2.4Z"/>
  <path class="st0" d="M233.9,62.2l4.3,2.5"/>
  <path d="M233.8,62.2h0l4.3,2.4h0s-4.3-2.4-4.3-2.4Z"/>
  <path class="st0" d="M233.3,63.1l4.3,2.5"/>
  <path d="M233.3,63.2h0l4.3,2.4h0s-4.3-2.4-4.3-2.4Z"/>
  <path class="st14" d="M245.1,69l-.8-.4,1-1.7v2h-.2Z"/>
  <path d="M245.2,67v1.9h0l-.8-.4.9-1.6h0ZM245.2,66.9l-1,1.7.8.4h.1v-2h0Z"/>
  <rect class="st13" x="240.1" y="64.6" width="4.3" height="4.9" rx=".3" ry=".3" transform="translate(63.1 243.3) rotate(-60)"/>
  <path d="M241.3,64.1h0l3.8,2.2s.1.2,0,.2l-1.9,3.2h-.1c-.1,0,0,0,0,0l-3.8-2.2s-.1-.2,0-.2l1.9-3.2h.1ZM241.3,64h-.2l-1.9,3.2v.3l3.8,2.2h.3l1.9-3.2v-.3l-3.8-2.2s-.1,0-.1,0Z"/>
  <path class="st0" d="M242.3,64.6l-2.1,3.7"/>
  <path d="M240.1,68.2l2.1-3.7h0l-2.1,3.7h0Z"/>
  <path class="st0" d="M243.4,65.2l-2.1,3.7"/>
  <path d="M241.2,68.8l2.1-3.7h0l-2.1,3.7h0Z"/>
  <path class="st0" d="M244.4,65.8l-2.1,3.7"/>
  <path d="M242.2,69.5l2.1-3.7h0l-2.1,3.7h0Z"/>
  <path class="st0" d="M240.7,64.9l4.3,2.5"/>
  <path d="M240.7,64.9h0l4.3,2.4h0l-4.3-2.4Z"/>
  <path class="st0" d="M240.1,65.8l4.3,2.5"/>
  <path d="M240.1,65.8h0l4.3,2.4h0l-4.3-2.4Z"/>
  <path class="st0" d="M239.6,66.7l4.3,2.5"/>
  <path d="M239.6,66.8h0l4.3,2.4h0l-4.3-2.4Z"/>
  <path class="st14" d="M246.9,104l-.8-.4,1-1.7v2h-.2Z"/>
  <path d="M247,102v1.9h0l-.8-.4.9-1.6h0ZM247,101.9l-1,1.7.8.4h.1v-2h0Z"/>
  <rect class="st13" x="241.9" y="99.5" width="4.3" height="4.9" rx=".3" ry=".3" transform="translate(33.7 262.3) rotate(-60)"/>
  <path d="M243.1,99.2h0l3.8,2.2s.1.2,0,.2l-1.9,3.2h-.1c-.1,0,0,0,0,0l-3.8-2.2s-.1-.2,0-.2l1.9-3.2h.1ZM243.1,99.1h-.2l-1.9,3.2v.3l3.8,2.2h.3l1.9-3.2v-.3l-3.8-2.2h-.1Z"/>
  <path class="st0" d="M244.1,99.6l-2.1,3.7"/>
  <path d="M241.9,103.3l2.1-3.7h0l-2.1,3.7h0Z"/>
  <path class="st0" d="M245.2,100.2l-2.1,3.7"/>
  <path d="M243,103.9l2.1-3.7h0l-2.1,3.7h0Z"/>
  <path class="st0" d="M246.2,100.9l-2.1,3.7"/>
  <path d="M244,104.5l2.1-3.7h0l-2.1,3.7h0Z"/>
  <path class="st0" d="M242.5,99.9l4.3,2.5"/>
  <path d="M242.5,100h0l4.3,2.4h0l-4.3-2.4Z"/>
  <path class="st0" d="M242,100.9l4.3,2.5"/>
  <path d="M241.9,100.9h0l4.3,2.4h0l-4.3-2.4Z"/>
  <path class="st0" d="M241.4,101.8l4.3,2.5"/>
  <path d="M241.4,101.8h0l4.3,2.4h0l-4.3-2.4Z"/>
  <path class="st14" d="M252.5,107.3l-.8-.4,1-1.7v2h-.2Z"/>
  <path d="M252.7,105.3v1.9h0l-.8-.4.9-1.6h0ZM252.7,105.2l-1,1.7.8.4h.1v-2h0Z"/>
  <rect class="st13" x="247.6" y="102.8" width="4.3" height="4.9" rx=".3" ry=".3" transform="translate(33.7 268.9) rotate(-60)"/>
  <path d="M248.8,102.5h0l3.8,2.2s.1.2,0,.2l-1.9,3.2h-.1c-.1,0,0,0,0,0l-3.8-2.2s-.1-.2,0-.2l1.9-3.2h.1ZM248.8,102.4h-.2l-1.9,3.2v.3l3.8,2.2h.3l1.9-3.2v-.3l-3.8-2.2h-.1Z"/>
  <path class="st0" d="M249.8,102.9l-2.1,3.7"/>
  <path d="M247.6,106.6l2.1-3.7h0l-2.1,3.7h0Z"/>
  <path class="st0" d="M250.8,103.5l-2.1,3.7"/>
  <path d="M248.6,107.2l2.1-3.7h0l-2.1,3.7h0Z"/>
  <path class="st0" d="M251.9,104.2l-2.1,3.7"/>
  <path d="M249.7,107.8l2.1-3.7h0l-2.1,3.7h0Z"/>
  <path class="st0" d="M248.2,103.2l4.3,2.5"/>
  <path d="M248.1,103.3h0l4.3,2.4h0l-4.3-2.4Z"/>
  <path class="st0" d="M247.6,104.2l4.3,2.5"/>
  <path d="M247.6,104.2h0l4.3,2.4h0l-4.3-2.4Z"/>
  <path class="st0" d="M247.1,105.1l4.3,2.5"/>
  <path d="M247.1,105.1h0l4.3,2.4h0l-4.3-2.4Z"/>
  <path class="st14" d="M251.9,100.9l-.8-.4,1-1.7v2h-.2Z"/>
  <path d="M252,98.9v1.9h0l-.8-.4.9-1.6h0ZM252,98.8l-1,1.7.8.4h.1v-2h0Z"/>
  <rect class="st13" x="247" y="96.5" width="4.3" height="4.9" rx=".3" ry=".3" transform="translate(38.8 265.2) rotate(-60)"/>
  <path d="M248.1,96.1h0l3.8,2.2s.1.2,0,.2l-1.9,3.2h-.1c-.1,0,0,0,0,0l-3.8-2.2s-.1-.2,0-.2l1.9-3.2h.1ZM248.1,96h-.2l-1.9,3.2v.3l3.8,2.2h.3l1.9-3.2v-.3l-3.8-2.2h-.1Z"/>
  <path class="st0" d="M249.1,96.5l-2.1,3.7"/>
  <path d="M246.9,100.2l2.1-3.7h0l-2.1,3.7h0Z"/>
  <path class="st0" d="M250.2,97.2l-2.1,3.7"/>
  <path d="M248,100.8l2.1-3.7h0l-2.1,3.7h0Z"/>
  <path class="st0" d="M251.2,97.8l-2.1,3.7"/>
  <path d="M249,101.4l2.1-3.7h0l-2.1,3.7h0Z"/>
  <path class="st0" d="M247.5,96.8l4.3,2.5"/>
  <path d="M247.5,96.9h0l4.3,2.4h0l-4.3-2.4Z"/>
  <path class="st0" d="M247,97.8l4.3,2.5"/>
  <path d="M246.9,97.8h0l4.3,2.4h0l-4.3-2.4Z"/>
  <path class="st0" d="M246.4,98.7l4.3,2.5"/>
  <path d="M246.4,98.7h0l4.3,2.4h0l-4.3-2.4Z"/>
  <path class="st14" d="M257.5,104.2l-.8-.4,1-1.7v2h-.2Z"/>
  <path d="M257.7,102.2v1.9h0l-.8-.4.9-1.6h-.1ZM257.7,102.1l-1,1.7.8.4h.1v-2h.1Z"/>
  <rect class="st13" x="252.7" y="99.9" width="4.3" height="4.9" rx=".3" ry=".3" transform="translate(38.8 271.9) rotate(-60)"/>
  <path d="M253.8,99.4h0l3.8,2.2s.1.2,0,.2l-1.9,3.2h-.1c-.1,0,0,0,0,0l-3.8-2.2s-.1-.2,0-.2l1.9-3.2h.1ZM253.8,99.3h-.2l-1.9,3.2v.3l3.8,2.2h.3l1.9-3.2v-.3l-3.8-2.2h-.1Z"/>
  <path class="st0" d="M254.8,99.8l-2.1,3.7"/>
  <path d="M252.6,103.5l2.1-3.7h0l-2.1,3.7h0Z"/>
  <path class="st0" d="M255.8,100.4l-2.1,3.7"/>
  <path d="M253.7,104.1l2.1-3.7h0l-2.1,3.7h0Z"/>
  <path class="st0" d="M256.9,101.1l-2.1,3.7"/>
  <path d="M254.7,104.7l2.1-3.7h0l-2.1,3.7h0Z"/>
  <path class="st0" d="M253.2,100.1l4.3,2.5"/>
  <path d="M253.1,100.2h0l4.3,2.4h0l-4.3-2.4h0Z"/>
  <path class="st0" d="M252.6,101.1l4.3,2.5"/>
  <path d="M252.6,101.1h0l4.3,2.4h0l-4.3-2.4h0Z"/>
  <path class="st0" d="M252.1,102l4.3,2.5"/>
  <path d="M252.1,102h0l4.3,2.4h0l-4.3-2.4h0Z"/>
  <path class="st14" d="M200,79.7l-.8-.4,1-1.7v2h-.2Z"/>
  <path d="M200.2,77.7v1.9h0l-.8-.4.9-1.6h0ZM200.2,77.6l-1,1.7.8.4h.1v-2h0Z"/>
  <rect class="st13" x="195.1" y="75.3" width="4.3" height="4.9" rx=".3" ry=".3" transform="translate(31.3 209.7) rotate(-60)"/>
  <path d="M196.3,74.9h0l3.8,2.2s.1.2,0,.2l-1.9,3.2h-.1c-.1,0,0,0,0,0l-3.8-2.2s-.1-.2,0-.2l1.9-3.2h.1ZM196.3,74.8h-.2l-1.9,3.2v.3l3.8,2.2h.3l1.9-3.2v-.3l-3.8-2.2h-.1Z"/>
  <path class="st0" d="M197.3,75.3l-2.1,3.7"/>
  <path d="M195.1,79l2.1-3.7h0l-2.1,3.7h0Z"/>
  <path class="st0" d="M198.3,75.9l-2.1,3.7"/>
  <path d="M196.2,79.6l2.1-3.7h0l-2.1,3.7h0Z"/>
  <path class="st0" d="M199.4,76.6l-2.1,3.7"/>
  <path d="M197.2,80.2l2.1-3.7h0l-2.1,3.7h0Z"/>
  <path class="st0" d="M195.7,75.6l4.3,2.5"/>
  <path d="M195.7,75.7h0l4.3,2.4h0l-4.3-2.4Z"/>
  <path class="st0" d="M195.1,76.6l4.3,2.5"/>
  <path d="M195.1,76.6h0l4.3,2.4h0l-4.3-2.4Z"/>
  <path class="st0" d="M194.6,77.5l4.3,2.5"/>
  <path d="M194.6,77.5h0l4.3,2.4h0l-4.3-2.4Z"/>
  <path class="st14" d="M205.7,83l-.8-.4,1-1.7v2h-.2Z"/>
  <path d="M205.9,81v1.9h0l-.8-.4.9-1.6h0ZM205.9,80.9l-1,1.7.8.4h.1v-2h0Z"/>
  <rect class="st13" x="200.7" y="78.6" width="4.3" height="4.9" rx=".3" ry=".3" transform="translate(31.2 216.2) rotate(-60)"/>
  <path d="M202,78.2h0l3.8,2.2s.1.2,0,.2l-1.9,3.2h-.1c-.1,0,0,0,0,0l-3.8-2.2s-.1-.2,0-.2l1.9-3.2h.1ZM202,78.1h-.2l-1.9,3.2v.3l3.8,2.2h.3l1.9-3.2v-.3l-3.8-2.2h-.1Z"/>
  <path class="st0" d="M202.9,78.6l-2.1,3.7"/>
  <path d="M200.8,82.3l2.1-3.7h0l-2.1,3.7h0Z"/>
  <path class="st0" d="M204,79.2l-2.1,3.7"/>
  <path d="M201.8,82.9l2.1-3.7h0l-2.1,3.7h0Z"/>
  <path class="st0" d="M205.1,79.8l-2.1,3.7"/>
  <path d="M202.9,83.5l2.1-3.7h0l-2.1,3.7h0Z"/>
  <path class="st0" d="M201.3,78.9l4.3,2.5"/>
  <path d="M201.3,79h0l4.3,2.4h0l-4.3-2.4Z"/>
  <path class="st0" d="M200.8,79.8l4.3,2.5"/>
  <path d="M200.8,79.9h0l4.3,2.4h0l-4.3-2.4Z"/>
  <path class="st0" d="M200.3,80.8l4.3,2.5"/>
  <path d="M200.2,80.8h0l4.3,2.4h0l-4.3-2.4Z"/>
  <path class="st14" d="M205.1,76.6l-.8-.4,1-1.7v2h-.2Z"/>
  <path d="M205.2,74.6v1.9h0l-.8-.4.9-1.6h0ZM205.2,74.5l-1,1.7.8.4h.1v-2h0Z"/>
  <rect class="st13" x="200" y="72.2" width="4.3" height="4.9" rx=".3" ry=".3" transform="translate(36.4 212.4) rotate(-60)"/>
  <path d="M201.3,71.8h0l3.8,2.2s.1.2,0,.2l-1.9,3.2h-.1c-.1,0,0,0,0,0l-3.8-2.2s-.1-.2,0-.2l1.9-3.2h.1ZM201.3,71.7h-.2l-1.9,3.2v.3l3.8,2.2h.3l1.9-3.2v-.3l-3.8-2.2h-.1Z"/>
  <path class="st0" d="M202.3,72.2l-2.1,3.7"/>
  <path d="M200.1,75.9l2.1-3.7h0l-2.1,3.7h0Z"/>
  <path class="st0" d="M203.3,72.8l-2.1,3.7"/>
  <path d="M201.2,76.5l2.1-3.7h0l-2.1,3.7h0Z"/>
  <path class="st0" d="M204.4,73.5l-2.1,3.7"/>
  <path d="M202.2,77.1l2.1-3.7h0l-2.1,3.7h0Z"/>
  <path class="st0" d="M200.7,72.6l4.3,2.5"/>
  <path d="M200.7,72.6h0l4.3,2.4h0l-4.3-2.4Z"/>
  <path class="st0" d="M200.1,73.5l4.3,2.5"/>
  <path d="M200.1,73.5h0l4.3,2.4h0l-4.3-2.4Z"/>
  <path class="st0" d="M199.6,74.4l4.3,2.5"/>
  <path d="M199.6,74.4h0l4.3,2.4h0l-4.3-2.4Z"/>
  <path class="st14" d="M210.7,79.9l-.8-.4,1-1.7v2h-.2Z"/>
  <path d="M210.9,77.9v1.9h0l-.8-.4.9-1.6h0ZM210.9,77.8l-1,1.7.8.4h.1v-2h0Z"/>
  <rect class="st13" x="205.7" y="75.5" width="4.3" height="4.9" rx=".3" ry=".3" transform="translate(36.4 219) rotate(-60)"/>
  <path d="M207,75.1h0l3.8,2.2s.1.2,0,.2l-1.9,3.2h-.1c-.1,0,0,0,0,0l-3.8-2.2s-.1-.2,0-.2l1.9-3.2h.1ZM207,75h-.2l-1.9,3.2v.3l3.8,2.2h.3l1.9-3.2v-.3l-3.8-2.2h-.1Z"/>
  <path class="st0" d="M207.9,75.5l-2.1,3.7"/>
  <path d="M205.8,79.2l2.1-3.7h0l-2.1,3.7h0Z"/>
  <path class="st0" d="M209,76.2l-2.1,3.7"/>
  <path d="M206.8,79.8l2.1-3.7h0l-2.1,3.7h0Z"/>
  <path class="st0" d="M210.1,76.8l-2.1,3.7"/>
  <path d="M207.9,80.4l2.1-3.7h0l-2.1,3.7h0Z"/>
  <path class="st0" d="M206.4,75.8l4.3,2.5"/>
  <path d="M206.3,75.9h0l4.3,2.4h0l-4.3-2.4Z"/>
  <path class="st0" d="M205.8,76.8l4.3,2.5"/>
  <path d="M205.8,76.8h0l4.3,2.4h0l-4.3-2.4Z"/>
  <path class="st0" d="M205.3,77.7l4.3,2.5"/>
  <path d="M205.3,77.7h0l4.3,2.4h0l-4.3-2.4Z"/>
  <path class="st14" d="M194.4,64.4l-.8-.5,1-1.7v2h-.1v.2Z"/>
  <path d="M194.5,62.3v1.9h0l-.8-.4.9-1.6h0ZM194.6,62.2l-1,1.7.8.4h.1v-2h0Z"/>
  <rect class="st13" x="189.6" y="59.9" width="4.3" height="4.9" rx=".3" ry=".3" transform="translate(41.9 197.2) rotate(-60)"/>
  <path d="M190.6,59.5h0l3.8,2.2s.1.2,0,.2l-1.9,3.2h-.1c-.1,0,0,0,0,0l-3.8-2.2s-.1-.2,0-.2l1.9-3.2s.1,0,.1,0ZM190.6,59.4h-.2l-1.9,3.2v.3l3.8,2.2h.3l1.9-3.2v-.3l-3.8-2.2s-.1,0-.1,0Z"/>
  <path class="st0" d="M191.6,60l-2.1,3.7"/>
  <path d="M189.4,63.6l2.1-3.7h0l-2.1,3.7h0Z"/>
  <path class="st0" d="M192.7,60.6l-2.1,3.7"/>
  <path d="M190.5,64.2l2.1-3.7h0l-2.1,3.7h0Z"/>
  <path class="st0" d="M193.8,61.2l-2.1,3.7"/>
  <path d="M191.6,64.8l2.1-3.7h0l-2.1,3.7h0Z"/>
  <path class="st0" d="M190,60.3l4.3,2.5"/>
  <path d="M190,60.3h0l4.3,2.4h0l-4.3-2.4Z"/>
  <path class="st0" d="M189.5,61.2l4.3,2.5"/>
  <path d="M189.5,61.2h0l4.3,2.4h0l-4.3-2.4Z"/>
  <path class="st0" d="M188.9,62.1l4.3,2.5"/>
  <path d="M188.9,62.1h0l4.3,2.4h0l-4.3-2.4Z"/>
  <path class="st14" d="M243.8,62.7l-.8-.5,1-1.7v2h-.1v.2Z"/>
  <path d="M243.9,60.7v1.9h0l-.8-.4.9-1.6h0ZM243.9,60.6l-1,1.7.8.5h.1v-2h0v-.2Z"/>
  <rect class="st13" x="238.9" y="58.3" width="4.3" height="4.9" rx=".3" ry=".3" transform="translate(67.9 239.1) rotate(-60)"/>
  <path d="M240,57.8h0l3.8,2.2s.1.2,0,.2l-1.9,3.2h-.1c-.1,0,0,0,0,0l-3.8-2.2s-.1-.2,0-.2l1.9-3.2h.1ZM240,57.8h-.2l-1.9,3.2v.3l3.8,2.2h.3l1.9-3.2v-.3l-3.8-2.2h-.1Z"/>
  <path class="st0" d="M241,58.3l-2.1,3.7"/>
  <path d="M238.8,61.9l2.1-3.7h0l-2.1,3.7h0Z"/>
  <path class="st0" d="M242.1,58.9l-2.1,3.7"/>
  <path d="M239.9,62.5l2.1-3.7h0l-2.1,3.7h0Z"/>
  <path class="st0" d="M243.1,59.5l-2.1,3.7"/>
  <path d="M240.9,63.2l2.1-3.7h0l-2.1,3.7h0Z"/>
  <path class="st0" d="M239.4,58.6l4.3,2.5"/>
  <path d="M239.4,58.6h0l4.3,2.4h0l-4.3-2.4Z"/>
  <path class="st0" d="M238.9,59.5l4.3,2.5"/>
  <path d="M238.8,59.5h0l4.3,2.4h0l-4.3-2.4Z"/>
  <path class="st0" d="M238.3,60.4l4.3,2.5"/>
  <path d="M238.3,60.5h0l4.3,2.4h0l-4.3-2.4Z"/>
  <path class="st14" d="M250.1,66.3l-.8-.4,1-1.7v2h-.2Z"/>
  <path d="M250.2,64.2v1.9h0l-.8-.4.9-1.6h0ZM250.2,64.2l-1,1.7.8.4h.1v-2h0Z"/>
  <rect class="st13" x="245.2" y="61.8" width="4.3" height="4.9" rx=".3" ry=".3" transform="translate(68.1 246.3) rotate(-60)"/>
  <path d="M246.3,61.4h0l3.8,2.2s.1.2,0,.2l-1.9,3.2h-.1c-.1,0,0,0,0,0l-3.8-2.2s-.1-.2,0-.2l1.9-3.2s.1,0,.1,0ZM246.3,61.3h-.2l-1.9,3.2v.3l3.8,2.2h.3l1.9-3.2v-.3l-3.8-2.2h-.1Z"/>
  <path class="st0" d="M247.3,61.8l-2.1,3.7"/>
  <path d="M245.1,65.5l2.1-3.7h0l-2.1,3.7h0Z"/>
  <path class="st0" d="M248.4,62.5l-2.1,3.7"/>
  <path d="M246.2,66.1l2.1-3.7h0l-2.1,3.7h0Z"/>
  <path class="st0" d="M249.4,63.1l-2.1,3.7"/>
  <path d="M247.2,66.7l2.1-3.7h0l-2.1,3.7h0Z"/>
  <path class="st0" d="M245.7,62.2l4.3,2.5"/>
  <path d="M245.7,62.2h0l4.3,2.4h0s-4.3-2.4-4.3-2.4Z"/>
  <path class="st0" d="M245.2,63.1l4.3,2.5"/>
  <path d="M245.1,63.1h0l4.3,2.4h0l-4.3-2.4Z"/>
  <path class="st0" d="M244.6,64l4.3,2.5"/>
  <path d="M244.6,64.1h0l4.3,2.4h0l-4.3-2.4Z"/>
  <path class="st14" d="M248.7,59.8l-.8-.5,1-1.7v2h-.1v.2Z"/>
  <path d="M248.9,57.8v1.9h0l-.8-.4.9-1.6h0ZM248.9,57.7l-1,1.7.8.5h.1v-2h0v-.2Z"/>
  <rect class="st13" x="243.8" y="55.4" width="4.3" height="4.9" rx=".3" ry=".3" transform="translate(72.9 241.9) rotate(-60)"/>
  <path d="M245,55h0l3.8,2.2s.1.2,0,.2l-1.9,3.2h-.1c-.1,0,0,0,0,0l-3.8-2.2s-.1-.2,0-.2l1.9-3.2h.1ZM245,54.9h-.2l-1.9,3.2v.3l3.8,2.2h.3l1.9-3.2v-.3l-3.8-2.2h-.1Z"/>
  <path class="st0" d="M245.9,55.4l-2.1,3.7"/>
  <path d="M243.7,59l2.1-3.7h0l-2.1,3.7h0Z"/>
  <path class="st0" d="M247,56l-2.1,3.7"/>
  <path d="M244.8,59.7l2.1-3.7h0l-2.1,3.7h0Z"/>
  <path class="st0" d="M248.1,56.6l-2.1,3.7"/>
  <path d="M245.9,60.3l2.1-3.7h0l-2.1,3.7h0Z"/>
  <path class="st0" d="M244.3,55.7l4.3,2.5"/>
  <path d="M244.3,55.7h0l4.3,2.4h0l-4.3-2.4Z"/>
  <path class="st0" d="M243.8,56.6l4.3,2.5"/>
  <path d="M243.8,56.6h0l4.3,2.4h0l-4.3-2.4Z"/>
  <path class="st0" d="M243.3,57.5l4.3,2.5"/>
  <path d="M243.2,57.6h0l4.3,2.4h0l-4.3-2.4Z"/>
  <path class="st14" d="M255,63.4l-.8-.5,1-1.7v2h-.1v.2Z"/>
  <path d="M255.1,61.4v1.9h0l-.8-.4.9-1.6h0ZM255.2,61.3l-1,1.7.8.5h.1v-2h0v-.2Z"/>
  <rect class="st13" x="250.1" y="59" width="4.3" height="4.9" rx=".3" ry=".3" transform="translate(72.9 249.2) rotate(-60)"/>
  <path d="M251.3,58.5h0l3.8,2.2s.1.2,0,.2l-1.9,3.2h-.1c-.1,0,0,0,0,0l-3.8-2.2s-.1-.2,0-.2l1.9-3.2s.1,0,.1,0ZM251.3,58.4h-.2l-1.9,3.2v.3l3.8,2.2h.3l1.9-3.2v-.3l-3.8-2.2s-.1,0-.1,0Z"/>
  <path class="st0" d="M252.2,59l-2.1,3.7"/>
  <path d="M250.1,62.6l2.1-3.7h0l-2.1,3.7h0Z"/>
  <path class="st0" d="M253.3,59.6l-2.1,3.7"/>
  <path d="M251.1,63.2l2.1-3.7h0l-2.1,3.7h0Z"/>
  <path class="st0" d="M254.4,60.2l-2.1,3.7"/>
  <path d="M252.2,63.9l2.1-3.7h0l-2.1,3.7h0Z"/>
  <path class="st0" d="M250.6,59.3l4.3,2.5"/>
  <path d="M250.6,59.3h0l4.3,2.4h0l-4.3-2.4Z"/>
  <path class="st0" d="M250.1,60.2l4.3,2.5"/>
  <path d="M250.1,60.2h0l4.3,2.4h0l-4.3-2.4Z"/>
  <path class="st0" d="M249.6,61.1l4.3,2.5"/>
  <path d="M249.6,61.2h0l4.3,2.4h0l-4.3-2.4Z"/>
  <path class="st14" d="M191.1,66.3l-.8-.4,1-1.7v2h-.2Z"/>
  <path d="M191.2,64.3v1.9h0l-.8-.4.9-1.6h0ZM191.2,64.2l-1,1.7.8.4h.1v-2h0Z"/>
  <rect class="st13" x="186.2" y="61.9" width="4.3" height="4.9" rx=".3" ry=".3" transform="translate(38.4 195.3) rotate(-60)"/>
  <path d="M187.3,61.5h0l3.8,2.2s.1.2,0,.2l-1.9,3.2h-.1c-.1,0,0,0,0,0l-3.8-2.2s-.1-.2,0-.2l1.9-3.2s.1,0,.1,0ZM187.3,61.4h-.2l-1.9,3.2v.3l3.8,2.2h.3l1.9-3.2v-.3l-3.8-2.2s-.1,0-.1,0Z"/>
  <path class="st0" d="M188.3,61.9l-2.1,3.7"/>
  <path d="M186.1,65.6l2.1-3.7h0l-2.1,3.7h0Z"/>
  <path class="st0" d="M189.4,62.5l-2.1,3.7"/>
  <path d="M187.2,66.2l2.1-3.7h0l-2.1,3.7h0Z"/>
  <path class="st0" d="M190.4,63.1l-2.1,3.7"/>
  <path d="M188.3,66.8l2.1-3.7h0l-2.1,3.7h0Z"/>
  <path class="st0" d="M186.7,62.2l4.3,2.5"/>
  <path d="M186.7,62.2h0l4.3,2.4h0s-4.3-2.4-4.3-2.4Z"/>
  <path class="st0" d="M186.2,63.1l4.3,2.5"/>
  <path d="M186.1,63.2h0l4.3,2.4h0s-4.3-2.4-4.3-2.4Z"/>
  <path class="st0" d="M185.6,64.1l4.3,2.5"/>
  <path d="M185.6,64.1h0l4.3,2.4h0l-4.3-2.4Z"/>
  <path class="st14" d="M188.3,60.7l-.8-.5,1-1.7v2h-.1v.2Z"/>
  <path d="M188.4,58.7v1.9h0l-.8-.4.9-1.6h0ZM188.4,58.6l-1,1.7.8.5h.1v-2h0v-.2Z"/>
  <rect class="st13" x="183.4" y="56.2" width="4.3" height="4.9" rx=".3" ry=".3" transform="translate(42 190) rotate(-60)"/>
  <path d="M184.5,55.8h0l3.8,2.2s.1.2,0,.2l-1.9,3.2h-.1c-.1,0,0,0,0,0l-3.8-2.2s-.1-.2,0-.2l1.9-3.2h.1ZM184.5,55.7h-.2l-1.9,3.2v.3l3.8,2.2h.3l1.9-3.2v-.3l-3.8-2.2h-.1Z"/>
  <path class="st0" d="M185.5,56.3l-2.1,3.7"/>
  <path d="M183.3,59.9l2.1-3.7h0l-2.1,3.7h0Z"/>
  <path class="st0" d="M186.6,56.9l-2.1,3.7"/>
  <path d="M184.4,60.5l2.1-3.7h0l-2.1,3.7h0Z"/>
  <path class="st0" d="M187.6,57.5l-2.1,3.7"/>
  <path d="M185.5,61.2l2.1-3.7h0l-2.1,3.7h0Z"/>
  <path class="st0" d="M183.9,56.6l4.3,2.5"/>
  <path d="M183.9,56.6h0l4.3,2.4h0l-4.3-2.4Z"/>
  <path class="st0" d="M183.4,57.5l4.3,2.5"/>
  <path d="M183.4,57.5h0l4.3,2.4h0l-4.3-2.4Z"/>
  <path class="st0" d="M182.8,58.4l4.3,2.5"/>
  <path d="M182.8,58.5h0l4.3,2.4h0l-4.3-2.4Z"/>
  <path class="st14" d="M185,62.6l-.8-.5,1-1.7v2h-.1v.2Z"/>
  <path d="M185.1,60.6v1.9h0l-.8-.4.9-1.6h0ZM185.1,60.5l-1,1.7.8.5h.1v-2h0v-.2Z"/>
  <rect class="st13" x="180" y="58.1" width="4.3" height="4.9" rx=".3" ry=".3" transform="translate(38.6 188) rotate(-60)"/>
  <path d="M181.2,57.8h0l3.8,2.2s.1.2,0,.2l-1.9,3.2h-.1c-.1,0,0,0,0,0l-3.8-2.2s-.1-.2,0-.2l1.9-3.2h.1ZM181.2,57.7h-.2l-1.9,3.2v.3l3.8,2.2h.3l1.9-3.2v-.3l-3.8-2.2h-.1Z"/>
  <path class="st0" d="M182.2,58.2l-2.1,3.7"/>
  <path d="M180,61.9l2.1-3.7h0l-2.1,3.7h0Z"/>
  <path class="st0" d="M183.3,58.8l-2.1,3.7"/>
  <path d="M181.1,62.5l2.1-3.7h0l-2.1,3.7h0Z"/>
  <path class="st0" d="M184.3,59.5l-2.1,3.7"/>
  <path d="M182.1,63.1l2.1-3.7h0l-2.1,3.7h0Z"/>
  <path class="st0" d="M180.6,58.5l4.3,2.5"/>
  <path d="M180.6,58.6h0l4.3,2.4h0l-4.3-2.4Z"/>
  <path class="st0" d="M180.1,59.5l4.3,2.5"/>
  <path d="M180,59.5h0l4.3,2.4h0l-4.3-2.4Z"/>
  <path class="st0" d="M179.5,60.4l4.3,2.5"/>
  <path d="M179.5,60.4h0l4.3,2.4h0l-4.3-2.4Z"/>
</svg>