<?xml version="1.0" encoding="UTF-8"?><svg id="Calque_1" xmlns="http://www.w3.org/2000/svg" viewBox="0 0 13313 467.06"><defs><style>.cls-1{fill:#aaa696;}.cls-2{fill:#c6c7c8;}.cls-3{fill:#ad7173;}.cls-4,.cls-5,.cls-6,.cls-7{fill:none;stroke-miterlimit:10;}.cls-4,.cls-7{stroke:#515049;stroke-width:40px;}.cls-5{stroke-width:30px;}.cls-5,.cls-6{stroke:#fed483;}.cls-6{stroke-width:20px;}.cls-8{fill:#b1b1b1;}.cls-9{fill:#cac6af;}.cls-10{fill:#f0eeda;}.cls-11{fill:#f8ab9c;}.cls-12{fill:#98bfdb;}.cls-13{fill:#78675c;}.cls-14{fill:#b9d4ec;}.cls-7{stroke-linecap:round;}</style></defs><rect class="cls-14" y="90.65" width="13313" height="370"/><path class="cls-12" d="M13313,459.65H0v-177c2583.52,56.89,5000.88,87.86,6656.5,0,2251.51-117.73,4471.69-122.57,6656.5,0v177Z"/><line class="cls-4" x1="4992.34" y1="89.65" x2="4992.34" y2="463.65"/><line class="cls-7" x1="5145.32" y1="309.36" x2="5008.62" y2="446.06"/><line class="cls-7" x1="5009.3" y1="109.73" x2="5147.39" y2="245.04"/><line class="cls-4" x1="4817" y1="90.65" x2="4817" y2="464.65"/><line class="cls-7" x1="4664.01" y1="310.36" x2="4800.72" y2="447.06"/><line class="cls-7" x1="4800.04" y1="110.73" x2="4661.95" y2="246.04"/><rect class="cls-11" x="518.5" y="106.71" width="447.51" height="110.09" transform="translate(1484.51 323.52) rotate(-180)"/><rect class="cls-3" x="921.44" y="106.71" width="22.38" height="112.33"/><rect class="cls-10" x="883.19" y="120.71" width="31.77" height="29.09" transform="translate(1798.41 268.82) rotate(179.89)"/><rect class="cls-10" x="841.13" y="120.79" width="31.77" height="29.09" transform="translate(1714.28 269.06) rotate(179.89)"/><rect class="cls-10" x="799.06" y="120.87" width="31.77" height="29.09" transform="translate(1630.15 269.3) rotate(179.89)"/><rect class="cls-10" x="757" y="120.95" width="31.77" height="29.09" transform="translate(1546.02 269.54) rotate(179.89)"/><rect class="cls-10" x="714.93" y="121.03" width="31.77" height="29.09" transform="translate(1461.88 269.77) rotate(179.89)"/><rect class="cls-10" x="672.86" y="121.11" width="31.77" height="29.09" transform="translate(1377.75 270.01) rotate(179.89)"/><rect class="cls-10" x="630.8" y="121.19" width="31.77" height="29.09" transform="translate(1293.62 270.25) rotate(179.89)"/><rect class="cls-10" x="588.73" y="121.27" width="31.77" height="29.09" transform="translate(1209.49 270.49) rotate(179.89)"/><rect class="cls-10" x="546.66" y="121.35" width="31.77" height="29.09" transform="translate(1125.35 270.72) rotate(179.89)"/><polygon class="cls-2" points="1165.15 29.74 943.63 77.18 943.63 219.04 1165.15 219.04 1165.15 29.74"/><polygon class="cls-8" points="1134.46 207.85 1165.34 207.85 1165.34 29.74 1134.46 36.9 1134.46 207.85"/><path class="cls-6" d="M1263.12,125.73s-61.31,34.91-173.19,38.04-632.79,0-632.79,0"/><line class="cls-6" x1="1243.97" y1="134.93" x2="1243.97" y2="166.71"/><line class="cls-6" x1="1167.9" y1="157.3" x2="1167.9" y2="202.03"/><line class="cls-6" x1="1089.13" y1="164.91" x2="1089.13" y2="214.57"/><line class="cls-6" x1="1011.27" y1="164.91" x2="1011.27" y2="218.59"/><line class="cls-6" x1="933.85" y1="164.91" x2="933.85" y2="218.59"/><line class="cls-6" x1="856.43" y1="164.91" x2="856.43" y2="218.59"/><line class="cls-6" x1="779.01" y1="164.91" x2="779.01" y2="218.59"/><line class="cls-6" x1="701.59" y1="164.91" x2="701.59" y2="218.59"/><line class="cls-6" x1="624.17" y1="164.91" x2="624.17" y2="218.59"/><line class="cls-6" x1="546.75" y1="164.91" x2="546.75" y2="218.59"/><line class="cls-6" x1="469.33" y1="164.91" x2="469.33" y2="218.59"/><path class="cls-9" d="M1261.55,151.91s12.08,45.65-35.35,91.74c-40.05,38.26-89.06,37.59-89.06,37.59H490.26s-23.27,3.36-30.88-26.63c-7.61-29.98-8.5-37.59-8.5-37.59h544.18s189.3-3.13,266.49-65.11Z"/><line class="cls-5" x1="927.34" y1="75.71" x2="1203.82" y2="14.65"/><rect class="cls-10" x="1096.87" y="91.05" width="49.23" height="49.23" transform="translate(2242.96 231.33) rotate(-180)"/><rect class="cls-10" x="1016.58" y="85.23" width="31.77" height="67.13" transform="translate(2064.93 237.59) rotate(-180)"/><rect class="cls-10" x="973.17" y="85.23" width="31.77" height="67.13" transform="translate(1978.11 237.59) rotate(-180)"/><path class="cls-1" d="M1092.39,281.24s87.71,12.08,133.81-37.59c47.44-46.09,35.35-91.74,35.35-91.74,7.61,21.48-98.9,125.75-169.16,129.33Z"/><rect class="cls-13" x="4836" y="90.65" width="138" height="374"/></svg>