<?xml version="1.0" encoding="UTF-8"?><svg id="Calque_2" xmlns="http://www.w3.org/2000/svg" viewBox="0 0 13330.43 951.73"><defs><style>.cls-1{fill:none;stroke:#559d67;stroke-miterlimit:10;stroke-width:10px;}.cls-2{fill:#956364;}.cls-3{fill:#668d5d;}.cls-4{fill:#a4797a;}.cls-5{fill:#c7b0a4;}.cls-6{fill:#42413b;}.cls-7{fill:#dbc3b5;}.cls-8{fill:#ad7173;}.cls-9{fill:#d2d0c3;}.cls-10{fill:#668c5d;}.cls-11{fill:#559d67;}.cls-12{fill:#6c6a61;}.cls-13{fill:#cac6af;}.cls-14{fill:#b88889;}.cls-15{fill:#515049;}.cls-16{fill:#836565;}.cls-17{fill:#515049;}.cls-18{fill:#f0eeda;}.cls-19{fill:#ceb8ab;}.cls-20{fill:#bdaa9d;}.cls-21{fill:#abe2ab;}</style></defs><rect class="cls-13" x="17.43" y="489.35" width="13313" height="98"/><path class="cls-11" d="M11018.55,531.13c-43.78-35.16-85.73-75.93-139.35-92.59-94.73-29.44-198.95,24.08-295.36.73-97.92-23.72-167.62-121.9-267.5-135.13-67.27-8.91-133.8,23.24-201.64,21.6-69.25-1.68-120.33-44.17-168.15-91.2-61.85-60.84-149.71-145.66-244.43-114.02-93.03,31.08-175.43,103.1-224.66,187-49.27,83.97-68.39,184.97-54.55,281.25h1701.19c-38.33-8.99-74.23-32.49-105.55-57.65Z"/><path class="cls-10" d="M9348.13,588.78c-14.31-78.04,43.28-176.46,121.79-191.52,33.76-6.47,69.83-2.27,101.87-14.3,57.91-21.74,90.8-91.87,152.79-97.25,46.97-4.08,86.19,31.69,118.03,64.82,31.84,33.14,70.39,69.27,117.45,66.22,30.59-1.98,57.95-20.78,88.57-22.38,74.6-3.91,117,89.3,190.16,103.71,41.05,8.08,82.87-10.65,124.76-9.17,49.3,1.73,92.18,30.68,133.54,56.29s83.34,40.59,137.72,43.58h-1286.67Z"/><path class="cls-21" d="M6870.34,588.35s-48.09,13.24-75.36-57.09c-53.14-137.04-155.65-390.31-309.22-389.33-163.72,1.05-224.87,59.29-366.01,141.9-110.84,64.87-239.98,91.33-340.76,62.64-117.92-33.57-201.28,78.89-303.43,173.58-89.1,82.58-146.71-50.92-226.31,68.3h1621.1Z"/><path class="cls-11" d="M3638.81,390.71c-22.58-99.37-100.87-99.37-100.87-99.37,0,0-81.3,0-103.88,99.37-22.58,99.37,34.63,106.89,34.63,106.89,12.04,4.52,60.22,6.02,67.75,0,20.08,5.84,43.13,4.76,67.75,0,0,0,57.21-7.53,34.63-106.89Z"/><line class="cls-1" x1="3536.43" y1="497.61" x2="3536.43" y2="562.35"/><path class="cls-11" d="M4489.3,401.25c-14.75-64.9-65.88-64.9-65.88-64.9,0,0-53.1,0-67.85,64.9-14.75,64.9,22.62,69.82,22.62,69.82,7.87,2.95,39.33,3.93,44.25,0,13.11,3.82,28.17,3.11,44.25,0,0,0,37.37-4.92,22.62-69.82Z"/><line class="cls-1" x1="4422.43" y1="471.06" x2="4422.43" y2="513.35"/><path class="cls-11" d="M6030.3,325.25c-14.75-64.9-65.88-64.9-65.88-64.9,0,0-53.1,0-67.85,64.9-14.75,64.9,22.62,69.82,22.62,69.82,7.87,2.95,39.33,3.93,44.25,0,13.11,3.82,28.17,3.11,44.25,0,0,0,37.37-4.92,22.62-69.82Z"/><line class="cls-1" x1="5963.43" y1="395.06" x2="5963.43" y2="437.35"/><path class="cls-11" d="M2158.3,422.25c-14.75-64.9-65.88-64.9-65.88-64.9,0,0-53.1,0-67.85,64.9-14.75,64.9,22.62,69.82,22.62,69.82,7.87,2.95,39.33,3.93,44.25,0,13.11,3.82,28.17,3.11,44.25,0,0,0,37.37-4.92,22.62-69.82Z"/><line class="cls-1" x1="2091.43" y1="492.06" x2="2091.43" y2="534.35"/><path class="cls-11" d="M5479.15,401.2c-14.05-108.85-62.78-108.85-62.78-108.85,0,0-50.6,0-64.65,108.85-14.05,108.85,21.55,117.1,21.55,117.1,7.5,4.95,37.48,6.6,42.16,0,12.5,6.4,26.84,5.22,42.16,0,0,0,35.61-8.25,21.55-117.1Z"/><line class="cls-1" x1="5415.43" y1="520.06" x2="5415.43" y2="562.35"/><path class="cls-11" d="M3776.57,443.59c-10.62-82.24-47.43-82.24-47.43-82.24,0,0-38.23,0-48.85,82.24-10.62,82.24,16.28,88.48,16.28,88.48,5.66,3.74,28.32,4.98,31.86,0,9.44,4.84,20.28,3.94,31.86,0,0,0,26.9-6.23,16.28-88.48Z"/><line class="cls-1" x1="3728.43" y1="533.4" x2="3728.43" y2="565.35"/><path class="cls-11" d="M5184.9,355.52c-13.66-117.26-63.78-114.18-89.03-114.18-22.59,0-75.26-2.13-91.69,114.18-16.18,114.51,30.56,122.82,30.56,122.82,2.66,1,59.8,7,59.8,0,0,7,55.81,2,59.8,0,0,0,43.93-8.11,30.56-122.82Z"/><line class="cls-1" x1="5094.43" y1="478.35" x2="5094.43" y2="521.35"/><path class="cls-11" d="M6582.72,208.86c-7.71-115.51-34.44-115.51-34.44-115.51,0,0-27.76,0-35.47,115.51-7.71,115.51,11.82,124.26,11.82,124.26,4.11,5.25,20.56,7,23.13,0,6.86,6.79,14.72,5.53,23.13,0,0,0,19.53-8.75,11.82-124.26Z"/><line class="cls-1" x1="6547.77" y1="333.12" x2="6547.77" y2="408.37"/><g id="IMMEUBLE_TOULOUSE"><rect class="cls-8" x="2010.94" y="315.29" width="253.43" height="222.1"/><polygon class="cls-15" points="2266.56 242.74 2003.81 242.74 1994.85 315.29 2275.53 315.29 2266.56 242.74"/><polygon class="cls-13" points="2121.02 275.83 2145.92 275.83 2146.77 288.7 2120.17 288.7 2121.02 275.83"/><polygon class="cls-13" points="2199.61 275.83 2224.51 275.83 2225.37 288.7 2198.76 288.7 2199.61 275.83"/><polygon class="cls-13" points="2047.17 275.83 2072.07 275.83 2072.92 288.7 2046.31 288.7 2047.17 275.83"/><rect class="cls-15" x="2049.78" y="324.44" width="19.74" height="33.48"/><rect class="cls-15" x="2087.45" y="324.44" width="19.74" height="33.48"/><rect class="cls-15" x="2125.32" y="324.44" width="19.74" height="33.48"/><rect class="cls-15" x="2163.74" y="324.44" width="19.74" height="33.48"/><rect class="cls-15" x="2202.14" y="324.44" width="19.74" height="33.48"/><rect class="cls-15" x="2049.78" y="367.1" width="19.74" height="33.48"/><rect class="cls-15" x="2087.45" y="367.1" width="19.74" height="33.48"/><rect class="cls-15" x="2125.32" y="367.1" width="19.74" height="33.48"/><rect class="cls-15" x="2163.74" y="367.1" width="19.74" height="33.48"/><rect class="cls-15" x="2202.14" y="367.1" width="19.74" height="33.48"/><rect class="cls-15" x="2049.78" y="409.71" width="19.74" height="33.48"/><rect class="cls-15" x="2087.45" y="409.71" width="19.74" height="33.48"/><rect class="cls-15" x="2125.32" y="409.71" width="19.74" height="33.48"/><rect class="cls-15" x="2163.74" y="409.71" width="19.74" height="33.48"/><rect class="cls-15" x="2202.14" y="409.71" width="19.74" height="33.48"/><rect class="cls-15" x="2049.78" y="480.53" width="19.74" height="33.48"/><rect class="cls-15" x="2087.45" y="480.53" width="19.74" height="33.48"/><rect class="cls-15" x="2125.38" y="480.53" width="19.74" height="33.48"/><rect class="cls-15" x="2163.05" y="481.03" width="19.74" height="33.48"/><rect class="cls-15" x="2190.3" y="476.66" width="30.47" height="55.79"/><rect class="cls-14" x="2189.89" y="532.46" width="31.29" height="4.93"/><rect class="cls-4" x="2187.56" y="537.34" width="35.96" height="5.14"/><rect class="cls-16" x="2185.69" y="542.48" width="39.69" height="5.14"/><rect class="cls-15" x="2125.33" y="452.31" width="58.13" height="19.21"/><rect class="cls-15" x="2048.99" y="452.31" width="58.13" height="19.21"/><rect class="cls-2" x="2241.06" y="315.5" width="23.28" height="221.93"/><polyline class="cls-6" points="2253.43 315.29 2243.43 242.74 2266.56 242.74 2275.53 315.29 2255.43 315.29"/></g><g id="IMMEUBLE_TOULOUSE-2"><rect class="cls-8" x="2701.65" y="218" width="268.24" height="319.53"/><rect class="cls-15" x="2724.35" y="231.84" width="20.9" height="35.43"/><rect class="cls-15" x="2764.23" y="231.84" width="20.9" height="35.43"/><rect class="cls-15" x="2804.3" y="231.84" width="20.9" height="35.43"/><rect class="cls-15" x="2844.97" y="231.84" width="20.9" height="35.43"/><rect class="cls-15" x="2885.62" y="231.84" width="20.9" height="35.43"/><rect class="cls-15" x="2926.28" y="231.84" width="20.9" height="35.43"/><rect class="cls-15" x="2724.35" y="287.83" width="20.9" height="35.43"/><rect class="cls-15" x="2764.23" y="287.83" width="20.9" height="35.43"/><rect class="cls-15" x="2804.3" y="287.83" width="20.9" height="35.43"/><rect class="cls-15" x="2844.97" y="287.83" width="20.9" height="35.43"/><rect class="cls-15" x="2885.62" y="287.83" width="20.9" height="35.43"/><rect class="cls-15" x="2926.28" y="287.83" width="20.9" height="35.43"/><rect class="cls-15" x="2724.35" y="343.81" width="20.9" height="35.43"/><rect class="cls-15" x="2764.23" y="343.81" width="20.9" height="35.43"/><rect class="cls-15" x="2804.3" y="343.81" width="20.9" height="35.43"/><rect class="cls-15" x="2844.97" y="343.81" width="20.9" height="35.43"/><rect class="cls-15" x="2885.62" y="343.81" width="20.9" height="35.43"/><rect class="cls-15" x="2926.28" y="343.81" width="20.9" height="35.43"/><rect class="cls-15" x="2724.35" y="399.79" width="20.9" height="35.43"/><rect class="cls-15" x="2764.23" y="399.79" width="20.9" height="35.43"/><rect class="cls-15" x="2804.3" y="399.79" width="20.9" height="35.43"/><rect class="cls-15" x="2844.97" y="399.79" width="20.9" height="35.43"/><rect class="cls-15" x="2885.62" y="399.79" width="20.9" height="35.43"/><rect class="cls-15" x="2926.28" y="399.79" width="20.9" height="35.43"/><rect class="cls-15" x="2804.3" y="455.78" width="20.9" height="35.43"/><rect class="cls-15" x="2844.97" y="455.78" width="20.9" height="35.43"/><rect class="cls-15" x="2885.62" y="455.78" width="20.9" height="35.43"/><rect class="cls-15" x="2926.28" y="455.78" width="20.9" height="35.43"/><rect class="cls-14" x="2713.53" y="532.3" width="63.28" height="5.22"/><rect class="cls-4" x="2708.81" y="537.47" width="72.73" height="5.44"/><rect class="cls-16" x="2705.03" y="542.91" width="80.29" height="5.44"/><rect class="cls-15" x="2745.17" y="455.66" width="31.69" height="76.58"/><rect class="cls-15" x="2713.48" y="455.66" width="31.69" height="76.58"/><rect class="cls-12" x="2739.89" y="455.66" width="10.83" height="76.58"/><rect class="cls-2" x="2956.5" y="218" width="13.1" height="319.43"/></g><path class="cls-11" d="M1983.17,436.59c-10.62-82.24-47.43-82.24-47.43-82.24,0,0-38.23,0-48.85,82.24-10.62,82.24,16.28,88.48,16.28,88.48,5.66,3.74,28.32,4.98,31.86,0,9.44,4.84,20.28,3.94,31.86,0,0,0,26.9-6.23,16.28-88.48Z"/><line class="cls-1" x1="1935.03" y1="526.4" x2="1935.03" y2="558.35"/><path class="cls-11" d="M3104.57,389.59c-10.62-82.24-47.43-82.24-47.43-82.24,0,0-38.23,0-48.85,82.24-10.62,82.24,16.28,88.48,16.28,88.48,5.66,3.74,28.32,4.98,31.86,0,9.44,4.84,20.28,3.94,31.86,0,0,0,26.9-6.23,16.28-88.48Z"/><line class="cls-1" x1="3056.43" y1="479.4" x2="3056.43" y2="511.35"/><g id="MAISON_D_ÉCLUSIER"><rect class="cls-18" x="4530.99" y="273.92" width="305.9" height="268.08"/><polygon class="cls-7" points="4839.53 186.35 4522.39 186.35 4511.56 273.92 4850.35 273.92 4839.53 186.35"/><polygon class="cls-15" points="4663.86 235.07 4693.91 235.07 4694.94 250.61 4662.83 250.61 4663.86 235.07"/><rect class="cls-15" x="4577.87" y="306.04" width="23.83" height="40.41"/><rect class="cls-15" x="4669.04" y="306.04" width="23.83" height="40.41"/><rect class="cls-15" x="4761.77" y="306.04" width="23.83" height="40.41"/><rect class="cls-15" x="4577.87" y="387.89" width="23.83" height="40.41"/><rect class="cls-15" x="4669.04" y="387.89" width="23.83" height="40.41"/><rect class="cls-15" x="4761.77" y="387.89" width="23.83" height="40.41"/><rect class="cls-15" x="4577.87" y="473.36" width="23.83" height="40.41"/><rect class="cls-15" x="4660.75" y="468.7" width="36.78" height="67.34"/><rect class="cls-17" x="4761.77" y="473.36" width="23.83" height="40.41"/><rect class="cls-7" x="4660.26" y="536.05" width="37.77" height="5.95"/><rect class="cls-19" x="4657.44" y="541.95" width="43.4" height="6.2"/><rect class="cls-20" x="4655.19" y="548.15" width="47.91" height="6.2"/></g><rect class="cls-9" x="4810.7" y="273.96" width="26.29" height="268.25"/><polygon class="cls-5" points="4793.64 273.92 4850.47 273.96 4839.68 186.35 4790.74 186.35 4793.64 273.92"/><polygon class="cls-8" points="3371.23 240.76 3371.24 190.35 3127.34 229 3127.39 531.24 3371.23 531.24 3371.23 240.76"/><rect class="cls-15" x="3148.03" y="253.35" width="19" height="32.21"/><rect class="cls-15" x="3184.28" y="253.35" width="19" height="32.21"/><rect class="cls-15" x="3220.71" y="253.35" width="19" height="32.21"/><rect class="cls-15" x="3257.68" y="253.35" width="19" height="32.21"/><rect class="cls-15" x="3294.63" y="253.35" width="19" height="32.21"/><rect class="cls-15" x="3331.59" y="253.35" width="19" height="32.21"/><rect class="cls-15" x="3148.03" y="304.24" width="19" height="32.21"/><rect class="cls-15" x="3184.28" y="304.24" width="19" height="32.21"/><rect class="cls-15" x="3220.71" y="304.24" width="19" height="32.21"/><rect class="cls-15" x="3257.68" y="304.24" width="19" height="32.21"/><rect class="cls-15" x="3294.63" y="304.24" width="19" height="32.21"/><rect class="cls-15" x="3331.59" y="304.24" width="19" height="32.21"/><rect class="cls-15" x="3148.03" y="355.14" width="19" height="32.21"/><rect class="cls-15" x="3184.28" y="355.14" width="19" height="32.21"/><rect class="cls-15" x="3220.71" y="355.14" width="19" height="32.21"/><rect class="cls-15" x="3257.68" y="355.14" width="19" height="32.21"/><rect class="cls-15" x="3294.63" y="355.14" width="19" height="32.21"/><rect class="cls-15" x="3331.59" y="355.14" width="19" height="32.21"/><rect class="cls-15" x="3148.03" y="406.03" width="19" height="32.21"/><rect class="cls-15" x="3184.28" y="406.03" width="19" height="32.21"/><rect class="cls-15" x="3220.71" y="406.03" width="19" height="32.21"/><rect class="cls-15" x="3257.68" y="406.03" width="19" height="32.21"/><rect class="cls-15" x="3294.63" y="406.03" width="19" height="32.21"/><rect class="cls-15" x="3331.59" y="406.03" width="19" height="32.21"/><rect class="cls-15" x="3220.71" y="456.92" width="19" height="32.21"/><rect class="cls-15" x="3257.68" y="456.92" width="19" height="32.21"/><rect class="cls-15" x="3294.63" y="456.92" width="19" height="32.21"/><rect class="cls-15" x="3331.59" y="456.92" width="19" height="32.21"/><rect class="cls-14" x="3138.19" y="526.48" width="57.53" height="4.75"/><rect class="cls-4" x="3133.9" y="531.18" width="66.11" height="4.94"/><rect class="cls-16" x="3130.46" y="536.13" width="72.98" height="4.94"/><rect class="cls-15" x="3166.95" y="456.81" width="28.81" height="69.62"/><rect class="cls-15" x="3138.14" y="456.81" width="28.81" height="69.62"/><rect class="cls-12" x="3162.15" y="456.81" width="9.84" height="69.62"/><path class="cls-2" d="M3295.16,202.75l76.08-12.4v340.88h-16.08V218.57c0-7.06-5.52-12.89-12.58-13.27l-47.42-2.55Z"/><path class="cls-3" d="M2474.09,287.4c-1.07,0-1.93-.86-1.93-1.93,0-22.79,8.53-23.8,9.51-23.84l.16,3.86s.03,0,.1,0c-.06,0-5.89,1.1-5.89,19.98,0,1.07-.86,1.93-1.93,1.93Z"/><path class="cls-3" d="M2547.42,287.4c1.07,0,1.93-.86,1.93-1.93,0-22.79-8.53-23.8-9.51-23.84l-.16,3.86s-.03,0-.1,0c.06,0,5.89,1.1,5.89,19.98,0,1.07.86,1.93,1.93,1.93Z"/><rect class="cls-3" x="2506.59" y="273.59" width="4.17" height="4.76"/><path class="cls-3" d="M2510.75,287.88h-1.56c-1.44,0-2.61-1.17-2.61-2.61h4.17v2.61Z"/><rect class="cls-3" x="2510.75" y="273.59" width="4.17" height="4.76"/><path class="cls-3" d="M2510.75,287.88h1.56c1.44,0,2.61-1.17,2.61-2.61h-4.17v2.61Z"/><path class="cls-17" d="M2506.59,277.94c-2.3,0-4.17,1.87-4.17,4.17h0c0,2.3,1.87,4.17,4.17,4.17h4.17v-8.33h-4.17ZM2507.76,284.82c-1.5,0-2.71-1.21-2.71-2.71s1.21-2.71,2.71-2.71,2.71,1.21,2.71,2.71-1.21,2.71-2.71,2.71Z"/><path class="cls-17" d="M2510.75,277.94v8.33h4.17c2.3,0,4.17-1.87,4.17-4.17h0c0-2.3-1.87-4.17-4.17-4.17h-4.17Z"/><path class="cls-17" d="M2600.93,251.48h3.62v-6.6c0-1-.81-1.81-1.81-1.81h0c-1,0-1.81.81-1.81,1.81v6.6Z"/><rect class="cls-3" x="2597.52" y="250.95" width="10.43" height="2.02"/><path class="cls-17" d="M2420.58,251.48h-3.62v-6.6c0-1,.81-1.81,1.81-1.81h0c1,0,1.81.81,1.81,1.81v6.6Z"/><rect class="cls-3" x="2413.55" y="250.95" width="10.43" height="2.02"/><path class="cls-17" d="M2510.75,241.5s-20.84-.83-31.78,10.71h-66.2c-1.54,0-2.79.27-2.79,1.81h0c0,1.38,1.01,1.45,2.38,1.65l98.39,14.49"/><path class="cls-17" d="M2484.77,264.69s.55,10.69,25.99,10.69v-10.09l-25.99-.6Z"/><path class="cls-3" d="M2415.66,245.45c0,1.01-7.26,1.82-16.22,1.82s-16.22-.82-16.22-1.82,7.26-1.82,16.22-1.82,16.22.82,16.22,1.82Z"/><path class="cls-3" d="M2421.88,245.45c0,1.01,7.26,1.82,16.22,1.82s16.22-.82,16.22-1.82-7.26-1.82-16.22-1.82-16.22.82-16.22,1.82Z"/><path class="cls-17" d="M2510.75,241.5s20.84-.83,31.78,10.71h66.2c1.54,0,2.79.27,2.79,1.81h0c0,1.38-1.01,1.45-2.38,1.65l-98.39,14.49"/><path class="cls-17" d="M2536.74,264.69s-.55,10.69-25.99,10.69v-10.09l25.99-.6Z"/><path class="cls-3" d="M2605.85,245.45c0,1.01,7.26,1.82,16.22,1.82s16.22-.82,16.22-1.82-7.26-1.82-16.22-1.82-16.22.82-16.22,1.82Z"/><path class="cls-3" d="M2599.63,245.45c0,1.01-7.26,1.82-16.22,1.82s-16.22-.82-16.22-1.82,7.26-1.82,16.22-1.82,16.22.82,16.22,1.82Z"/><path class="cls-3" d="M2518.75,243.89c0,3.09-3.58,5.59-8,5.59s-8-2.5-8-5.59,3.58-5.59,8-5.59,8,2.5,8,5.59Z"/><path class="cls-17" d="M2514.76,242.32c0,1.55-1.79,2.8-4,2.8s-4-1.25-4-2.8,1.79-2.8,4-2.8,4,1.25,4,2.8Z"/></svg>