<?xml version="1.0" encoding="UTF-8"?><svg id="Calque_3" xmlns="http://www.w3.org/2000/svg" viewBox="0 0 13330.43 1083.29"><defs><style>.cls-1{fill:#efedd9;}.cls-2{fill:#28628f;}.cls-3{fill:#8ecbe7;}.cls-4{fill:#f0eeda;}.cls-5{fill:#fbd15a;}</style></defs><rect class="cls-3" x="704.45" width="9480" height="1083"/><rect class="cls-2" x="7747.45" y="2" width="3557" height="1080"/><circle class="cls-4" cx="8116.95" cy="257.5" r="122.5"/><circle class="cls-5" cx="4398.95" cy="163.5" r="93.5"/><path class="cls-1" d="M6639.07,206c10.09-.12,23.5-6.06,32.6-13.73,9.1-7.67,16.92-17.63,28.17-21.5,15.09-5.19,31.85,2.07,47.55-.78,33.9-6.17,47.32-54.57,81.32-60.18,27.31-4.5,50.86,21.51,78.47,23.47,28.94,2.06,54.72-31.85,81.16-41.15,35.25-12.4,62.31-1.69,86.17,13.06,27.62,17.08,48.76,52.01,60.76,92.56,1.22,4.12-1.84,8.25-6.13,8.25h-490.07Z"/><path class="cls-1" d="M3074.08,206c-7.1-.09-16.55-4.27-22.95-9.67-6.41-5.4-11.91-12.41-19.83-15.14-10.62-3.66-22.42,1.46-33.48-.55-23.87-4.34-33.32-38.42-57.26-42.37-19.23-3.17-35.81,15.14-55.25,16.53-20.38,1.45-38.53-22.42-57.14-28.97-24.82-8.73-43.87-1.19-60.67,9.19-19.45,12.02-34.33,36.62-42.78,65.17-.86,2.9,1.29,5.81,4.32,5.81h345.03Z"/></svg>