<?xml version="1.0" encoding="UTF-8"?><svg id="_2PLAN" xmlns="http://www.w3.org/2000/svg" xmlns:xlink="http://www.w3.org/1999/xlink" viewBox="0 0 3360.3 108"><defs><style>.cls-1{fill:#cac6af;opacity:.25;}.cls-2,.cls-3{opacity:.77;}.cls-2,.cls-4{fill:none;stroke:#fff;stroke-linecap:round;stroke-linejoin:round;stroke-width:.1px;}.cls-5{fill:url(#Dégradé_sans_nom_189);}.cls-6{fill:url(#Dégradé_sans_nom_124);}</style><linearGradient id="Dégradé_sans_nom_189" x1="1680.6" y1="72.8" x2="1680.6" y2="108" gradientUnits="userSpaceOnUse"><stop offset="0" stop-color="#8ecbe7"/><stop offset=".22" stop-color="#92cce7"/><stop offset=".45" stop-color="#9fd1ea"/><stop offset=".7" stop-color="#b5daee"/><stop offset=".95" stop-color="#d3e6f4"/><stop offset="1" stop-color="#dbe9f6"/></linearGradient><linearGradient id="Dégradé_sans_nom_124" x1="288.45" y1="72.8" x2="288.45" y2="87.8" gradientUnits="userSpaceOnUse"><stop offset="0" stop-color="#f0eeda"/><stop offset="1" stop-color="#cac6af"/></linearGradient></defs><polygon class="cls-5" points="3360.75 108 .45 108 .45 72.8 603.46 72.8 609.34 72.8 3360.75 72.8 3360.75 108"/><g class="cls-3"><path class="cls-4" d="M163.83,76.59s4.06-2.59,8.23,0"/><path class="cls-4" d="M172.05,76.59s4.06,2.59,8.23,0"/></g><path class="cls-2" d="M194.53,91.49s4.06-2.59,8.23,0"/><path class="cls-2" d="M202.75,91.49s4.06,2.59,8.23,0"/><path class="cls-2" d="M238.43,85.19s4.06-2.59,8.23,0"/><path class="cls-2" d="M246.65,85.19s4.06,2.59,8.23,0"/><path class="cls-2" d="M296.43,98.99s4.06-2.59,8.23,0"/><path class="cls-2" d="M304.65,98.99s4.06,2.59,8.23,0"/><path class="cls-2" d="M320.23,85.79s4.06-2.59,8.23,0"/><path class="cls-2" d="M328.45,85.79s4.06,2.59,8.23,0"/><path class="cls-2" d="M245.13,101.29s4.06-2.59,8.23,0"/><path class="cls-2" d="M253.35,101.29s4.06,2.59,8.23,0"/><path class="cls-2" d="M340.03,91.49s4.06-2.59,8.23,0"/><path class="cls-2" d="M348.25,91.49s4.06,2.59,8.23,0"/><path class="cls-2" d="M383.93,85.19s4.06-2.59,8.23,0"/><path class="cls-2" d="M392.15,85.19s4.06,2.59,8.23,0"/><path class="cls-2" d="M417.53,77.19s4.06-2.59,8.23,0"/><path class="cls-2" d="M425.75,77.19s4.06,2.59,8.23,0"/><path class="cls-2" d="M409.33,92.19s4.06-2.59,8.23,0"/><path class="cls-2" d="M417.55,92.19s4.06,2.59,8.23,0"/><path class="cls-2" d="M390.63,101.29s4.06-2.59,8.23,0"/><path class="cls-2" d="M398.85,101.29s4.06,2.59,8.23,0"/><path class="cls-2" d="M520.53,91.49s4.06-2.59,8.23,0"/><path class="cls-2" d="M528.75,91.49s4.06,2.59,8.23,0"/><path class="cls-2" d="M564.43,85.19s4.06-2.59,8.23,0"/><path class="cls-2" d="M572.65,85.19s4.06,2.59,8.23,0"/><path class="cls-2" d="M612.43,80.69s4.06-2.59,8.23,0"/><path class="cls-2" d="M620.65,80.69s4.06,2.59,8.23,0"/><path class="cls-2" d="M622.43,98.99s4.06-2.59,8.23,0"/><path class="cls-2" d="M630.65,98.99s4.06,2.59,8.23,0"/><path class="cls-2" d="M663.73,80.69s4.06-2.59,8.23,0"/><path class="cls-2" d="M671.95,80.69s4.06,2.59,8.23,0"/><path class="cls-2" d="M684.33,100.69s4.06-2.59,8.23,0"/><path class="cls-2" d="M692.55,100.69s4.06,2.59,8.23,0"/><path class="cls-2" d="M742.03,95.59s4.06-2.59,8.23,0"/><path class="cls-2" d="M750.25,95.59s4.06,2.59,8.23,0"/><path class="cls-2" d="M571.13,101.29s4.06-2.59,8.23,0"/><path class="cls-2" d="M579.35,101.29s4.06,2.59,8.23,0"/><path class="cls-2" d="M716.43,85.19s4.06-2.59,8.23,0"/><path class="cls-2" d="M724.65,85.19s4.06,2.59,8.23,0"/><path class="cls-2" d="M764.43,80.69s4.06-2.59,8.23,0"/><path class="cls-2" d="M772.65,80.69s4.06,2.59,8.23,0"/><path class="cls-2" d="M815.73,80.69s4.06-2.59,8.23,0"/><path class="cls-2" d="M823.95,80.69s4.06,2.59,8.23,0"/><path class="cls-2" d="M836.33,100.69s4.06-2.59,8.23,0"/><path class="cls-2" d="M844.55,100.69s4.06,2.59,8.23,0"/><path class="cls-2" d="M883.93,92.09s4.06-2.59,8.23,0"/><path class="cls-2" d="M892.15,92.09s4.06,2.59,8.23,0"/><path class="cls-2" d="M785.73,101.29s4.06-2.59,8.23,0"/><path class="cls-2" d="M793.95,101.29s4.06,2.59,8.23,0"/><g class="cls-3"><path class="cls-4" d="M924.63,76.59s4.06-2.59,8.23,0"/><path class="cls-4" d="M932.85,76.59s4.06,2.59,8.23,0"/></g><path class="cls-2" d="M955.33,91.49s4.06-2.59,8.23,0"/><path class="cls-2" d="M963.55,91.49s4.06,2.59,8.23,0"/><path class="cls-2" d="M999.23,85.19s4.06-2.59,8.23,0"/><path class="cls-2" d="M1007.45,85.19s4.06,2.59,8.23,0"/><path class="cls-2" d="M1085.13,81.29s4.06-2.59,8.23,0"/><path class="cls-2" d="M1093.35,81.29s4.06,2.59,8.23,0"/><path class="cls-2" d="M1005.93,101.29s4.06-2.59,8.23,0"/><path class="cls-2" d="M1014.15,101.29s4.06,2.59,8.23,0"/><path class="cls-2" d="M1100.83,91.49s4.06-2.59,8.23,0"/><path class="cls-2" d="M1109.05,91.49s4.06,2.59,8.23,0"/><path class="cls-2" d="M1144.73,85.19s4.06-2.59,8.23,0"/><path class="cls-2" d="M1152.95,85.19s4.06,2.59,8.23,0"/><path class="cls-2" d="M1192.73,80.69s4.06-2.59,8.23,0"/><path class="cls-2" d="M1200.95,80.69s4.06,2.59,8.23,0"/><path class="cls-2" d="M1202.73,98.99s4.06-2.59,8.23,0"/><path class="cls-2" d="M1210.95,98.99s4.06,2.59,8.23,0"/><path class="cls-2" d="M1151.43,101.29s4.06-2.59,8.23,0"/><path class="cls-2" d="M1159.65,101.29s4.06,2.59,8.23,0"/><path class="cls-2" d="M1281.33,91.49s4.06-2.59,8.23,0"/><path class="cls-2" d="M1289.55,91.49s4.06,2.59,8.23,0"/><path class="cls-2" d="M1325.23,85.19s4.06-2.59,8.23,0"/><path class="cls-2" d="M1333.45,85.19s4.06,2.59,8.23,0"/><path class="cls-2" d="M1373.23,80.69s4.06-2.59,8.23,0"/><path class="cls-2" d="M1381.45,80.69s4.06,2.59,8.23,0"/><path class="cls-2" d="M1383.23,98.99s4.06-2.59,8.23,0"/><path class="cls-2" d="M1391.45,98.99s4.06,2.59,8.23,0"/><path class="cls-2" d="M1424.53,80.69s4.06-2.59,8.23,0"/><path class="cls-2" d="M1432.75,80.69s4.06,2.59,8.23,0"/><path class="cls-2" d="M1445.13,100.69s4.06-2.59,8.23,0"/><path class="cls-2" d="M1453.35,100.69s4.06,2.59,8.23,0"/><path class="cls-2" d="M1502.83,95.59s4.06-2.59,8.23,0"/><path class="cls-2" d="M1511.05,95.59s4.06,2.59,8.23,0"/><path class="cls-2" d="M1331.93,101.29s4.06-2.59,8.23,0"/><path class="cls-2" d="M1340.15,101.29s4.06,2.59,8.23,0"/><path class="cls-2" d="M1477.23,85.19s4.06-2.59,8.23,0"/><path class="cls-2" d="M1485.45,85.19s4.06,2.59,8.23,0"/><path class="cls-2" d="M1525.23,80.69s4.06-2.59,8.23,0"/><path class="cls-2" d="M1533.45,80.69s4.06,2.59,8.23,0"/><path class="cls-2" d="M1576.53,80.69s4.06-2.59,8.23,0"/><path class="cls-2" d="M1584.75,80.69s4.06,2.59,8.23,0"/><path class="cls-2" d="M1597.13,100.69s4.06-2.59,8.23,0"/><path class="cls-2" d="M1605.35,100.69s4.06,2.59,8.23,0"/><path class="cls-2" d="M1644.73,92.09s4.06-2.59,8.23,0"/><path class="cls-2" d="M1652.95,92.09s4.06,2.59,8.23,0"/><path class="cls-2" d="M1546.53,101.29s4.06-2.59,8.23,0"/><path class="cls-2" d="M1554.75,101.29s4.06,2.59,8.23,0"/><g class="cls-3"><path class="cls-4" d="M1653.73,76.59s4.06-2.59,8.23,0"/><path class="cls-4" d="M1661.95,76.59s4.06,2.59,8.23,0"/></g><path class="cls-2" d="M1684.43,91.49s4.06-2.59,8.23,0"/><path class="cls-2" d="M1692.65,91.49s4.06,2.59,8.23,0"/><path class="cls-2" d="M1728.33,85.19s4.06-2.59,8.23,0"/><path class="cls-2" d="M1736.55,85.19s4.06,2.59,8.23,0"/><path class="cls-2" d="M1786.33,98.99s4.06-2.59,8.23,0"/><path class="cls-2" d="M1794.55,98.99s4.06,2.59,8.23,0"/><path class="cls-2" d="M1814.23,81.29s4.06-2.59,8.23,0"/><path class="cls-2" d="M1822.45,81.29s4.06,2.59,8.23,0"/><path class="cls-2" d="M1735.03,101.29s4.06-2.59,8.23,0"/><path class="cls-2" d="M1743.25,101.29s4.06,2.59,8.23,0"/><path class="cls-2" d="M1829.93,91.49s4.06-2.59,8.23,0"/><path class="cls-2" d="M1838.15,91.49s4.06,2.59,8.23,0"/><path class="cls-2" d="M1873.83,85.19s4.06-2.59,8.23,0"/><path class="cls-2" d="M1882.05,85.19s4.06,2.59,8.23,0"/><path class="cls-2" d="M1921.83,80.69s4.06-2.59,8.23,0"/><path class="cls-2" d="M1930.05,80.69s4.06,2.59,8.23,0"/><path class="cls-2" d="M1931.83,98.99s4.06-2.59,8.23,0"/><path class="cls-2" d="M1940.05,98.99s4.06,2.59,8.23,0"/><path class="cls-2" d="M1880.53,101.29s4.06-2.59,8.23,0"/><path class="cls-2" d="M1888.75,101.29s4.06,2.59,8.23,0"/><path class="cls-2" d="M2010.43,91.49s4.06-2.59,8.23,0"/><path class="cls-2" d="M2018.65,91.49s4.06,2.59,8.23,0"/><path class="cls-2" d="M2054.33,85.19s4.06-2.59,8.23,0"/><path class="cls-2" d="M2062.55,85.19s4.06,2.59,8.23,0"/><path class="cls-2" d="M2102.33,80.69s4.06-2.59,8.23,0"/><path class="cls-2" d="M2110.55,80.69s4.06,2.59,8.23,0"/><path class="cls-2" d="M2112.33,98.99s4.06-2.59,8.23,0"/><path class="cls-2" d="M2120.55,98.99s4.06,2.59,8.23,0"/><path class="cls-2" d="M2153.63,80.69s4.06-2.59,8.23,0"/><path class="cls-2" d="M2161.85,80.69s4.06,2.59,8.23,0"/><path class="cls-2" d="M2174.23,100.69s4.06-2.59,8.23,0"/><path class="cls-2" d="M2182.45,100.69s4.06,2.59,8.23,0"/><path class="cls-2" d="M2231.93,95.59s4.06-2.59,8.23,0"/><path class="cls-2" d="M2240.15,95.59s4.06,2.59,8.23,0"/><path class="cls-2" d="M2061.03,101.29s4.06-2.59,8.23,0"/><path class="cls-2" d="M2069.25,101.29s4.06,2.59,8.23,0"/><path class="cls-2" d="M2206.33,85.19s4.06-2.59,8.23,0"/><path class="cls-2" d="M2214.55,85.19s4.06,2.59,8.23,0"/><path class="cls-2" d="M2254.33,80.69s4.06-2.59,8.23,0"/><path class="cls-2" d="M2262.55,80.69s4.06,2.59,8.23,0"/><path class="cls-2" d="M2275.63,101.29s4.06-2.59,8.23,0"/><path class="cls-2" d="M2283.85,101.29s4.06,2.59,8.23,0"/><path class="cls-2" d="M2432.71,81.01s4.06-2.59,8.23,0"/><path class="cls-2" d="M2440.94,81.01s4.06,2.59,8.23,0"/><path class="cls-2" d="M2442.71,99.31s4.06-2.59,8.23,0"/><path class="cls-2" d="M2450.94,99.31s4.06,2.59,8.23,0"/><path class="cls-2" d="M2521.31,91.81s4.06-2.59,8.23,0"/><path class="cls-2" d="M2529.54,91.81s4.06,2.59,8.23,0"/><path class="cls-2" d="M2565.21,85.51s4.06-2.59,8.23,0"/><path class="cls-2" d="M2573.44,85.51s4.06,2.59,8.23,0"/><path class="cls-2" d="M2613.21,81.01s4.06-2.59,8.23,0"/><path class="cls-2" d="M2621.44,81.01s4.06,2.59,8.23,0"/><path class="cls-2" d="M2623.21,99.31s4.06-2.59,8.23,0"/><path class="cls-2" d="M2631.44,99.31s4.06,2.59,8.23,0"/><path class="cls-2" d="M2571.91,101.61s4.06-2.59,8.23,0"/><path class="cls-2" d="M2580.14,101.61s4.06,2.59,8.23,0"/><path class="cls-2" d="M2536.21,81.01s4.06-2.59,8.23,0"/><path class="cls-2" d="M2544.44,81.01s4.06,2.59,8.23,0"/><path class="cls-2" d="M2546.21,99.31s4.06-2.59,8.23,0"/><path class="cls-2" d="M2554.44,99.31s4.06,2.59,8.23,0"/><path class="cls-2" d="M2624.81,91.81s4.06-2.59,8.23,0"/><path class="cls-2" d="M2633.04,91.81s4.06,2.59,8.23,0"/><path class="cls-2" d="M2668.71,85.51s4.06-2.59,8.23,0"/><path class="cls-2" d="M2676.94,85.51s4.06,2.59,8.23,0"/><path class="cls-2" d="M2716.71,81.01s4.06-2.59,8.23,0"/><path class="cls-2" d="M2724.94,81.01s4.06,2.59,8.23,0"/><path class="cls-2" d="M2726.71,99.31s4.06-2.59,8.23,0"/><path class="cls-2" d="M2734.94,99.31s4.06,2.59,8.23,0"/><path class="cls-2" d="M2675.41,101.61s4.06-2.59,8.23,0"/><path class="cls-2" d="M2683.64,101.61s4.06,2.59,8.23,0"/><path class="cls-2" d="M2748.51,81.01s4.06-2.59,8.23,0"/><path class="cls-2" d="M2756.74,81.01s4.06,2.59,8.23,0"/><path class="cls-2" d="M2765.81,98.21s4.06-2.59,8.23,0"/><path class="cls-2" d="M2774.04,98.21s4.06,2.59,8.23,0"/><path class="cls-2" d="M2788.91,86.11s4.06-2.59,8.23,0"/><path class="cls-2" d="M2797.14,86.11s4.06,2.59,8.23,0"/><path class="cls-2" d="M2826.81,97.11s4.06-2.59,8.23,0"/><path class="cls-2" d="M2835.04,97.11s4.06,2.59,8.23,0"/><path class="cls-2" d="M2849.41,80.41s4.06-2.59,8.23,0"/><path class="cls-2" d="M2857.64,80.41s4.06,2.59,8.23,0"/><path class="cls-2" d="M2881.01,85.51s4.06-2.59,8.23,0"/><path class="cls-2" d="M2889.24,85.51s4.06,2.59,8.23,0"/><path class="cls-2" d="M2929.01,81.01s4.06-2.59,8.23,0"/><path class="cls-2" d="M2937.24,81.01s4.06,2.59,8.23,0"/><path class="cls-2" d="M2939.01,99.31s4.06-2.59,8.23,0"/><path class="cls-2" d="M2947.24,99.31s4.06,2.59,8.23,0"/><path class="cls-2" d="M2887.71,101.61s4.06-2.59,8.23,0"/><path class="cls-2" d="M2895.94,101.61s4.06,2.59,8.23,0"/><path class="cls-2" d="M2978.41,81.01s4.06-2.59,8.23,0"/><path class="cls-2" d="M2986.64,81.01s4.06,2.59,8.23,0"/><path class="cls-2" d="M2988.41,99.31s4.06-2.59,8.23,0"/><path class="cls-2" d="M2996.64,99.31s4.06,2.59,8.23,0"/><path class="cls-2" d="M3010.21,81.01s4.06-2.59,8.23,0"/><path class="cls-2" d="M3018.44,81.01s4.06,2.59,8.23,0"/><path class="cls-2" d="M3027.51,98.21s4.06-2.59,8.23,0"/><path class="cls-2" d="M3035.74,98.21s4.06,2.59,8.23,0"/><path class="cls-2" d="M3050.61,86.11s4.06-2.59,8.23,0"/><path class="cls-2" d="M3058.84,86.11s4.06,2.59,8.23,0"/><path class="cls-2" d="M3088.51,97.11s4.06-2.59,8.23,0"/><path class="cls-2" d="M3096.74,97.11s4.06,2.59,8.23,0"/><path class="cls-2" d="M3111.11,80.41s4.06-2.59,8.23,0"/><path class="cls-2" d="M3119.34,80.41s4.06,2.59,8.23,0"/><path class="cls-2" d="M3142.71,85.51s4.06-2.59,8.23,0"/><path class="cls-2" d="M3150.94,85.51s4.06,2.59,8.23,0"/><path class="cls-2" d="M3190.71,81.01s4.06-2.59,8.23,0"/><path class="cls-2" d="M3198.94,81.01s4.06,2.59,8.23,0"/><path class="cls-2" d="M3200.71,99.31s4.06-2.59,8.23,0"/><path class="cls-2" d="M3208.94,99.31s4.06,2.59,8.23,0"/><path class="cls-2" d="M3149.41,101.61s4.06-2.59,8.23,0"/><path class="cls-2" d="M3157.64,101.61s4.06,2.59,8.23,0"/><path class="cls-2" d="M3240.11,81.01s4.06-2.59,8.23,0"/><path class="cls-2" d="M3248.34,81.01s4.06,2.59,8.23,0"/><path class="cls-2" d="M3250.11,99.31s4.06-2.59,8.23,0"/><path class="cls-2" d="M3258.34,99.31s4.06,2.59,8.23,0"/><path class="cls-2" d="M3271.91,81.01s4.06-2.59,8.23,0"/><path class="cls-2" d="M3280.14,81.01s4.06,2.59,8.23,0"/><path class="cls-2" d="M3289.21,98.21s4.06-2.59,8.23,0"/><path class="cls-2" d="M3297.44,98.21s4.06,2.59,8.23,0"/><path class="cls-2" d="M3312.31,86.11s4.06-2.59,8.23,0"/><path class="cls-2" d="M3320.54,86.11s4.06,2.59,8.23,0"/><path class="cls-2" d="M3332.81,97.11s4.06-2.59,8.23,0"/><path class="cls-2" d="M3341.04,97.11s4.06,2.59,8.23,0"/><rect class="cls-6" x="-.65" y="72.8" width="578.2" height="15"/><polygon class="cls-1" points="566.89 73.53 570.26 74.17 568.87 76.03 565.79 75.24 564.41 77.06 561.76 75.99 563.15 74.27 565.22 75.05 566.89 73.53"/><polygon class="cls-1" points="74.89 73.02 78.26 73.66 76.87 75.51 73.79 74.72 72.41 76.55 69.76 75.48 71.15 73.76 73.22 74.53 74.89 73.02"/><polygon class="cls-1" points="89.79 74.02 93.16 74.66 91.77 76.52 88.69 75.73 87.31 77.55 84.66 76.48 86.05 74.76 88.12 75.54 89.79 74.02"/><polygon class="cls-1" points="22.49 73.02 25.86 73.66 24.47 75.51 21.39 74.72 20.01 76.55 17.36 75.48 18.75 73.76 20.82 74.53 22.49 73.02"/><polygon class="cls-1" points="38.19 73.02 41.56 73.66 40.17 75.51 37.09 74.72 35.71 76.55 33.06 75.48 34.45 73.76 36.52 74.53 38.19 73.02"/><polygon class="cls-1" points="59.39 72.77 62.76 73.42 61.36 75.27 58.28 74.48 56.9 76.3 54.25 75.23 55.65 73.51 57.72 74.28 59.39 72.77"/><polygon class="cls-1" points="108.09 73.02 111.46 73.66 110.07 75.51 106.99 74.72 105.61 76.55 102.96 75.48 104.35 73.76 106.42 74.53 108.09 73.02"/><polygon class="cls-1" points="122.99 74.02 126.36 74.66 124.97 76.52 121.89 75.73 120.51 77.55 117.86 76.48 119.25 74.76 121.32 75.54 122.99 74.02"/><polygon class="cls-1" points="141.29 73.02 144.66 73.66 143.27 75.51 140.19 74.72 138.81 76.55 136.16 75.48 137.55 73.76 139.62 74.53 141.29 73.02"/><polygon class="cls-1" points="156.19 74.02 159.56 74.66 158.17 76.52 155.09 75.73 153.71 77.55 151.06 76.48 152.45 74.76 154.52 75.54 156.19 74.02"/><polygon class="cls-1" points="174.49 73.02 177.86 73.66 176.47 75.51 173.39 74.72 172.01 76.55 169.36 75.48 170.75 73.76 172.82 74.53 174.49 73.02"/><polygon class="cls-1" points="189.39 74.02 192.76 74.66 191.37 76.52 188.29 75.73 186.91 77.55 184.26 76.48 185.65 74.76 187.72 75.54 189.39 74.02"/><polygon class="cls-1" points="222.59 74.02 225.96 74.66 224.57 76.52 221.49 75.73 220.11 77.55 217.46 76.48 218.85 74.76 220.92 75.54 222.59 74.02"/><polygon class="cls-1" points="240.89 73.02 244.26 73.66 242.87 75.51 239.79 74.72 238.41 76.55 235.76 75.48 237.15 73.76 239.22 74.53 240.89 73.02"/><polygon class="cls-1" points="255.79 74.02 259.16 74.66 257.77 76.52 254.69 75.73 253.31 77.55 250.66 76.48 252.05 74.76 254.12 75.54 255.79 74.02"/><polygon class="cls-1" points="274.09 73.02 277.46 73.66 276.07 75.51 272.99 74.72 271.61 76.55 268.96 75.48 270.35 73.76 272.42 74.53 274.09 73.02"/><polygon class="cls-1" points="288.99 74.02 292.36 74.66 290.97 76.52 287.89 75.73 286.51 77.55 283.86 76.48 285.25 74.76 287.32 75.54 288.99 74.02"/><polygon class="cls-1" points="307.29 73.02 310.66 73.66 309.27 75.51 306.19 74.72 304.81 76.55 302.16 75.48 303.55 73.76 305.62 74.53 307.29 73.02"/><polygon class="cls-1" points="322.19 74.02 325.56 74.66 324.17 76.52 321.09 75.73 319.71 77.55 317.06 76.48 318.45 74.76 320.52 75.54 322.19 74.02"/><polygon class="cls-1" points="340.49 73.02 343.86 73.66 342.47 75.51 339.39 74.72 338.01 76.55 335.36 75.48 336.75 73.76 338.82 74.53 340.49 73.02"/><polygon class="cls-1" points="355.39 74.02 358.76 74.66 357.37 76.52 354.29 75.73 352.91 77.55 350.26 76.48 351.65 74.76 353.72 75.54 355.39 74.02"/><polygon class="cls-1" points="373.69 73.02 377.06 73.66 375.67 75.51 372.59 74.72 371.21 76.55 368.56 75.48 369.95 73.76 372.02 74.53 373.69 73.02"/><polygon class="cls-1" points="388.59 74.02 391.96 74.66 390.57 76.52 387.49 75.73 386.11 77.55 383.46 76.48 384.85 74.76 386.92 75.54 388.59 74.02"/><polygon class="cls-1" points="406.89 73.02 410.26 73.66 408.87 75.51 405.79 74.72 404.41 76.55 401.76 75.48 403.15 73.76 405.22 74.53 406.89 73.02"/><polygon class="cls-1" points="421.79 74.02 425.16 74.66 423.77 76.52 420.69 75.73 419.31 77.55 416.66 76.48 418.05 74.76 420.12 75.54 421.79 74.02"/><polygon class="cls-1" points="440.09 73.02 443.46 73.66 442.07 75.51 438.99 74.72 437.61 76.55 434.96 75.48 436.35 73.76 438.42 74.53 440.09 73.02"/><polygon class="cls-1" points="454.99 74.02 458.36 74.66 456.97 76.52 453.89 75.73 452.51 77.55 449.86 76.48 451.25 74.76 453.32 75.54 454.99 74.02"/><polygon class="cls-1" points="473.29 73.02 476.66 73.66 475.27 75.51 472.19 74.72 470.81 76.55 468.16 75.48 469.55 73.76 471.62 74.53 473.29 73.02"/><polygon class="cls-1" points="488.19 74.02 491.56 74.66 490.17 76.52 487.09 75.73 485.71 77.55 483.06 76.48 484.45 74.76 486.52 75.54 488.19 74.02"/><polygon class="cls-1" points="506.49 73.02 509.86 73.66 508.47 75.51 505.39 74.72 504.01 76.55 501.36 75.48 502.75 73.76 504.82 74.53 506.49 73.02"/><polygon class="cls-1" points="521.39 74.02 524.76 74.66 523.37 76.52 520.29 75.73 518.91 77.55 516.26 76.48 517.65 74.76 519.72 75.54 521.39 74.02"/><polygon class="cls-1" points="539.69 73.02 543.06 73.66 541.67 75.51 538.59 74.72 537.21 76.55 534.56 75.48 535.95 73.76 538.02 74.53 539.69 73.02"/><polygon class="cls-1" points="554.59 74.02 557.96 74.66 556.57 76.52 553.49 75.73 552.11 77.55 549.46 76.48 550.85 74.76 552.92 75.54 554.59 74.02"/><polygon class="cls-1" points="562.59 81.83 565.96 82.47 564.57 84.33 561.49 83.54 560.11 85.36 557.46 84.29 558.85 82.57 560.92 83.35 562.59 81.83"/><polygon class="cls-1" points="70.59 81.32 73.96 81.96 72.57 83.81 69.49 83.02 68.11 84.85 65.46 83.78 66.85 82.06 68.92 82.83 70.59 81.32"/><polygon class="cls-1" points="85.49 82.32 88.86 82.96 87.47 84.82 84.39 84.03 83.01 85.85 80.36 84.78 81.75 83.06 83.82 83.84 85.49 82.32"/><polygon class="cls-1" points="18.19 81.32 21.56 81.96 20.17 83.81 17.09 83.02 15.71 84.85 13.06 83.78 14.45 82.06 16.52 82.83 18.19 81.32"/><polygon class="cls-1" points="33.89 81.32 37.26 81.96 35.87 83.81 32.79 83.02 31.41 84.85 28.76 83.78 30.15 82.06 32.22 82.83 33.89 81.32"/><polygon class="cls-1" points="55.09 81.07 58.46 81.72 57.06 83.57 53.98 82.78 52.6 84.6 49.95 83.53 51.35 81.81 53.42 82.58 55.09 81.07"/><polygon class="cls-1" points="103.79 81.32 107.16 81.96 105.77 83.81 102.69 83.02 101.31 84.85 98.66 83.78 100.05 82.06 102.12 82.83 103.79 81.32"/><polygon class="cls-1" points="118.69 82.32 122.06 82.96 120.67 84.82 117.59 84.03 116.21 85.85 113.56 84.78 114.95 83.06 117.02 83.84 118.69 82.32"/><polygon class="cls-1" points="136.99 81.32 140.36 81.96 138.97 83.81 135.89 83.02 134.51 84.85 131.86 83.78 133.25 82.06 135.32 82.83 136.99 81.32"/><polygon class="cls-1" points="151.89 82.32 155.26 82.96 153.87 84.82 150.79 84.03 149.41 85.85 146.76 84.78 148.15 83.06 150.22 83.84 151.89 82.32"/><polygon class="cls-1" points="170.19 81.32 173.56 81.96 172.17 83.81 169.09 83.02 167.71 84.85 165.06 83.78 166.45 82.06 168.52 82.83 170.19 81.32"/><polygon class="cls-1" points="185.09 82.32 188.46 82.96 187.07 84.82 183.99 84.03 182.61 85.85 179.96 84.78 181.35 83.06 183.42 83.84 185.09 82.32"/><polygon class="cls-1" points="218.29 82.32 221.66 82.96 220.27 84.82 217.19 84.03 215.81 85.85 213.16 84.78 214.55 83.06 216.62 83.84 218.29 82.32"/><polygon class="cls-1" points="236.59 81.32 239.96 81.96 238.57 83.81 235.49 83.02 234.11 84.85 231.46 83.78 232.85 82.06 234.92 82.83 236.59 81.32"/><polygon class="cls-1" points="251.49 82.32 254.86 82.96 253.47 84.82 250.39 84.03 249.01 85.85 246.36 84.78 247.75 83.06 249.82 83.84 251.49 82.32"/><polygon class="cls-1" points="269.79 81.32 273.16 81.96 271.77 83.81 268.69 83.02 267.31 84.85 264.66 83.78 266.05 82.06 268.12 82.83 269.79 81.32"/><polygon class="cls-1" points="284.69 82.32 288.06 82.96 286.67 84.82 283.59 84.03 282.21 85.85 279.56 84.78 280.95 83.06 283.02 83.84 284.69 82.32"/><polygon class="cls-1" points="302.99 81.32 306.36 81.96 304.97 83.81 301.89 83.02 300.51 84.85 297.86 83.78 299.25 82.06 301.32 82.83 302.99 81.32"/><polygon class="cls-1" points="317.89 82.32 321.26 82.96 319.87 84.82 316.79 84.03 315.41 85.85 312.76 84.78 314.15 83.06 316.22 83.84 317.89 82.32"/><polygon class="cls-1" points="336.19 81.32 339.56 81.96 338.17 83.81 335.09 83.02 333.71 84.85 331.06 83.78 332.45 82.06 334.52 82.83 336.19 81.32"/><polygon class="cls-1" points="351.09 82.32 354.46 82.96 353.07 84.82 349.99 84.03 348.61 85.85 345.96 84.78 347.35 83.06 349.42 83.84 351.09 82.32"/><polygon class="cls-1" points="369.39 81.32 372.76 81.96 371.37 83.81 368.29 83.02 366.91 84.85 364.26 83.78 365.65 82.06 367.72 82.83 369.39 81.32"/><polygon class="cls-1" points="384.29 82.32 387.66 82.96 386.27 84.82 383.19 84.03 381.81 85.85 379.16 84.78 380.55 83.06 382.62 83.84 384.29 82.32"/><polygon class="cls-1" points="402.59 81.32 405.96 81.96 404.57 83.81 401.49 83.02 400.11 84.85 397.46 83.78 398.85 82.06 400.92 82.83 402.59 81.32"/><polygon class="cls-1" points="417.49 82.32 420.86 82.96 419.47 84.82 416.39 84.03 415.01 85.85 412.36 84.78 413.75 83.06 415.82 83.84 417.49 82.32"/><polygon class="cls-1" points="435.79 81.32 439.16 81.96 437.77 83.81 434.69 83.02 433.31 84.85 430.66 83.78 432.05 82.06 434.12 82.83 435.79 81.32"/><polygon class="cls-1" points="450.69 82.32 454.06 82.96 452.67 84.82 449.59 84.03 448.21 85.85 445.56 84.78 446.95 83.06 449.02 83.84 450.69 82.32"/><polygon class="cls-1" points="468.99 81.32 472.36 81.96 470.97 83.81 467.89 83.02 466.51 84.85 463.86 83.78 465.25 82.06 467.32 82.83 468.99 81.32"/><polygon class="cls-1" points="483.89 82.32 487.26 82.96 485.87 84.82 482.79 84.03 481.41 85.85 478.76 84.78 480.15 83.06 482.22 83.84 483.89 82.32"/><polygon class="cls-1" points="502.19 81.32 505.56 81.96 504.17 83.81 501.09 83.02 499.71 84.85 497.06 83.78 498.45 82.06 500.52 82.83 502.19 81.32"/><polygon class="cls-1" points="517.09 82.32 520.46 82.96 519.07 84.82 515.99 84.03 514.61 85.85 511.96 84.78 513.35 83.06 515.42 83.84 517.09 82.32"/><polygon class="cls-1" points="535.39 81.32 538.76 81.96 537.37 83.81 534.29 83.02 532.91 84.85 530.26 83.78 531.65 82.06 533.72 82.83 535.39 81.32"/><polygon class="cls-1" points="550.29 82.32 553.66 82.96 552.27 84.82 549.19 84.03 547.81 85.85 545.16 84.78 546.55 83.06 548.62 83.84 550.29 82.32"/></svg>