<?xml version="1.0" encoding="UTF-8"?><svg id="_4PLAN" xmlns="http://www.w3.org/2000/svg" xmlns:xlink="http://www.w3.org/1999/xlink" viewBox="0 0 3360.3 108"><defs><style>.cls-1{fill:#f7d68e;}.cls-2{fill:url(#Dégradé_sans_nom_211);}.cls-3{fill:url(#Dégradé_sans_nom_115);}.cls-4{fill:#efedd9;}.cls-5{fill:#abe2ab;}</style><linearGradient id="Dégradé_sans_nom_115" x1="1059.9" y1="63.9" x2="1059.9" y2="0" gradientUnits="userSpaceOnUse"><stop offset="0" stop-color="#d3ecfc"/><stop offset="1" stop-color="#8ecbe7"/></linearGradient><linearGradient id="Dégradé_sans_nom_211" x1="2739.51" y1="72.7" x2="2739.51" y2="0" gradientUnits="userSpaceOnUse"><stop offset="0" stop-color="#f0eeda"/><stop offset="1" stop-color="#ffc484"/></linearGradient></defs><rect class="cls-3" x=".15" y="0" width="2119.5" height="63.9"/><rect class="cls-2" x="2118.27" y="0" width="1242.48" height="72.7"/><circle class="cls-1" cx="2011.85" cy="21.3" r="8.6"/><path class="cls-4" d="M2040.42,26.1c.71,0,1.65-.43,2.3-.97.64-.54,1.19-1.24,1.98-1.51,1.06-.37,2.24.15,3.35-.06,2.39-.43,3.33-3.84,5.73-4.24,1.92-.32,3.58,1.51,5.52,1.65,2.04.14,3.85-2.24,5.71-2.9,2.48-.87,4.39-.12,6.07.92,1.94,1.2,3.43,3.66,4.28,6.52.09.29-.13.58-.43.58h-34.5Z"/><path class="cls-5" d="M2158.11,64c-2.8-7.84-5.2-15.85-8.16-23.64-5.75-15.17-16.85-40.37-33.47-40.26-17.72.12-24.34,17.39-39.61,26.54-12,7.18-25.97-5.04-36.88-8.22-12.76-3.72-21.78,1.16-32.84,11.64-9.64,9.14-15.88,20.74-24.49,33.94h175.45Z"/><path class="cls-4" d="M42.68,16.6c-.71,0-1.65-.43-2.3-.97-.64-.54-1.19-1.24-1.98-1.51-1.06-.37-2.24.15-3.35-.06-2.39-.43-3.33-3.84-5.73-4.24-1.92-.32-3.58,1.51-5.52,1.65-2.04.14-3.85-2.24-5.71-2.9-2.48-.87-4.39-.12-6.07.92-1.94,1.2-3.43,3.66-4.28,6.52-.09.29.13.58.43.58h34.5Z"/><path class="cls-4" d="M468.42,16.6c.71,0,1.65-.43,2.3-.97.64-.54,1.19-1.24,1.98-1.51,1.06-.37,2.24.15,3.35-.06,2.39-.43,3.33-3.84,5.73-4.24,1.92-.32,3.58,1.51,5.52,1.65,2.04.14,3.85-2.24,5.71-2.9,2.48-.87,4.39-.12,6.07.92,1.94,1.2,3.43,3.66,4.28,6.52.09.29-.13.58-.43.58h-34.5Z"/><path class="cls-4" d="M180.28,26.3c-.17-.82.21-1.83.91-2.29.71-.46,1.69-.43,2.37.06-.34-2.78,1.27-5.7,3.82-6.88,2.54-1.18,5.81-.55,7.72,1.51.87.94,1.71,2.25,2.99,2.19.87-.04,1.59-.74,2.45-.87,1.16-.18,2.21.7,2.98,1.59s1.56,1.91,2.71,2.16c1.54.34,3-.85,4.57-1.04,3.41-.41,6,3.85,9.43,3.58h-39.96Z"/><path class="cls-4" d="M720.99,27c.17-.82-.21-1.83-.91-2.29-.71-.46-1.69-.43-2.37.06.34-2.78-1.27-5.7-3.82-6.88-2.54-1.18-5.81-.55-7.72,1.51-.87.94-1.71,2.25-2.99,2.19-.87-.04-1.59-.74-2.45-.87-1.16-.18-2.21.7-2.98,1.59s-1.56,1.91-2.71,2.16c-1.54.34-3-.85-4.57-1.04-3.41-.41-6,3.85-9.43,3.58h39.96Z"/><path class="cls-4" d="M1014.22,26.1c.71,0,1.65-.43,2.3-.97.64-.54,1.19-1.24,1.98-1.51,1.06-.37,2.24.15,3.35-.06,2.39-.43,3.33-3.84,5.73-4.24,1.92-.32,3.58,1.51,5.52,1.65,2.04.14,3.85-2.24,5.71-2.9,2.48-.87,4.39-.12,6.07.92,1.94,1.2,3.43,3.66,4.28,6.52.09.29-.13.58-.43.58h-34.5Z"/><path class="cls-4" d="M1266.79,15.7c.17-.82-.21-1.83-.91-2.29-.71-.46-1.69-.43-2.37.06.34-2.78-1.27-5.7-3.82-6.88-2.54-1.18-5.81-.55-7.72,1.51-.87.94-1.71,2.25-2.99,2.19-.87-.04-1.59-.74-2.45-.87-1.16-.18-2.21.7-2.98,1.59s-1.56,1.91-2.71,2.16c-1.54.34-3-.85-4.57-1.04-3.41-.41-6,3.85-9.43,3.58h39.96Z"/><path class="cls-4" d="M1494.62,16.6c.71,0,1.65-.43,2.3-.97.64-.54,1.19-1.24,1.98-1.51,1.06-.37,2.24.15,3.35-.06,2.39-.43,3.33-3.84,5.73-4.24,1.92-.32,3.58,1.51,5.52,1.65,2.04.14,3.85-2.24,5.71-2.9,2.48-.87,4.39-.12,6.07.92,1.94,1.2,3.43,3.66,4.28,6.52.09.29-.13.58-.43.58h-34.5Z"/><path class="cls-4" d="M1747.19,27c.17-.82-.21-1.83-.91-2.29-.71-.46-1.69-.43-2.37.06.34-2.78-1.27-5.7-3.82-6.88-2.54-1.18-5.81-.55-7.72,1.51-.87.94-1.71,2.25-2.99,2.19-.87-.04-1.59-.74-2.45-.87-1.16-.18-2.21.7-2.98,1.59s-1.56,1.91-2.71,2.16c-1.54.34-3-.85-4.57-1.04-3.41-.41-6,3.85-9.43,3.58h39.96Z"/><path class="cls-4" d="M2292.99,15.7c.17-.82-.21-1.83-.91-2.29-.71-.46-1.69-.43-2.37.06.34-2.78-1.27-5.7-3.82-6.88-2.54-1.18-5.81-.55-7.72,1.51-.87.94-1.71,2.25-2.99,2.19-.87-.04-1.59-.74-2.45-.87-1.16-.18-2.21.7-2.98,1.59s-1.56,1.91-2.71,2.16c-1.54.34-3-.85-4.57-1.04-3.41-.41-6,3.85-9.43,3.58h39.96Z"/></svg>