<svg id="Calque_1" data-name="Calque 1" xmlns="http://www.w3.org/2000/svg" viewBox="0 0 1393.02 477"><defs><style>.cls-1{fill:#fff;}.cls-2{fill:#32d2c3;}</style></defs><polygon points="54 65 0 160.9 27 378 362 394 714 477 1002.63 425.47 1393.02 357 1364 112 1146 9 617 54 242 0 54 65"/><polygon class="cls-1" points="114.01 301.62 151.06 301.62 151.06 247.32 238.48 247.32 238.48 215.77 151.06 215.77 151.06 186.17 242 186.17 242 154.61 114.01 154.61 114.01 301.62"/><polygon class="cls-1" points="579.72 187.35 636.96 187.35 636.96 301.62 674 301.62 674 187.35 731.24 187.35 731.24 154.61 579.72 154.61 579.72 187.35"/><rect class="cls-1" x="749.07" y="154.61" width="37.04" height="147.01"/><polygon class="cls-1" points="941.74 154.61 891.34 267.25 840.6 154.61 801.01 154.61 870 301.62 911.75 301.62 980.75 154.61 941.74 154.61"/><path class="cls-1" d="M1020.11,181.24l-67.82,147h39.4l13-29.6h78.71l13.1,29.6H1136l-67.82-147Zm-2.22,87.62L1044,209.59l26.23,59.27Z" transform="translate(-15.26 -26.63)"/><path class="cls-2" d="M378.14,177.29q-24.11,0-42.33,9.6a70.78,70.78,0,0,0-28.42,26.66,68.51,68.51,0,0,0-6.63,14.9h-22v13.33h19.12a93.12,93.12,0,0,0-.1,22h-19v13.33h21.7a69.65,69.65,0,0,0,35.24,42.53q18.33,9.62,42.63,9.61a123,123,0,0,0,22.84-2.06A82.44,82.44,0,0,0,420.87,321V303.72a78.11,78.11,0,0,1-19.3,7.25,96.42,96.42,0,0,1-22.45,2.55q-19.59,0-33.71-7.35a52,52,0,0,1-21.76-20.88,55.35,55.35,0,0,1-3.77-8.23h70.81V263.73h-74a83.06,83.06,0,0,1,.14-22h73.88V228.45H320.2a53.7,53.7,0,0,1,3.45-7.35,52,52,0,0,1,21.86-20.78Q359.72,193,379.12,193a96.11,96.11,0,0,1,22.55,2.55,78,78,0,0,1,19.2,7.25V185.52a82.85,82.85,0,0,0-19.79-6.17A124.53,124.53,0,0,0,378.14,177.29Z" transform="translate(-15.26 -26.63)"/><path class="cls-2" d="M553,251.77q-11.85-5.47-31.65-7.45l-3.73-.42V192.22q15,1.49,23.72,8.3a32,32,0,0,1,12.74,22.24h17.84a41.62,41.62,0,0,0-8.43-24q-7.85-10.29-21.66-16.17A76.77,76.77,0,0,0,517.62,177V163.18h-14.7v13.7a80.57,80.57,0,0,0-26.07,5.31q-13.52,5.49-20.87,15a34.43,34.43,0,0,0-7.35,21.65q0,17.06,12.84,27T499,258.44l3.92.46v54.22q-14.84-1.77-24.69-8.91a35,35,0,0,1-14.9-25.58h-18a46.54,46.54,0,0,0,9.31,26.07q8.52,11.37,23.62,17.73a82.39,82.39,0,0,0,24.69,5.91v14h14.7V328.72q16.73-.57,29-5.5,13.92-5.6,21.27-15.39a35.68,35.68,0,0,0,7.35-21.95q0-11.76-5.19-20.19T553,251.77Zm-50.47-9.6q-13.51-1.57-21.36-4.71t-11.08-7.93a19.39,19.39,0,0,1-3.23-11.08q0-11.56,10.48-19.11,9-6.45,25.58-7.38v50.25Zm43.52,63.9q-9.87,6.85-28.43,7.56v-53q15.35,1.75,23.92,5.27t12.05,8.82A21.8,21.8,0,0,1,557,286.86Q557,298.42,546.05,306.07Z" transform="translate(-15.26 -26.63)"/><path class="cls-2" d="M1183.4,314.56a70,70,0,0,0,9.76-5.49A39.52,39.52,0,0,0,1205,296.91a28.1,28.1,0,0,0,4.11-14.7,26.18,26.18,0,0,0-2.74-12c-.66-1.3-1.4-2.57-2.18-3.82h54.12V252.62h-64.75c-.76-1-1.52-1.88-2.28-2.84a52.37,52.37,0,0,1-6.86-11.37,35.05,35.05,0,0,1-2.75-14.41,24.8,24.8,0,0,1,10.59-21q10.58-7.84,28.42-7.84,15.87,0,26.46,7.05a28.15,28.15,0,0,1,12.74,19h18.82a37.69,37.69,0,0,0-8.33-21.86q-7.56-9.3-20.49-14.5t-29.59-5.2q-16.86,0-29.7,5.49t-20.09,15.19a36.75,36.75,0,0,0-7.25,22.64,48.49,48.49,0,0,0,2.84,17.54,53.93,53.93,0,0,0,6.44,12.06h-22.61v13.72h33.56a58.83,58.83,0,0,1,4.86,7.25,22.2,22.2,0,0,1,2.74,11q0,9.4-10.29,17.34t-31.07,12.84v14.51h130.94v-14.7Z" transform="translate(-15.26 -26.63)"/></svg>