<svg width="563" height="152" viewBox="0 0 563 152" fill="none" xmlns="http://www.w3.org/2000/svg">
<path d="M335.999 26H326.255V8.864H335.999V11.432H329.327V15.8H335.567V18.368H329.327V23.408H335.999V26ZM346.262 12.752C347.734 12.752 348.878 13.128 349.694 13.88C350.51 14.632 350.918 15.848 350.918 17.528V26H347.894V18.152C347.894 17.16 347.694 16.424 347.294 15.944C346.91 15.448 346.31 15.2 345.494 15.2C344.278 15.2 343.446 15.584 342.998 16.352C342.55 17.12 342.326 18.224 342.326 19.664V26H339.278V12.992H341.63L342.062 14.744H342.206C342.494 14.296 342.846 13.928 343.262 13.64C343.678 13.336 344.134 13.112 344.63 12.968C345.142 12.824 345.686 12.752 346.262 12.752ZM367.681 12.752C369.233 12.752 370.465 13.32 371.377 14.456C372.289 15.576 372.745 17.248 372.745 19.472C372.745 20.944 372.529 22.184 372.097 23.192C371.665 24.2 371.065 24.96 370.297 25.472C369.529 25.984 368.633 26.24 367.609 26.24C366.969 26.24 366.409 26.16 365.929 26C365.449 25.824 365.041 25.608 364.705 25.352C364.369 25.08 364.089 24.792 363.865 24.488H363.721C363.753 24.776 363.785 25.12 363.817 25.52C363.849 25.904 363.865 26.28 363.865 26.648V31.76H360.817V12.992H363.289L363.721 14.696H363.865C364.105 14.344 364.393 14.024 364.729 13.736C365.081 13.432 365.497 13.192 365.977 13.016C366.457 12.84 367.025 12.752 367.681 12.752ZM366.793 15.2C366.089 15.2 365.521 15.344 365.089 15.632C364.673 15.92 364.369 16.352 364.177 16.928C363.985 17.488 363.881 18.2 363.865 19.064V19.448C363.865 20.376 363.953 21.16 364.129 21.8C364.305 22.44 364.609 22.928 365.041 23.264C365.489 23.584 366.089 23.744 366.841 23.744C367.465 23.744 367.985 23.568 368.401 23.216C368.817 22.864 369.121 22.368 369.313 21.728C369.521 21.088 369.625 20.32 369.625 19.424C369.625 18.064 369.393 17.024 368.929 16.304C368.465 15.568 367.753 15.2 366.793 15.2ZM381.312 12.752C382.928 12.752 384.144 13.128 384.96 13.88C385.792 14.616 386.208 15.744 386.208 17.264V26H384.048L383.472 24.2H383.376C383.008 24.664 382.624 25.048 382.224 25.352C381.84 25.656 381.392 25.88 380.88 26.024C380.368 26.168 379.752 26.24 379.032 26.24C378.264 26.24 377.568 26.096 376.944 25.808C376.336 25.52 375.856 25.08 375.504 24.488C375.152 23.896 374.976 23.144 374.976 22.232C374.976 20.904 375.472 19.896 376.464 19.208C377.472 18.504 378.984 18.12 381 18.056L383.184 17.984V17.432C383.184 16.536 382.984 15.912 382.584 15.56C382.184 15.208 381.632 15.032 380.928 15.032C380.304 15.032 379.68 15.136 379.056 15.344C378.448 15.536 377.856 15.76 377.28 16.016L376.368 13.904C377.008 13.552 377.744 13.272 378.576 13.064C379.424 12.856 380.336 12.752 381.312 12.752ZM381.6 19.904C380.288 19.968 379.376 20.192 378.864 20.576C378.352 20.944 378.096 21.472 378.096 22.16C378.096 22.768 378.28 23.224 378.648 23.528C379.016 23.816 379.488 23.96 380.064 23.96C380.944 23.96 381.68 23.704 382.272 23.192C382.88 22.68 383.184 21.936 383.184 20.96V19.856L381.6 19.904ZM396.647 12.752C396.887 12.752 397.143 12.768 397.415 12.8C397.703 12.816 397.935 12.848 398.111 12.896L397.799 15.728C397.607 15.696 397.383 15.664 397.127 15.632C396.887 15.6 396.623 15.584 396.335 15.584C395.919 15.584 395.503 15.656 395.087 15.8C394.687 15.944 394.319 16.168 393.983 16.472C393.663 16.776 393.407 17.16 393.215 17.624C393.023 18.072 392.927 18.616 392.927 19.256V26H389.879V12.992H392.231L392.663 15.248H392.807C393.063 14.784 393.383 14.36 393.767 13.976C394.151 13.592 394.583 13.296 395.063 13.088C395.559 12.864 396.087 12.752 396.647 12.752ZM405.398 23.816C405.782 23.816 406.15 23.784 406.502 23.72C406.854 23.64 407.182 23.552 407.486 23.456V25.712C407.166 25.856 406.75 25.976 406.238 26.072C405.726 26.184 405.19 26.24 404.63 26.24C403.894 26.24 403.222 26.12 402.614 25.88C402.022 25.624 401.542 25.192 401.174 24.584C400.822 23.976 400.646 23.128 400.646 22.04V15.272H398.894V13.952L400.814 12.896L401.774 10.136H403.67V12.992H407.366V15.272H403.67V22.016C403.67 22.624 403.83 23.08 404.15 23.384C404.47 23.672 404.886 23.816 405.398 23.816ZM415.388 12.752C416.556 12.752 417.564 12.984 418.412 13.448C419.26 13.912 419.908 14.584 420.356 15.464C420.82 16.344 421.052 17.408 421.052 18.656V20.216H412.484C412.516 21.384 412.844 22.288 413.468 22.928C414.092 23.568 414.98 23.888 416.132 23.888C416.948 23.888 417.684 23.808 418.34 23.648C418.996 23.488 419.668 23.256 420.356 22.952V25.352C419.716 25.656 419.052 25.88 418.364 26.024C417.676 26.168 416.844 26.24 415.868 26.24C414.604 26.24 413.476 26 412.484 25.52C411.508 25.024 410.74 24.28 410.18 23.288C409.636 22.296 409.364 21.064 409.364 19.592C409.364 18.104 409.612 16.856 410.108 15.848C410.62 14.824 411.324 14.056 412.22 13.544C413.132 13.016 414.188 12.752 415.388 12.752ZM415.436 15.008C414.604 15.008 413.932 15.272 413.42 15.8C412.924 16.328 412.636 17.088 412.556 18.08H418.1C418.1 17.472 418.004 16.944 417.812 16.496C417.62 16.032 417.324 15.672 416.924 15.416C416.54 15.144 416.044 15.008 415.436 15.008ZM431.059 12.752C432.531 12.752 433.675 13.128 434.491 13.88C435.307 14.632 435.715 15.848 435.715 17.528V26H432.691V18.152C432.691 17.16 432.491 16.424 432.091 15.944C431.707 15.448 431.107 15.2 430.291 15.2C429.075 15.2 428.243 15.584 427.795 16.352C427.347 17.12 427.123 18.224 427.123 19.664V26H424.075V12.992H426.427L426.859 14.744H427.003C427.291 14.296 427.643 13.928 428.059 13.64C428.475 13.336 428.931 13.112 429.427 12.968C429.939 12.824 430.483 12.752 431.059 12.752ZM444.851 12.752C446.467 12.752 447.683 13.128 448.499 13.88C449.331 14.616 449.747 15.744 449.747 17.264V26H447.587L447.011 24.2H446.915C446.547 24.664 446.163 25.048 445.763 25.352C445.379 25.656 444.931 25.88 444.419 26.024C443.907 26.168 443.291 26.24 442.571 26.24C441.803 26.24 441.107 26.096 440.483 25.808C439.875 25.52 439.395 25.08 439.043 24.488C438.691 23.896 438.515 23.144 438.515 22.232C438.515 20.904 439.011 19.896 440.003 19.208C441.011 18.504 442.523 18.12 444.539 18.056L446.723 17.984V17.432C446.723 16.536 446.523 15.912 446.123 15.56C445.723 15.208 445.171 15.032 444.467 15.032C443.843 15.032 443.219 15.136 442.595 15.344C441.987 15.536 441.395 15.76 440.819 16.016L439.907 13.904C440.547 13.552 441.283 13.272 442.115 13.064C442.963 12.856 443.875 12.752 444.851 12.752ZM445.139 19.904C443.827 19.968 442.915 20.192 442.403 20.576C441.891 20.944 441.635 21.472 441.635 22.16C441.635 22.768 441.819 23.224 442.187 23.528C442.555 23.816 443.027 23.96 443.603 23.96C444.483 23.96 445.219 23.704 445.811 23.192C446.419 22.68 446.723 21.936 446.723 20.96V19.856L445.139 19.904ZM460.186 12.752C460.426 12.752 460.682 12.768 460.954 12.8C461.242 12.816 461.474 12.848 461.65 12.896L461.338 15.728C461.146 15.696 460.922 15.664 460.666 15.632C460.426 15.6 460.162 15.584 459.874 15.584C459.458 15.584 459.042 15.656 458.626 15.8C458.226 15.944 457.858 16.168 457.522 16.472C457.202 16.776 456.946 17.16 456.754 17.624C456.562 18.072 456.466 18.616 456.466 19.256V26H453.418V12.992H455.77L456.202 15.248H456.346C456.602 14.784 456.922 14.36 457.306 13.976C457.69 13.592 458.122 13.296 458.602 13.088C459.098 12.864 459.626 12.752 460.186 12.752ZM466.873 12.992V26H463.825V12.992H466.873ZM465.385 7.952C465.833 7.952 466.225 8.072 466.561 8.312C466.897 8.552 467.065 8.968 467.065 9.56C467.065 10.136 466.897 10.552 466.561 10.808C466.225 11.048 465.833 11.168 465.385 11.168C464.905 11.168 464.497 11.048 464.161 10.808C463.841 10.552 463.681 10.136 463.681 9.56C463.681 8.968 463.841 8.552 464.161 8.312C464.497 8.072 464.905 7.952 465.385 7.952ZM476.094 12.752C477.71 12.752 478.926 13.128 479.742 13.88C480.574 14.616 480.99 15.744 480.99 17.264V26H478.83L478.254 24.2H478.158C477.79 24.664 477.406 25.048 477.006 25.352C476.622 25.656 476.174 25.88 475.662 26.024C475.15 26.168 474.534 26.24 473.814 26.24C473.046 26.24 472.35 26.096 471.726 25.808C471.118 25.52 470.638 25.08 470.286 24.488C469.934 23.896 469.758 23.144 469.758 22.232C469.758 20.904 470.254 19.896 471.246 19.208C472.254 18.504 473.766 18.12 475.782 18.056L477.966 17.984V17.432C477.966 16.536 477.766 15.912 477.366 15.56C476.966 15.208 476.414 15.032 475.71 15.032C475.086 15.032 474.462 15.136 473.838 15.344C473.23 15.536 472.638 15.76 472.062 16.016L471.15 13.904C471.79 13.552 472.526 13.272 473.358 13.064C474.206 12.856 475.118 12.752 476.094 12.752ZM476.382 19.904C475.07 19.968 474.158 20.192 473.646 20.576C473.134 20.944 472.878 21.472 472.878 22.16C472.878 22.768 473.062 23.224 473.43 23.528C473.798 23.816 474.27 23.96 474.846 23.96C475.726 23.96 476.462 23.704 477.054 23.192C477.662 22.68 477.966 21.936 477.966 20.96V19.856L476.382 19.904ZM489.773 23.816C490.157 23.816 490.525 23.784 490.877 23.72C491.229 23.64 491.557 23.552 491.861 23.456V25.712C491.541 25.856 491.125 25.976 490.613 26.072C490.101 26.184 489.565 26.24 489.005 26.24C488.269 26.24 487.597 26.12 486.989 25.88C486.397 25.624 485.917 25.192 485.549 24.584C485.197 23.976 485.021 23.128 485.021 22.04V15.272H483.269V13.952L485.189 12.896L486.149 10.136H488.045V12.992H491.741V15.272H488.045V22.016C488.045 22.624 488.205 23.08 488.525 23.384C488.845 23.672 489.261 23.816 489.773 23.816ZM506.117 12.752C507.733 12.752 508.949 13.128 509.765 13.88C510.597 14.616 511.013 15.744 511.013 17.264V26H508.853L508.277 24.2H508.181C507.813 24.664 507.429 25.048 507.029 25.352C506.645 25.656 506.197 25.88 505.685 26.024C505.173 26.168 504.557 26.24 503.837 26.24C503.069 26.24 502.373 26.096 501.749 25.808C501.141 25.52 500.661 25.08 500.309 24.488C499.957 23.896 499.781 23.144 499.781 22.232C499.781 20.904 500.277 19.896 501.269 19.208C502.277 18.504 503.789 18.12 505.805 18.056L507.989 17.984V17.432C507.989 16.536 507.789 15.912 507.389 15.56C506.989 15.208 506.437 15.032 505.733 15.032C505.109 15.032 504.485 15.136 503.861 15.344C503.253 15.536 502.661 15.76 502.085 16.016L501.173 13.904C501.813 13.552 502.549 13.272 503.381 13.064C504.229 12.856 505.141 12.752 506.117 12.752ZM506.405 19.904C505.093 19.968 504.181 20.192 503.669 20.576C503.157 20.944 502.901 21.472 502.901 22.16C502.901 22.768 503.085 23.224 503.453 23.528C503.821 23.816 504.293 23.96 504.869 23.96C505.749 23.96 506.485 23.704 507.077 23.192C507.685 22.68 507.989 21.936 507.989 20.96V19.856L506.405 19.904ZM517.756 26L512.812 12.992H516.028L518.572 20.672C518.668 20.912 518.764 21.192 518.86 21.512C518.956 21.832 519.044 22.152 519.124 22.472C519.22 22.776 519.276 23.048 519.292 23.288H519.388C519.42 23.048 519.476 22.776 519.556 22.472C519.652 22.152 519.756 21.832 519.868 21.512C519.98 21.192 520.068 20.912 520.132 20.672L522.724 12.992H525.94L520.972 26H517.756ZM533.161 12.752C534.329 12.752 535.337 12.984 536.185 13.448C537.033 13.912 537.681 14.584 538.129 15.464C538.593 16.344 538.825 17.408 538.825 18.656V20.216H530.257C530.289 21.384 530.617 22.288 531.241 22.928C531.865 23.568 532.753 23.888 533.905 23.888C534.721 23.888 535.457 23.808 536.113 23.648C536.769 23.488 537.441 23.256 538.129 22.952V25.352C537.489 25.656 536.825 25.88 536.137 26.024C535.449 26.168 534.617 26.24 533.641 26.24C532.377 26.24 531.249 26 530.257 25.52C529.281 25.024 528.513 24.28 527.953 23.288C527.409 22.296 527.137 21.064 527.137 19.592C527.137 18.104 527.385 16.856 527.881 15.848C528.393 14.824 529.097 14.056 529.993 13.544C530.905 13.016 531.961 12.752 533.161 12.752ZM533.209 15.008C532.377 15.008 531.705 15.272 531.193 15.8C530.697 16.328 530.409 17.088 530.329 18.08H535.873C535.873 17.472 535.777 16.944 535.585 16.496C535.393 16.032 535.097 15.672 534.697 15.416C534.313 15.144 533.817 15.008 533.209 15.008ZM547.344 26.24C546.128 26.24 545.056 26.008 544.128 25.544C543.2 25.064 542.472 24.336 541.944 23.36C541.432 22.368 541.176 21.104 541.176 19.568C541.176 17.968 541.456 16.672 542.016 15.68C542.576 14.672 543.336 13.936 544.296 13.472C545.256 12.992 546.344 12.752 547.56 12.752C548.28 12.752 548.968 12.824 549.624 12.968C550.28 13.112 550.84 13.304 551.304 13.544L550.392 15.92C549.96 15.744 549.496 15.592 549 15.464C548.504 15.32 548.016 15.248 547.536 15.248C546.832 15.248 546.232 15.408 545.736 15.728C545.256 16.048 544.896 16.528 544.656 17.168C544.416 17.792 544.296 18.584 544.296 19.544C544.296 20.472 544.416 21.248 544.656 21.872C544.912 22.48 545.272 22.944 545.736 23.264C546.216 23.568 546.792 23.72 547.464 23.72C548.152 23.72 548.784 23.64 549.36 23.48C549.952 23.304 550.504 23.08 551.016 22.808V25.352C550.536 25.624 550 25.84 549.408 26C548.832 26.16 548.144 26.24 547.344 26.24Z" fill="white"/>
<path d="M293.97 130.588L293.97 34.7208" stroke="white" stroke-width="2"/>
<path d="M146.261 110.214H122.516C122.516 110.413 122.536 110.611 122.595 110.809C123.661 113.9 125.773 115.742 129.01 116.277C131.753 116.733 134.201 115.98 136.372 114.316C136.826 113.939 137.241 113.543 137.655 113.107C138.445 113.503 139.155 114.078 139.905 114.573C140.695 115.088 141.484 115.643 142.254 116.158C143.004 116.673 143.774 117.169 144.544 117.743C144.465 117.902 144.386 118.04 144.307 118.179C141.741 121.646 138.326 123.727 134.063 124.44C130.707 124.995 127.391 124.796 124.174 123.647C120.7 122.459 117.719 120.16 115.706 117.089C115.568 116.891 115.43 116.693 115.213 116.396C115.114 116.653 115.094 116.931 115.114 117.208C115.114 117.426 115.114 117.644 115.114 117.882V122.34C115.114 122.558 115.114 122.776 115.114 123.013C115.114 123.251 115.094 123.509 115.075 123.806C114.857 123.826 114.68 123.865 114.502 123.865C112.094 123.865 109.706 123.885 107.298 123.845C105.817 123.826 104.337 123.588 102.916 123.152C99.6391 122.122 97.6653 119.883 96.935 116.554C96.6784 115.385 96.56 114.177 96.56 112.968C96.56 108.372 96.56 103.775 96.56 99.1986C96.56 98.8618 96.6192 98.5052 96.4613 98.1287C96.2047 98.1089 95.9678 98.0693 95.7112 98.0693C93.0268 98.0693 90.3424 98.0693 87.658 98.0693C86.0394 98.0297 84.5196 98.7429 83.5129 100.011C82.3483 101.398 81.6575 103.141 81.5588 104.964C81.5391 105.34 81.5391 105.717 81.5391 106.113C81.5391 111.661 81.5391 117.208 81.5391 122.736C81.5391 123.073 81.5193 123.429 81.5193 123.687C81.4798 123.727 81.4404 123.786 81.4009 123.826C81.3811 123.845 81.3417 123.845 81.3022 123.845L72.7752 123.865C72.5778 123.865 72.4002 123.865 72.2028 123.845C72.1239 123.826 72.0646 123.806 71.9857 123.766C71.8475 123.469 71.9067 123.112 71.9067 122.776C71.9067 119.665 71.9067 116.574 71.9067 113.464V112.374C71.6896 112.572 71.5514 112.83 71.4725 113.127C69.8934 117.228 67.1498 120.299 63.3205 122.419C61.4059 123.469 59.3334 124.162 57.1622 124.479C53.1948 125.074 49.3458 124.638 45.6942 122.954C41.3912 120.973 38.391 117.723 36.7132 113.285C36.6145 113.028 36.6145 112.711 36.2987 112.532C36.2 112.849 36.1211 113.147 36.0224 113.444C35.3118 115.782 34.2854 117.921 32.7063 119.804C30.5746 122.399 27.5546 124.103 24.2386 124.578C22.6398 124.836 21.0212 124.796 19.4421 124.479C16.4222 123.826 14.2509 122.102 12.9285 119.328C12.5929 118.615 12.3363 117.862 12.0402 117.089C11.685 117.01 11.3099 116.99 10.9546 117.05C10.7178 117.367 10.8165 117.743 10.8165 118.06C10.8165 120.814 10.8165 123.568 10.8165 126.322C10.8165 129.67 10.8165 133.038 10.8165 136.387C10.8165 136.724 10.7967 137.08 10.777 137.457C9.69138 137.595 8.64524 137.496 7.61885 137.516C6.59245 137.536 5.54632 137.516 4.50019 137.516H1.34205C1.28283 137.338 1.24335 137.14 1.22362 136.961C1.20388 136.704 1.22362 136.446 1.22362 136.208V90.1641C1.57891 89.8867 1.9342 89.966 2.26975 89.966C4.75679 89.966 7.26356 89.966 9.75059 89.966C10.0664 89.966 10.3822 89.9858 10.6191 89.9858C10.8954 90.2631 10.8362 90.5207 10.8362 90.7783C10.8362 92.4623 10.8362 94.1464 10.8362 95.8107C10.8362 96.1277 10.8559 96.4249 10.8757 96.7815C11.2507 96.8805 11.6455 96.9004 12.0205 96.8211C12.2574 96.5239 12.2968 96.1673 12.4153 95.8503C13.4811 92.8982 15.4352 90.8575 18.3763 89.748C19.3829 89.3716 20.4488 89.1536 21.5147 89.114C25.6005 89.0149 29.1337 90.3028 32.0352 93.2548C33.4761 94.7408 34.6012 96.4843 35.3513 98.4061C35.7263 99.3373 36.0224 100.308 36.3777 101.319C36.6737 101.101 36.6935 100.744 36.8119 100.447C38.2133 96.7022 40.878 93.5718 44.352 91.6104C46.0495 90.6396 47.9049 89.9263 49.8195 89.5499C53.4908 88.7772 57.103 88.9357 60.6361 90.2433C65.8273 92.1651 69.5381 95.6522 71.5514 100.883C71.6107 101.061 71.6896 101.219 71.7686 101.378C72.0054 101.338 71.9265 101.18 71.9462 101.081C71.9462 100.962 71.9462 100.823 71.9462 100.704C71.9462 97.5145 71.9462 94.3049 71.9462 91.1151C71.9462 90.7783 71.8673 90.4216 72.0449 90.065C72.1633 90.0254 72.2818 90.0056 72.4002 89.9858C75.3412 89.9858 78.2625 89.9858 81.2035 89.9858C81.3219 90.0056 81.4206 90.0452 81.5193 90.1046C81.5785 91.0953 81.5193 92.1057 81.5588 93.1161C81.5983 94.1266 81.4996 95.137 81.618 96.1673C82.0128 96.2663 82.4075 96.2862 82.8023 96.1871C82.901 95.8899 83.0194 95.5927 83.0984 95.2955C83.8879 92.8586 85.5065 91.2538 87.9738 90.5603C89.0002 90.2433 90.066 90.065 91.1319 90.0254C92.6518 89.9858 94.1716 89.9858 95.6717 89.9461C95.9875 89.9461 96.3034 90.0254 96.5797 89.8471C96.5994 89.8273 96.6192 89.7876 96.6389 89.7678C96.6587 89.748 96.6587 89.7084 96.6587 89.6688C96.6587 82.8929 96.6587 76.117 96.6784 69.3411C96.6587 69.242 96.6587 69.1231 96.6192 69.0241C96.3034 69.2618 96.2836 69.5986 96.1849 69.876C95.2967 72.1941 93.9348 74.2942 92.1583 76.0179C89.4147 78.7322 85.9012 80.5154 82.0917 81.1097C78.3612 81.7239 74.7096 81.4069 71.2159 79.9408C65.3536 77.484 61.8007 73.0856 60.6559 66.8051C60.0834 63.7341 60.3203 60.5641 61.3467 57.6319C62.7679 53.5108 65.3931 50.3606 69.1828 48.2209C74.6701 45.1301 81.993 44.8528 87.8159 47.9831C91.8227 50.1229 94.6651 53.3127 96.2836 57.5724C96.3428 57.7507 96.4415 57.9092 96.5205 58.0875C96.5205 58.1074 96.5797 58.1074 96.6587 58.147C96.6981 57.612 96.6784 57.0771 96.6784 56.562C96.6784 56.0468 96.6784 55.4921 96.6784 54.9572V50.0238C96.6784 49.4889 96.6784 48.954 96.6784 48.3992C96.6784 47.8444 96.6784 47.3293 96.6981 46.7548C96.8955 46.7151 97.0732 46.6755 97.2705 46.6557C100.073 46.6557 102.896 46.6557 105.699 46.6557C105.857 46.6557 105.995 46.6953 106.133 46.7151C106.33 47.0321 106.252 47.3689 106.271 47.6661C106.271 49.2908 106.271 50.8956 106.271 52.5202C106.271 52.8372 106.192 53.1542 106.409 53.491H107.416C107.653 53.3523 107.653 53.075 107.732 52.857C108.206 51.3116 109.035 49.8851 110.16 48.7162C112.331 46.4774 114.976 45.5462 118.055 45.8632C118.785 45.9424 119.496 46.0613 120.187 46.2594C122.851 47.0123 124.806 48.6568 126.049 51.1531C126.878 52.857 127.332 54.7392 127.372 56.6412C127.372 57.4139 127.411 58.1668 127.51 58.9395C127.569 58.7612 127.628 58.6027 127.668 58.4244C127.707 58.246 127.747 58.1074 127.786 57.9687C128.497 55.1355 129.681 52.54 131.615 50.321C133.53 48.1416 135.879 46.6755 138.741 46.1009C141.8 45.4868 144.702 45.8434 147.406 47.4878C149.34 48.6766 150.821 50.4597 151.63 52.5797C151.748 52.8768 151.847 53.174 151.966 53.4712C152.341 53.5703 152.716 53.5901 153.091 53.5108C153.288 53.174 153.209 52.8174 153.229 52.4806C153.229 49.9248 153.229 47.3491 153.229 44.7933C153.229 40.8704 153.229 36.9277 153.229 33.0048C153.189 32.6482 153.229 32.2916 153.308 31.935C153.446 31.8953 153.604 31.8557 153.762 31.8557C156.604 31.8557 159.446 31.8557 162.289 31.8557C162.447 31.8755 162.624 31.8953 162.782 31.935C162.881 32.569 162.822 33.1633 162.841 33.7577C162.861 34.3521 162.841 34.9068 162.841 35.4616V55.076C162.841 55.6506 162.841 56.2252 162.841 56.7799C162.841 57.3347 162.822 57.9489 162.98 58.563C163.078 58.3055 163.157 58.0479 163.236 57.7904C163.828 55.8487 164.756 54.026 165.96 52.4013C168.151 49.4493 171.289 47.3689 174.842 46.4576C178.237 45.5462 181.632 45.4868 185.027 46.4972C190.85 48.2011 195.173 53.075 196.18 59.0782C196.318 59.8509 196.397 60.6434 196.416 61.4359C196.456 63.0209 196.436 64.6059 196.416 66.1909C196.416 66.3692 196.377 66.5673 196.357 66.7654C195.982 66.9438 195.587 66.8645 195.212 66.8645C188.245 66.8645 181.257 66.8645 174.27 66.8645H172.118C172.118 67.0626 172.138 67.2608 172.178 67.4391C173.244 70.5695 175.375 72.4318 178.652 72.9668C181.415 73.4027 183.843 72.6498 186.014 70.9657C186.468 70.5893 186.883 70.193 187.278 69.7571L194.127 74.3933C194.068 74.5716 193.969 74.7301 193.87 74.9084C191.304 78.336 187.909 80.4163 183.705 81.1296C180.389 81.6843 177.093 81.5258 173.895 80.3965C168.644 78.5341 165.111 74.948 163.335 69.6383C163.236 69.3213 163.118 69.0043 163.019 68.6873C162.94 68.6873 162.901 68.6873 162.881 68.7071C162.861 68.7269 162.861 68.7665 162.861 68.7863C162.861 68.826 162.861 68.8458 162.861 68.8854C162.861 68.9448 162.861 69.0043 162.861 69.0835V79.921C162.861 79.9804 162.861 80.0399 162.861 80.1191C162.861 80.1587 162.861 80.1785 162.861 80.2182L162.841 80.3172C162.841 80.3569 162.841 80.3767 162.822 80.4163C162.802 80.4559 162.782 80.4757 162.762 80.5154C162.743 80.5352 162.723 80.555 162.703 80.555C162.684 80.5748 162.644 80.5748 162.605 80.5748L153.9 80.5946C153.781 80.5946 153.643 80.5946 153.525 80.5748C153.446 80.555 153.367 80.5154 153.288 80.4757C153.268 80.1984 153.249 79.9012 153.249 79.5842C153.249 77.9595 153.249 76.3547 153.249 74.7301C153.249 74.4131 153.209 74.1159 153.209 73.7989C152.814 73.7197 152.42 73.7197 152.025 73.7593C151.926 74.0367 151.847 74.2744 151.768 74.5122C150.683 77.9595 148.393 80.1785 144.879 81.0305C141.781 81.8032 138.741 81.5852 135.82 80.1785C133.925 79.2474 132.267 77.9001 131.003 76.216C129.405 74.1555 128.398 71.8176 127.766 69.3015C127.687 69.0043 127.608 68.6873 127.51 68.3901C127.51 68.3703 127.451 68.3703 127.372 68.3504V80.4361C127.214 80.4955 127.056 80.5154 126.898 80.5352C123.996 80.5352 121.095 80.5352 118.173 80.5352C118.055 80.5352 117.956 80.5154 117.838 80.4757C117.798 80.2776 117.759 80.0597 117.759 79.8615C117.759 78.5935 117.759 77.3255 117.759 76.0575C117.759 71.1836 117.759 66.3098 117.759 61.4161C117.779 60.8217 117.739 60.2075 117.641 59.6131C117.088 56.9384 114.996 55.0562 111.897 55.1355C111.364 55.1553 110.831 55.2345 110.318 55.3732C108.127 55.928 106.528 57.8102 106.33 60.0688C106.291 60.5443 106.251 61.0198 106.251 61.4953C106.251 70.5893 106.251 79.6832 106.251 88.7772C106.251 89.114 106.271 89.4706 106.271 89.7678C106.607 90.065 106.923 89.966 107.238 89.966C109.449 89.966 111.66 89.966 113.871 89.966H114.838C115.134 90.2235 115.075 90.5009 115.075 90.7386C115.075 92.6803 115.075 94.6021 115.075 96.5437C115.035 96.8211 115.075 97.0985 115.193 97.356C115.351 97.1579 115.469 97.0192 115.568 96.8805C118.351 92.5218 122.378 90.1245 127.411 89.3518C130.234 88.9159 133.036 89.0546 135.741 89.9461C140.379 91.4717 143.656 94.5228 145.59 99.0401C145.728 99.3769 145.866 99.7336 146.005 100.07C146.241 100.09 146.222 99.9317 146.222 99.8326C146.241 99.5552 146.241 99.258 146.241 98.9807C146.241 96.3852 146.241 93.7898 146.241 91.1943C146.241 90.8575 146.261 90.5009 146.261 90.1245C146.459 90.065 146.656 90.0452 146.853 90.0254C149.636 90.0254 152.42 90.0254 155.183 90.0254C155.38 90.0452 155.558 90.065 155.755 90.0848C155.834 90.4613 155.854 90.8575 155.834 91.2538C155.834 97.2174 155.834 103.161 155.834 109.125C155.834 109.759 155.894 110.393 155.992 111.007C156.486 113.543 158.538 115.286 161.124 115.405C161.953 115.465 162.762 115.366 163.552 115.128C165.743 114.415 167.204 112.473 167.342 110.056C167.361 109.679 167.361 109.303 167.361 108.907V90.2433C167.677 89.9263 167.993 90.0254 168.309 90.0254C170.776 90.0254 173.244 90.0254 175.691 90.0254C176.066 90.0254 176.441 90.0452 176.856 90.0452C176.915 90.2433 176.935 90.4216 176.974 90.6198C176.994 90.8971 176.974 91.1943 176.974 91.4717V112.949C176.974 113.325 176.994 113.701 176.994 114.098C177.408 114.157 177.724 114.018 178.06 113.939L184.119 112.433C184.337 112.374 184.554 112.354 184.79 112.315C184.869 112.513 184.948 112.691 184.988 112.849C185.442 114.434 186.685 115.683 188.284 116.138C188.876 116.336 189.508 116.455 190.12 116.515C191.324 116.653 192.528 116.574 193.692 116.297C194.304 116.158 194.897 115.901 195.41 115.524C196.851 114.494 196.555 112.513 195.311 111.74C194.857 111.443 194.344 111.245 193.831 111.146C192.153 110.829 190.475 110.531 188.797 110.214C187.83 110.036 186.863 109.878 185.916 109.64C184.06 109.204 182.343 108.312 180.902 107.064C178.889 105.281 177.823 103.003 177.724 100.308C177.586 97.0985 178.849 94.5228 181.238 92.4623C183.014 90.9566 185.087 90.065 187.337 89.5697C190.534 88.8565 193.85 88.9753 196.989 89.8867C198.765 90.382 200.404 91.234 201.844 92.4029C203.502 93.7303 204.766 95.5135 205.476 97.5343C205.575 97.7919 205.693 98.0495 205.792 98.3269C205.792 98.3467 205.832 98.3665 205.911 98.4061C206.049 98.1684 206.207 97.9306 206.345 97.6929C208.931 93.1558 212.839 90.4613 217.951 89.4905C220.872 88.8961 223.892 89.0348 226.754 89.8669C232.597 91.6104 236.92 96.5635 237.847 102.606C237.966 103.359 238.025 104.112 238.045 104.865C238.084 106.41 238.064 107.976 238.064 109.521C238.064 109.699 238.045 109.897 238.025 110.056C237.709 110.274 237.374 110.175 237.077 110.175C234.275 110.175 231.452 110.175 228.649 110.175C224.011 110.175 219.372 110.175 214.734 110.175C214.398 110.175 214.043 110.115 213.668 110.254C213.707 110.452 213.747 110.63 213.786 110.809C214.793 113.761 216.806 115.584 219.846 116.198C222.609 116.772 225.116 116.099 227.366 114.454C227.879 114.038 228.373 113.583 228.847 113.127C229.518 113.444 235.064 117.208 235.755 117.822C235.637 118.001 235.538 118.179 235.4 118.338C232.814 121.745 229.399 123.786 225.175 124.46C221.543 125.034 218.01 124.737 214.576 123.35C211.082 121.963 208.161 119.407 206.325 116.119C206.207 115.92 206.088 115.742 205.99 115.544C205.97 115.524 205.93 115.524 205.851 115.485C205.772 115.722 205.693 115.96 205.654 116.198C205.18 118.318 203.976 120.22 202.259 121.547C200.7 122.795 198.923 123.568 196.989 124.044C194.6 124.638 192.113 124.856 189.666 124.678C187.968 124.598 186.271 124.261 184.672 123.707C181.435 122.558 178.928 120.576 177.369 117.466C177.31 117.367 177.25 117.268 177.171 117.169C176.895 117.248 176.974 117.486 176.974 117.644C176.974 119.388 176.974 121.131 176.974 122.875C176.974 123.192 177.014 123.509 176.895 123.786C176.185 123.905 168.763 123.944 167.519 123.826C167.302 123.627 167.381 123.35 167.361 123.112C167.361 121.428 167.361 119.764 167.361 118.08C167.361 117.763 167.342 117.466 167.322 117.089C166.927 116.97 166.493 116.97 166.098 117.07C166 117.387 165.901 117.684 165.802 117.981C164.835 120.616 163.197 122.657 160.631 123.885C159.525 124.42 158.302 124.697 157.078 124.737C155.558 124.796 154.038 124.559 152.617 124.024C150.485 123.231 148.748 121.666 147.702 119.645C146.913 118.199 146.459 116.594 146.34 114.93C146.261 113.741 146.281 112.532 146.241 111.324C146.281 110.987 146.281 110.65 146.261 110.214ZM62.906 106.965C62.8863 106.589 62.8863 106.192 62.8468 105.836C62.4915 102.884 61.1296 100.566 58.5439 99.0599C56.8661 98.0891 54.8923 97.7127 52.9776 98.0099C49.78 98.4655 47.4904 100.169 46.2074 103.121C45.2007 105.42 45.1612 107.797 45.9508 110.175C46.8587 112.929 48.7339 114.712 51.4973 115.564C52.6816 115.92 53.9251 116.039 55.1489 115.901C58.3465 115.544 60.6953 113.959 62.077 111.027C62.6494 109.739 62.9258 108.352 62.906 106.965ZM78.8744 72.6101C79.1507 72.5903 79.4468 72.5903 79.7231 72.5705C83.0984 72.3724 86.0197 70.1534 87.1053 66.9438C87.5593 65.6559 87.7369 64.2889 87.6185 62.9218C87.4606 60.7622 86.75 58.8404 85.2499 57.2554C83.1971 55.1355 80.6706 54.2637 77.769 54.66C74.1372 55.1553 71.7291 57.196 70.604 60.7028C69.9724 62.6841 69.9921 64.804 70.6632 66.7853C71.512 69.3807 73.2489 71.1638 75.8149 72.095C76.8018 72.4516 77.8282 72.63 78.8744 72.6101ZM18.7908 115.98C22.1858 115.841 24.7123 114.355 26.1927 111.324C27.5941 108.451 27.5941 105.479 26.2124 102.606C24.7123 99.4958 22.1266 97.891 18.6921 97.9306C15.3366 97.9702 12.8495 99.6543 11.3889 102.646C10.0072 105.44 10.0072 108.372 11.3691 111.165C12.8693 114.256 15.3958 115.841 18.7908 115.98ZM145.314 72.6101C147.445 72.63 149.518 71.7978 151.038 70.2921C152.518 68.8458 153.446 66.9041 153.643 64.8436C153.92 62.6642 153.564 60.6037 152.439 58.7215C150.821 56.0072 148.413 54.5609 145.235 54.5807C141.484 54.6203 138.82 56.879 137.675 59.7716C136.688 62.2086 136.668 64.9229 137.655 67.3796C138.879 70.5496 141.938 72.63 145.314 72.6101ZM114.581 115.128C114.423 114.732 114.324 114.474 114.226 114.217C112.884 110.769 112.528 107.025 113.18 103.399C113.456 101.814 113.93 100.249 114.601 98.7825C114.68 98.5844 114.857 98.4061 114.7 98.1684C113.989 98.0693 108.561 98.0099 106.765 98.0891C106.607 98.1089 106.469 98.1287 106.311 98.1684C106.173 98.5448 106.232 98.8816 106.232 99.2382C106.232 103.26 106.232 107.282 106.232 111.304C106.232 111.681 106.212 112.057 106.251 112.433C106.291 112.77 106.35 113.127 106.449 113.444C106.666 114.197 107.258 114.771 108.028 114.93C108.482 115.049 108.956 115.108 109.429 115.108C110.851 115.128 112.272 115.108 113.693 115.108L114.581 115.128ZM197.818 101.18C197.68 101.041 197.64 101.021 197.64 101.002C197.601 100.883 197.561 100.764 197.522 100.645C197.068 99.3373 196.12 98.2872 194.877 97.673C194.008 97.2372 193.041 96.9796 192.054 96.94C190.988 96.8607 189.903 97.039 188.916 97.4551C188.363 97.6928 187.87 98.0693 187.554 98.5844C186.902 99.6345 187.12 100.823 188.166 101.477C188.6 101.735 189.054 101.933 189.547 102.052C190.495 102.27 191.462 102.428 192.429 102.606C194.048 102.904 195.647 103.181 197.265 103.538C199.772 104.092 202.042 105.162 203.779 107.124C203.838 107.183 203.917 107.203 203.996 107.223C204.193 107.025 204.114 106.787 204.114 106.569C204.154 105.875 204.154 105.182 204.253 104.489C204.43 102.844 204.825 101.239 205.437 99.7137C205.496 99.5552 205.634 99.3769 205.417 99.159L197.818 101.18ZM122.694 102.567C122.97 102.587 123.128 102.606 123.286 102.606C127.983 102.606 132.661 102.606 137.359 102.587C137.399 102.587 137.418 102.567 137.438 102.547C137.458 102.527 137.478 102.507 137.537 102.468C137.557 101.834 137.3 101.239 137.004 100.685C136.214 99.1986 134.912 98.0495 133.313 97.4551C130.806 96.5041 128.358 96.7419 126.049 98.1089C124.391 99.1194 123.365 100.645 122.694 102.567ZM228.807 102.507C228.787 102.27 228.748 102.032 228.708 101.794C228.353 100.566 227.623 99.476 226.636 98.6835C224.563 96.9796 222.175 96.5635 219.609 97.1579C216.944 97.7919 215.188 99.4958 214.161 101.992C214.102 102.17 214.062 102.349 214.043 102.527C214.951 102.666 227.998 102.646 228.807 102.507ZM187.12 59.2169C187.218 58.7215 187.041 58.3055 186.863 57.9092C186.31 56.5818 185.343 55.4723 184.119 54.7392C180.586 52.5004 174.349 53.3523 172.415 58.9791C172.395 59.0584 172.434 59.1574 172.454 59.2961C177.231 59.2961 182.007 59.2961 186.764 59.2961C186.883 59.2763 187.001 59.2565 187.12 59.2169Z" fill="white"/>
<path d="M40.5821 80.5551C37.4634 80.5551 34.4237 80.5551 31.4038 80.5551C31.2656 80.5353 31.1274 80.4957 30.9893 80.4561C33.1407 65.24 35.2725 50.0438 37.424 34.8476C37.7003 34.8277 37.8977 34.7683 38.1148 34.7683C40.8387 34.7683 43.5429 34.7683 46.247 34.7683C46.4641 34.7683 46.6813 34.8079 46.9379 34.8277C46.9576 34.9862 46.9576 35.1646 46.9379 35.3231C44.8259 50.3608 42.7139 65.3985 40.5821 80.5551Z" fill="white"/>
<path d="M50.7081 57.216C50.6094 56.899 50.5305 56.582 50.4712 56.265C50.2541 54.7593 50.0567 53.2535 49.8593 51.7478C49.6422 50.1826 49.4054 48.6174 49.1882 47.0522C48.9711 45.5266 48.7737 43.9812 48.5566 42.4557C48.3395 40.8707 48.1026 39.2658 47.8855 37.661C47.8066 37.1063 47.7079 36.5317 47.6289 35.977C47.5894 35.6996 47.55 35.4024 47.7473 35.0854C47.9052 35.026 48.0632 34.9863 48.2408 34.9863C50.8857 34.9863 53.5307 34.9863 56.1954 34.9863C56.3138 34.9863 56.4322 35.026 56.5309 35.0458C56.8073 35.3033 56.827 35.6401 56.8665 35.9373C57.0836 37.4035 57.281 38.8696 57.4784 40.3555C57.6955 41.9802 57.9323 43.6048 58.1495 45.2294C58.3666 46.755 58.5837 48.3004 58.8008 49.8259C59.018 51.4109 59.2548 53.0158 59.4917 54.6206C59.5904 55.2744 59.6891 55.9282 59.7483 56.6018C59.7878 57.0971 59.6496 57.2358 59.1759 57.2755C59.0574 57.2953 58.9193 57.2755 58.8008 57.2755C56.4125 57.2755 54.0044 57.2755 51.6161 57.2755C51.3002 57.2953 51.0239 57.2358 50.7081 57.216Z" fill="#00EB1E"/>
<path d="M539.094 98.1329H512.443V94.1641C512.444 90.6148 511.331 87.1544 509.258 84.2704C507.186 81.3863 504.26 79.2238 500.892 78.0876C497.523 76.9514 493.883 76.8986 490.483 77.9368C487.083 78.975 484.095 81.0518 481.94 83.8746C481.94 69.2997 481.94 42.5923 481.94 42.5923H468.473V43.3838L467.906 43.6212L444.913 52.2712L418.918 42.6262V51.7284C416.248 50.3771 413.276 49.7307 410.285 49.8507C407.294 49.9708 404.384 50.8533 401.831 52.4142C399.279 53.9751 397.169 56.1625 395.703 58.7679C394.237 61.3733 393.463 64.31 393.456 67.2984V83.6824C391.905 81.9837 390.005 80.6384 387.886 79.7381C385.768 78.8377 383.479 78.4033 381.178 78.4644C378.876 78.5256 376.614 79.0808 374.546 80.0924C372.478 81.104 370.653 82.5482 369.194 84.3269V56.4096H355.908V95.4531C355.908 102.051 358.534 108.378 363.207 113.043C367.88 117.708 374.218 120.329 380.827 120.329H380.929H383.194V118.067V110.424C387.108 110.004 390.734 108.17 393.388 105.268V123.563H407.173V84.44C411.081 85.3081 415.169 84.8174 418.76 83.0492C418.373 84.9089 418.18 86.8034 418.182 88.7027C418.197 94.3062 419.95 99.7676 423.199 104.337C426.447 108.906 431.034 112.36 436.327 114.223L418.896 120.838V134.858L445.015 125.033C446.533 125.598 470.783 134.395 470.783 134.395V120.363L454.031 114.313C460.541 112.108 465.972 107.522 469.231 101.48C470.639 107.158 473.91 112.203 478.522 115.811C483.134 119.419 488.823 121.384 494.682 121.392H511.74V111.136H539.106L539.094 98.1329ZM410.99 71.2445C410.216 71.2445 409.46 71.0155 408.818 70.5863C408.175 70.1572 407.674 69.5473 407.378 68.8338C407.083 68.1203 407.006 67.3354 407.158 66.5784C407.31 65.8214 407.683 65.1263 408.231 64.5812C408.778 64.0361 409.476 63.6654 410.234 63.5162C410.993 63.367 411.779 63.4458 412.493 63.7428C413.207 64.0398 413.816 64.5416 414.244 65.1846C414.672 65.8276 414.9 66.5829 414.897 67.3549C414.897 67.8666 414.796 68.3734 414.6 68.846C414.403 69.3187 414.115 69.748 413.752 70.1093C413.389 70.4706 412.958 70.7569 412.484 70.9517C412.01 71.1465 411.502 71.246 410.99 71.2445ZM426.677 59.5191L436.327 63.0695C433.516 64.0684 430.888 65.5199 428.546 67.3662C428.548 64.6404 427.908 61.9524 426.677 59.5191ZM454.994 98.2573C452.769 100.475 449.844 101.854 446.715 102.161C443.586 102.467 440.448 101.681 437.834 99.9367C435.221 98.1924 433.294 95.5977 432.382 92.5944C431.469 89.5911 431.628 86.365 432.831 83.4654C434.034 80.5659 436.206 78.1723 438.978 76.6921C441.751 75.212 444.951 74.737 448.035 75.3479C451.118 75.9588 453.894 77.6179 455.89 80.0427C457.886 82.4674 458.978 85.5079 458.981 88.6462C458.979 90.4329 458.624 92.2016 457.936 93.8509C457.248 95.5003 456.24 96.9977 454.971 98.2573H454.994ZM454.065 62.9677L468.495 57.6081V74.4897C465.169 69.0858 460.057 65.0107 454.042 62.9677H454.065Z" fill="#1D1D1B"/>
<path d="M495.282 100.439C494.27 100.416 493.278 100.147 492.392 99.6566C491.507 99.1663 490.753 98.4688 490.197 97.624H510.143V94.2319C510.143 91.3299 509.282 88.493 507.67 86.0785C506.057 83.6639 503.765 81.7799 501.082 80.6638C498.398 79.5477 495.444 79.2494 492.591 79.8066C489.738 80.3638 487.115 81.7514 485.05 83.7947C482.986 85.838 481.574 88.4456 480.992 91.2887C480.41 94.1318 480.684 97.0834 481.779 99.7714C482.874 102.459 484.742 104.764 487.147 106.394C489.552 108.024 492.387 108.907 495.294 108.931H536.795V100.439H495.282ZM495.407 87.7868C497.412 87.7868 499.371 88.5557 501.07 91.4051H489.823C490.307 90.3298 491.091 89.4165 492.081 88.7747C493.071 88.133 494.226 87.79 495.407 87.7868ZM381.608 80.7651C379.054 80.7654 376.551 81.4763 374.38 82.818C372.208 84.1596 370.454 86.0789 369.315 88.3604C368.175 90.6419 367.695 93.1953 367.928 95.734C368.162 98.2727 369.099 100.696 370.636 102.733C372.172 104.769 374.247 106.337 376.627 107.262C379.007 108.187 381.598 108.431 384.109 107.967C386.62 107.504 388.952 106.351 390.843 104.637C392.734 102.924 394.11 100.719 394.815 98.2685H386.116C385.468 99.0415 384.632 99.6352 383.687 99.9925C382.743 100.35 381.723 100.459 380.724 100.309C379.725 100.159 378.782 99.7553 377.985 99.1366C377.188 98.518 376.563 97.7051 376.171 96.776H395.155C395.28 96.0286 395.345 95.2723 395.347 94.5145C395.352 92.7105 395 90.9234 394.311 89.2554C393.623 87.5874 392.611 86.0715 391.335 84.7943C390.059 83.517 388.543 82.5037 386.874 81.8123C385.205 81.121 383.415 80.7651 381.608 80.7651ZM376.704 91.2015C377.242 90.3969 377.97 89.7373 378.825 89.2811C379.679 88.8248 380.633 88.5861 381.602 88.5861C382.572 88.5861 383.526 88.8248 384.38 89.2811C385.235 89.7373 385.963 90.3969 386.501 91.2015H376.704ZM426.224 67.3548C426.116 63.3947 424.464 59.633 421.62 56.8701C418.775 54.1073 414.964 52.5614 410.995 52.5614C407.027 52.5614 403.215 54.1073 400.371 56.8701C397.527 59.633 395.875 63.3947 395.766 67.3548V121.267H404.828V81.2739C407.147 82.3043 409.688 82.7388 412.219 82.5377C414.75 82.3365 417.19 81.5063 419.317 80.1225C421.444 78.7388 423.191 76.8455 424.397 74.6154C425.603 72.3853 426.231 69.8893 426.224 67.3548ZM410.989 73.5511C409.759 73.5511 408.556 73.1868 407.534 72.5042C406.511 71.8216 405.714 70.8514 405.243 69.7164C404.773 68.5815 404.651 67.3328 404.891 66.1283C405.132 64.9238 405.726 63.8178 406.596 62.9501C407.467 62.0824 408.576 61.492 409.783 61.2538C410.99 61.0156 412.241 61.1401 413.377 61.6117C414.513 62.0833 415.483 62.8807 416.165 63.903C416.847 64.9253 417.21 66.1266 417.208 67.3548C417.208 68.1695 417.047 68.9761 416.734 69.7287C416.422 70.4812 415.963 71.1647 415.386 71.7403C414.808 72.3158 414.123 72.772 413.368 73.0827C412.614 73.3934 411.806 73.5526 410.989 73.5511ZM494.682 110.265C490.701 110.265 486.882 108.687 484.066 105.878C481.25 103.069 479.666 99.2579 479.663 95.2834C479.663 95.2834 479.663 95.2043 479.663 95.1704V44.9441H470.851V95.1251C470.845 95.1626 470.845 95.2008 470.851 95.2382C470.851 101.566 473.369 107.634 477.851 112.108C482.333 116.583 488.412 119.096 494.75 119.096H509.475V110.265H494.682ZM366.895 95.453C366.895 95.34 366.895 58.7162 366.895 58.7162H358.241V95.453C358.256 101.429 360.64 107.156 364.872 111.383C369.104 115.61 374.84 117.993 380.827 118.011H380.895V109.372H380.827C377.132 109.366 373.59 107.897 370.978 105.288C368.366 102.679 366.898 99.1417 366.895 95.453ZM445.049 63.7931L468.404 54.9509V45.9052L444.913 54.7361L421.217 45.9504V55.064L445.049 63.7931ZM421.206 122.432V131.478L444.992 122.511L468.45 131.014V121.968L444.856 113.465L421.206 122.432ZM445.389 63.8383C440.473 63.8361 435.667 65.2891 431.579 68.0137C427.491 70.7382 424.304 74.6119 422.421 79.1448C420.539 83.6776 420.045 88.666 421.003 93.479C421.96 98.292 424.326 102.713 427.801 106.184C431.276 109.654 435.704 112.018 440.525 112.976C445.346 113.935 450.343 113.444 454.885 111.567C459.426 109.689 463.308 106.51 466.039 102.43C468.77 98.3499 470.228 93.5532 470.228 88.6461C470.229 85.3889 469.588 82.1632 468.34 79.1534C467.093 76.1437 465.263 73.4088 462.957 71.105C460.65 68.8013 457.911 66.9738 454.897 65.7269C451.882 64.4801 448.651 63.8383 445.389 63.8383ZM445.389 104.544C442.233 104.56 439.143 103.64 436.512 101.901C433.881 100.162 431.826 97.6817 430.607 94.7754C429.389 91.8692 429.063 88.6673 429.67 85.5758C430.277 82.4842 431.79 79.6421 434.016 77.4097C436.243 75.1772 439.084 73.6551 442.178 73.036C445.272 72.417 448.481 72.729 451.397 73.9325C454.314 75.136 456.807 77.1768 458.56 79.7962C460.313 82.4157 461.248 85.4958 461.246 88.6461C461.243 92.8499 459.573 96.8816 456.602 99.8604C453.631 102.839 449.599 104.523 445.389 104.544Z" fill="white"/>
</svg>
