<svg id="Calque_2" data-name="Calque 2" xmlns="http://www.w3.org/2000/svg" viewBox="0 0 1000 1000"><circle cx="482.73" cy="425.22" r="117.22"/><path d="M273.55,852l54.09-161.25A168.09,168.09,0,0,1,487,576.11h0A168.1,168.1,0,0,1,643.94,684l63.51,165.44Z"/><circle cx="738.76" cy="412.51" r="98.19"/><path d="M563.55,770l45.31-135.07a140.8,140.8,0,0,1,133.49-96h0A140.8,140.8,0,0,1,873.8,629.25L927,767.83Z"/><circle cx="232.76" cy="412.51" r="98.19"/><path d="M57.55,770l45.31-135.07a140.8,140.8,0,0,1,133.49-96h0A140.8,140.8,0,0,1,367.8,629.25L421,767.83Z"/></svg>