<svg id="Calque_2" data-name="Calque 2" xmlns="http://www.w3.org/2000/svg" viewBox="0 0 1000 1000"><path d="M118,293.63H327.71A66.34,66.34,0,0,1,394.05,360V569.68a0,0,0,0,1,0,0H184.34A66.34,66.34,0,0,1,118,503.34V293.63A0,0,0,0,1,118,293.63Z"/><path d="M508.78,142H662.33a0,0,0,0,1,0,0V295.55a44.74,44.74,0,0,1-44.74,44.74H464a0,0,0,0,1,0,0V186.74A44.74,44.74,0,0,1,508.78,142Z"/><path d="M621.27,451.1c-110.46,0-200,89.55-200,200V856.33L697.75,583.39l55.5,56.22L477.49,911.83H682c110.46,0,200-89.54,200-200V451.1Z"/></svg>