<svg width="127" height="52" viewBox="0 0 127 52" fill="none" xmlns="http://www.w3.org/2000/svg">
    <g clip-path="url(#clip0_65_396)">
        <path
            d="M8.54127 0H10.7108L18.9552 19.1259H16.2604L14.2963 14.4232H4.6132L2.60349 19.1259H0L8.54127 0ZM9.5918 2.92514H9.54612L5.5267 12.3306H13.4514L9.61464 2.92514H9.5918Z"
            fill="white" />
        <path
            d="M36.0834 11.8356C36.0834 12.8706 35.9464 13.8607 35.6952 14.8057C35.444 15.7508 35.0101 16.5608 34.4391 17.2808C33.8682 18.0009 33.1145 18.5634 32.1782 18.9909C31.2418 19.4184 30.1228 19.6209 28.7754 19.6209C27.428 19.6209 26.3089 19.4184 25.3726 18.9909C24.4362 18.5634 23.6826 18.0009 23.1117 17.2808C22.5407 16.5608 22.1068 15.7508 21.8556 14.8057C21.5815 13.8607 21.4673 12.8706 21.4673 11.8356V0H23.7739V11.4981C23.7739 12.2631 23.8653 13.0281 24.0252 13.7482C24.185 14.4682 24.4591 15.0982 24.8473 15.6608C25.2356 16.2233 25.738 16.6733 26.3774 16.9883C27.0169 17.3258 27.8162 17.4833 28.7982 17.4833C29.7802 17.4833 30.5796 17.3258 31.219 16.9883C31.8585 16.6508 32.3609 16.2008 32.7491 15.6608C33.1374 15.0982 33.4114 14.4682 33.5713 13.7482C33.7311 13.0281 33.8225 12.2856 33.8225 11.4981V0H36.1291V11.8356H36.0834Z"
            fill="white" />
        <path d="M48.4614 0H60.4969V2.1151H50.768V8.43791H59.8117V10.553H50.768V19.1484H48.4614V0Z" fill="white" />
        <path d="M63.6941 0H66.0007V19.1259H63.6941V0Z" fill="white" />
        <path d="M70.8195 0H73.1261V17.0108H82.0099V19.1259H70.8195V0Z" fill="white" />
        <path
            d="M91.7844 0H99.2295C99.8689 0 100.554 0.0675032 101.262 0.225011C101.97 0.360017 102.678 0.607529 103.386 0.922544C104.094 1.23756 104.756 1.64258 105.418 2.1601C106.058 2.65513 106.629 3.26266 107.131 3.98269C107.634 4.70273 108.022 5.51276 108.319 6.43531C108.616 7.35785 108.753 8.4154 108.753 9.58546C108.753 10.7555 108.616 11.8131 108.319 12.7356C108.022 13.6582 107.634 14.4907 107.131 15.1882C106.629 15.9083 106.058 16.5158 105.418 17.0108C104.779 17.5058 104.094 17.9334 103.386 18.2484C102.678 18.5634 101.97 18.7884 101.262 18.9459C100.554 19.0809 99.8689 19.1709 99.2295 19.1709H91.7844V0ZM94.091 17.0108H98.4758C99.5949 17.0108 100.623 16.8758 101.582 16.5833C102.541 16.2908 103.363 15.8408 104.048 15.2557C104.733 14.6482 105.281 13.8832 105.693 12.9381C106.104 11.9931 106.286 10.868 106.286 9.56296C106.286 8.2579 106.081 7.13284 105.693 6.1878C105.304 5.24275 104.733 4.47772 104.048 3.87019C103.363 3.26266 102.541 2.81263 101.582 2.54262C100.623 2.25011 99.5949 2.1151 98.4758 2.1151H94.091V17.0108Z"
            fill="white" />
        <path
            d="M127 11.8356C127 12.8706 126.863 13.8607 126.612 14.8057C126.361 15.7508 125.927 16.5608 125.356 17.2808C124.785 18.0009 124.031 18.5634 123.095 18.9909C122.158 19.4184 121.039 19.6209 119.692 19.6209C118.345 19.6209 117.225 19.4184 116.289 18.9909C115.353 18.5634 114.599 18.0009 114.028 17.2808C113.457 16.5608 113.023 15.7508 112.772 14.8057C112.498 13.8607 112.384 12.8706 112.384 11.8356V0H114.691V11.4981C114.691 12.2631 114.782 13.0281 114.942 13.7482C115.102 14.4682 115.376 15.0982 115.764 15.6608C116.152 16.2233 116.655 16.6733 117.294 16.9883C117.933 17.3258 118.733 17.4833 119.715 17.4833C120.697 17.4833 121.496 17.3258 122.136 16.9883C122.775 16.6508 123.277 16.2008 123.666 15.6608C124.054 15.0982 124.328 14.4682 124.488 13.7482C124.648 13.0281 124.739 12.2856 124.739 11.4981V0H127.046V11.8356H127Z"
            fill="white" />
        <path
            d="M12.8576 37.0818C12.5607 36.6543 12.1268 36.3392 11.5787 36.1142C11.0077 35.9117 10.4596 35.7992 9.93436 35.7992C9.61464 35.7992 9.29491 35.8442 8.95235 35.9117C8.60978 35.9792 8.29006 36.0917 7.97033 36.2492C7.67344 36.4068 7.39939 36.6093 7.19385 36.8568C6.96547 37.1043 6.82845 37.4193 6.78277 37.7793C6.7371 38.2068 6.80561 38.5669 7.01115 38.8369C7.21669 39.1069 7.51358 39.3544 7.92465 39.5344C8.33573 39.7144 8.76965 39.8944 9.29491 40.0294C9.82018 40.1644 10.3454 40.3444 10.8707 40.5245C11.396 40.7045 11.9212 40.9295 12.4237 41.177C12.9261 41.4245 13.36 41.7395 13.7254 42.1445C14.0908 42.5495 14.3649 43.0221 14.5247 43.6071C14.7074 44.1921 14.7303 44.8897 14.5932 45.7222C14.4562 46.7797 14.1136 47.7023 13.5884 48.5123C13.0631 49.2999 12.4237 49.9524 11.67 50.4924C10.9164 51.0325 10.0714 51.3925 9.11221 51.6625C8.17587 51.91 7.19385 52.045 6.18899 52.045C4.93293 52.045 3.79104 51.865 2.76335 51.4825C1.73566 51.1 0.822154 50.4924 0 49.6374L3.53983 46.3522C3.90523 46.9373 4.38482 47.3648 5.00144 47.6798C5.61805 47.9948 6.28034 48.1523 6.98831 48.1523C7.33087 48.1523 7.69628 48.1073 8.06168 48.0398C8.42708 47.9498 8.76964 47.8373 9.06653 47.6798C9.38626 47.5223 9.63747 47.3198 9.84301 47.0498C10.0486 46.7797 10.1856 46.5097 10.2313 46.1497C10.3226 45.5647 10.1627 45.1147 9.75166 44.7772C9.34059 44.4396 8.81532 44.1696 8.17587 43.9221C7.53641 43.6971 6.85129 43.4496 6.09764 43.2246C5.344 42.9996 4.65887 42.6846 4.04226 42.2795C3.42564 41.8745 2.92321 41.357 2.58065 40.7045C2.21525 40.0519 2.1239 39.1969 2.26092 38.1393C2.39795 37.1043 2.74051 36.2042 3.26578 35.4392C3.79104 34.6742 4.4305 34.0216 5.20698 33.5041C5.98346 32.9866 6.82845 32.5816 7.76479 32.3341C8.70113 32.064 9.63747 31.9515 10.5967 31.9515C11.6929 31.9515 12.7206 32.109 13.7026 32.4016C14.6846 32.7166 15.5296 33.2116 16.2375 33.9316L12.8576 37.0818Z"
            fill="#D61E00" />
        <path
            d="M30.2827 32.4016H37.4994C38.5042 32.4016 39.4406 32.4916 40.3084 32.6716C41.1762 32.8516 41.907 33.1666 42.5236 33.5941C43.1174 34.0441 43.5742 34.6292 43.8711 35.3717C44.1679 36.1142 44.2365 37.0593 44.0538 38.1843C43.8939 39.3094 43.5742 40.2319 43.0946 40.997C42.615 41.762 42.0212 42.347 41.3361 42.7971C40.6281 43.2471 39.8288 43.5621 38.9153 43.7646C38.0018 43.9671 37.0426 44.0571 36.0149 44.0571H32.8862L31.8356 51.505H27.565L30.2827 32.3791V32.4016ZM38.6184 36.3392C38.2758 36.1817 37.8876 36.0692 37.4765 36.0242C37.0426 35.9792 36.6315 35.9567 36.2205 35.9567H34.028L33.3886 40.5019H36.2433C36.6315 40.5019 36.9969 40.4569 37.3623 40.3894C37.7277 40.3219 38.0703 40.1869 38.3672 40.0294C38.6869 39.8494 38.9381 39.6244 39.1665 39.3319C39.3949 39.0394 39.5319 38.6569 39.5776 38.2068"
            fill="#D61E00" />
        <path
            d="M53.1203 41.9645C53.3487 40.4344 53.8054 39.0394 54.5134 37.8018C55.2214 36.5642 56.0892 35.5067 57.1397 34.6291C58.1902 33.7516 59.4006 33.0766 60.7481 32.6266C62.0955 32.154 63.5343 31.929 65.0415 31.929C66.5488 31.929 67.9191 32.154 69.1295 32.6266C70.3399 33.0991 71.3447 33.7741 72.144 34.6291C72.9434 35.5067 73.5143 36.5642 73.8797 37.8018C74.2223 39.0394 74.2908 40.4344 74.0624 41.9645C73.834 43.4946 73.3773 44.8896 72.6921 46.1272C72.007 47.3648 71.1163 48.4223 70.0658 49.2999C69.0153 50.1774 67.8049 50.8524 66.4575 51.3024C65.11 51.775 63.6941 52 62.164 52C60.6339 52 59.2865 51.775 58.0761 51.3024C56.8657 50.8299 55.8608 50.1549 55.0387 49.2999C54.2393 48.4223 53.6684 47.3648 53.303 46.1272C52.9604 44.8896 52.8919 43.4946 53.1203 41.9645Z"
            fill="#D61E00" />
        <path
            d="M85.6411 32.4016H93.1546C94.1367 32.4016 95.073 32.4916 95.918 32.6941C96.763 32.8966 97.5166 33.1891 98.1104 33.6391C98.7042 34.0891 99.1609 34.6742 99.4578 35.4167C99.7547 36.1592 99.8232 37.1043 99.6405 38.2068C99.435 39.5569 98.9097 40.7045 98.0876 41.6495C97.2426 42.5945 96.1235 43.2021 94.7076 43.4496L98.4986 51.5275H93.383L90.3913 43.8771H88.2902L87.2169 51.5275H82.9462L85.6639 32.4016H85.6411ZM88.7927 40.3219H91.3048C91.693 40.3219 92.1041 40.3219 92.5152 40.2769C92.9491 40.2544 93.3373 40.1644 93.7027 40.0294C94.0681 39.8944 94.3879 39.6919 94.6619 39.3994C94.936 39.1069 95.1187 38.7019 95.1872 38.1843C95.2557 37.6893 95.21 37.3068 95.0502 37.0143C94.8903 36.7218 94.6619 36.4967 94.365 36.3617C94.0681 36.2267 93.7256 36.1142 93.3373 36.0467C92.9491 36.0017 92.5609 35.9567 92.1726 35.9567H89.3864L88.7927 40.2994V40.3219Z"
            fill="#D61E00" />
        <path
            d="M116.655 36.1367H111.128L111.653 32.4016H127L126.475 36.1367H120.948L118.756 51.5275H114.485L116.677 36.1367H116.655Z"
            fill="#D61E00" />
    </g>
    <defs>
        <clipPath id="clip0_65_396">
            <rect width="127" height="52" fill="white" />
        </clipPath>
    </defs>
</svg>