<?xml version="1.0" encoding="UTF-8"?>
<svg id="Calque_1" data-name="Calque 1" xmlns="http://www.w3.org/2000/svg" viewBox="0 0 200 200">
  <path d="M160.09,77.34c0,14.28-28.54,19.75-28.54,19.75,0,0,8.51-8.58,8.51-30.23C140.06,38.78,87.48-.72,87.48-.72c0,45.45-71.1,94-71.1,140.41,0,37.36,37.55,59.5,81.11,59.5,35.55,0,86.14-29.99,86.14-67.59,0-35.46-23.53-54.26-23.53-54.26ZM97.48,192.76c-36.3,0-47.56-21.42-47.56-35.46,0-35.54,42.03-40.14,42.03-79.96,46.33,44.04,33.7,52.83,33.7,52.83,0,0,10.06,1.59,10.06-8.88,5.9,5.61,12.73,12.69,12.73,33.99,0,16.94-19.4,37.48-50.96,37.48Z"/>
</svg>