<?xml version="1.0" encoding="UTF-8"?>
<svg id="Calque_1" data-name="Calque 1" xmlns="http://www.w3.org/2000/svg" viewBox="0 0 200 200">
  <circle cx="100.47" cy="107.04" r="22.44"/>
  <path d="M50.92,192.04c-.52.89-1.67,1.2-2.56.67-14.23-8.59-26.15-20.63-34.59-34.96C5.31,143.39.33,126.72,0,108.91c-.02-1.03.82-1.87,1.86-1.87h54.66c.98,0,1.81.76,1.85,1.74.29,7.06,2.34,13.66,5.71,19.38s8.03,10.52,13.59,14.06c.83.53,1.08,1.62.59,2.47l-27.33,47.34Z"/>
  <path d="M198.14,107.04c1.03,0,1.87.84,1.86,1.87-.32,17.52-5.15,33.94-13.37,48.14-8.47,14.64-20.54,26.93-35,35.66-.88.53-2.04.22-2.56-.67l-27.33-47.34c-.49-.85-.24-1.95.59-2.47,5.66-3.6,10.4-8.53,13.76-14.35,3.27-5.66,5.26-12.16,5.54-19.09.04-.98.87-1.75,1.85-1.75h54.66Z"/>
  <path d="M78.25,69.37c.49.85,1.57,1.18,2.44.72,5.77-3.02,12.34-4.73,19.31-4.73s13.53,1.71,19.31,4.73c.87.46,1.95.13,2.44-.72l27.33-47.34c.52-.89.21-2.05-.69-2.55-14.34-7.94-30.83-12.46-48.39-12.46s-34.05,4.52-48.39,12.46c-.9.5-1.21,1.65-.69,2.55l27.33,47.34Z"/>
</svg>