<?xml version="1.0" encoding="UTF-8"?>
<svg id="Calque_1" data-name="Calque 1" xmlns="http://www.w3.org/2000/svg" viewBox="0 0 137.38 200">
  <defs>
    <style>
      .cls-1 {
        fill: #1d1d1b;
      }
    </style>
  </defs>
  <path class="cls-1" d="M137.38,117.74C136.58,70.59,72.9,10.38,62.13.53c-.84-.77-2.15-.69-2.89.18C50.29,11.17,0,71.76,0,111.79c-.03,66.82,50.48,67.56,66.3,58.32,2.63,11.61,8.8,22.24,14.38,29.15.72.89,2.03,1,2.89.25l1.52-1.32c.82-.71.93-1.93.25-2.78-5.01-6.21-10.53-15.68-13-26,25.53,5.78,65.03-5.25,65.03-51.67ZM31.37,148.32c-.48.32-1.23-.08-.95-.51l20.63-31.65c.19-.29-.1-.63-.54-.63h-26.73c-.86,0-1.44-.63-1.12-1.21l28.83-52.35c.18-.33.63-.54,1.12-.54h56.13c1.06,0,1.6.93.87,1.48l-42.69,32.37c-.37.27-.1.75.43.75h39.42c1.1,0,1.62.99.81,1.52l-76.21,50.77Z"/>
</svg>