<?xml version="1.0" encoding="UTF-8"?>
<svg id="Calque_1" xmlns="http://www.w3.org/2000/svg" version="1.1" viewBox="0 0 352 190">
  <!-- Generator: Adobe Illustrator 29.1.0, SVG Export Plug-In . SVG Version: 2.1.0 Build 142)  -->
  <defs>
    <style>
      .st0, .st1, .st2, .st3, .st4, .st5, .st6, .st7, .st8 {
        fill: none;
      }

      .st1, .st2, .st3, .st4, .st5, .st9, .st10, .st6, .st7, .st8, .st11, .st12, .st13 {
        stroke-miterlimit: 10;
      }

      .st1, .st2, .st9, .st10, .st6, .st13 {
        stroke-width: .1px;
      }

      .st1, .st5, .st9, .st7, .st11 {
        stroke: #1d1d1b;
      }

      .st2, .st10, .st6, .st8, .st12, .st13 {
        stroke: #000;
      }

      .st3 {
        stroke: #f5e8f0;
        stroke-width: 1.5px;
      }

      .st3, .st5, .st6 {
        stroke-linecap: round;
      }

      .st4 {
        stroke: #991756;
      }

      .st4, .st7, .st11 {
        stroke-width: .2px;
      }

      .st5 {
        stroke-width: .3px;
      }

      .st9, .st14, .st11 {
        fill: #fff;
      }

      .st15 {
        fill: #1d1d1b;
      }

      .st16, .st12, .st13 {
        fill: #f5e8f0;
      }

      .st10, .st17 {
        fill: #991756;
      }

      .st8 {
        stroke-width: .8px;
      }

      .st12 {
        stroke-width: 0px;
      }
    </style>
  </defs>
  <path class="st16" d="M196.1,150.2l-55.1,31.8c-2.5,1.4-4.9,1.4-7.4,0l-25.8-14.9c-2.4-1.4-2.4-2.8,0-4.2l6.8-3.9v7.9l22.6,13.1,10-5.8v-13.9l12,6.9,10-5.8v-9.6l8.3,4.8,12.6-7.2v-6.7l5.8,3.4c2.5,1.4,2.5,2.8,0,4.2h.2,0Z"/>
  <path class="st3" d="M206.5,141.6l125.1-72"/>
  <path class="st17" d="M177.7,32.9l12.4-7.1v26l-12.4,7.1v-26Z"/>
  <path d="M190.1,25.9v25.8l-12.3,7.1v-25.8l12.3-7.1M190.2,25.6l-12.6,7.2v26.1l12.6-7.2v-26.1Z"/>
  <path class="st16" d="M162.6,50.2v-25.9l15,8.6v25.9l-15-8.7h0Z"/>
  <path d="M162.7,24.4l14.8,8.6v25.8l-14.8-8.5v-25.8h0ZM162.6,24.2v26.1l15.1,8.7v-26.1l-15.1-8.7Z"/>
  <path class="st14" d="M162.7,24.2l12.5-7.2,14.9,8.6-12.4,7.2-14.9-8.6s-.1,0-.1,0Z"/>
  <path class="st15" d="M175.2,17.1l14.8,8.5-12.3,7.1-14.8-8.5,12.3-7.1ZM175.2,16.9l-12.6,7.2,15.1,8.7,12.6-7.2-15.1-8.7h0Z"/>
  <path class="st2" d="M175.3,17.6l13.7,7.9-11.4,6.6-13.7-7.9s11.4-6.6,11.4-6.6Z"/>
  <path class="st17" d="M164,24.2l11.2-6.5v.9l-10.4,6-.9-.5h0Z"/>
  <path d="M175.2,17.9v.8l-10.3,6-.7-.4,11-6.4M175.3,17.6l-11.4,6.6,1,.6,10.4-6.1v-1.1h0Z"/>
  <path class="st16" d="M175.3,18.7v-.9l13.5,7.8-1,.6-12.6-7.5s.1,0,.1,0Z"/>
  <path d="M175.4,17.9l13.3,7.7-.8.5-12.5-7.4v-.8ZM175.3,17.6v1.1l12.6,7.5,1.1-.6-13.7-7.9h0Z"/>
  <path class="st14" d="M165,24.8l10.3-6,12.4,7.4-10.2,5.9-12.6-7.3h.1Z"/>
  <path class="st15" d="M175.3,18.9l12.3,7.3-10.1,5.8-12.4-7.2,10.2-5.9ZM175.3,18.7l-10.4,6.1,12.7,7.3,10.3-6-12.6-7.5h0Z"/>
  <path class="st6" d="M189,29.2l-10.1,5.8"/>
  <path class="st6" d="M189,30.7l-10.1,5.8"/>
  <path class="st6" d="M189,32.2l-10.1,5.8"/>
  <path class="st6" d="M189,33.7l-10.1,5.8"/>
  <path class="st6" d="M189,35.2l-10.1,5.8"/>
  <path class="st6" d="M189,36.6l-10.1,5.8"/>
  <path class="st6" d="M189,38.1l-10.1,5.8"/>
  <path class="st6" d="M189,39.6l-10.1,5.8"/>
  <path class="st6" d="M189,41.1l-10.1,5.8"/>
  <path class="st6" d="M189,42.6l-10.1,5.8"/>
  <path class="st6" d="M189,44l-10.1,5.8"/>
  <path class="st6" d="M189,45.5l-10.1,5.8"/>
  <path class="st6" d="M189,47l-10.1,5.8"/>
  <path class="st6" d="M189,48.5l-10.1,5.8"/>
  <path class="st6" d="M163.9,27.6l12.6,7.5"/>
  <path class="st6" d="M163.9,29.1l12.6,7.5"/>
  <path class="st6" d="M163.9,30.6l12.6,7.5"/>
  <path class="st6" d="M163.9,32l12.6,7.5"/>
  <path class="st6" d="M163.9,33.5l12.6,7.5"/>
  <path class="st6" d="M163.9,35l12.6,7.5"/>
  <path class="st6" d="M163.9,36.5l12.6,7.5"/>
  <path class="st6" d="M163.9,38l12.6,7.5"/>
  <path class="st6" d="M163.9,39.4l12.6,7.5"/>
  <path class="st6" d="M163.9,41.1l12.6,7.3"/>
  <path class="st6" d="M163.9,42.4l12.6,7.5"/>
  <path class="st6" d="M163.9,43.9l12.6,7.5"/>
  <path class="st6" d="M163.9,45.4l12.6,7.5"/>
  <path class="st6" d="M163.9,46.8l12.6,7.5"/>
  <path class="st17" d="M159.3,43.5l12.4-7.1v26l-12.4,7.1v-26Z"/>
  <path d="M171.7,36.5v25.8l-12.3,7.1v-25.8l12.3-7.1M171.8,36.2l-12.6,7.2v26.1l12.6-7.2s0-26.1,0-26.1Z"/>
  <path class="st16" d="M144.2,60.8v-25.9l15,8.7v25.9l-15-8.6h0Z"/>
  <path d="M144.3,35l14.8,8.5v25.8l-14.8-8.5v-25.8ZM144.2,34.8v26.1l15.1,8.7v-26.1l-15.1-8.7Z"/>
  <path class="st14" d="M144.3,34.8l12.5-7.2,14.9,8.6-12.4,7.2-14.9-8.6s-.1,0-.1,0Z"/>
  <path class="st15" d="M156.8,27.7l14.8,8.5-12.3,7.1-14.8-8.5s12.3-7.1,12.3-7.1ZM156.8,27.5l-12.6,7.2,15.1,8.7,12.6-7.2-15.1-8.7h0Z"/>
  <path class="st2" d="M156.9,28.3l13.7,7.9-11.4,6.6-13.7-7.9s11.4-6.6,11.4-6.6Z"/>
  <path class="st17" d="M145.6,34.8l11.2-6.5v1l-10.4,6-.9-.5h0Z"/>
  <path d="M156.8,28.5v.8l-10.3,6-.7-.4,11-6.4M156.9,28.3l-11.4,6.6,1,.6,10.4-6.1v-1.1h0Z"/>
  <path class="st16" d="M156.9,29.3v-.9l13.5,7.8-1,.5-12.6-7.5h.1Z"/>
  <path d="M157,28.5l13.3,7.7-.8.5-12.5-7.4v-.8ZM156.9,28.3v1.1l12.6,7.5,1.1-.6-13.7-7.9h0Z"/>
  <path class="st14" d="M146.6,35.4l10.3-6,12.4,7.4-10.2,5.9-12.6-7.2h.1Z"/>
  <path class="st15" d="M156.9,29.5l12.3,7.3-10.1,5.8-12.4-7.2s10.2-5.9,10.2-5.9ZM156.9,29.3l-10.4,6.1,12.7,7.3,10.3-6-12.6-7.5h0Z"/>
  <path class="st6" d="M170.6,39.9l-10.1,5.8"/>
  <path class="st6" d="M170.6,41.3l-10.1,5.8"/>
  <path class="st6" d="M170.6,42.8l-10.1,5.8"/>
  <path class="st6" d="M170.6,44.3l-10.1,5.8"/>
  <path class="st6" d="M170.6,45.8l-10.1,5.8"/>
  <path class="st6" d="M170.6,47.3l-10.1,5.8"/>
  <path class="st6" d="M170.6,48.7l-10.1,5.8"/>
  <path class="st6" d="M170.6,50.2l-10.1,5.8"/>
  <path class="st6" d="M170.6,51.7l-10.1,5.8"/>
  <path class="st6" d="M170.6,53.2l-10.1,5.8"/>
  <path class="st6" d="M170.6,54.7l-10.1,5.8"/>
  <path class="st6" d="M170.6,56.1l-10.1,5.8"/>
  <path class="st6" d="M170.6,57.6l-10.1,5.8"/>
  <path class="st6" d="M170.6,59.1l-10.1,5.8"/>
  <path class="st6" d="M145.5,38.2l12.6,7.5"/>
  <path class="st6" d="M145.5,39.7l12.6,7.5"/>
  <path class="st6" d="M145.5,41.2l12.6,7.5"/>
  <path class="st6" d="M145.5,42.7l12.6,7.5"/>
  <path class="st6" d="M145.5,44.1l12.6,7.5"/>
  <path class="st6" d="M145.5,45.6l12.6,7.5"/>
  <path class="st6" d="M145.5,47.1l12.6,7.5"/>
  <path class="st6" d="M145.5,48.6l12.6,7.5"/>
  <path class="st6" d="M145.5,50.1l12.6,7.5"/>
  <path class="st6" d="M145.5,51.7l12.6,7.3"/>
  <path class="st6" d="M145.5,53l12.6,7.5"/>
  <path class="st6" d="M145.5,54.5l12.6,7.5"/>
  <path class="st6" d="M145.5,56l12.6,7.5"/>
  <path class="st6" d="M145.5,57.5l12.6,7.4"/>
  <path class="st14" d="M119.8,31.8l12.4-7.2,12.4,7.2-12.4,7.2s-12.4-7.2-12.4-7.2Z"/>
  <path class="st15" d="M132.1,24.8l12.3,7.1-12.3,7.1-12.3-7.1,12.3-7.1ZM132.1,24.6l-12.5,7.2,12.5,7.2,12.5-7.2s-12.5-7.2-12.5-7.2Z"/>
  <path class="st17" d="M132.2,39.1l12.4-7.1v41.4l-12.4,7.1v-41.4Z"/>
  <path d="M144.5,32.1v41.2l-12.2,7.1v-41.2l12.3-7.1M144.7,31.8l-12.5,7.2v41.5l12.6-7.2V31.8h-.1Z"/>
  <path class="st16" d="M119.7,73.3v-41.3l12.5,7.2v41.3l-12.5-7.2Z"/>
  <path d="M119.8,32.1l12.3,7.1v41.2l-12.3-7.1s0-41.2,0-41.2ZM119.6,31.8v41.5l12.5,7.2v-41.5s-12.5-7.2-12.5-7.2Z"/>
  <path class="st14" d="M125.1,21.5l7.1-4.1,7,4.1-7,4-7-4h0Z"/>
  <path class="st15" d="M132.1,17.5l6.9,4-6.9,4-6.9-4,6.9-4ZM132.1,17.4l-7.2,4.1,7.2,4.1,7.1-4.1-7.1-4.1Z"/>
  <path class="st17" d="M132.2,25.6l7-4v10.9l-7,4v-10.9Z"/>
  <path d="M139.2,21.7v10.7l-6.9,4v-10.7l6.9-4M139.3,21.5l-7.1,4.1v11l7.1-4.1v-11Z"/>
  <path class="st16" d="M125,32.5v-10.8l7.1,4.1v10.9l-7.1-4.1h0Z"/>
  <path d="M125.1,21.7l6.9,4v10.7l-6.9-4v-10.7ZM125,21.5v11l7.2,4.1v-11s-7.2-4.1-7.2-4.1Z"/>
  <path class="st14" d="M130.8,13l1.4-.8,1.3.8-1.3.8-1.3-.8h0Z"/>
  <path class="st15" d="M132.1,12.3l1.2.7-1.2.7-1.2-.7,1.2-.7ZM132.1,12.2l-1.5.8,1.5.8,1.5-.8-1.5-.8Z"/>
  <path class="st14" d="M127.8,21.6l2.9-8.5,1.4.8v10.2l-4.3-2.5h0Z"/>
  <path class="st15" d="M130.8,13.2l1.2.7v10l-4.1-2.4,2.8-8.4h.1ZM130.7,13l-2.9,8.7,4.4,2.5v-10.4l-1.5-.8h0Z"/>
  <path class="st17" d="M132.2,13.9l1.4-.7,2.9,8.6-4.2,2.4v-10.2h0Z"/>
  <path d="M133.5,13.2l2.8,8.4-4.1,2.4v-10l1.2-.7M133.6,13l-1.5.8v10.3l4.4-2.5-2.9-8.7h0Z"/>
  <path class="st7" d="M134.6,41.4v26.1"/>
  <path class="st7" d="M129.6,41.4v26.1"/>
  <path class="st7" d="M127.1,40v26.1"/>
  <path class="st7" d="M124.6,38.5v26.1"/>
  <path class="st7" d="M122.1,37.1v26.1"/>
  <path class="st7" d="M137.2,40v26.1"/>
  <path class="st7" d="M139.7,38.5v26.1"/>
  <path class="st7" d="M142.2,37.1v26.3"/>
  <path class="st13" d="M144.7,69.1l4,2.4c2.4,1.4,2.4,2.8,0,4.2l-11.5,6.6c-2.5,1.4-4.9,1.4-7.4,0l-14.7-8.5c-2.5-1.4-2.5-2.8,0-4.2l4.5-2.6v6.3l12.6,7.2,12.5-7.2v-4.3h0Z"/>
  <path class="st13" d="M314.8,89.3v9.4l3.8-2.2v-6.8l-3.8-.4Z"/>
  <path class="st17" d="M316.6,90.8c-.5,0-1,0-1.4-.3-.2,0-.4-.3-.5-.5v-11.1l3.8.5v10.5c0,.2-.2.3-.5.5-.4.2-.8.3-1.3.3h-.1Z"/>
  <path d="M314.8,79.1l3.7.4v10.4c0,.2-.2.3-.5.5-.4.2-.8.3-1.3.3s-1,0-1.3-.3c-.2,0-.4-.3-.5-.5v-10.8h-.1ZM314.7,79v11.1c0,.2.3.4.5.5.4.2.9.3,1.4.3s1,0,1.4-.3c.3-.2.4-.3.5-.5v-10.6l-3.9-.4h.1Z"/>
  <path class="st17" d="M314.7,89.8v.3h0v-.3Z"/>
  <path d="M314.7,89.8v.3h0v-.3Z"/>
  <path class="st17" d="M318.6,89.8v.3h0v-.3Z"/>
  <path d="M318.6,89.8v.3h0v-.3Z"/>
  <path class="st16" d="M277,124.8v-12.7l36.7,21.3v12.6l-36.7-21.2h0Z"/>
  <path d="M277,112.2l36.6,21.1v12.5l-36.6-21.1v-12.5ZM277,112.1v12.7l36.8,21.2v-12.7s-36.8-21.2-36.8-21.2Z"/>
  <path class="st14" d="M277.1,112.1l29.3-16.9,7.2,4.2-7.3,4.2v12.8l18.3,10.6-10.9,6.3-36.7-21.2s.1,0,.1,0Z"/>
  <path class="st15" d="M306.4,95.2l7.1,4.1-7.2,4.2h0v12.8h0l18.2,10.5-10.8,6.2-36.5-21.1,29.2-16.8M306.4,95.1l-29.4,17,36.8,21.2,11-6.4-18.4-10.6v-12.7l7.4-4.2-7.4-4.2h0Z"/>
  <path class="st17" d="M313.8,133.3l11-6.3v-12.8l14.6-8.3v25.3l-25.6,14.7v-12.6h0Z"/>
  <path d="M339.3,106v25l-25.4,14.6v-12.3l10.9-6.3h.1v-12.8l14.3-8.3M339.5,105.7l-14.7,8.5v12.7l-11,6.4v12.7l25.8-14.9v-25.5h0Z"/>
  <path class="st13" d="M318.5,79.4c0,.2-.2.4-.5.5-.8.4-2,.4-2.8,0-.5-.3-.6-.6-.6-.9v-5h3.8v5.4h.1Z"/>
  <path class="st13" d="M318.6,79.4h0"/>
  <path class="st14" d="M306.5,103.6l14.6-8.4,18.2,10.6-14.6,8.4-18.3-10.5h0Z"/>
  <path class="st15" d="M321.1,95.2l18.2,10.5-14.5,8.4-18.2-10.5,14.5-8.4ZM321.1,95.1l-14.7,8.5,18.4,10.6,14.7-8.5-18.4-10.6Z"/>
  <path class="st17" d="M313.3,128.8l6.1-3.5v1.7l-6.1,3.5v-1.7Z"/>
  <path d="M319.3,125.5v1.4l-5.9,3.4v-1.4s5.9-3.4,5.9-3.4ZM319.5,125.1l-6.3,3.6v1.8l6.3-3.6v-1.8Z"/>
  <path class="st16" d="M308.5,127.8l4.7,1v1.7l-4.7-2.7Z"/>
  <path d="M309,128.1l4.1.8v1.6l-4.1-2.4h0ZM308.5,127.9l4.7,2.7v-1.8l-4.7-.9Z"/>
  <path class="st14" d="M308.6,127.8l6.2-3.6,4.5.9-6.2,3.6-4.6-.9s.1,0,.1,0Z"/>
  <path class="st15" d="M314.8,124.3l4.4.8-6,3.5-4.4-.8,6-3.5ZM314.8,124.2l-6.3,3.6,4.7.9,6.3-3.6-4.7-.9Z"/>
  <path class="st17" d="M305.9,124.5l6.1-3.5v1.7l-6.1,3.5v-1.7Z"/>
  <path d="M312,121.2v1.4l-5.9,3.4v-1.4l5.9-3.4ZM312.1,120.9l-6.3,3.6v1.8l6.3-3.6v-1.8Z"/>
  <path class="st16" d="M301.1,123.6l4.7,1v1.7l-4.7-2.7Z"/>
  <path d="M301.6,123.8l4.1.8v1.6l-4.1-2.4ZM301.1,123.6l4.7,2.7v-1.8s-4.7-.9-4.7-.9Z"/>
  <path class="st14" d="M301.3,123.6l6.2-3.6,4.5.9-6.1,3.6-4.6-.9Z"/>
  <path class="st15" d="M307.4,120.1l4.4.8-6,3.5-4.4-.8,6-3.5ZM307.4,120l-6.3,3.6,4.7.9,6.3-3.6-4.7-.9Z"/>
  <path class="st17" d="M298.6,120.3l6.1-3.5v1.7l-6.1,3.5v-1.7Z"/>
  <path d="M304.6,117v1.4l-5.9,3.4v-1.4l5.9-3.4ZM304.8,116.6l-6.3,3.6v1.8l6.3-3.6v-1.8Z"/>
  <path class="st16" d="M293.8,119.3l4.7,1v1.7l-4.7-2.7Z"/>
  <path d="M294.3,119.6l4.1.8v1.6l-4.1-2.4ZM293.8,119.4l4.7,2.7v-1.8s-4.7-.9-4.7-.9Z"/>
  <path class="st14" d="M293.9,119.3l6.2-3.6,4.5.9-6.2,3.6-4.6-.9h.1Z"/>
  <path class="st15" d="M300.1,115.8l4.4.8-6,3.5-4.4-.8,6-3.5ZM300.1,115.7l-6.3,3.6,4.7.9,6.3-3.6-4.7-.9Z"/>
  <path class="st17" d="M291.7,133.2v-8.2l7.3,4.1v8.2l-7.3-4.1Z"/>
  <path d="M291.9,125.2l7,4v8.1l-7-4v-8h0ZM291.7,124.8v8.5l7.4,4.2v-8.5l-7.4-4.2Z"/>
  <path class="st14" d="M316.6,75.1c-.5,0-1,0-1.4-.3-.4-.2-.5-.5-.5-.8s.2-.5.5-.7c.4-.2.8-.3,1.3-.3s1,0,1.4.3c.4.2.5.5.5.8s-.2.5-.5.7c-.4.2-.8.3-1.3.3h0Z"/>
  <path class="st15" d="M316.6,73c.5,0,1,0,1.3.3.3.2.5.4.5.7s-.2.5-.5.7c-.4.2-.8.3-1.3.3s-1,0-1.3-.3c-.3-.2-.5-.4-.5-.7s.2-.5.5-.7c.4-.2.8-.3,1.3-.3M316.6,72.9c-.5,0-1,0-1.4.3-.8.4-.8,1.2,0,1.6.4.2.9.3,1.4.3s1,0,1.4-.3c.8-.4.8-1.2,0-1.6-.4-.2-.9-.3-1.4-.3Z"/>
  <path class="st13" d="M318.6,79.2h0Z"/>
  <path class="st13" d="M308.3,85.7v10.5l3.8,2.2v-12.3c-.1,0-3.8-.4-3.8-.4Z"/>
  <path class="st17" d="M310.2,87.1c-.5,0-1,0-1.4-.3-.2,0-.4-.3-.5-.5v-11.1l3.8.5v10.5c0,.2-.2.3-.5.5-.4.2-.8.3-1.3.3h-.1Z"/>
  <path d="M308.4,75.4l3.7.4v10.4c0,.2-.2.3-.5.5-.4.2-.8.3-1.3.3s-1,0-1.3-.3c-.2,0-.4-.3-.5-.5v-10.8M308.2,75.3v11.1c0,.2.3.4.5.5.4.2.9.3,1.4.3s1,0,1.4-.3c.3-.2.4-.3.5-.5v-10.6l-3.9-.4h.1Z"/>
  <path class="st17" d="M308.2,86.1v.3h0v-.3Z"/>
  <path d="M308.2,86.1v.3h0v-.3Z"/>
  <path class="st17" d="M312.1,86.1v.3h0v-.3Z"/>
  <path d="M312.1,86.1v.3h0v-.3Z"/>
  <path class="st13" d="M312.1,75.7c0,.2-.2.4-.5.5-.8.4-2,.4-2.8,0-.5-.3-.6-.6-.6-.9v-5h3.8v5.4h.1Z"/>
  <path class="st13" d="M312.1,75.7h0"/>
  <path class="st14" d="M310.2,71.4c-.5,0-1,0-1.4-.3-.4-.2-.5-.5-.5-.8s.2-.5.5-.7c.4-.2.8-.3,1.3-.3s1,0,1.4.3c.4.2.5.5.5.8s-.2.5-.5.7c-.4.2-.8.3-1.3.3Z"/>
  <path class="st15" d="M310.2,69.3c.5,0,1,0,1.3.3.3.2.5.4.5.7s-.2.5-.5.7c-.4.2-.8.3-1.3.3s-1,0-1.3-.3c-.3-.2-.5-.4-.5-.7s.2-.5.5-.7c.4-.2.8-.3,1.3-.3M310.2,69.2c-.5,0-1,0-1.4.3-.8.4-.8,1.2,0,1.6.4.2.9.3,1.4.3s1,0,1.4-.3c.8-.4.8-1.2,0-1.6-.4-.2-.9-.3-1.4-.3Z"/>
  <path class="st13" d="M312.1,75.5h0Z"/>
  <path class="st13" d="M321,92.9v2.2l3.8,2.1v-3.8c-.1,0-3.8-.4-3.8-.4h0Z"/>
  <path class="st17" d="M322.9,94.4c-.5,0-1,0-1.4-.3-.2,0-.4-.3-.5-.5v-11.1l3.8.5v10.5c0,.2-.2.3-.5.5-.4.2-.8.3-1.3.3h-.1Z"/>
  <path d="M321,82.7l3.7.4v10.4c0,.2-.2.3-.5.5-.4.2-.8.3-1.3.3s-1,0-1.3-.3c-.2,0-.4-.3-.5-.5v-10.8h-.1ZM320.9,82.6v11.1c0,.2.3.4.5.5.4.2.9.3,1.4.3s1,0,1.4-.3c.3-.2.4-.3.5-.5v-10.6l-3.9-.4h.1Z"/>
  <path class="st17" d="M320.9,93.4v.3h0v-.3Z"/>
  <path d="M320.9,93.4v.3h0v-.3Z"/>
  <path class="st17" d="M324.8,93.4v.3h0v-.3Z"/>
  <path d="M324.8,93.4v.3h0v-.3Z"/>
  <path class="st13" d="M324.8,83c0,.2-.2.4-.5.5-.8.4-2,.4-2.8,0-.5-.3-.6-.6-.6-.9v-5h3.8v5.4h.1Z"/>
  <path class="st13" d="M324.8,83h0"/>
  <path class="st14" d="M322.9,78.7c-.5,0-1,0-1.4-.3-.4-.2-.5-.5-.5-.8s.2-.5.5-.7c.4-.2.8-.3,1.3-.3s1,0,1.4.3c.4.2.5.5.5.8s-.2.5-.5.7c-.4.2-.8.3-1.3.3h0Z"/>
  <path class="st15" d="M322.9,76.6c.5,0,1,0,1.3.3.3.2.5.4.5.7s-.2.5-.5.7c-.4.2-.8.3-1.3.3s-1,0-1.3-.3c-.3-.2-.5-.4-.5-.7s.2-.5.5-.7c.4-.2.8-.3,1.3-.3M322.9,76.5c-.5,0-1,0-1.4.3-.8.4-.8,1.2,0,1.6.4.2.9.3,1.4.3s1,0,1.4-.3c.8-.4.8-1.2,0-1.6-.4-.2-.9-.3-1.4-.3Z"/>
  <path class="st13" d="M324.8,82.8h0Z"/>
  <path class="st16" d="M306.4,116.3v-12.7l18.4,10.7v12.6l-18.4-10.6Z"/>
  <path d="M306.5,103.8l18.2,10.5v12.5l-18.2-10.5v-12.5ZM306.4,103.6v12.7l18.4,10.6v-12.7l-18.4-10.6Z"/>
  <path class="st13" d="M313.7,149.7c-.9,0-1.8-.5-3.7-1.6l-19-10.9v-4.2l22.6,13.1,25.8-14.9v-4.3l3.6,2.2c1.8,1.1,2.8,1.6,2.8,2.1s-.9,1-2.7,2.1l-25.8,14.9c-1.8,1.1-2.8,1.6-3.6,1.6h0Z"/>
  <path class="st3" d="M132.9,99.3l36.9,21.2-88.3,51"/>
  <path class="st3" d="M276.4,182.1l-106.6-61.6"/>
  <path class="st3" d="M132.9,99.3l125.2-72.2"/>
  <path class="st3" d="M33.7,156.7l99.2-57.3L52.1,52.6"/>
  <path class="st16" d="M193.3,162.2c-2.4,1.4-2.4,2.8,0,4.2l29.4,17c2.5,1.4,4.9,1.4,7.4,0l11-6.4c2.5-1.4,2.5-2.8,0-4.3l-29.5-17c-2.5-1.4-4.9-1.4-7.4,0l-11.1,6.4h.2Z"/>
  <path class="st13" d="M48.4,134.4c-1.8,0-3.7-1.1-7.3-3.2l-29.5-17c-3.7-2.1-5.5-3.2-5.5-4.2s1.8-2.1,5.5-4.2l47.8-27.6c3.7-2.1,5.5-3.2,7.4-3.2s3.7,1.1,7.3,3.2l29.4,17c3.7,2.1,5.5,3.2,5.5,4.2s-1.8,2.1-5.5,4.2l-47.8,27.6c-3.7,2.1-5.5,3.2-7.3,3.2h0Z"/>
  <path class="st0" d="M72.4,44.5h-.2.2Z"/>
  <path class="st17" d="M70,47.8l1.7-.9,3.9,17.5-.8.5s-4.8-17.1-4.8-17.1Z"/>
  <path d="M71.6,47l3.9,17.4-.8.5-4.8-17,1.6-.9M71.7,46.8l-1.7,1,4.8,17.2.9-.6-4-17.5h0Z"/>
  <path class="st16" d="M68.7,46.8l1.2,1,4.6,16.4-5.8-17.3h0Z"/>
  <path d="M68.8,46.9l1.1.9,4.4,15.5-5.5-16.4ZM68.7,46.8l6,18.1-4.8-17.2-1.2-1h0Z"/>
  <path class="st16" d="M66.1,42.7l-5.2-2.7-1.3.3,4-2.1h1.6l4.5,2.7,1.8,1.6-3.7,1.9-1.7-1.6h0Z"/>
  <path d="M65.1,38.2l4.5,2.7,1.7,1.6-3.6,1.9-1.6-1.6h0l-5.1-2.7h0l-1,.2,3.7-2h1.6M65.1,38.1h-1.6l-3.9,2.2,1.3-.3,5.1,2.7,1.7,1.7,3.7-2-1.8-1.6-4.5-2.7h0Z"/>
  <path class="st17" d="M64.7,45.5l-4.4-2.1-.7-3.1,1.3-.3,5.1,2.7,1.7,1.7v1.5l-3,1s0-1.4,0-1.4Z"/>
  <path class="st17" d="M71.4,42.4v3.7l-3.7-.2v-1.5l3.7-2Z"/>
  <path class="st10" d="M68.5,45.7l1.7,38.8-1.7,1h-3.3l-1.7-1,1.2-38.2,3.8-.6Z"/>
  <path class="st17" d="M70.8,45.3l15.3-21.3.7.7-14.6,21.2-1.4-.7h0Z"/>
  <path d="M86,24.2l.6.6-14.5,21.2-1.3-.6s15.2-21.2,15.2-21.2ZM86,24l-15.3,21.3,1.4.7,14.6-21.4-.7-.7h0Z"/>
  <path class="st16" d="M69.7,44.7l16.3-20.6-15.3,21.3-1-.7Z"/>
  <path d="M85,25.4l-14.3,19.9-.9-.7,15.2-19.3h0ZM86,24l-16.3,20.6,1,.7,15.3-21.3Z"/>
  <path class="st16" d="M68.7,47c-.3-.2-.4-.5-.4-.9,0-.9.6-2,1.4-2.5.2,0,.4-.2.6-.2h.3l1.3.8-2.1,3.4-1.2-.7h0Z"/>
  <path d="M70.3,43.4h.5l1.1.8-2.1,3.4-1.2-.7h0c-.2-.2-.4-.5-.4-.9,0-.9.6-2,1.4-2.4s.4-.2.6-.2M70.3,43.4c-.2,0-.4,0-.7.2-.8.5-1.4,1.6-1.4,2.5s.2.8.4.9h0l1.2.8,2.1-3.5-1.2-.7h-.2s-.2-.2-.3-.2h0Z"/>
  <path class="st17" d="M70.2,47.8c-.5,0-.8-.4-.8-1,0-.9.6-2,1.4-2.4s.4-.2.6-.2c.5,0,.8.4.8,1,0,.9-.6,2-1.4,2.4s-.4.2-.6.2Z"/>
  <path d="M71.5,44.2c.4,0,.7.4.7.9,0,.9-.6,2-1.4,2.4s-.4.2-.6.2c-.4,0-.7-.4-.7-.9,0-.9.6-2,1.4-2.4s.4-.2.6-.2M71.5,44.1c-.2,0-.4,0-.7.2-.8.5-1.4,1.6-1.4,2.5s.3,1,.8,1,.4,0,.7-.2c.8-.5,1.4-1.6,1.4-2.5s-.3-1-.8-1Z"/>
  <path class="st17" d="M50.9,49.3l19-3.9c-.3.5-.5,1.3-.3,2.2l-19.1,2.9.4-1.2h0Z"/>
  <path d="M69.7,45.5c-.2.5-.4,1.2-.2,2l-19,2.9.3-1,18.8-3.8M69.9,45.4l-19,3.9-.4,1.2,19.2-2.9c-.2-.8,0-1.5.2-2.2Z"/>
  <path class="st16" d="M50.9,49.3l17.8-4.6,1.2.7s-19,3.9-19,3.9Z"/>
  <path class="st0" d="M28.5,70h-.1.1Z"/>
  <path class="st17" d="M26.1,73.2l1.7-.9,3.9,17.5-.9.5-4.8-17.1h.1Z"/>
  <path d="M27.7,72.4l4,17.4-.8.5-4.8-17,1.6-.9M27.8,72.3l-1.7,1,4.8,17.2.9-.6-4-17.5h0Z"/>
  <path class="st16" d="M24.9,72.3l1.2,1,4.6,16.4-5.8-17.3h0Z"/>
  <path d="M24.9,72.4l1.1.9,4.4,15.5-5.5-16.4ZM24.8,72.3l6,18.1-4.8-17.2-1.2-1h0Z"/>
  <path class="st16" d="M22.2,68.2l-5.1-2.7-1.3.2,3.9-2.1h1.6l4.5,2.7,1.8,1.6-3.7,1.9-1.6-1.6h0Z"/>
  <path d="M21.2,63.6l4.5,2.7,1.7,1.6-3.6,1.9-1.6-1.6h0l-5.1-2.7h0l-1,.2,3.7-2h1.5M21.2,63.6h-1.6l-3.9,2.2,1.3-.3,5.1,2.7,1.7,1.7,3.7-1.9-1.8-1.6-4.5-2.7h0Z"/>
  <path class="st17" d="M20.9,70.9l-4.4-2.1-.7-3.1,1.3-.3,5.1,2.7,1.7,1.6v1.5l-3,1.1s0-1.4,0-1.4Z"/>
  <path class="st17" d="M27.5,67.9v3.7l-3.7-.2v-1.5l3.7-1.9h0Z"/>
  <path class="st10" d="M24.6,71.1l1.7,38.8-1.6,1h-3.3l-1.7-1,1.2-38.2,3.8-.6h-.1Z"/>
  <path class="st17" d="M26.9,70.8l15.3-21.3.7.7-14.6,21.3s-1.4-.7-1.4-.7Z"/>
  <path d="M42.2,49.6l.6.6-14.5,21.2-1.3-.6s15.2-21.2,15.2-21.2ZM42.1,49.5l-15.3,21.3,1.4.7,14.6-21.3-.7-.7h0Z"/>
  <path class="st16" d="M25.9,70.1l16.3-20.6-15.3,21.3s-1-.7-1-.7Z"/>
  <path d="M41.1,50.9l-14.3,19.9-.9-.7s15.2-19.2,15.2-19.2ZM42.1,49.5l-16.3,20.6,1,.7s15.3-21.3,15.3-21.3Z"/>
  <path class="st16" d="M24.8,72.4c-.3-.2-.4-.5-.4-.9,0-.9.6-2,1.4-2.5.2,0,.4-.2.6-.2h.3l1.3.8-2.1,3.4-1.2-.7h.1Z"/>
  <path d="M26.4,68.9h.4l1.1.8-2,3.4-1.2-.7h0c-.2-.2-.4-.5-.4-.9,0-.9.6-2,1.4-2.4.2,0,.4-.2.6-.2M26.4,68.8c-.2,0-.4,0-.6.2-.8.5-1.4,1.6-1.4,2.5s.1.8.4.9h0l1.2.8,2.1-3.5-1.2-.7h-.5v-.2Z"/>
  <path class="st17" d="M26.4,73.2c-.5,0-.8-.4-.8-1,0-.9.6-2,1.4-2.4.2,0,.4-.2.6-.2.5,0,.8.4.8,1,0,.9-.6,2-1.4,2.4-.2,0-.4.2-.6.2Z"/>
  <path d="M27.6,69.7c.4,0,.7.4.7.9,0,.9-.6,2-1.4,2.4-.2,0-.4.2-.6.2-.4,0-.7-.4-.7-.9,0-.9.6-2,1.4-2.4.2,0,.4-.2.6-.2M27.6,69.6c-.2,0-.4,0-.6.2-.8.5-1.4,1.6-1.4,2.5s.3,1,.8,1,.4,0,.6-.2c.8-.5,1.4-1.6,1.4-2.5s-.3-1-.8-1Z"/>
  <path class="st17" d="M7,74.8l19-3.9c-.3.5-.5,1.3-.3,2.2l-19.1,2.9.4-1.2h0Z"/>
  <path d="M25.9,71c-.2.6-.4,1.2-.2,2l-19,2.9.3-1.1,18.8-3.8M26,70.8l-19,3.9-.4,1.2,19.2-2.9c-.2-.8,0-1.5.2-2.2Z"/>
  <path class="st16" d="M7,74.7l17.8-4.6,1.3.7-19,3.9h0Z"/>
  <path class="st13" d="M291.2,77.7c-.9,0-1.8-.5-3.6-1.6l-18.4-10.6c-1.8-1.1-2.7-1.6-2.7-2.1s.9-1,2.7-2.1l3.7-2.1h36.8l3.6,2.1c1.8,1,2.7,1.6,2.7,2.1s-.9,1-2.7,2.1l-18.4,10.6c-1.8,1.1-2.7,1.6-3.6,1.6h-.1Z"/>
  <path class="st16" d="M272.8,63.3V15.7l18.3,10.6v47.6s-18.3-10.6-18.3-10.6Z"/>
  <path d="M272.9,15.8l18.2,10.5v47.5l-18.2-10.5V15.8ZM272.8,15.6v47.8l18.4,10.6V26.2l-18.4-10.6h0Z"/>
  <path class="st17" d="M291.2,26.2l18.3-10.5v47.7l-18.3,10.5V26.2Z"/>
  <path d="M309.5,15.8v47.5l-18.2,10.5V26.3l18.2-10.5M309.6,15.6l-18.4,10.6v47.8l18.4-10.6V15.6Z"/>
  <path class="st14" d="M272.9,15.6l18.3-10.6,18.2,10.6-18.3,10.6-18.3-10.6h0Z"/>
  <path class="st15" d="M291.2,5.1l18.2,10.5-18.2,10.5-18.2-10.5s18.2-10.5,18.2-10.5ZM291.2,5l-18.4,10.6,18.4,10.6,18.4-10.6-18.4-10.6Z"/>
  <path class="st16" d="M282,15.6v-2.5l9.1,5.3v2.5s-9.1-5.3-9.1-5.3Z"/>
  <path d="M282.1,13.2l9,5.2v2.4l-9-5.2s0-2.4,0-2.4ZM282,13v2.7l9.2,5.3v-2.6l-9.2-5.3h0Z"/>
  <path class="st17" d="M291.2,18.3l9.1-5.2v2.6l-9.1,5.2s0-2.6,0-2.6Z"/>
  <path d="M300.3,13.2v2.4l-9,5.2v-2.4l9-5.2ZM300.4,13l-9.2,5.3v2.6l9.2-5.3v-2.7h0Z"/>
  <path class="st14" d="M282.1,13l9.1-5.3,9,5.3-9.1,5.2-9.1-5.2s.1,0,.1,0Z"/>
  <path class="st15" d="M291.2,7.8l9,5.2-9,5.2-9-5.2s9-5.2,9-5.2ZM291.2,7.7l-9.2,5.3,9.2,5.3,9.2-5.3s-9.2-5.3-9.2-5.3Z"/>
  <path class="st5" d="M277.4,23.6v31.9"/>
  <path class="st5" d="M282,26.2v31.9"/>
  <path class="st5" d="M286.6,28.9v31.8"/>
  <path class="st5" d="M295.8,28.9v31.8"/>
  <path class="st5" d="M300.4,26.2v31.9"/>
  <path class="st5" d="M305,23.6v31.9"/>
  <path class="st17" d="M177.8,130.6l12.4-7.1v25.9l-12.4,7.1v-25.9h0Z"/>
  <path d="M190,123.6v25.7l-12.2,7v-25.7l12.2-7M190.2,123.3l-12.6,7.2v26.1l12.6-7.2v-26.1Z"/>
  <path class="st12" d="M162.6,148l15.1,8.7v-26.1l-15.1-8.7v26.1Z"/>
  <path class="st14" d="M162.7,121.9l12.5-7.2,14.9,8.6-12.4,7.2-14.9-8.6h-.1Z"/>
  <path class="st15" d="M175.2,114.8l14.8,8.5-12.3,7.1-14.8-8.6,12.3-7.1h0ZM175.2,114.6l-12.6,7.2,15.1,8.7,12.6-7.2-15.1-8.7h0Z"/>
  <path class="st2" d="M175.3,115.3l13.7,7.9-11.4,6.6-13.7-7.9,11.4-6.6Z"/>
  <path class="st17" d="M164,121.9l11.1-6.4v.9l-10.4,6-.8-.5h0Z"/>
  <path d="M175.1,115.7v.6l-10.2,6-.6-.3,10.9-6.3h0ZM175.3,115.3l-11.4,6.6,1,.6,10.4-6.1v-1.1h0Z"/>
  <path class="st16" d="M189,123.2l-13.7-7.9v1.1l12.6,7.5,1.1-.6h0Z"/>
  <path class="st14" d="M165,122.5l10.4-6,12.4,7.4-10.2,5.9-12.6-7.3h0Z"/>
  <path class="st15" d="M175.3,116.6l12.3,7.3-10.1,5.8-12.4-7.2,10.2-5.9ZM175.3,116.4l-10.4,6.1,12.7,7.3,10.3-6-12.6-7.5h0Z"/>
  <g>
    <path class="st6" d="M189,126.9l-10.1,5.8"/>
    <path class="st6" d="M189,128.4l-10.1,5.8"/>
    <path class="st6" d="M189,129.9l-10.1,5.8"/>
    <path class="st6" d="M189,131.4l-10.1,5.8"/>
    <path class="st6" d="M189,132.9l-10.1,5.8"/>
    <path class="st6" d="M189,134.3l-10.1,5.8"/>
    <path class="st6" d="M189,135.8l-10.1,5.8"/>
    <path class="st6" d="M189,137.3l-10.1,5.8"/>
    <path class="st6" d="M189,138.8l-10.1,5.8"/>
    <path class="st6" d="M189,140.2l-10.1,5.8"/>
    <path class="st6" d="M189,141.7l-10.1,5.8"/>
    <path class="st6" d="M189,143.2l-10.1,5.8"/>
    <path class="st6" d="M189,144.7l-10.1,5.8"/>
    <path class="st6" d="M189,146.2l-10.1,5.8"/>
    <path class="st6" d="M163.8,125.3l12.6,7.4"/>
    <path class="st6" d="M163.8,126.8l12.6,7.5"/>
    <path class="st6" d="M163.8,128.2l12.6,7.5"/>
    <path class="st6" d="M163.8,129.7l12.6,7.5"/>
    <path class="st6" d="M163.8,131.2l12.6,7.4"/>
    <path class="st6" d="M163.8,132.7l12.6,7.4"/>
    <path class="st6" d="M163.8,134.2l12.6,7.4"/>
    <path class="st6" d="M163.8,135.6l12.6,7.4"/>
    <path class="st6" d="M163.8,137.1l12.6,7.4"/>
    <path class="st6" d="M163.8,138.8l12.6,7.3"/>
    <path class="st6" d="M163.8,140.1l12.6,7.4"/>
    <path class="st6" d="M163.8,141.6l12.6,7.4"/>
    <path class="st6" d="M163.8,143.1l12.6,7.4"/>
    <path class="st6" d="M163.8,144.5l12.6,7.4"/>
    <path class="st13" d="M187.6,116.3v-10.8l-16.3-9.4v-3.8l-12,6.9c-2.5,1.4-2.5,2.8,0,4.2l25.7,14.8,14.8,8.6c2.4,1.4,4.8,1.4,7.3,0l73.6-42.5c2.4-1.4,2.4-2.8,0-4.2l-3.7-2.1v4.2l-33.1,19.1-14.7-8.5-11,6.4v17l-15.3,8.8-15.3-8.8"/>
  </g>
  <path class="st13" d="M277,171c-.9,0-1.8-.5-3.6-1.6l-43.9-25.6c-1.9-1-2.9-1.5-2.9-2s1-1.1,2.9-2.2l5.3-3.1v6.4l16.5,9.6,11.7-6.9v13.5l14.1,8.2,14.2-8.2v-4.9l4.2,2.5c1.8,1.1,2.7,1.6,2.7,2.1s-.9,1-2.7,2.1l-14.7,8.5c-1.9,1.1-2.8,1.6-3.7,1.6h-.1Z"/>
  <path class="st17" d="M159.4,147l9.9-5.6v20.1l-9.9,5.6v-20.1Z"/>
  <path d="M169.1,141.5v19.9l-9.7,5.6v-19.9l9.7-5.6ZM169.3,141.2l-10.1,5.8v20.3l10.1-5.8v-20.3Z"/>
  <path class="st12" d="M159.3,167.3l-22.6-13.1v-20.3l22.6,13.1v20.3Z"/>
  <path class="st14" d="M136.7,133.9l10.1-5.7,22.6,13.1-10,5.7-22.6-13h-.1Z"/>
  <path class="st15" d="M146.7,128.2l22.4,13-9.9,5.7-22.4-13,9.9-5.7ZM146.7,128.1l-10.1,5.8,22.6,13.1,10.1-5.8-22.6-13.1Z"/>
  <path class="st14" d="M149.2,146.9v-2.9l7.5,4.4v2.8l-7.5-4.3Z"/>
  <path class="st15" d="M149.3,144.2l7.4,4.3v2.7l-7.4-4.3v-2.7ZM149.2,144.1v2.9l7.5,4.4v-2.9l-7.5-4.4Z"/>
  <path class="st14" d="M139.2,141.1v-2.9l7.5,4.4v2.8l-7.5-4.3Z"/>
  <path class="st15" d="M139.2,138.4l7.4,4.3v2.7l-7.4-4.3v-2.7ZM139.2,138.3v2.9l7.5,4.4v-2.9l-7.5-4.4Z"/>
  <path class="st14" d="M149.2,152.8v-2.9l7.5,4.4v2.8l-7.5-4.3Z"/>
  <path class="st15" d="M149.3,150l7.4,4.3v2.7l-7.4-4.3v-2.7ZM149.2,149.9v2.9l7.5,4.4v-2.9l-7.5-4.4Z"/>
  <path class="st14" d="M139.2,146.9v-2.9l7.5,4.4v2.8l-7.5-4.3Z"/>
  <path class="st15" d="M139.2,144.2l7.4,4.3v2.7l-7.4-4.3v-2.7ZM139.2,144.1v2.9l7.5,4.4v-2.9l-7.5-4.4Z"/>
  <path class="st14" d="M149.2,158.6v-2.9l7.5,4.4v2.8l-7.5-4.3Z"/>
  <path class="st15" d="M149.3,155.8l7.4,4.3v2.7l-7.4-4.3v-2.7ZM149.2,155.7v2.9l7.5,4.4v-2.9l-7.5-4.4Z"/>
  <path class="st16" d="M146.7,154.2v2.9l-7.5-4.4v-2.9l7.5,4.4Z"/>
  <path class="st16" d="M144.2,135.4v-1.3l-2.1-1.2v1.3l2.1,1.2Z"/>
  <path class="st17" d="M144.2,134l4.1-2.4v1.2l-4.1,2.4v-1.2Z"/>
  <path d="M148.3,131.8v1l-4,2.3v-1l4-2.3ZM148.5,131.6l-4.3,2.5v1.3l4.3-2.5v-1.3Z"/>
  <path class="st14" d="M142.1,132.8l4.3-2.4,2.1,1.2-4.2,2.4-2.1-1.2h-.1Z"/>
  <path class="st15" d="M146.3,130.4l2,1.1-4.1,2.4-2-1.1,4.1-2.4M146.3,130.3l-4.3,2.5,2.1,1.2,4.3-2.5-2.1-1.2Z"/>
  <path class="st16" d="M151.7,139.7v-1.4l-2.1-1.2v1.3l2.1,1.2h0Z"/>
  <path class="st17" d="M151.8,138.4l4.1-2.3v1.2l-4.1,2.4v-1.2h0Z"/>
  <path d="M155.9,136.1v1l-4,2.3v-1l4-2.3ZM156,135.9l-4.3,2.5v1.3l4.3-2.5v-1.3Z"/>
  <path class="st14" d="M149.6,137.1l4.3-2.4,2.1,1.2-4.2,2.4-2.1-1.2h-.1Z"/>
  <path class="st15" d="M153.9,134.8l2,1.1-4.1,2.4-2-1.1,4.1-2.4ZM153.9,134.7l-4.3,2.5,2.1,1.2,4.3-2.5-2.1-1.2Z"/>
  <path class="st8" d="M288,131.2v-8.5l-7.4-4.2v8.5l7.4,4.2Z"/>
  <path class="st17" d="M221.9,33.5l18.3-10.5v46.6l-18.3,10.5v-46.6Z"/>
  <path d="M240.1,23.1v46.5l-18.2,10.5v-46.5s18.2-10.5,18.2-10.5ZM240.2,22.9l-18.4,10.6v46.7l18.4-10.6V22.9Z"/>
  <path class="st16" d="M203.4,69.6V23l18.3,10.6v46.6l-18.3-10.6Z"/>
  <path d="M203.5,23.1l18.1,10.5v46.5l-18.1-10.5V23.1ZM203.4,22.9v46.7l18.4,10.6v-46.7l-18.4-10.6h0Z"/>
  <path class="st11" d="M207.1,29.3l11,6.4v4.3l-11-6.4v-4.3Z"/>
  <path class="st11" d="M207.1,37.8l11,6.3v4.3l-11-6.4s0-4.2,0-4.2Z"/>
  <path class="st11" d="M207.1,46.3l11,6.3v4.3l-11-6.4s0-4.2,0-4.2Z"/>
  <path class="st11" d="M207.1,54.8l11,6.3v4.3l-11-6.4v-4.2Z"/>
  <path class="st11" d="M207.1,63.3l11,6.3v4.3l-11-6.4v-4.2Z"/>
  <path class="st16" d="M225.5,35.6l10.9-6.3v4.2l-10.9,6.3v-4.2Z"/>
  <path d="M236.4,29.5v4l-10.8,6.2v-4l10.8-6.2ZM236.5,29.2l-11,6.4v4.3l11-6.4v-4.3Z"/>
  <path class="st16" d="M225.5,44.1l10.9-6.3v4.2l-10.9,6.3v-4.2Z"/>
  <path d="M236.4,37.9v4l-10.8,6.2v-4l10.8-6.2ZM236.5,37.7l-11.1,6.4v4.3l11.1-6.4v-4.3Z"/>
  <path class="st16" d="M225.5,52.6l10.9-6.3v4.2l-10.9,6.3v-4.2Z"/>
  <path d="M236.4,46.4v4l-10.8,6.2v-4l10.8-6.2ZM236.5,46.2l-11.1,6.4v4.3l11.1-6.4v-4.3Z"/>
  <path class="st16" d="M225.5,61.1l10.9-6.3v4.2l-10.9,6.3v-4.2Z"/>
  <path d="M236.4,54.9v4l-10.8,6.2v-4s10.8-6.2,10.8-6.2ZM236.5,54.7l-11.1,6.4v4.3l11.1-6.4v-4.3Z"/>
  <path class="st16" d="M225.5,69.6l10.9-6.3v4.2l-10.9,6.3v-4.2Z"/>
  <path d="M236.4,63.4v4l-10.8,6.2v-4s10.8-6.2,10.8-6.2ZM236.5,63.2l-11.1,6.4v4.3l11.1-6.4v-4.3Z"/>
  <path class="st11" d="M207.1,20.8l-3.7,2.1,18.4,10.6,18.4-10.6-18.4-10.6-14.7,8.5Z"/>
  <path class="st7" d="M206.8,22.9l15-8.7,15,8.7-15,8.7s-15-8.7-15-8.7Z"/>
  <path class="st17" d="M206.9,22.9l14.9-8.6v1.8l-13.3,7.6-1.6-.9h0Z"/>
  <path d="M221.7,14.4v1.7l-13.3,7.6-1.4-.8,14.7-8.5M221.8,14.2l-15,8.7,1.7,1,13.4-7.7v-1.9h0Z"/>
  <path class="st7" d="M235.2,23.8l-13.4-7.7v-1.9l15,8.7-1.7,1h0Z"/>
  <path class="st7" d="M208.4,23.8l13.4-7.7,13.4,7.7-13.4,7.7-13.4-7.7Z"/>
  <path class="st17" d="M207.3,58l10-5.8v37.7l-10,5.8v-37.7Z"/>
  <path d="M217.3,52.3v37.5l-9.9,5.7v-37.5l9.9-5.7ZM217.3,52.2l-10.1,5.8v37.7l10.1-5.8v-37.7h0Z"/>
  <path class="st16" d="M189.7,85.5v-37.6l17.5,10.1v37.6l-17.5-10.1Z"/>
  <path d="M189.8,48l17.3,10v37.4l-17.3-10v-37.4ZM189.7,47.8v37.7l17.6,10.2v-37.7l-17.6-10.2h0Z"/>
  <path class="st14" d="M189.7,47.8l10.1-5.7,17.6,10.2-10.1,5.7-17.6-10.2Z"/>
  <path class="st15" d="M199.7,42.1l17.4,10.1-9.9,5.7-17.4-10.1s9.9-5.7,9.9-5.7ZM199.7,42l-10.1,5.8,17.6,10.2,10.1-5.8-17.6-10.2Z"/>
  <path class="st7" d="M199.6,43.5l-7.6,4.4,15.3,8.8,7.6-4.4-15.3-8.8Z"/>
  <path class="st17" d="M192,47.8l7.6-4.3v1.2l-6.6,3.7-1.1-.6s.1,0,.1,0Z"/>
  <path d="M199.6,43.6v1.1l-6.5,3.7-.9-.5,7.4-4.3ZM199.6,43.5l-7.6,4.4,1.1.6,6.5-3.8v-1.3h0Z"/>
  <path class="st16" d="M199.7,44.7v-1.1l15.1,8.7-.9.6-14.1-8.2h-.1Z"/>
  <path d="M199.8,43.7l14.9,8.6-.8.5-14-8.1v-1h0ZM199.6,43.5v1.3l14.2,8.2,1.1-.6-15.3-8.8h0Z"/>
  <path class="st14" d="M193.1,48.5l6.5-3.8,14.2,8.2-6.6,3.8-14.2-8.2h.1Z"/>
  <path class="st16" d="M209.8,59.4l5-2.9v5.8l-5,2.8s0-5.7,0-5.7Z"/>
  <path d="M214.7,56.6v5.6l-4.9,2.8v-5.6s4.9-2.8,4.9-2.8ZM214.8,56.5l-5,2.9v5.8l5-2.9v-5.8h0Z"/>
  <path class="st16" d="M209.8,68.1l5-2.9v5.8l-5,2.8v-5.7Z"/>
  <path d="M214.7,65.3v5.6l-4.9,2.8v-5.6l4.9-2.8ZM214.8,65.2l-5,2.9v5.8l5-2.9v-5.8h0Z"/>
  <path class="st16" d="M209.8,76.8l5-2.9v5.8l-5,2.8v-5.7Z"/>
  <path d="M214.7,74.1v5.6l-4.9,2.8v-5.6l4.9-2.8ZM214.8,73.9l-5,2.9v5.8l5-2.9v-5.8h0Z"/>
  <path class="st16" d="M209.8,85.5l5-2.9v5.8l-5,2.8v-5.7Z"/>
  <path d="M214.7,82.8v5.6l-4.9,2.8v-5.6l4.9-2.8ZM214.8,82.6l-5,2.9v5.8l5-2.9v-5.8h0Z"/>
  <path class="st14" d="M202.3,63.7v-5.8l2.5,1.5v5.7s-2.5-1.4-2.5-1.4Z"/>
  <path class="st15" d="M202.3,58.1l2.4,1.4v5.6l-2.4-1.3v-5.6M202.2,58v5.8l2.5,1.4v-5.8l-2.5-1.5h0Z"/>
  <path class="st14" d="M197.2,60.8v-5.8l2.5,1.5v5.7l-2.5-1.4Z"/>
  <path class="st15" d="M197.3,55.2l2.4,1.4v5.6l-2.4-1.3v-5.6M197.2,55v5.8l2.5,1.4v-5.8l-2.5-1.5h0Z"/>
  <path class="st14" d="M192.2,57.9v-5.8l2.5,1.5v5.7l-2.5-1.4Z"/>
  <path class="st15" d="M192.3,52.3l2.4,1.4v5.6l-2.4-1.3v-5.6M192.2,52.1v5.8l2.5,1.4v-5.8l-2.5-1.5h0Z"/>
  <path class="st14" d="M202.3,72.4v-5.8l2.5,1.5v5.7s-2.5-1.4-2.5-1.4Z"/>
  <path class="st15" d="M202.3,66.8l2.4,1.4v5.6l-2.4-1.3v-5.6M202.2,66.7v5.8l2.5,1.4v-5.8l-2.5-1.5h0Z"/>
  <path class="st14" d="M197.2,69.5v-5.8l2.5,1.5v5.7s-2.5-1.4-2.5-1.4Z"/>
  <path class="st15" d="M197.3,63.9l2.4,1.4v5.6l-2.4-1.3v-5.6M197.2,63.8v5.8l2.5,1.4v-5.8l-2.5-1.5h0Z"/>
  <path class="st16" d="M192.2,66.6v-5.8l2.5,1.5v5.7l-2.5-1.4Z"/>
  <path d="M192.3,61l2.4,1.4v5.6l-2.4-1.3v-5.6M192.2,60.9v5.8l2.5,1.4v-5.8l-2.5-1.5h0Z"/>
  <path class="st16" d="M202.3,81.1v-5.8l2.5,1.5v5.7s-2.5-1.4-2.5-1.4Z"/>
  <path d="M202.3,75.5l2.4,1.4v5.6l-2.4-1.3v-5.6M202.2,75.4v5.8l2.5,1.4v-5.8l-2.5-1.5h0Z"/>
  <path class="st16" d="M197.2,78.2v-5.8l2.5,1.5v5.7s-2.5-1.4-2.5-1.4Z"/>
  <path d="M197.3,72.6l2.4,1.4v5.6l-2.4-1.3v-5.6M197.2,72.5v5.8l2.5,1.4v-5.8l-2.5-1.5h0Z"/>
  <path class="st16" d="M192.2,75.3v-5.8l2.5,1.5v5.7s-2.5-1.4-2.5-1.4Z"/>
  <path d="M192.3,69.7l2.4,1.4v5.6l-2.4-1.3v-5.6M192.2,69.6v5.8l2.5,1.4v-5.8l-2.5-1.5h0Z"/>
  <path class="st16" d="M202.3,89.8v-5.8l2.5,1.5v5.7s-2.5-1.4-2.5-1.4Z"/>
  <path d="M202.3,84.2l2.4,1.4v5.6l-2.4-1.3v-5.6M202.2,84.1v5.8l2.5,1.4v-5.8l-2.5-1.5h0Z"/>
  <path class="st16" d="M197.2,86.9v-5.8l2.5,1.5v5.7s-2.5-1.4-2.5-1.4Z"/>
  <path d="M197.3,81.3l2.4,1.4v5.6l-2.4-1.3v-5.6M197.2,81.2v5.8l2.5,1.4v-5.8l-2.5-1.5h0Z"/>
  <path class="st16" d="M192.2,84v-5.8l2.5,1.5v5.7s-2.5-1.4-2.5-1.4Z"/>
  <path d="M192.3,78.4l2.4,1.4v5.6l-2.4-1.3v-5.6M192.2,78.3v5.8l2.5,1.4v-5.8l-2.5-1.5h0Z"/>
  <path class="st17" d="M188.9,68.6l10-5.8v37.7l-10,5.7v-37.7h0Z"/>
  <path d="M198.9,62.9v37.5l-9.9,5.7v-37.5s9.9-5.7,9.9-5.7ZM198.9,62.8l-10.1,5.8v37.7l10.1-5.8v-37.7h0Z"/>
  <path class="st16" d="M171.3,96.1v-37.6l17.5,10.1v37.6l-17.5-10.1Z"/>
  <path d="M171.4,58.6l17.3,10v37.4l-17.3-10v-37.4ZM171.3,58.4v37.7l17.6,10.2v-37.7l-17.6-10.2h0Z"/>
  <path class="st14" d="M171.3,58.4l10.1-5.7,17.6,10.2-10.1,5.7-17.6-10.1h0Z"/>
  <path class="st15" d="M181.4,52.7l17.4,10.1-9.9,5.7-17.4-10.1,9.9-5.7ZM181.4,52.6l-10.1,5.8,17.6,10.2,10.1-5.8-17.6-10.2Z"/>
  <path class="st7" d="M181.2,54.1l-7.6,4.4,15.3,8.8,7.6-4.4s-15.3-8.8-15.3-8.8Z"/>
  <path class="st17" d="M173.6,58.5l7.6-4.3v1.2l-6.6,3.7-1.1-.6s.1,0,.1,0Z"/>
  <path d="M181.2,54.2v1.1l-6.5,3.7-.9-.5,7.4-4.3ZM181.2,54.1l-7.6,4.4,1.1.6,6.5-3.8v-1.3h0Z"/>
  <path class="st16" d="M181.3,55.3v-1.1l15.1,8.7-.9.5-14.1-8.2h-.1Z"/>
  <path d="M181.4,54.3l14.9,8.6-.8.5-14-8.1v-1h0ZM181.2,54.1v1.3l14.2,8.2,1.1-.6-15.3-8.8h0Z"/>
  <path class="st14" d="M174.7,59.1l6.5-3.8,14.2,8.2-6.6,3.8-14.2-8.2s.1,0,.1,0Z"/>
  <path class="st16" d="M191.4,70l5-2.9v5.8l-5,2.8v-5.7Z"/>
  <path d="M196.3,67.3v5.6l-4.9,2.8v-5.6l4.9-2.8ZM196.4,67.1l-5,2.9v5.8l5-2.9v-5.8h0Z"/>
  <path class="st16" d="M191.4,78.7l5-2.9v5.8l-5,2.8v-5.7Z"/>
  <path d="M196.3,76v5.6l-4.9,2.8v-5.6l4.9-2.8ZM196.4,75.8l-5,2.9v5.8l5-2.9v-5.8h0Z"/>
  <path class="st16" d="M191.4,87.4l5-2.9v5.8l-5,2.8v-5.7Z"/>
  <path d="M196.3,84.7v5.6l-4.9,2.8v-5.6l4.9-2.8ZM196.4,84.5l-5,2.9v5.8l5-2.9v-5.8h0Z"/>
  <path class="st16" d="M191.4,96.1l5-2.9v5.8l-5,2.8v-5.7Z"/>
  <path d="M196.3,93.4v5.6l-4.9,2.8v-5.6l4.9-2.8ZM196.4,93.2l-5,2.9v5.8l5-2.9v-5.8h0Z"/>
  <path class="st14" d="M183.9,74.3v-5.8l2.5,1.5v5.7s-2.5-1.4-2.5-1.4Z"/>
  <path class="st15" d="M183.9,68.7l2.4,1.4v5.6l-2.4-1.3v-5.6M183.8,68.6v5.8l2.5,1.4v-5.8l-2.5-1.5h0Z"/>
  <path class="st14" d="M178.8,71.4v-5.8l2.5,1.5v5.7s-2.5-1.4-2.5-1.4Z"/>
  <path class="st15" d="M178.9,65.8l2.4,1.4v5.6l-2.4-1.3v-5.6M178.8,65.7v5.8l2.5,1.4v-5.8l-2.5-1.5h0Z"/>
  <path class="st14" d="M173.8,68.6v-5.8l2.5,1.5v5.7l-2.5-1.4Z"/>
  <path class="st15" d="M173.9,62.9l2.4,1.4v5.6l-2.4-1.3v-5.6M173.8,62.8v5.8l2.5,1.4v-5.8l-2.5-1.5h0Z"/>
  <path class="st14" d="M183.9,83.1v-5.8l2.5,1.5v5.7s-2.5-1.4-2.5-1.4Z"/>
  <path class="st15" d="M183.9,77.4l2.4,1.4v5.6l-2.4-1.3v-5.6M183.8,77.3v5.8l2.5,1.4v-5.8l-2.5-1.5h0Z"/>
  <path class="st14" d="M178.8,80.2v-5.8l2.5,1.5v5.7s-2.5-1.4-2.5-1.4Z"/>
  <path class="st15" d="M178.9,74.5l2.4,1.4v5.6l-2.4-1.3v-5.6M178.8,74.4v5.8l2.5,1.4v-5.8l-2.5-1.5h0Z"/>
  <path class="st14" d="M173.8,77.2v-5.8l2.5,1.5v5.7s-2.5-1.4-2.5-1.4Z"/>
  <path class="st15" d="M173.9,71.6l2.4,1.4v5.6l-2.4-1.3v-5.6M173.8,71.5v5.8l2.5,1.4v-5.8l-2.5-1.5h0Z"/>
  <path class="st14" d="M183.9,91.8v-5.8l2.5,1.5v5.7s-2.5-1.4-2.5-1.4Z"/>
  <path class="st15" d="M183.9,86.1l2.4,1.4v5.6l-2.4-1.3v-5.6M183.8,86v5.8l2.5,1.4v-5.8l-2.5-1.5h0Z"/>
  <path class="st14" d="M178.8,88.8v-5.8l2.5,1.5v5.7s-2.5-1.4-2.5-1.4Z"/>
  <path class="st15" d="M178.9,83.2l2.4,1.4v5.6l-2.4-1.3v-5.6M178.8,83.1v5.8l2.5,1.4v-5.8l-2.5-1.5h0Z"/>
  <path class="st14" d="M173.8,85.9v-5.8l2.5,1.5v5.7s-2.5-1.4-2.5-1.4Z"/>
  <path class="st15" d="M173.9,80.3l2.4,1.4v5.6l-2.4-1.3v-5.6M173.8,80.2v5.8l2.5,1.4v-5.8l-2.5-1.5h0Z"/>
  <path class="st14" d="M183.9,100.5v-5.8l2.5,1.5v5.7s-2.5-1.4-2.5-1.4Z"/>
  <path class="st15" d="M183.9,94.8l2.4,1.4v5.6l-2.4-1.3v-5.6M183.8,94.7v5.8l2.5,1.4v-5.8l-2.5-1.5h0Z"/>
  <path class="st14" d="M178.8,97.6v-5.8l2.5,1.5v5.7s-2.5-1.4-2.5-1.4Z"/>
  <path class="st15" d="M178.9,91.9l2.4,1.4v5.6l-2.4-1.3v-5.6M178.8,91.8v5.8l2.5,1.4v-5.8l-2.5-1.5h0Z"/>
  <path class="st14" d="M173.8,94.7v-5.8l2.5,1.5v5.7s-2.5-1.4-2.5-1.4Z"/>
  <path class="st15" d="M173.9,89l2.4,1.4v5.6l-2.4-1.3v-5.6M173.8,88.9v5.8l2.5,1.4v-5.8l-2.5-1.5h0Z"/>
  <path class="st13" d="M229.2,92.8l-11,6.5c-2.5,1.4-4.9,1.4-7.4,0l-18.4-10.6c-2.5-1.4-2.5-2.8,0-4.3l4.5-2.6v5.2l17.6,10.2,3.6-19.1,3.7,2.1,2.6-1.5,15.8-9.1v-4.3c.1,0,14.7,8.6,14.7,8.6,2.5,1.4,2.5,2.8,0,4.2l-25.7,14.8h0Z"/>
  <path class="st17" d="M244.1,72.1h-1.2v7.6c.4.3.8.3,1.2,0v-7.6Z"/>
  <circle class="st17" cx="243.1" cy="68.9" r="5.4"/>
  <circle class="st17" cx="245.5" cy="75.5" r="1.1"/>
  <path class="st4" d="M245.5,76.1c0,.8-.7,1.5-1.5,1.5"/>
  <path class="st17" d="M202.9,86.3l15.2-8.8v38.8l-15.2,8.7v-38.7Z"/>
  <path d="M218,77.7v38.6l-15.1,8.7v-38.6l15.1-8.7M218.1,77.5l-15.3,8.8v38.8l15.3-8.8v-38.8Z"/>
  <path class="st16" d="M187.6,116.3v-38.8l15.2,8.8v38.7l-15.2-8.8h0Z"/>
  <path d="M187.7,77.7l15.1,8.7v38.6l-15.1-8.7v-38.6M187.6,77.5v38.8l15.3,8.8v-38.8l-15.3-8.8Z"/>
  <path class="st9" d="M190.6,82.8l9.1,5.3v3.6l-9.1-5.3v-3.5h0Z"/>
  <path class="st9" d="M190.6,89.9l9.1,5.3v3.5l-9.1-5.3v-3.5Z"/>
  <path class="st9" d="M190.6,96.9l9.1,5.3v3.5l-9.1-5.3v-3.5Z"/>
  <path class="st9" d="M190.6,104l9.1,5.3v3.5l-9.1-5.3v-3.5Z"/>
  <path class="st9" d="M190.6,111.1l9.1,5.3v3.5l-9.1-5.3v-3.5Z"/>
  <path class="st16" d="M205.9,88.1l9.1-5.2v3.5l-9.1,5.2v-3.4h0Z"/>
  <path d="M214.9,83v3.3l-8.9,5.2v-3.3l8.9-5.2M215,82.8l-9.1,5.3v3.5l9.2-5.3v-3.5h0Z"/>
  <path class="st16" d="M205.9,95.2l9.1-5.3v3.5l-9.2,5.2v-3.4h0Z"/>
  <path d="M215,90v3.3l-9,5.2v-3.3l9-5.2ZM215.1,89.9l-9.2,5.3v3.5l9.2-5.3v-3.5Z"/>
  <path class="st16" d="M205.9,102.2l9.1-5.3v3.5l-9.2,5.2v-3.5h0Z"/>
  <path d="M215,97.1v3.3l-9,5.2v-3.3l9-5.2ZM215.1,96.9l-9.2,5.3v3.5l9.2-5.3v-3.5Z"/>
  <path class="st16" d="M205.9,109.3l9.1-5.2v3.5l-9.2,5.2v-3.5h0Z"/>
  <path d="M215,104.1v3.3l-9,5.2v-3.3l9-5.2ZM215.1,104l-9.2,5.3v3.5l9.2-5.3v-3.5Z"/>
  <path class="st16" d="M205.9,116.3l9.1-5.2v3.5l-9.2,5.2v-3.5h0Z"/>
  <path d="M215,111.2v3.3l-9,5.2v-3.3l9-5.2ZM215.1,111l-9.2,5.3v3.5l9.2-5.3v-3.5Z"/>
  <path class="st9" d="M190.6,75.8l-3,1.8,15.2,8.8,15.3-8.8-15.3-8.8-12.2,7Z"/>
  <path class="st1" d="M190.4,77.5l12.5-7.2,12.5,7.2-12.5,7.2-12.5-7.2Z"/>
  <path class="st17" d="M190.4,77.5l12.5-7.1v1.6l-11.1,6.3-1.3-.8h0Z"/>
  <path d="M202.8,70.5v1.4l-11,6.3-1.2-.7,12.2-7M202.9,70.3l-12.5,7.2,1.4.8,11.1-6.4v-1.6h0Z"/>
  <path class="st1" d="M213.9,78.3l-11.1-6.4v-1.6l12.5,7.2-1.4.8Z"/>
  <path class="st1" d="M191.8,78.3l11.1-6.4,11.1,6.4-11.1,6.4-11.1-6.4Z"/>
  <path class="st16" d="M229.2,92.9v-29.5l14.6,8.4v29.5l-14.6-8.4Z"/>
  <path d="M229.4,63.6l14.3,8.3v29.3l-14.3-8.3s0-29.3,0-29.3ZM229.2,63.2v29.7l14.7,8.5v-29.7s-14.7-8.5-14.7-8.5Z"/>
  <path class="st17" d="M244,71.7l32.9-18.9v29.6l-32.9,18.9v-29.6Z"/>
  <path d="M276.8,53v29.3l-32.7,18.9v-29.3s32.7-18.9,32.7-18.9ZM277,52.6l-33.1,19.1v29.7l33.1-19.1s0-29.7,0-29.7Z"/>
  <path class="st14" d="M229.3,63.2l33-19.1,14.6,8.4-33,19-14.6-8.4h0Z"/>
  <path class="st15" d="M262.3,44.3l14.5,8.4-32.9,19-14.5-8.4s32.9-19,32.9-19ZM262.3,44.1l-33.1,19.1,14.7,8.5,33.1-19.1-14.7-8.5h0Z"/>
  <path class="st13" d="M247.6,78.1v-4.2l11-6.4v4.2l-11,6.4Z"/>
  <path class="st13" d="M262.3,65.4v4.2l11-6.4v-4.2s-11,6.4-11,6.4Z"/>
  <path class="st13" d="M247.6,86.6v-4.2l11-6.4v4.2l-11,6.4Z"/>
  <path class="st13" d="M262.3,73.9v4.2l11-6.4v-4.2l-11,6.4Z"/>
  <path class="st13" d="M247.6,95.1v-4.2l11-6.4v4.2l-11,6.4Z"/>
  <path class="st13" d="M262.3,82.3v4.2l11-6.4v-4.2l-11,6.4Z"/>
  <path class="st17" d="M266,52.8l3-1.7v1.8l-3,1.7v-1.8Z"/>
  <path d="M268.9,51.3v1.6l-2.8,1.6v-1.6l2.8-1.6ZM269.1,51l-3.1,1.8v2l3.1-1.8v-2Z"/>
  <path class="st16" d="M259.7,51.1v-1.9l6.2,3.6v1.8l-6.2-3.6h0Z"/>
  <path d="M259.8,49.3l6,3.5v1.7l-6-3.5v-1.7ZM259.7,49.2v2l6.2,3.6v-2l-6.2-3.6Z"/>
  <path class="st14" d="M259.7,49.1l3.1-1.7,6.2,3.6-3.1,1.7-6.2-3.6Z"/>
  <path class="st15" d="M262.8,47.5l6,3.5-2.9,1.7-6-3.5,2.9-1.7ZM262.8,47.4l-3.1,1.8,6.2,3.6,3.1-1.8-6.2-3.6h0Z"/>
  <path class="st17" d="M255,59.2l3-1.7v1.8l-3,1.7v-1.8Z"/>
  <path d="M257.9,57.6v1.6l-2.8,1.6v-1.6l2.8-1.6M258,57.4l-3.1,1.8v2l3.1-1.8v-2Z"/>
  <path class="st16" d="M248.7,57.5v-1.9l6.2,3.6v1.8l-6.2-3.6h0Z"/>
  <path d="M248.8,55.7l6.1,3.5v1.7l-6.1-3.5v-1.7M248.7,55.6v2l6.2,3.6v-2l-6.2-3.6h0Z"/>
  <path class="st14" d="M248.7,55.5l3.1-1.7,6.2,3.6-3.1,1.7-6.2-3.6Z"/>
  <path class="st15" d="M251.8,53.9l6,3.5-2.9,1.7-6.1-3.5,2.9-1.7h.1ZM251.8,53.7l-3.1,1.8,6.2,3.6,3.1-1.8-6.2-3.6Z"/>
  <path class="st17" d="M137.3,159.7l9.9-5.6v20.1l-9.9,5.6v-20.1Z"/>
  <path d="M147.1,154.2v19.9l-9.7,5.6v-19.9l9.7-5.6ZM147.2,153.9l-10.1,5.8v20.3l10.1-5.8v-20.3Z"/>
  <path class="st12" d="M137.2,180l-22.6-13.1v-20.3l22.6,13.1v20.3Z"/>
  <path class="st14" d="M114.6,146.6l10.1-5.7,22.6,13.1-10,5.7-22.6-13h-.1Z"/>
  <path class="st15" d="M124.6,140.9l22.5,13-9.9,5.7-22.4-13,9.9-5.7h-.1ZM124.6,140.9l-10.1,5.8,22.6,13.1,10.1-5.8-22.6-13.1h0Z"/>
  <path class="st14" d="M127.2,159.7v-2.9l7.5,4.4v2.8l-7.5-4.3Z"/>
  <path class="st15" d="M127.2,157l7.4,4.3v2.7l-7.4-4.3s0-2.7,0-2.7ZM127.2,156.8v2.9l7.5,4.4v-2.9l-7.5-4.4Z"/>
  <path class="st14" d="M117.1,153.9v-2.9l7.5,4.4v2.8l-7.5-4.3Z"/>
  <path class="st15" d="M117.2,151.1l7.4,4.3v2.7l-7.4-4.3v-2.7ZM117.1,151v2.9l7.5,4.4v-2.9l-7.5-4.4Z"/>
  <path class="st14" d="M127.2,165.5v-2.9l7.5,4.4v2.8l-7.5-4.3Z"/>
  <path class="st15" d="M127.2,162.8l7.4,4.3v2.7l-7.4-4.3s0-2.7,0-2.7ZM127.2,162.6v2.9l7.5,4.4v-2.9l-7.5-4.4Z"/>
  <path class="st14" d="M117.1,159.7v-2.9l7.5,4.4v2.8l-7.5-4.3Z"/>
  <path class="st15" d="M117.2,157l7.4,4.3v2.7l-7.4-4.3v-2.7ZM117.1,156.8v2.9l7.5,4.4v-2.9l-7.5-4.4Z"/>
  <path class="st14" d="M127.2,171.3v-2.9l7.5,4.4v2.8l-7.5-4.3Z"/>
  <path class="st15" d="M127.2,168.6l7.4,4.3v2.7l-7.4-4.3s0-2.7,0-2.7ZM127.2,168.4v2.9l7.5,4.4v-2.9l-7.5-4.4Z"/>
  <path class="st14" d="M117.1,165.5v-2.9l7.5,4.4v2.8l-7.5-4.3Z"/>
  <path class="st15" d="M117.2,162.8l7.4,4.3v2.7l-7.4-4.3v-2.7ZM117.1,162.6v2.9l7.5,4.4v-2.9l-7.5-4.4Z"/>
  <path class="st16" d="M122.1,148.1v-1.3l-2.1-1.2v1.3l2.1,1.2Z"/>
  <path class="st17" d="M122.2,146.8l4.1-2.4v1.2l-4.1,2.4v-1.2Z"/>
  <path d="M126.3,144.5v1l-4,2.3v-1l4-2.3ZM126.4,144.3l-4.3,2.5v1.3l4.3-2.5v-1.3Z"/>
  <path class="st14" d="M120,145.5l4.3-2.4,2.1,1.2-4.2,2.4-2.1-1.2h-.1Z"/>
  <path class="st15" d="M124.2,143.2l2,1.1-4.1,2.4-2-1.1,4.1-2.4ZM124.2,143.1l-4.3,2.5,2.1,1.2,4.3-2.5-2.1-1.2Z"/>
  <path class="st16" d="M129.7,152.5v-1.3l-2.1-1.2v1.3l2.1,1.2Z"/>
  <path class="st17" d="M129.7,151.1l4.1-2.4v1.2l-4.1,2.4v-1.2Z"/>
  <path d="M133.8,148.9v1l-4,2.3v-1l4-2.3ZM133.9,148.7l-4.3,2.5v1.3l4.3-2.5v-1.3Z"/>
  <path class="st14" d="M127.5,149.9l4.3-2.4,2.1,1.2-4.2,2.4-2.1-1.2h-.1Z"/>
  <path class="st15" d="M131.8,147.5l2,1.1-4.1,2.4-2-1.1,4.1-2.4M131.8,147.4l-4.3,2.5,2.1,1.2,4.3-2.5-2.1-1.2Z"/>
  <path class="st17" d="M170.9,100.2h-1.2v5.1c.4.2.8.2,1.2,0v-5.1Z"/>
  <path class="st17" d="M170.3,100.9c3.1,0,5.7-2.6,5.7-5.7s-3.1-6.2-5.7-9.8c-2.4,2.9-5.7,6.4-5.7,9.8s2.6,5.7,5.7,5.7Z"/>
  <path class="st17" d="M181.9,106.5h-1.2v5.1c.4.2.8.2,1.2,0v-5.1Z"/>
  <path class="st17" d="M181.4,107.2c3.1,0,5.7-2.6,5.7-5.7s-3.1-6.2-5.7-9.8c-2.4,2.9-5.7,6.4-5.7,9.8s2.6,5.7,5.7,5.7Z"/>
  <path class="st17" d="M135.5,89.4l10.9-6.2v38.1l-10.9,6.2v-38.1Z"/>
  <path d="M146.2,83.4v37.8l-10.6,6.2v-37.8l10.6-6.2M146.4,83.1l-11,6.4v38.2l11-6.4s0-38.2,0-38.2Z"/>
  <path class="st16" d="M124.4,121.2v-38l10.9,6.3v38l-10.9-6.3Z"/>
  <path d="M124.6,83.4l10.6,6.2v37.8l-10.7-6.2v-37.8h0ZM124.4,83.1v38.2l11,6.4v-38.2l-11-6.4h0Z"/>
  <path class="st14" d="M124.5,83.1l10.9-6.3,10.9,6.3-10.9,6.3s-10.9-6.3-10.9-6.3Z"/>
  <path class="st15" d="M135.4,76.8l10.8,6.2-10.8,6.2-10.8-6.2,10.8-6.2ZM135.4,76.7l-11,6.4,11,6.4,11-6.4-11-6.4Z"/>
  <path class="st16" d="M130.4,83v-1.4l5,2.8v1.4l-5-2.8Z"/>
  <path d="M130.5,81.7l4.7,2.7v1.2l-4.7-2.7v-1.2ZM130.3,81.4v1.7l5.1,2.9v-1.7l-5.1-2.9Z"/>
  <path class="st17" d="M135.5,84.3l4.9-2.8v1.5l-4.9,2.8v-1.5Z"/>
  <path d="M140.2,81.7v1.2l-4.7,2.7v-1.2l4.7-2.7M140.4,81.4l-5.1,2.9v1.7l5.1-2.9v-1.7h0Z"/>
  <path class="st14" d="M130.4,81.4l5-2.9,4.9,2.9-4.9,2.8-4.9-2.8h-.1Z"/>
  <path class="st15" d="M135.4,78.6l4.8,2.8-4.8,2.8-4.8-2.8,4.8-2.8ZM135.4,78.4l-5.1,2.9,5.1,2.9,5.1-2.9-5.1-2.9Z"/>
  <path class="st7" d="M128,89.4v29.7"/>
  <path class="st7" d="M131.7,91.6v29.7"/>
  <path class="st7" d="M139.1,91.6v29.7"/>
  <path class="st7" d="M142.7,89.4v29.7"/>
  <path class="st17" d="M230,97.8h-1.2v7.6c.4.3.8.3,1.2,0v-7.6Z"/>
  <circle class="st17" cx="229.1" cy="94.6" r="5.4"/>
  <circle class="st17" cx="231.4" cy="101.2" r="1.1"/>
  <path class="st4" d="M231.4,101.8c0,.8-.7,1.5-1.5,1.5"/>
  <path class="st17" d="M251.3,110.4l16.5-9.5v42l-16.5,9.4v-41.9h0Z"/>
  <path d="M267.7,101v41.8l-16.3,9.4v-41.8s16.3-9.4,16.3-9.4ZM267.8,100.9l-16.6,9.6v42l16.6-9.6s0-42,0-42Z"/>
  <path class="st16" d="M234.7,142.8v-42l16.5,9.6v41.9l-16.5-9.5Z"/>
  <path d="M234.8,101l16.3,9.4v41.8l-16.3-9.4v-41.8ZM234.7,100.9v42l16.5,9.5v-42s-16.5-9.5-16.5-9.5Z"/>
  <path class="st9" d="M238,106.6l9.9,5.7v3.8l-9.9-5.7v-3.8Z"/>
  <path class="st9" d="M238,114.2l9.9,5.7v3.8l-9.9-5.7v-3.8Z"/>
  <path class="st9" d="M238,121.9l9.9,5.7v3.8l-9.9-5.7s0-3.8,0-3.8Z"/>
  <path class="st9" d="M238,129.5l9.9,5.7v3.8l-9.9-5.7v-3.8Z"/>
  <path class="st9" d="M238,137.2l9.9,5.7v3.8l-9.9-5.7v-3.8Z"/>
  <path class="st16" d="M254.6,112.3l9.9-5.7v3.8l-9.9,5.7v-3.7h0Z"/>
  <path d="M264.3,106.8v3.6l-9.7,5.6v-3.6l9.7-5.6M264.4,106.6l-9.9,5.7v3.8l9.9-5.7v-3.8h0Z"/>
  <path class="st16" d="M254.6,120l9.9-5.7v3.8l-9.9,5.7v-3.8Z"/>
  <path d="M264.4,114.4v3.6l-9.7,5.6v-3.6l9.7-5.6M264.5,114.2l-9.9,5.7v3.8l9.9-5.7v-3.8Z"/>
  <path class="st16" d="M254.6,127.6l9.9-5.7v3.8l-9.9,5.6v-3.7Z"/>
  <path d="M264.4,122v3.6l-9.7,5.6v-3.6l9.7-5.6ZM264.5,121.9l-9.9,5.7v3.8l9.9-5.7s0-3.8,0-3.8Z"/>
  <path class="st16" d="M254.6,135.2l9.9-5.7v3.8l-9.9,5.6v-3.7h0Z"/>
  <path d="M264.4,129.7v3.6l-9.7,5.6v-3.6l9.7-5.6ZM264.5,129.5l-9.9,5.7v3.8l9.9-5.7v-3.8Z"/>
  <path class="st16" d="M254.6,142.9l9.9-5.7v3.8l-9.9,5.6v-3.7h0Z"/>
  <path d="M264.4,137.3v3.6l-9.7,5.6v-3.6l9.7-5.6M264.5,137.1l-9.9,5.7v3.8l9.9-5.7v-3.8Z"/>
  <path class="st9" d="M238,99l-3.3,1.9,16.5,9.5,16.5-9.5-16.5-9.5-13.2,7.6h0Z"/>
  <path class="st1" d="M237.7,100.9l13.5-7.8,13.5,7.8-13.5,7.8-13.5-7.8h0Z"/>
  <path class="st17" d="M237.8,100.8l13.5-7.7v1.7l-12.1,6.9-1.5-.9h.1Z"/>
  <path d="M251.1,93.2v1.5l-11.9,6.9-1.3-.7,13.2-7.6h0ZM251.2,93.1l-13.5,7.8,1.5.9,12-6.9v-1.7h0Z"/>
  <path class="st1" d="M263.3,101.7l-12-6.9v-1.7l13.5,7.8-1.5.9h0Z"/>
  <path class="st1" d="M239.2,101.7l12-6.9,12,6.9-12,6.9-12-7h0Z"/>
  <path class="st17" d="M277,131.3l14.1-8.1v35.9l-14.1,8.1v-35.9h0Z"/>
  <path d="M291,123.3v35.8l-14,8.1v-35.8s14-8.1,14-8.1ZM291.1,123.1l-14.2,8.2v36l14.2-8.2v-36Z"/>
  <path class="st16" d="M262.8,159.1v-35.9l14.1,8.2v35.8l-14.1-8.1Z"/>
  <path d="M262.9,123.3l14,8.1v35.8l-14-8.1v-35.8M262.8,123.2v36l14.1,8.2v-36l-14.1-8.2Z"/>
  <path class="st9" d="M265.6,128.1l8.5,4.9v3.3l-8.5-4.9v-3.3Z"/>
  <path class="st9" d="M265.6,134.6l8.5,4.9v3.3l-8.5-4.9v-3.3Z"/>
  <path class="st9" d="M265.6,141.2l8.5,4.9v3.3l-8.5-4.9v-3.3Z"/>
  <path class="st9" d="M265.6,147.7l8.5,4.9v3.3l-8.5-4.9v-3.3Z"/>
  <path class="st9" d="M265.6,154.2l8.5,4.9v3.3l-8.5-4.9v-3.3Z"/>
  <path class="st16" d="M279.8,133l8.5-4.9v3.2l-8.4,4.8v-3.2h-.1Z"/>
  <path d="M288.2,128.2v3.1l-8.3,4.8v-3.1l8.3-4.8M288.3,128.1l-8.5,4.9v3.3l8.5-4.9v-3.3h0Z"/>
  <path class="st16" d="M279.8,139.5l8.5-4.9v3.2l-8.5,4.8v-3.2h0Z"/>
  <path d="M288.2,134.8v3.1l-8.3,4.8v-3.1l8.3-4.8ZM288.3,134.6l-8.5,4.9v3.3l8.5-4.9v-3.3Z"/>
  <path class="st16" d="M279.8,146l8.5-4.9v3.2l-8.5,4.8v-3.2h0Z"/>
  <path d="M288.2,141.3v3.1l-8.3,4.8v-3.1l8.3-4.8ZM288.3,141.1l-8.5,4.9v3.3l8.5-4.9v-3.3Z"/>
  <path class="st16" d="M279.8,152.6l8.5-4.9v3.2l-8.5,4.8v-3.2h0Z"/>
  <path d="M288.2,147.8v3.1l-8.3,4.8v-3.1l8.3-4.8ZM288.3,147.7l-8.5,4.9v3.3l8.5-4.9v-3.3Z"/>
  <path class="st16" d="M279.8,159.1l8.5-4.9v3.2l-8.5,4.8v-3.2h0Z"/>
  <path d="M288.2,154.4v3.1l-8.3,4.8v-3.1l8.3-4.8ZM288.3,154.2l-8.5,4.9v3.3l8.5-4.9v-3.3Z"/>
  <path class="st9" d="M265.6,121.5l-2.8,1.6,14.1,8.2,14.2-8.2-14.1-8.2-11.3,6.5h-.1Z"/>
  <path class="st1" d="M265.4,123.2l11.6-6.7,11.6,6.7-11.6,6.7-11.6-6.7Z"/>
  <path class="st17" d="M265.4,123.1l11.6-6.6v1.4l-10.3,5.9-1.3-.7h0Z"/>
  <path d="M276.9,116.6v1.3l-10.2,5.9-1.1-.6,11.3-6.5M277,116.5l-11.6,6.7,1.3.7,10.3-5.9v-1.5h0Z"/>
  <path class="st1" d="M287.3,123.9l-10.3-5.9v-1.5l11.6,6.7-1.3.7h0Z"/>
  <path class="st1" d="M266.7,123.9l10.3-5.9,10.3,5.9-10.3,5.9-10.3-5.9Z"/>
  <path class="st13" d="M91.4,140.4l11,6.4v-21.2l-11-6.4v21.2Z"/>
  <path class="st17" d="M102.5,125.6l25.6-14.7v21.1l-25.6,14.7s0-21.1,0-21.1Z"/>
  <path d="M128,111v20.8l-25.4,14.6v-20.8s25.4-14.6,25.4-14.6ZM128.2,110.7l-25.8,14.9v21.2l25.8-14.9v-21.2h0Z"/>
  <path class="st14" d="M91.5,119.2l25.7-14.8,10.9,6.3-25.6,14.8-10.9-6.3h0Z"/>
  <path class="st15" d="M117.1,104.4l10.8,6.2-25.5,14.7-10.8-6.2,25.5-14.7ZM117.1,104.3l-25.8,14.9,11,6.4,25.8-14.9s-11-6.4-11-6.4Z"/>
  <path class="st14" d="M95.1,129.7v-4.1l3.6,2.1v4.1l-3.6-2.1Z"/>
  <path class="st15" d="M95.2,125.8l3.4,2v4l-3.4-2v-4ZM95.1,125.6v4.2l3.7,2.1v-4.2l-3.7-2.1h0Z"/>
  <path class="st13" d="M109.8,125.6v4.2l-3.7,2.1v-4.2l3.7-2.1h0Z"/>
  <path class="st13" d="M117.1,121.3v4.2l-3.7,2.1v-4.2l3.7-2.1Z"/>
  <path class="st13" d="M124.5,117.1v4.2l-3.7,2.1v-4.2l3.7-2.1Z"/>
  <path class="st13" d="M109.8,134v4.2l-3.7,2.1v-4.2l3.7-2.1Z"/>
  <path class="st13" d="M117.1,129.8v4.2l-3.7,2.1v-4.2l3.7-2.1Z"/>
  <path class="st13" d="M124.5,125.6v4.2l-3.7,2.1v-4.2l3.7-2.1h0Z"/>
  <path class="st14" d="M95.1,138.2v-4.1l3.6,2.1v4.1l-3.6-2.1Z"/>
  <path class="st15" d="M95.2,134.2l3.4,2v4l-3.4-2v-4ZM95.1,134v4.2l3.7,2.1v-4.2l-3.7-2.1Z"/>
  <path class="st13" d="M104.3,122.4v-2.5l-7.4-4.2v2.5l7.4,4.2Z"/>
  <path class="st17" d="M104.4,119.9l18.2-10.4v2.3l-18.2,10.4s0-2.3,0-2.3Z"/>
  <path d="M122.4,109.6v2l-18,10.4v-2l18-10.4ZM122.6,109.3l-18.4,10.6v2.5l18.4-10.6v-2.5Z"/>
  <path class="st14" d="M97,115.6l18.3-10.6,7.2,4.2-18.3,10.6-7.2-4.2Z"/>
  <path class="st15" d="M115.3,105.2l7.1,4.1-18.2,10.5-7.1-4.1,18.2-10.5ZM115.3,105l-18.4,10.6,7.4,4.2,18.4-10.6-7.4-4.2Z"/>
  <path class="st13" d="M102.3,150.4c-.9,0-1.8-.5-3.6-1.6l-11-6.4c-1.8-1-2.7-1.6-2.7-2s1-1,2.7-2l3.7-2.1v4.2l11.1,6.4,25.8-14.9v-8.4l7.1,4.2,11.1-6.4v-4.2l3.6,2c1.8,1,2.7,1.6,2.7,2s-1,1-2.7,2l-44.2,25.5c-1.8,1.1-2.7,1.6-3.6,1.6h0Z"/>
  <path class="st0" d="M98.5,55.9h-.2.2Z"/>
  <path class="st17" d="M96,59.4l1.9-1,4.3,19-.9.6-5.2-18.6h-.1Z"/>
  <path d="M97.8,58.5l4.3,18.9-.8.5-5.2-18.5,1.7-1h0ZM97.8,58.4l-1.9,1.1,5.2,18.7,1-.6-4.3-19.1h0Z"/>
  <path class="st16" d="M94.6,58.4l1.3,1.1,5,17.8-6.3-18.9Z"/>
  <path d="M94.7,58.5l1.2,1,4.7,16.9-5.9-17.8M94.6,58.4l6.6,19.7-5.2-18.7-1.3-1.1h0Z"/>
  <path class="st16" d="M91.7,53.9l-5.6-2.9-1.4.3,4.3-2.3h1.7l4.9,2.9,1.9,1.8-4,2.1-1.8-1.8h0Z"/>
  <path d="M90.7,49l4.9,2.9,1.9,1.7-3.9,2.1-1.8-1.8h0l-5.6-2.9h0l-1.1.2,4-2.2h1.7M90.7,48.9h-1.7l-4.3,2.4,1.4-.3,5.6,2.9,1.8,1.8,4-2.1-1.9-1.8-4.9-2.9h0Z"/>
  <path class="st17" d="M90.2,56.9l-4.8-2.3-.7-3.4,1.4-.3,5.6,2.9,1.8,1.8v1.6l-3.2,1.1v-1.6.2h-.1Z"/>
  <path class="st17" d="M97.5,53.6v4l-4-.2v-1.6l4-2.1h0Z"/>
  <path class="st10" d="M94.4,57.2l1.8,42.2-1.8,1h-3.6l-1.8-1,1.3-41.5,4.1-.7Z"/>
  <path class="st17" d="M96.8,56.8l16.6-23.1.7.8-15.8,23.1-1.5-.7h0Z"/>
  <path d="M113.4,33.8l.7.6-15.8,23.1-1.4-.7s16.5-23,16.5-23ZM113.4,33.6l-16.6,23.2,1.6.7,15.9-23.2-.8-.8h0Z"/>
  <path class="st16" d="M95.7,56l17.7-22.4-16.7,23.2-1.1-.8h0Z"/>
  <path d="M112.3,35.1l-15.5,21.6-1-.7,16.5-20.9ZM113.4,33.6l-17.7,22.4,1.1.8s16.6-23.2,16.6-23.2Z"/>
  <path class="st16" d="M94.5,58.5c-.3-.2-.4-.5-.4-1,0-1,.7-2.2,1.6-2.7.2,0,.5-.2.7-.2h.3l1.4.9-2.3,3.7-1.3-.8h0Z"/>
  <path d="M96.3,54.7h.5l1.2.9-2.2,3.7-1.3-.8h0c-.3-.2-.4-.5-.4-1,0-1,.7-2.2,1.5-2.7.2,0,.5-.2.7-.2M96.3,54.7c-.2,0-.4,0-.7.2-.9.5-1.6,1.7-1.6,2.7s.2.8.4,1h0l1.3.8,2.3-3.8-1.3-.8h-.2s-.2-.2-.3-.2h0Z"/>
  <path class="st17" d="M96.2,59.4c-.5,0-.8-.4-.8-1.1,0-1,.7-2.2,1.5-2.7.2,0,.5-.2.7-.2.5,0,.8.4.8,1.1,0,1-.7,2.2-1.5,2.7-.2,0-.5.2-.7.2Z"/>
  <path d="M97.6,55.6c.5,0,.8.4.8,1,0,1-.7,2.1-1.5,2.6-.2,0-.5.2-.7.2-.5,0-.8-.4-.8-1,0-1,.7-2.1,1.5-2.6.2,0,.5-.2.7-.2M97.6,55.5c-.2,0-.4,0-.7.2-.9.5-1.6,1.7-1.6,2.7s.3,1.1.9,1.1.4,0,.7-.2c.9-.5,1.6-1.7,1.6-2.7s-.3-1.1-.9-1.1Z"/>
  <path class="st17" d="M75.2,61.1l20.7-4.2c-.3.6-.6,1.4-.3,2.3l-20.8,3.1.4-1.3h0Z"/>
  <path d="M95.7,57c-.2.6-.4,1.4-.2,2.2l-20.6,3.2.4-1.2,20.5-4.2M95.8,56.8l-20.7,4.2-.4,1.3,20.9-3.2c-.3-.8,0-1.6.2-2.4h0Z"/>
  <path class="st16" d="M75.2,61l19.3-5,1.4.7-20.7,4.2h0Z"/>
  <path class="st0" d="M54.1,81.6h-.2.2Z"/>
  <path class="st17" d="M51.5,85.1l1.9-1,4.3,19.1-.9.6-5.2-18.6h0Z"/>
  <path d="M53.3,84.2l4.3,18.9-.8.5-5.2-18.5,1.7-1h0ZM53.4,84l-1.9,1.1,5.2,18.7,1-.6-4.3-19.1h0Z"/>
  <path class="st16" d="M50.2,84l1.3,1.1,5,17.8s-6.3-18.9-6.3-18.9Z"/>
  <path d="M50.2,84.2l1.2,1,4.7,16.9-5.9-17.8M50.1,84.1l6.6,19.7-5.2-18.7-1.3-1.1h0Z"/>
  <path class="st16" d="M47.2,79.6l-5.6-2.9-1.4.3,4.3-2.3h1.7l4.9,2.9,1.9,1.8-4,2.1-1.8-1.8h0Z"/>
  <path d="M46.2,74.6l4.9,2.9,1.9,1.7-4,2.1-1.8-1.8h0l-5.6-2.9h0l-1.1.2,4-2.2h1.7M46.2,74.6h-1.7l-4.3,2.4,1.4-.3,5.6,2.9,1.8,1.8,4-2.1-1.9-1.8-4.9-2.9h0Z"/>
  <path class="st17" d="M45.8,82.6l-4.8-2.3-.7-3.4,1.4-.3,5.6,2.9,1.8,1.8v1.6l-3.2,1.1v-1.6.2h0Z"/>
  <path class="st17" d="M53.1,79.3v4l-4-.2v-1.6l4-2.1h0Z"/>
  <path class="st10" d="M49.9,82.8l1.8,42.2-1.8,1.1h-3.6l-1.8-1,1.3-41.5,4.1-.7h0Z"/>
  <path class="st17" d="M52.3,82.4l16.6-23.1.7.8-15.8,23.1-1.5-.7h0Z"/>
  <path d="M68.9,59.4l.7.6-15.8,23.1-1.4-.7s16.5-23,16.5-23ZM68.9,59.3l-16.6,23.2,1.6.7,15.9-23.2-.8-.7h0Z"/>
  <path class="st16" d="M51.2,81.7l17.7-22.4-16.6,23.2s-1.1-.8-1.1-.8Z"/>
  <path d="M67.8,60.8l-15.5,21.6-1-.7s16.5-20.9,16.5-20.9ZM68.9,59.3l-17.7,22.4,1.1.8,16.6-23.2Z"/>
  <path class="st16" d="M50.1,84.2c-.3-.2-.4-.5-.4-1,0-1,.7-2.2,1.5-2.7.2,0,.5-.2.7-.2h.3l1.4.9-2.3,3.7-1.3-.8h0Z"/>
  <path d="M51.9,80.4h.5l1.2.9-2.2,3.7-1.3-.8h0c-.3-.2-.4-.5-.4-1,0-1,.7-2.2,1.5-2.7.2,0,.5-.2.7-.2M51.9,80.3c-.2,0-.5,0-.7.2-.9.5-1.6,1.7-1.6,2.7s.2.8.4,1h0l1.3.8,2.3-3.8-1.3-.8h-.2c0-.2-.2-.2-.3-.2h0Z"/>
  <path class="st17" d="M51.8,85.1c-.5,0-.8-.4-.8-1.1,0-1,.7-2.2,1.5-2.7.2,0,.5-.2.7-.2.5,0,.8.4.8,1.1,0,1-.7,2.2-1.5,2.7-.2,0-.5.2-.7.2Z"/>
  <path d="M53.2,81.2c.5,0,.8.4.8,1,0,1-.7,2.1-1.5,2.6-.2,0-.5.2-.7.2-.5,0-.8-.4-.8-1,0-1,.7-2.1,1.5-2.6.2,0,.5-.2.7-.2M53.2,81.1c-.2,0-.5,0-.7.2-.9.5-1.6,1.7-1.6,2.7s.3,1.1.9,1.1.5,0,.7-.2c.9-.5,1.6-1.7,1.6-2.7s-.3-1.1-.9-1.1Z"/>
  <path class="st17" d="M30.8,86.7l20.6-4.2c-.3.6-.6,1.4-.3,2.3l-20.8,3.1.4-1.3h0Z"/>
  <path d="M51.2,82.6c-.2.6-.4,1.4-.2,2.2l-20.6,3.2.4-1.2,20.5-4.2M51.4,82.5l-20.7,4.2-.4,1.3,20.9-3.2c-.3-.8,0-1.6.2-2.4h0Z"/>
  <path class="st16" d="M30.7,86.7l19.3-5,1.4.7-20.7,4.2h0Z"/>
  <path class="st17" d="M238.7,64.8l-.8-.4,1-1.7v2h-.2Z"/>
  <path d="M238.9,62.8v1.9h0l-.8-.4.9-1.6h0ZM238.9,62.7l-1,1.7.8.4h.1v-2h0Z"/>
  <rect class="st16" x="233.8" y="60.3" width="4.3" height="4.9" rx=".3" ry=".3" transform="translate(63.6 235.7) rotate(-60)"/>
  <path d="M235,59.9h0l3.8,2.2s.1.2,0,.2l-1.9,3.2h-.1c-.1,0,0,0,0,0l-3.8-2.2s-.1-.2,0-.2l1.9-3.2s.1,0,.1,0ZM235,59.8h-.2l-1.9,3.2v.3l3.8,2.2h.3l1.9-3.2v-.3l-3.8-2.2h-.1Z"/>
  <path class="st0" d="M235.9,60.4l-2.1,3.7"/>
  <path d="M233.8,64l2.1-3.7h0l-2.1,3.7h0Z"/>
  <path class="st0" d="M237,61l-2.1,3.7"/>
  <path d="M234.8,64.6l2.1-3.7h0l-2.1,3.7h0Z"/>
  <path class="st0" d="M238.1,61.6l-2.1,3.7"/>
  <path d="M235.9,65.2l2.1-3.7h0l-2.1,3.7h0Z"/>
  <path class="st0" d="M234.4,60.7l4.3,2.5"/>
  <path d="M234.3,60.7h0l4.3,2.4h0l-4.3-2.4Z"/>
  <path class="st0" d="M233.8,61.6l4.3,2.5"/>
  <path d="M233.8,61.6h0l4.3,2.4h0l-4.3-2.4Z"/>
  <path class="st0" d="M233.3,62.5l4.3,2.5"/>
  <path d="M233.3,62.6h0l4.3,2.4h0l-4.3-2.4Z"/>
  <path class="st17" d="M245,68.4l-.8-.4,1-1.7v2h-.2Z"/>
  <path d="M245.2,66.3v1.9h0l-.8-.4.9-1.6h0ZM245.2,66.2l-1,1.7.8.4h.1v-2h0Z"/>
  <rect class="st16" x="240.1" y="64" width="4.3" height="4.9" rx=".3" ry=".3" transform="translate(63.6 243) rotate(-60)"/>
  <path d="M241.3,63.5h0l3.8,2.2s.1.2,0,.2l-1.9,3.2h-.1c-.1,0,0,0,0,0l-3.8-2.2s-.1-.2,0-.2l1.9-3.2s.1,0,.1,0ZM241.3,63.4h-.2l-1.9,3.2v.3l3.8,2.2h.3l1.9-3.2v-.3l-3.8-2.2s-.1,0-.1,0Z"/>
  <path class="st0" d="M242.2,64l-2.1,3.7"/>
  <path d="M240.1,67.6l2.1-3.7h0l-2.1,3.7h0Z"/>
  <path class="st0" d="M243.3,64.6l-2.1,3.7"/>
  <path d="M241.1,68.2l2.1-3.7h0l-2.1,3.7h0Z"/>
  <path class="st0" d="M244.4,65.2l-2.1,3.7"/>
  <path d="M242.2,68.8l2.1-3.7h0l-2.1,3.7h0Z"/>
  <path class="st0" d="M240.6,64.3l4.3,2.5"/>
  <path d="M240.6,64.3h0l4.3,2.4h0l-4.3-2.4Z"/>
  <path class="st0" d="M240.1,65.2l4.3,2.5"/>
  <path d="M240.1,65.2h0l4.3,2.4h0l-4.3-2.4Z"/>
  <path class="st0" d="M239.6,66.1l4.3,2.5"/>
  <path d="M239.6,66.1h0l4.3,2.4h0l-4.3-2.4Z"/>
  <path class="st17" d="M246.8,103.4l-.8-.4,1-1.7v2h-.2Z"/>
  <path d="M247,101.4v1.9h0l-.8-.4.9-1.6h0ZM247,101.3l-1,1.7.8.4h.1v-2h0Z"/>
  <rect class="st16" x="241.9" y="99" width="4.3" height="4.9" rx=".3" ry=".3" transform="translate(34.2 262.1) rotate(-60)"/>
  <path d="M243.1,98.6h0l3.8,2.2s.1.2,0,.2l-1.9,3.2h-.1c-.1,0,0,0,0,0l-3.8-2.2s-.1-.2,0-.2l1.9-3.2h.1ZM243.1,98.5h-.2l-1.9,3.2v.3l3.8,2.2h.3l1.9-3.2v-.3l-3.8-2.2h-.1Z"/>
  <path class="st0" d="M244.1,99l-2.1,3.7"/>
  <path d="M241.9,102.7l2.1-3.7h0l-2.1,3.7h0Z"/>
  <path class="st0" d="M245.1,99.6l-2.1,3.7"/>
  <path d="M242.9,103.3l2.1-3.7h0l-2.1,3.7h0Z"/>
  <path class="st0" d="M246.2,100.2l-2.1,3.7"/>
  <path d="M244,103.9l2.1-3.7h0l-2.1,3.7h0Z"/>
  <path class="st0" d="M242.5,99.3l4.3,2.5"/>
  <path d="M242.4,99.3h0l4.3,2.4h0l-4.3-2.4Z"/>
  <path class="st0" d="M241.9,100.2l4.3,2.5"/>
  <path d="M241.9,100.3h0l4.3,2.4h0l-4.3-2.4Z"/>
  <path class="st0" d="M241.4,101.2l4.3,2.5"/>
  <path d="M241.4,101.2h0l4.3,2.4h0l-4.3-2.4Z"/>
  <path class="st17" d="M252.5,106.7l-.8-.4,1-1.7v2h-.2Z"/>
  <path d="M252.6,104.7v1.9h0l-.8-.4.9-1.6h0ZM252.7,104.6l-1,1.7.8.4h.1v-2h0Z"/>
  <rect class="st16" x="247.5" y="102.3" width="4.3" height="4.9" rx=".3" ry=".3" transform="translate(34.1 268.6) rotate(-60)"/>
  <path d="M248.8,101.9h0l3.8,2.2s.1.2,0,.2l-1.9,3.2h-.1c-.1,0,0,0,0,0l-3.8-2.2s-.1-.2,0-.2l1.9-3.2h.1ZM248.8,101.8h-.2l-1.9,3.2v.3l3.8,2.2h.3l1.9-3.2v-.3l-3.8-2.2h-.1Z"/>
  <path class="st0" d="M249.7,102.3l-2.1,3.7"/>
  <path d="M247.5,105.9l2.1-3.7h0l-2.1,3.7h0Z"/>
  <path class="st0" d="M250.8,102.9l-2.1,3.7"/>
  <path d="M248.6,106.6l2.1-3.7h0l-2.1,3.7h0Z"/>
  <path class="st0" d="M251.9,103.5l-2.1,3.7"/>
  <path d="M249.7,107.2l2.1-3.7h0l-2.1,3.7h0Z"/>
  <path class="st0" d="M248.1,102.6l4.3,2.5"/>
  <path d="M248.1,102.6h0l4.3,2.4h0l-4.3-2.4Z"/>
  <path class="st0" d="M247.6,103.5l4.3,2.5"/>
  <path d="M247.6,103.6h0l4.3,2.4h0l-4.3-2.4Z"/>
  <path class="st0" d="M247.1,104.4l4.3,2.5"/>
  <path d="M247,104.5h0l4.3,2.4h0l-4.3-2.4Z"/>
  <path class="st17" d="M251.8,100.3l-.8-.4,1-1.7v2h-.2Z"/>
  <path d="M252,98.3v1.9h0l-.8-.4.9-1.6h0ZM252,98.2l-1,1.7.8.4h.1v-2h0Z"/>
  <rect class="st16" x="246.8" y="95.9" width="4.3" height="4.9" rx=".3" ry=".3" transform="translate(39.3 264.8) rotate(-60)"/>
  <path d="M248.1,95.5h0l3.8,2.2s.1.2,0,.2l-1.9,3.2h-.1c-.1,0,0,0,0,0l-3.8-2.2s-.1-.2,0-.2l1.9-3.2h.1ZM248.1,95.4h-.2l-1.9,3.2v.3l3.8,2.2h.3l1.9-3.2v-.3l-3.8-2.2h-.1Z"/>
  <path class="st0" d="M249.1,95.9l-2.1,3.7"/>
  <path d="M246.9,99.6l2.1-3.7h0l-2.1,3.7h0Z"/>
  <path class="st0" d="M250.1,96.5l-2.1,3.7"/>
  <path d="M247.9,100.2l2.1-3.7h0l-2.1,3.7h0Z"/>
  <path class="st0" d="M251.2,97.1l-2.1,3.7"/>
  <path d="M249,100.8l2.1-3.7h0l-2.1,3.7h0Z"/>
  <path class="st0" d="M247.5,96.2l4.3,2.5"/>
  <path d="M247.4,96.3h0l4.3,2.4h0l-4.3-2.4Z"/>
  <path class="st0" d="M246.9,97.1l4.3,2.5"/>
  <path d="M246.9,97.2h0l4.3,2.4h0l-4.3-2.4Z"/>
  <path class="st0" d="M246.4,98.1l4.3,2.5"/>
  <path d="M246.4,98.1h0l4.3,2.4h0l-4.3-2.4Z"/>
  <path class="st17" d="M257.5,103.6l-.8-.4,1-1.7v2h-.2Z"/>
  <path d="M257.6,101.6v1.9h0l-.8-.4.9-1.6h-.1ZM257.7,101.5l-1,1.7.8.4h.1v-2h.1Z"/>
  <rect class="st16" x="252.7" y="99.2" width="4.3" height="4.9" rx=".3" ry=".3" transform="translate(39.4 271.5) rotate(-60)"/>
  <path d="M253.8,98.8h0l3.8,2.2s.1.2,0,.2l-1.9,3.2h-.1c-.1,0,0,0,0,0l-3.8-2.2s-.1-.2,0-.2l1.9-3.2h.1ZM253.8,98.7h-.2l-1.9,3.2v.3l3.8,2.2h.3l1.9-3.2v-.3l-3.8-2.2h-.1Z"/>
  <path class="st0" d="M254.7,99.2l-2.1,3.7"/>
  <path d="M252.5,102.9l2.1-3.7h0l-2.1,3.7h0Z"/>
  <path class="st0" d="M255.8,99.8l-2.1,3.7"/>
  <path d="M253.6,103.5l2.1-3.7h0l-2.1,3.7h0Z"/>
  <path class="st0" d="M256.9,100.4l-2.1,3.7"/>
  <path d="M254.7,104.1l2.1-3.7h0l-2.1,3.7h0Z"/>
  <path class="st0" d="M253.1,99.5l4.3,2.5"/>
  <path d="M253.1,99.5h0l4.3,2.4h0l-4.3-2.4h0Z"/>
  <path class="st0" d="M252.6,100.4l4.3,2.5"/>
  <path d="M252.6,100.5h0l4.3,2.4h0l-4.3-2.4h0Z"/>
  <path class="st0" d="M252.1,101.4l4.3,2.5"/>
  <path d="M252.1,101.4h0l4.3,2.4h0l-4.3-2.4h0Z"/>
  <path class="st17" d="M200,79.1l-.8-.4,1-1.7v2h-.2Z"/>
  <path d="M200.2,77.1v1.9h0l-.8-.4.9-1.6h0ZM200.2,77l-1,1.7.8.4h.1v-2h0Z"/>
  <rect class="st16" x="195.1" y="74.7" width="4.3" height="4.9" rx=".3" ry=".3" transform="translate(31.8 209.4) rotate(-60)"/>
  <path d="M196.3,74.3h0l3.8,2.2s.1.2,0,.2l-1.9,3.2h-.1c-.1,0,0,0,0,0l-3.8-2.2s-.1-.2,0-.2l1.9-3.2h.1ZM196.3,74.2h-.2l-1.9,3.2v.3l3.8,2.2h.3l1.9-3.2v-.3l-3.8-2.2h-.1Z"/>
  <path class="st0" d="M197.3,74.7l-2.1,3.7"/>
  <path d="M195.1,78.4l2.1-3.7h0l-2.1,3.7h0Z"/>
  <path class="st0" d="M198.3,75.3l-2.1,3.7"/>
  <path d="M196.1,79l2.1-3.7h0l-2.1,3.7h0Z"/>
  <path class="st0" d="M199.4,75.9l-2.1,3.7"/>
  <path d="M197.2,79.6l2.1-3.7h0l-2.1,3.7h0Z"/>
  <path class="st0" d="M195.7,75l4.3,2.5"/>
  <path d="M195.6,75h0l4.3,2.4h0l-4.3-2.4Z"/>
  <path class="st0" d="M195.1,75.9l4.3,2.5"/>
  <path d="M195.1,76h0l4.3,2.4h0l-4.3-2.4Z"/>
  <path class="st0" d="M194.6,76.9l4.3,2.5"/>
  <path d="M194.6,76.9h0l4.3,2.4h0l-4.3-2.4Z"/>
  <path class="st17" d="M205.7,82.4l-.8-.4,1-1.7v2h-.2Z"/>
  <path d="M205.8,80.4v1.9h0l-.8-.4.9-1.6h0ZM205.9,80.3l-1,1.7.8.4h.1v-2h0Z"/>
  <rect class="st16" x="200.8" y="78" width="4.3" height="4.9" rx=".3" ry=".3" transform="translate(31.8 216) rotate(-60)"/>
  <path d="M201.9,77.6h0l3.8,2.2s.1.2,0,.2l-1.9,3.2h-.1c-.1,0,0,0,0,0l-3.8-2.2s-.1-.2,0-.2l1.9-3.2h.1ZM201.9,77.5h-.2l-1.9,3.2v.3l3.8,2.2h.3l1.9-3.2v-.3l-3.8-2.2h-.1Z"/>
  <path class="st0" d="M202.9,78l-2.1,3.7"/>
  <path d="M200.7,81.6l2.1-3.7h0l-2.1,3.7h0Z"/>
  <path class="st0" d="M204,78.6l-2.1,3.7"/>
  <path d="M201.8,82.3l2.1-3.7h0l-2.1,3.7h0Z"/>
  <path class="st0" d="M205.1,79.2l-2.1,3.7"/>
  <path d="M202.9,82.9l2.1-3.7h0l-2.1,3.7h0Z"/>
  <path class="st0" d="M201.3,78.3l4.3,2.5"/>
  <path d="M201.3,78.4h0l4.3,2.4h0l-4.3-2.4Z"/>
  <path class="st0" d="M200.8,79.2l4.3,2.5"/>
  <path d="M200.8,79.3h0l4.3,2.4h0l-4.3-2.4Z"/>
  <path class="st0" d="M200.3,80.2l4.3,2.5"/>
  <path d="M200.2,80.2h0l4.3,2.4h0l-4.3-2.4Z"/>
  <path class="st17" d="M205,76l-.8-.4,1-1.7v2h-.2Z"/>
  <path d="M205.2,74v1.9h0l-.8-.4.9-1.6h0ZM205.2,73.9l-1,1.7.8.4h.1v-2h0Z"/>
  <rect class="st16" x="200.1" y="71.6" width="4.3" height="4.9" rx=".3" ry=".3" transform="translate(37 212.2) rotate(-60)"/>
  <path d="M201.3,71.2h0l3.8,2.2s.1.2,0,.2l-1.9,3.2h-.1c-.1,0,0,0,0,0l-3.8-2.2s-.1-.2,0-.2l1.9-3.2h.1ZM201.3,71.1h-.2l-1.9,3.2v.3l3.8,2.2h.3l1.9-3.2v-.3l-3.8-2.2h-.1Z"/>
  <path class="st0" d="M202.3,71.6l-2.1,3.7"/>
  <path d="M200.1,75.3l2.1-3.7h0l-2.1,3.7h0Z"/>
  <path class="st0" d="M203.3,72.2l-2.1,3.7"/>
  <path d="M201.2,75.9l2.1-3.7h0l-2.1,3.7h0Z"/>
  <path class="st0" d="M204.4,72.8l-2.1,3.7"/>
  <path d="M202.2,76.5l2.1-3.7h0l-2.1,3.7h0Z"/>
  <path class="st0" d="M200.7,71.9l4.3,2.5"/>
  <path d="M200.6,72h0l4.3,2.4h0l-4.3-2.4Z"/>
  <path class="st0" d="M200.1,72.8l4.3,2.5"/>
  <path d="M200.1,72.9h0l4.3,2.4h0l-4.3-2.4Z"/>
  <path class="st0" d="M199.6,73.8l4.3,2.5"/>
  <path d="M199.6,73.8h0l4.3,2.4h0l-4.3-2.4Z"/>
  <path class="st17" d="M210.7,79.3l-.8-.4,1-1.7v2h-.2Z"/>
  <path d="M210.8,77.3v1.9h0l-.8-.4.9-1.6h0ZM210.9,77.2l-1,1.7.8.4h.1v-2h0Z"/>
  <rect class="st16" x="205.8" y="74.9" width="4.3" height="4.9" rx=".3" ry=".3" transform="translate(37 218.8) rotate(-60)"/>
  <path d="M207,74.5h0l3.8,2.2s.1.2,0,.2l-1.9,3.2h-.1c-.1,0,0,0,0,0l-3.8-2.2s-.1-.2,0-.2l1.9-3.2h.1ZM207,74.4h-.2l-1.9,3.2v.3l3.8,2.2h.3l1.9-3.2v-.3l-3.8-2.2h-.1Z"/>
  <path class="st0" d="M207.9,74.9l-2.1,3.7"/>
  <path d="M205.7,78.6l2.1-3.7h0l-2.1,3.7h0Z"/>
  <path class="st0" d="M209,75.5l-2.1,3.7"/>
  <path d="M206.8,79.2l2.1-3.7h0l-2.1,3.7h0Z"/>
  <path class="st0" d="M210.1,76.1l-2.1,3.7"/>
  <path d="M207.9,79.8l2.1-3.7h0l-2.1,3.7h0Z"/>
  <path class="st0" d="M206.3,75.2l4.3,2.5"/>
  <path d="M206.3,75.3h0l4.3,2.4h0l-4.3-2.4Z"/>
  <path class="st0" d="M205.8,76.1l4.3,2.5"/>
  <path d="M205.8,76.2h0l4.3,2.4h0l-4.3-2.4Z"/>
  <path class="st0" d="M205.3,77.1l4.3,2.5"/>
  <path d="M205.2,77.1h0l4.3,2.4h0l-4.3-2.4Z"/>
  <path class="st17" d="M194.4,63.7l-.8-.5,1-1.7v2h-.1v.2Z"/>
  <path d="M194.5,61.7v1.9h0l-.8-.4.9-1.6h0ZM194.6,61.6l-1,1.7.8.5h.1v-2h0v-.2Z"/>
  <rect class="st16" x="189.6" y="59.3" width="4.3" height="4.9" rx=".3" ry=".3" transform="translate(42.4 196.9) rotate(-60)"/>
  <path d="M190.6,58.9h0l3.8,2.2s.1.2,0,.2l-1.9,3.2h-.1c-.1,0,0,0,0,0l-3.8-2.2s-.1-.2,0-.2l1.9-3.2s.1,0,.1,0ZM190.6,58.8h-.2l-1.9,3.2v.3l3.8,2.2h.3l1.9-3.2v-.3l-3.8-2.2h-.1Z"/>
  <path class="st0" d="M191.6,59.3l-2.1,3.7"/>
  <path d="M189.4,63l2.1-3.7h0l-2.1,3.7h0Z"/>
  <path class="st0" d="M192.7,60l-2.1,3.7"/>
  <path d="M190.5,63.6l2.1-3.7h0l-2.1,3.7h0Z"/>
  <path class="st0" d="M193.7,60.6l-2.1,3.7"/>
  <path d="M191.6,64.2l2.1-3.7h0l-2.1,3.7h0Z"/>
  <path class="st0" d="M190,59.7l4.3,2.5"/>
  <path d="M190,59.7h0l4.3,2.4h0l-4.3-2.4Z"/>
  <path class="st0" d="M189.5,60.6l4.3,2.5"/>
  <path d="M189.4,60.6h0l4.3,2.4h0l-4.3-2.4Z"/>
  <path class="st0" d="M188.9,61.5l4.3,2.5"/>
  <path d="M188.9,61.5h0l4.3,2.4h0l-4.3-2.4Z"/>
  <path class="st17" d="M243.7,62.1l-.8-.5,1-1.7v2h-.1v.2Z"/>
  <path d="M243.9,60v1.9h0l-.8-.4.9-1.6h0ZM243.9,60l-1,1.7.8.5h.1v-2h0v-.2Z"/>
  <rect class="st16" x="238.8" y="57.8" width="4.3" height="4.9" rx=".3" ry=".3" transform="translate(68.3 238.8) rotate(-60)"/>
  <path d="M240,57.2h0l3.8,2.2s.1.2,0,.2l-1.9,3.2h-.1c-.1,0,0,0,0,0l-3.8-2.2s-.1-.2,0-.2l1.9-3.2h.1ZM240,57.1h-.2l-1.9,3.2v.3l3.8,2.2h.3l1.9-3.2v-.3l-3.8-2.2h-.1Z"/>
  <path class="st0" d="M241,57.7l-2.1,3.7"/>
  <path d="M238.8,61.3l2.1-3.7h0l-2.1,3.7h0Z"/>
  <path class="st0" d="M242,58.3l-2.1,3.7"/>
  <path d="M239.9,61.9l2.1-3.7h0l-2.1,3.7h0Z"/>
  <path class="st0" d="M243.1,58.9l-2.1,3.7"/>
  <path d="M240.9,62.5l2.1-3.7h0l-2.1,3.7h0Z"/>
  <path class="st0" d="M239.4,58l4.3,2.5"/>
  <path d="M239.3,58h0l4.3,2.4h0l-4.3-2.4Z"/>
  <path class="st0" d="M238.8,58.9l4.3,2.5"/>
  <path d="M238.8,58.9h0l4.3,2.4h0l-4.3-2.4Z"/>
  <path class="st0" d="M238.3,59.8l4.3,2.5"/>
  <path d="M238.3,59.9h0l4.3,2.4h0l-4.3-2.4Z"/>
  <path class="st17" d="M250,65.6l-.8-.4,1-1.7v2h-.2Z"/>
  <path d="M250.2,63.6v1.9h0l-.8-.4.9-1.6h0ZM250.2,63.5l-1,1.7.8.4h.1v-2h0Z"/>
  <rect class="st16" x="245.2" y="61.3" width="4.3" height="4.9" rx=".3" ry=".3" transform="translate(68.5 246.1) rotate(-60)"/>
  <path d="M246.3,60.8h0l3.8,2.2s.1.2,0,.2l-1.9,3.2h-.1c-.1,0,0,0,0,0l-3.8-2.2s-.1-.2,0-.2l1.9-3.2s.1,0,.1,0ZM246.3,60.7h-.2l-1.9,3.2v.3l3.8,2.2h.3l1.9-3.2v-.3l-3.8-2.2h-.1Z"/>
  <path class="st0" d="M247.3,61.2l-2.1,3.7"/>
  <path d="M245.1,64.9l2.1-3.7h0l-2.1,3.7h0Z"/>
  <path class="st0" d="M248.3,61.8l-2.1,3.7"/>
  <path d="M246.1,65.5l2.1-3.7h0l-2.1,3.7h0Z"/>
  <path class="st0" d="M249.4,62.5l-2.1,3.7"/>
  <path d="M247.2,66.1l2.1-3.7h0l-2.1,3.7h0Z"/>
  <path class="st0" d="M245.7,61.5l4.3,2.5"/>
  <path d="M245.6,61.6h0l4.3,2.4h0l-4.3-2.4Z"/>
  <path class="st0" d="M245.1,62.5l4.3,2.5"/>
  <path d="M245.1,62.5h0l4.3,2.4h0l-4.3-2.4Z"/>
  <path class="st0" d="M244.6,63.4l4.3,2.5"/>
  <path d="M244.6,63.4h0l4.3,2.4h0l-4.3-2.4Z"/>
  <path class="st17" d="M248.7,59.2l-.8-.5,1-1.7v2h-.1v.2Z"/>
  <path d="M248.8,57.2v1.9h0l-.8-.4.9-1.6h0ZM248.8,57.1l-1,1.7.8.5h.1v-2h0v-.2Z"/>
  <rect class="st16" x="243.8" y="54.8" width="4.3" height="4.9" rx=".3" ry=".3" transform="translate(73.4 241.6) rotate(-60)"/>
  <path d="M244.9,54.3h0l3.8,2.2s.1.2,0,.2l-1.9,3.2h-.1c-.1,0,0,0,0,0l-3.8-2.2s-.1-.2,0-.2l1.9-3.2h.1ZM244.9,54.2h-.2l-1.9,3.2v.3l3.8,2.2h.3l1.9-3.2v-.3l-3.8-2.2h-.1Z"/>
  <path class="st0" d="M245.9,54.8l-2.1,3.7"/>
  <path d="M243.7,58.4l2.1-3.7h0l-2.1,3.7h0Z"/>
  <path class="st0" d="M247,55.4l-2.1,3.7"/>
  <path d="M244.8,59l2.1-3.7h0l-2.1,3.7h0Z"/>
  <path class="st0" d="M248,56l-2.1,3.7"/>
  <path d="M245.9,59.7l2.1-3.7h0l-2.1,3.7h0Z"/>
  <path class="st0" d="M244.3,55.1l4.3,2.5"/>
  <path d="M244.3,55.1h0l4.3,2.4h0l-4.3-2.4Z"/>
  <path class="st0" d="M243.8,56l4.3,2.5"/>
  <path d="M243.7,56h0l4.3,2.4h0l-4.3-2.4Z"/>
  <path class="st0" d="M243.2,56.9l4.3,2.5"/>
  <path d="M243.2,57h0l4.3,2.4h0l-4.3-2.4Z"/>
  <path class="st17" d="M255,62.8l-.8-.5,1-1.7v2h-.1v.2Z"/>
  <path d="M255.1,60.7v1.9h0l-.8-.4.9-1.6h0ZM255.1,60.7l-1,1.7.8.5h.1v-2h0v-.2Z"/>
  <rect class="st16" x="250" y="58.3" width="4.3" height="4.9" rx=".3" ry=".3" transform="translate(73.5 248.8) rotate(-60)"/>
  <path d="M251.2,57.9h0l3.8,2.2s.1.2,0,.2l-1.9,3.2h-.1c-.1,0,0,0,0,0l-3.8-2.2s-.1-.2,0-.2l1.9-3.2h.1ZM251.2,57.8h-.2l-1.9,3.2v.3l3.8,2.2h.3l1.9-3.2v-.3l-3.8-2.2h-.1Z"/>
  <path class="st0" d="M252.2,58.3l-2.1,3.7"/>
  <path d="M250,62l2.1-3.7h0l-2.1,3.7h0Z"/>
  <path class="st0" d="M253.3,59l-2.1,3.7"/>
  <path d="M251.1,62.6l2.1-3.7h0l-2.1,3.7h0Z"/>
  <path class="st0" d="M254.3,59.6l-2.1,3.7"/>
  <path d="M252.1,63.2l2.1-3.7h0l-2.1,3.7h0Z"/>
  <path class="st0" d="M250.6,58.7l4.3,2.5"/>
  <path d="M250.6,58.7h0l4.3,2.4h0l-4.3-2.4Z"/>
  <path class="st0" d="M250.1,59.6l4.3,2.5"/>
  <path d="M250,59.6h0l4.3,2.4h0l-4.3-2.4Z"/>
  <path class="st0" d="M249.5,60.5l4.3,2.5"/>
  <path d="M249.5,60.5h0l4.3,2.4h0l-4.3-2.4Z"/>
  <path class="st17" d="M191.1,65.7l-.8-.4,1-1.7v2h-.2Z"/>
  <path d="M191.2,63.7v1.9h0l-.8-.4.9-1.6h0ZM191.2,63.6l-1,1.7.8.4h.1v-2h0Z"/>
  <rect class="st16" x="186.1" y="61.2" width="4.3" height="4.9" rx=".3" ry=".3" transform="translate(39 194.9) rotate(-60)"/>
  <path d="M187.3,60.9h0l3.8,2.2s.1.2,0,.2l-1.9,3.2h-.1c-.1,0,0,0,0,0l-3.8-2.2s-.1-.2,0-.2l1.9-3.2s.1,0,.1,0ZM187.3,60.8h-.2l-1.9,3.2v.3l3.8,2.2h.3l1.9-3.2v-.3l-3.8-2.2h-.1Z"/>
  <path class="st0" d="M188.3,61.3l-2.1,3.7"/>
  <path d="M186.1,65l2.1-3.7h0l-2.1,3.7h0Z"/>
  <path class="st0" d="M189.4,61.9l-2.1,3.7"/>
  <path d="M187.2,65.6l2.1-3.7h0l-2.1,3.7h0Z"/>
  <path class="st0" d="M190.4,62.5l-2.1,3.7"/>
  <path d="M188.2,66.2l2.1-3.7h0l-2.1,3.7h0Z"/>
  <path class="st0" d="M186.7,61.6l4.3,2.5"/>
  <path d="M186.7,61.6h0l4.3,2.4h0l-4.3-2.4Z"/>
  <path class="st0" d="M186.2,62.5l4.3,2.5"/>
  <path d="M186.1,62.6h0l4.3,2.4h0l-4.3-2.4Z"/>
  <path class="st0" d="M185.6,63.5l4.3,2.5"/>
  <path d="M185.6,63.5h0l4.3,2.4h0l-4.3-2.4Z"/>
  <path class="st17" d="M188.3,60.1l-.8-.5,1-1.7v2h-.1v.2Z"/>
  <path d="M188.4,58v1.9h0l-.8-.4.9-1.6h0ZM188.4,58l-1,1.7.8.5h.1v-2h0v-.2Z"/>
  <rect class="st16" x="183.4" y="55.6" width="4.3" height="4.9" rx=".3" ry=".3" transform="translate(42.5 189.7) rotate(-60)"/>
  <path d="M184.5,55.2h0l3.8,2.2s.1.2,0,.2l-1.9,3.2h-.1c-.1,0,0,0,0,0l-3.8-2.2s-.1-.2,0-.2l1.9-3.2h.1ZM184.5,55.1h-.2l-1.9,3.2v.3l3.8,2.2h.3l1.9-3.2v-.3l-3.8-2.2h-.1Z"/>
  <path class="st0" d="M185.5,55.7l-2.1,3.7"/>
  <path d="M183.3,59.3l2.1-3.7h0l-2.1,3.7h0Z"/>
  <path class="st0" d="M186.6,56.3l-2.1,3.7"/>
  <path d="M184.4,59.9l2.1-3.7h0l-2.1,3.7h0Z"/>
  <path class="st0" d="M187.6,56.9l-2.1,3.7"/>
  <path d="M185.5,60.6l2.1-3.7h0l-2.1,3.7h0Z"/>
  <path class="st0" d="M183.9,56l4.3,2.5"/>
  <path d="M183.9,56h0l4.3,2.4h0l-4.3-2.4Z"/>
  <path class="st0" d="M183.4,56.9l4.3,2.5"/>
  <path d="M183.3,56.9h0l4.3,2.4h0l-4.3-2.4Z"/>
  <path class="st0" d="M182.8,57.8l4.3,2.5"/>
  <path d="M182.8,57.8h0l4.3,2.4h0l-4.3-2.4Z"/>
  <path class="st17" d="M185,62l-.8-.5,1-1.7v2h-.1v.2Z"/>
  <path d="M185.1,60v1.9h0l-.8-.4.9-1.6h0ZM185.1,59.9l-1,1.7.8.5h.1v-2h0v-.2Z"/>
  <rect class="st16" x="180.1" y="57.5" width="4.3" height="4.9" rx=".3" ry=".3" transform="translate(39.2 187.8) rotate(-60)"/>
  <path d="M181.2,57.2h0l3.8,2.2s.1.2,0,.2l-1.9,3.2h-.1c-.1,0,0,0,0,0l-3.8-2.2s-.1-.2,0-.2l1.9-3.2h.1ZM181.2,57.1h-.2l-1.9,3.2v.3l3.8,2.2h.3l1.9-3.2v-.3l-3.8-2.2h-.1Z"/>
  <path class="st0" d="M182.2,57.6l-2.1,3.7"/>
  <path d="M180,61.3l2.1-3.7h0l-2.1,3.7h0Z"/>
  <path class="st0" d="M183.3,58.2l-2.1,3.7"/>
  <path d="M181.1,61.9l2.1-3.7h0l-2.1,3.7h0Z"/>
  <path class="st0" d="M184.3,58.8l-2.1,3.7"/>
  <path d="M182.1,62.5l2.1-3.7h0l-2.1,3.7h0Z"/>
  <path class="st0" d="M180.6,57.9l4.3,2.5"/>
  <path d="M180.6,57.9h0l4.3,2.4h0l-4.3-2.4Z"/>
  <path class="st0" d="M180.1,58.8l4.3,2.5"/>
  <path d="M180,58.9h0l4.3,2.4h0l-4.3-2.4Z"/>
  <path class="st0" d="M179.5,59.8l4.3,2.5"/>
  <path d="M179.5,59.8h0l4.3,2.4h0l-4.3-2.4Z"/>
  <path class="st17" d="M203.8,164l-.3-.2h.7l3.9,2v.6l-4.3-2.4h0Z"/>
  <path class="st17" d="M204.1,163.7l2.9,1.6-.3-4-2.6,2.4h0Z"/>
  <path class="st17" d="M214.9,151.5l.6-.3h.1c.4,0,.8.6,1,1.2.2.5,0,.9-.2,1.1l-.4.3-1.2-2.2h0Z"/>
  <path d="M215.7,151.2c.3,0,.8.6,1,1.2,0,.2.2.8-.2,1.1l-.4.3-1.1-2.2.6-.4h.1M215.7,151.1h-.2l-.6.4,1.2,2.3.4-.3c.8-.5-.2-2.4-.8-2.4h0Z"/>
  <path class="st16" d="M210.4,150.5c.5-.2,1-.3,1.5-.3,1.4,0,2.7.7,3.5,1.9.9,1.5.9,2.8.7,3.6-.3,1-.9,1.8-1.8,2.4l-3.9-7.6h0Z"/>
  <path d="M211.9,150.2h0c1.4,0,2.7.8,3.5,2,.9,1.5.9,2.8.7,3.6-.2,1-.9,1.8-1.7,2.3l-3.9-7.5c.5-.2,1-.3,1.5-.3h-.1ZM211.9,150.2c-.5,0-1.1.1-1.6.4l3.9,7.6c1.7-1,2.7-3.4,1.1-6-.9-1.3-2.2-1.9-3.5-1.9h.1Z"/>
  <path class="st17" d="M209.8,160.7l3,1.5-.2-4.4-2.8,2.9Z"/>
  <path class="st17" d="M209.3,151.1l1-.5c2.2,0,3.8,2,4.4,3.9.5,1.6.3,3.1-.6,3.7l-4.8-7.1h0Z"/>
  <path d="M210.4,150.5h0c1,0,1.9.5,2.7,1.3s1.3,1.7,1.6,2.7c.5,1.6.3,3-.6,3.6l-4.8-7.1,1-.5h0M210.4,150.5h0l-1,.5,4.9,7.1c2.2-1.5,0-7.7-3.8-7.7h0Z"/>
  <path class="st16" d="M204.9,163.2l-4.5-7.4,8.8-4.8h.5c1,0,2,.5,2.8,1.5,1.2,1.4,1.8,3.2,1.5,4.7l-1.6.6s-.1,1.4-.9,1.8c-.8.4-3.4,1.9-3.4,1.9v-1l-1.6.8c-.2,1.4-1.3,1.9-1.8,1.9h.2Z"/>
  <path d="M209.9,151h0c1,0,1.9.6,2.8,1.6,1.1,1.3,1.8,3.2,1.5,4.6l-1.6.6h0s-.1,1.4-.9,1.8c-.7.4-2.9,1.6-3.3,1.9v-1h0l-1.5.9h0c-.2,1.3-1.2,1.9-1.8,1.9l-4.4-7.3,8.8-4.8h.5M209.8,151h-.5l-8.9,4.8,4.5,7.4c.5,0,1.6-.5,1.8-1.9l1.5-.8v1.1s2.6-1.5,3.4-1.9.9-1.8.9-1.8l1.6-.6c.4-2.7-1.9-6.2-4.4-6.2h0Z"/>
  <path class="st17" d="M203.5,163.5c-.3,0-.6-.2-.9-.3-1.8-.9-3.2-3.2-3.4-5.1v-.9l-.3-.5,1-.6c.3-.2.6-.2.9-.2s.8.1,1.3.4c1.8.9,3.2,3.2,3.4,5.1,0,.8-.2,1.5-.6,1.9l-1.1.7-.3-.4h0Z"/>
  <path d="M200.9,155.8h0c.4,0,.8.2,1.3.4,1.7.9,3.2,3.2,3.4,5.1,0,.8-.2,1.5-.6,1.9s-.3.2-.3.2l-.8.5-.2-.4h0c-.3,0-.6-.2-.9-.3-1.7-.9-3.2-3.2-3.4-5.1v-.9h0l-.3-.4,1-.6h0c.2-.2.5-.2.9-.2h0M200.9,155.8c-.3,0-.6,0-.9.2h0l-1,.6.3.4c0,.3-.1.6,0,.9.1,1.9,1.6,4.2,3.4,5.1.3.2.6.3.9.3l.3.4.8-.5.3-.2h0c.4-.4.7-1,.6-1.9-.1-1.9-1.6-4.2-3.4-5.1-.5-.2-.9-.4-1.3-.4h0v.2h0Z"/>
  <path class="st0" d="M204.9,163.2s-.2.1-.3.2l.3-.2Z"/>
  <path class="st16" d="M201.6,164.6c-1.1,0-2.2-.5-2.7-.9l-1.6-2.3c-.2-.7-.4-2.9,1.6-4.6.3-.3.7-.4,1.1-.4s.8.1,1.3.4c1.8.9,3.3,3.2,3.4,5.1,0,1.1-.3,1.9-1.1,2.1-.6.4-1.3.6-2,.6h0Z"/>
  <path d="M200,156.4h0c.4,0,.8.2,1.3.4,1.7.9,3.2,3.2,3.4,5.1,0,1.1-.3,1.9-1.1,2.1-.6.4-1.3.6-2,.6-1.1,0-2.1-.5-2.7-.9l-1.6-2.3c-.2-.7-.4-2.9,1.6-4.5.3-.3.7-.4,1.1-.4h0M200,156.4c-.4,0-.8.1-1.1.4-2,1.6-1.9,3.7-1.6,4.6l1.6,2.3c.5.4,1.5.9,2.7.9s1.4-.2,2-.6c.7-.3,1.1-1,1.1-2.2-.1-1.9-1.6-4.2-3.4-5.1-.5-.2-.9-.4-1.3-.4h0Z"/>
  <path class="st17" d="M199.3,163.5h-.1.1Z"/>
  <path class="st17" d="M198.3,163.3c-.3-.3-.6-.7-.8-1.1l-.5-.7.7-.3h.2c.1,0,.3,0,.4.1.6.3,1.1,1,1.1,1.6s0,.5-.2.6l-.6.3-.3-.5h0Z"/>
  <path d="M198.1,161.1c.1,0,.3,0,.4.1.6.3,1,1,1.1,1.6,0,.3,0,.5-.2.6h-.1l-.5.3-.3-.5h0c-.3-.3-.6-.7-.7-1.1s0,0,0,0l-.4-.6.6-.3h.2M198.1,161.1h-.2l-.7.4.4.7c.1.4.4.9.8,1.1l.4.5.5-.3h.1c.2-.2.3-.4.2-.7,0-.6-.5-1.4-1.1-1.7-.1,0-.3-.1-.4-.1h0Z"/>
  <path class="st16" d="M198.4,163.9c-.1,0-.3,0-.4-.1-.6-.3-1.1-1-1.1-1.6s0-.4.2-.6c0-.1.2-.1.4-.1s.3,0,.4.1c.6.3,1.1,1,1.1,1.6s0,.4-.2.6c0,.1-.2.1-.4.1Z"/>
  <path d="M197.4,161.4c.1,0,.3,0,.4.1.6.3,1,1,1.1,1.6,0,.2,0,.4-.2.6s-.2.1-.3.1-.3,0-.4-.1c-.6-.3-1-1-1.1-1.6,0-.2,0-.4.2-.6s.2-.1.3-.1M197.4,161.4c-.4,0-.6.3-.6.7,0,.6.5,1.4,1.1,1.7.1,0,.3.1.4.1.4,0,.6-.3.6-.7,0-.6-.5-1.4-1.1-1.7-.1,0-.3-.1-.4-.1Z"/>
  <path class="st17" d="M214.2,156.9l.2,4.3-1.6,1-.3-4.4,1.6-.9h.1Z"/>
  <path class="st17" d="M214.4,161.2l1,.4-1.5,1.1-1.1-.5,1.6-1Z"/>
  <path class="st17" d="M209.8,160.7l4,2.4v-.7l-3.5-2-.5.3Z"/>
  <path class="st17" d="M215.4,161.6v.6l-1.6,1v-.7l1.6-.9h0Z"/>
  <path class="st17" d="M208.3,160.5l.2,4-1.4.9-.3-4,1.5-.8h0Z"/>
  <path class="st17" d="M208.5,164.4l1.1.5-1.5.9-1-.5,1.4-.9Z"/>
  <path class="st17" d="M209.6,164.9l-1.5.9v.6l1.5-.9v-.6Z"/>
  <path class="st17" d="M214.8,170.3l-.3-.2h.7l3.9,2v.6l-4.3-2.4h0Z"/>
  <path class="st17" d="M215.2,170.1l2.9,1.6-.3-4-2.6,2.4h0Z"/>
  <path class="st17" d="M225.9,157.9l.6-.3h.1c.4,0,.8.6,1,1.2.2.5,0,.9-.2,1.1l-.4.3-1.2-2.2h0Z"/>
  <path d="M226.7,157.6c.3,0,.8.6,1,1.2,0,.2.2.8-.2,1.1l-.4.3-1.1-2.2.6-.4h.1M226.7,157.5h-.2l-.6.4,1.2,2.3.4-.3c.8-.5-.2-2.4-.8-2.4h0Z"/>
  <path class="st16" d="M221.4,156.9c.5-.2,1-.3,1.5-.3,1.4,0,2.7.7,3.5,1.9.9,1.5.9,2.8.7,3.6-.3,1-.9,1.8-1.8,2.4l-3.9-7.6h0Z"/>
  <path d="M222.9,156.6h0c1.4,0,2.7.8,3.5,2,.9,1.5.9,2.8.7,3.6-.2,1-.9,1.8-1.7,2.3l-3.9-7.5c.5-.2,1-.3,1.5-.3h-.1ZM222.9,156.6c-.5,0-1.1.1-1.6.4l3.9,7.6c1.7-1,2.7-3.4,1.1-6-.9-1.3-2.2-1.9-3.5-1.9h.1Z"/>
  <path class="st17" d="M220.8,167.1l3,1.5-.2-4.4-2.8,2.9Z"/>
  <path class="st17" d="M220.4,157.4l1-.5c2.2,0,3.8,2,4.4,3.9.5,1.6.3,3.1-.6,3.7l-4.8-7.1h0Z"/>
  <path d="M221.4,157c1,0,1.9.4,2.7,1.2s1.3,1.7,1.6,2.7c.5,1.6.3,3-.6,3.6l-4.8-7.1,1-.5h0M221.4,156.9h0l-1,.5,4.9,7.1c2.2-1.5,0-7.7-3.8-7.7h0Z"/>
  <path class="st16" d="M216,169.6l-4.5-7.4,8.8-4.8h.5c1,0,2,.5,2.8,1.5,1.2,1.4,1.8,3.2,1.5,4.7l-1.6.6s-.1,1.4-.9,1.8c-.8.4-3.4,1.9-3.4,1.9v-1l-1.6.8c-.2,1.4-1.3,1.9-1.8,1.9h.2Z"/>
  <path d="M220.9,157.4c1,0,1.9.5,2.8,1.5,1.1,1.3,1.8,3.2,1.5,4.6l-1.6.6h0s-.1,1.4-.9,1.8c-.7.4-2.9,1.6-3.3,1.9v-1h0l-1.5.9h0c-.2,1.3-1.2,1.9-1.8,1.9l-4.4-7.3,8.8-4.8h.5M220.9,157.4h-.5l-8.9,4.8,4.5,7.4c.5,0,1.6-.5,1.8-1.9l1.5-.8v1.1s2.6-1.5,3.4-1.9.9-1.8.9-1.8l1.6-.6c.4-2.7-1.9-6.2-4.4-6.2h0Z"/>
  <path class="st17" d="M214.6,169.9c-.3,0-.6-.2-.9-.3-1.8-.9-3.2-3.2-3.4-5.1v-.9l-.3-.5,1-.6c.3-.2.6-.2.9-.2s.8.1,1.3.4c1.8.9,3.2,3.2,3.4,5.1,0,.8-.2,1.5-.6,1.9l-1.1.7-.3-.4h0Z"/>
  <path d="M211.9,162.2h0c.4,0,.8.2,1.3.4,1.7.9,3.2,3.2,3.4,5.1,0,.8-.2,1.5-.6,1.9s-.3.2-.3.2l-.8.5-.2-.4h0c-.3,0-.6-.1-.9-.3-1.7-.9-3.2-3.2-3.4-5.1v-.9h0l-.3-.4,1-.6h0c.2-.2.5-.2.9-.2h0M211.9,162.2c-.3,0-.6,0-.9.2h0l-1,.6.3.4c0,.3-.1.6,0,.9.1,1.9,1.6,4.2,3.4,5.1.3.2.6.3.9.3l.3.4.8-.5.3-.2h0c.4-.4.7-1,.6-1.9-.1-1.9-1.6-4.2-3.4-5.1-.5-.2-.9-.4-1.3-.4v.2h0Z"/>
  <path class="st0" d="M216,169.6s-.2.1-.3.2l.3-.2Z"/>
  <path class="st16" d="M216,169.6h0Z"/>
  <path class="st16" d="M212.6,171c-1.1,0-2.2-.5-2.7-.9l-1.6-2.3c-.2-.7-.4-2.9,1.6-4.6.3-.3.7-.4,1.1-.4s.8.1,1.3.4c1.8.9,3.3,3.2,3.4,5.1,0,1.1-.3,1.9-1.1,2.1-.6.4-1.3.6-2,.6h0Z"/>
  <path d="M211.1,162.7h0c.4,0,.8.2,1.3.4,1.7.9,3.2,3.2,3.4,5.1,0,1.1-.3,1.9-1.1,2.1-.6.4-1.3.6-2,.6-1.1,0-2.1-.5-2.7-.9l-1.6-2.3c-.2-.7-.4-2.9,1.6-4.5.3-.3.7-.4,1.1-.4h0M211.1,162.7c-.4,0-.8.1-1.1.4-2,1.6-1.9,3.7-1.6,4.6l1.6,2.3c.5.4,1.5.9,2.7.9s1.4-.2,2-.6c.7-.3,1.1-1,1.1-2.2-.1-1.9-1.6-4.2-3.4-5.1-.5-.2-.9-.4-1.3-.4h0Z"/>
  <path class="st17" d="M210.4,169.9h-.1.1Z"/>
  <path class="st17" d="M209.4,169.6c-.3-.3-.6-.7-.8-1.1l-.5-.7.7-.3h.2c.1,0,.3,0,.4.1.6.3,1.1,1,1.1,1.6s0,.5-.2.6l-.6.3-.3-.5h0Z"/>
  <path d="M209.1,167.5c.1,0,.3,0,.4.1.6.3,1,1,1.1,1.6,0,.3,0,.5-.2.6h-.1l-.5.3-.3-.5h0c-.3-.3-.6-.7-.7-1.1s0,0,0,0l-.4-.6.6-.3h.2M209.1,167.4h-.2l-.7.4.4.7c.1.4.4.9.8,1.1l.4.5.5-.3h.1c.2-.2.3-.4.2-.7,0-.6-.5-1.4-1.1-1.7-.1,0-.3-.1-.4-.1h0Z"/>
  <path class="st16" d="M209.4,170.2c-.1,0-.3,0-.4-.1-.6-.3-1.1-1-1.1-1.6s0-.4.2-.6c0-.1.2-.1.4-.1s.3,0,.4.1c.6.3,1.1,1,1.1,1.6s0,.4-.2.6c0,.1-.2.1-.4.1Z"/>
  <path d="M208.4,167.7h0c.1,0,.3,0,.4.2.6.3,1,1,1.1,1.6,0,.2,0,.4-.2.6s-.2.1-.3.1-.3,0-.4-.1c-.6-.3-1-1-1.1-1.6,0-.2,0-.4.2-.6s.2-.1.3-.1h0ZM208.4,167.7c-.4,0-.6.3-.6.7,0,.6.5,1.4,1.1,1.7.1,0,.3.1.4.1.4,0,.6-.3.6-.7,0-.6-.5-1.4-1.1-1.7-.1,0-.3-.1-.4-.1Z"/>
  <path class="st17" d="M225.3,163.2l.2,4.3-1.6,1-.2-4.4,1.6-.9h0Z"/>
  <path class="st17" d="M225.4,167.6l1,.4-1.5,1.1-1-.5,1.6-1h-.1Z"/>
  <path class="st17" d="M220.8,167.1l4,2.4v-.7l-3.6-2-.5.3h.1Z"/>
  <path class="st17" d="M226.4,167.9v.6l-1.6,1v-.7l1.6-.9h0Z"/>
  <path class="st17" d="M219.3,166.8l.2,3.9-1.4.9-.3-4,1.5-.8h0Z"/>
  <path class="st17" d="M219.5,170.8l1.1.5-1.5.9-1-.5,1.4-.9Z"/>
  <path class="st17" d="M220.6,171.3l-1.5.9v.6l1.5-.9v-.6Z"/>
  <path class="st17" d="M225.9,176.7l-.3-.2h.7l3.9,2v.6l-4.3-2.4h0Z"/>
  <path class="st17" d="M226.2,176.4l2.9,1.6-.3-4-2.6,2.4h0Z"/>
  <path class="st17" d="M237,164.3l.6-.3h.1c.4,0,.8.6,1,1.2.2.5,0,.9-.2,1.1l-.4.3-1.2-2.2h0Z"/>
  <path d="M237.8,163.9c.3,0,.8.6,1,1.2,0,.2.2.8-.2,1.1l-.4.3-1.1-2.2.6-.4h.1M237.8,163.9h-.2l-.6.4,1.2,2.3.4-.3c.8-.5-.2-2.4-.8-2.4h0Z"/>
  <path class="st16" d="M232.4,163.3c.5-.2,1-.3,1.5-.3,1.4,0,2.7.7,3.5,1.9.9,1.5.9,2.8.7,3.6-.3,1-.9,1.8-1.8,2.4l-3.9-7.6h0Z"/>
  <path d="M233.9,162.9h0c1.4,0,2.7.8,3.5,2,.9,1.5.9,2.8.7,3.6-.2,1-.9,1.8-1.7,2.3l-3.9-7.5c.5-.2,1-.3,1.5-.3h-.1ZM233.9,162.9c-.5,0-1.1.1-1.6.4l3.9,7.6c1.7-1,2.7-3.4,1.1-6-.9-1.3-2.2-1.9-3.5-1.9h.1Z"/>
  <path class="st17" d="M231.9,173.4l3,1.5-.2-4.4-2.8,2.9Z"/>
  <path class="st17" d="M231.4,163.8l1-.5c2.2,0,3.8,2,4.4,3.9.5,1.6.3,3.1-.6,3.7l-4.8-7.1h0Z"/>
  <path d="M232.4,163.3h0c1,0,1.9.5,2.7,1.3s1.3,1.7,1.6,2.7c.5,1.6.3,3-.6,3.6l-4.8-7.1,1-.5h0M232.5,163.3h0l-1,.5,4.9,7.1c2.2-1.5,0-7.7-3.8-7.7h0Z"/>
  <path class="st16" d="M227,175.9l-4.5-7.4,8.8-4.8h.5c1,0,2,.5,2.8,1.5,1.2,1.4,1.8,3.2,1.5,4.7l-1.6.6s-.1,1.4-.9,1.8c-.8.4-3.4,1.9-3.4,1.9v-1l-1.6.8c-.2,1.4-1.3,1.9-1.8,1.9h.2Z"/>
  <path d="M231.9,163.8h0c1,0,1.9.6,2.8,1.6,1.1,1.3,1.8,3.2,1.5,4.6l-1.6.6h0s-.1,1.4-.9,1.8c-.7.4-2.9,1.6-3.3,1.9v-1h0l-1.5.9h0c-.2,1.3-1.2,1.9-1.8,1.9l-4.4-7.3,8.8-4.8h.5M231.9,163.7h-.5l-8.9,4.8,4.5,7.4c.5,0,1.6-.5,1.8-1.9l1.5-.8v1.1s2.6-1.5,3.4-1.9.9-1.8.9-1.8l1.6-.6c.4-2.7-1.9-6.2-4.4-6.2h0Z"/>
  <path class="st17" d="M225.6,176.3c-.3,0-.6-.2-.9-.3-1.8-.9-3.2-3.2-3.4-5.1v-.9l-.3-.5,1-.6c.3-.2.6-.2.9-.2s.8.1,1.3.4c1.8.9,3.2,3.2,3.4,5.1,0,.8-.2,1.5-.6,1.9l-1.1.7-.3-.4h0Z"/>
  <path d="M223,168.6h0c.4,0,.8.2,1.3.4,1.7.9,3.2,3.2,3.4,5.1,0,.8-.2,1.5-.6,1.9s-.3.2-.3.2l-.8.5-.2-.4h0c-.3,0-.6-.2-.9-.3-1.7-.9-3.2-3.2-3.4-5.1v-.9h0l-.3-.4,1-.6h0c.2-.2.5-.2.9-.2h0M223,168.6c-.3,0-.6,0-.9.2h0l-1,.6.3.4c0,.3-.1.6,0,.9.1,1.9,1.6,4.2,3.4,5.1.3.2.6.3.9.3l.3.4.8-.5.3-.2h0c.4-.4.7-1,.6-1.9-.1-1.9-1.6-4.2-3.4-5.1-.5-.2-.9-.4-1.3-.4h0v.2h0Z"/>
  <path class="st0" d="M227,176s-.2.1-.3.2l.3-.2Z"/>
  <path class="st16" d="M227,176h0Z"/>
  <path class="st16" d="M223.6,177.4c-1.1,0-2.2-.5-2.7-.9l-1.6-2.3c-.2-.7-.4-2.9,1.6-4.6.3-.3.7-.4,1.1-.4s.8.1,1.3.4c1.8.9,3.2,3.2,3.4,5.1,0,1.1-.3,1.9-1.1,2.1-.6.4-1.3.6-2,.6h0Z"/>
  <path d="M222.1,169.1h0c.4,0,.8.2,1.3.4,1.7.9,3.2,3.2,3.4,5.1,0,1.1-.3,1.9-1.1,2.1-.6.4-1.3.6-2,.6-1.1,0-2.1-.5-2.7-.9l-1.6-2.3c-.2-.7-.4-2.9,1.6-4.5.3-.3.7-.4,1.1-.4h0M222.1,169.1c-.4,0-.8.1-1.1.4-2,1.6-1.9,3.7-1.6,4.6l1.6,2.3c.5.4,1.5.9,2.7.9s1.4-.2,2-.6c.7-.3,1.1-1,1.1-2.2-.1-1.9-1.6-4.2-3.4-5.1-.5-.2-.9-.4-1.3-.4h0Z"/>
  <path class="st17" d="M221.4,176.2h-.1.1Z"/>
  <path class="st17" d="M220.4,176c-.3-.3-.6-.7-.8-1.1l-.5-.7.7-.3h.2c.1,0,.3,0,.4.1.6.3,1.1,1,1.1,1.6s0,.5-.2.6l-.6.3-.3-.5h0Z"/>
  <path d="M220.1,173.8c.1,0,.3,0,.4.1.6.3,1,1,1.1,1.6,0,.3,0,.5-.2.6h-.1l-.5.3-.3-.5h0c-.3-.3-.6-.7-.7-1.1s0,0,0,0l-.4-.6.6-.3h.2M220.1,173.8h-.2l-.7.4.4.7c.1.4.4.9.8,1.1l.4.5.5-.3h.1c.2-.2.3-.4.2-.7,0-.6-.5-1.4-1.1-1.7-.1,0-.3-.1-.4-.1h0Z"/>
  <path class="st16" d="M220.4,176.6c-.1,0-.3,0-.4-.1-.6-.3-1.1-1-1.1-1.6s0-.4.2-.6c0-.1.2-.1.4-.1s.3,0,.4.1c.6.3,1.1,1,1.1,1.6s0,.4-.2.6c0,.1-.2.1-.4.1Z"/>
  <path d="M219.5,174.2c.1,0,.3,0,.4.1.6.3,1,1,1.1,1.6,0,.2,0,.4-.2.6s-.2.1-.3.1-.3,0-.4-.1c-.6-.3-1-1-1.1-1.6,0-.2,0-.4.2-.6s.2-.1.3-.1M219.5,174.1c-.4,0-.6.3-.6.7,0,.6.5,1.4,1.1,1.7.1,0,.3.1.4.1.4,0,.6-.3.6-.7,0-.6-.5-1.4-1.1-1.7-.1,0-.3-.1-.4-.1Z"/>
  <path class="st17" d="M236.3,169.6l.2,4.3-1.6,1-.2-4.4,1.6-.9h0Z"/>
  <path class="st17" d="M236.5,173.9l1,.4-1.5,1.1-1-.5,1.6-1h-.1Z"/>
  <path class="st17" d="M231.9,173.4l4,2.4v-.7l-3.5-2-.5.3Z"/>
  <path class="st17" d="M237.5,174.3v.6l-1.6,1v-.7l1.6-.9h0Z"/>
  <path class="st17" d="M230.3,173.2l.2,3.9-1.4.9-.3-4,1.5-.8h0Z"/>
  <path class="st17" d="M230.6,177.2l1.1.5-1.5.9-1-.5,1.4-.9Z"/>
  <path class="st17" d="M231.6,177.7l-1.5.9v.6l1.5-.9v-.6Z"/>
  <path class="st16" d="M32.7,141.6h4.9c0,.1-3.7,2.9-3.7,2.9h3.4c0,.1-6.6,4.5-6.6,4.5,0,0-.1,0,0,0l1.8-2.7h-2.3s-.1,0-.1-.1l2.5-4.5h0Z"/>
  <circle class="st3" cx="33.7" cy="145" r="6.4"/>
  <path class="st16" d="M257.7,11h4.9s.1,0,0,.1l-3.7,2.8h3.4c0,0,0,0,0,.1l-6.6,4.4s-.1,0,0,0l1.8-2.7h-2.3s-.1,0-.1-.1l2.5-4.5h.1Z"/>
  <circle class="st3" cx="258.6" cy="14.4" r="6.4"/>
  <path class="st16" d="M330.3,53.9h4.9s.1,0,0,0l-3.7,2.8h3.4q0,0,0,0l-6.6,4.4s-.1,0,0,0l1.8-2.7h-2.4l2.5-4.5h.1v-.2.2Z"/>
  <circle class="st3" cx="331.2" cy="57.2" r="6.4"/>
</svg>