<?xml version="1.0" encoding="UTF-8"?><svg id="ICONES" xmlns="http://www.w3.org/2000/svg" xmlns:xlink="http://www.w3.org/1999/xlink" viewBox="0 0 85.6 78.6"><defs><style>.cls-1{filter:url(#drop-shadow-1);}.cls-2{fill:#515049;}.cls-3{fill:#f0eeda;}</style><filter id="drop-shadow-1" x="18.9" y="4.3" width="49" height="70.6" filterUnits="userSpaceOnUse"><feOffset dx=".6" dy=".3"/><feGaussianBlur result="blur" stdDeviation=".7"/><feFlood flood-color="#353535" flood-opacity=".5"/><feComposite in2="blur" operator="in"/><feComposite in="SourceGraphic"/></filter></defs><g class="cls-1"><rect class="cls-3" x="20.51" y="15.8" width="44.58" height="56.55" rx="2.52" ry="2.52"/><path class="cls-2" d="M54.93,11.85h-6.63c-1.55-7.47-9.24-7.47-11.39,0h-6.25c-1.06,0-1.92.86-1.92,1.92v3.84c0,1.06.86,1.92,1.92,1.92h24.26c1.06,0,1.92-.86,1.92-1.92v-3.84c0-1.06-.86-1.92-1.92-1.92ZM42.8,14.92c-.97,0-1.76-.79-1.76-1.76s.79-1.76,1.76-1.76,1.76.79,1.76,1.76-.79,1.76-1.76,1.76Z"/></g></svg>