<?xml version="1.0" encoding="UTF-8"?>
<svg id="Calque_1" xmlns="http://www.w3.org/2000/svg" version="1.1" viewBox="0 0 400 680">
  <!-- Generator: Adobe Illustrator 29.1.0, SVG Export Plug-In . SVG Version: 2.1.0 Build 142)  -->
  <defs>
    <style>
      .st0, .st1, .st2, .st3, .st4, .st5, .st6, .st7, .st8, .st9, .st10, .st11, .st12, .st13, .st14, .st15, .st16, .st17, .st18, .st19 {
        stroke-miterlimit: 10;
      }

      .st0, .st1, .st2, .st3, .st7, .st8, .st9, .st10, .st11, .st12, .st14 {
        fill: none;
      }

      .st0, .st3, .st4, .st8, .st9, .st10, .st11, .st12, .st13, .st15, .st16, .st17 {
        stroke: #1d1d1b;
      }

      .st0, .st4, .st18 {
        stroke-width: .1px;
      }

      .st1 {
        stroke-width: .1px;
      }

      .st1, .st5, .st6, .st7, .st14, .st18, .st19 {
        stroke: #000;
      }

      .st2 {
        stroke: #991756;
      }

      .st2, .st10, .st17 {
        stroke-width: .2px;
      }

      .st3 {
        stroke-width: .3px;
      }

      .st3, .st7 {
        stroke-linecap: round;
      }

      .st4, .st20, .st15, .st16, .st17 {
        fill: #fff;
      }

      .st21 {
        fill: #1d1d1b;
      }

      .st22, .st5, .st6, .st13, .st18, .st19 {
        fill: #f5e8f0;
      }

      .st5, .st13 {
        stroke-width: .1px;
      }

      .st6, .st11, .st15 {
        stroke-width: .1px;
      }

      .st7 {
        stroke-width: .1px;
      }

      .st23 {
        fill: #991756;
      }

      .st8 {
        stroke-width: .2px;
      }

      .st9 {
        stroke-width: .2px;
      }

      .st12, .st16 {
        stroke-width: .1px;
      }

      .st14 {
        stroke-width: .8px;
      }

      .st19 {
        stroke-width: 0px;
      }
    </style>
  </defs>
  <path class="st6" d="M152.4,356.4l4,2.4c2.5,1.4,2.5,2.9,0,4.3l-11.6,6.7c-2.5,1.4-4.9,1.4-7.4,0l-14.8-8.5c-2.5-1.4-2.5-2.9,0-4.3l4.5-2.6v6.4l12.6,7.3,12.6-7.3v-4.3s0,0,0,0Z"/>
  <path class="st5" d="M299.9,365c-.9,0-1.8-.5-3.7-1.6l-18.5-10.7c-1.8-1-2.7-1.6-2.7-2.1s.9-1,2.7-2.1l3.7-2.1h37l3.7,2.1c1.8,1.1,2.8,1.6,2.8,2.1s-.9,1-2.8,2.1l-18.5,10.7c-1.8,1.1-2.8,1.6-3.7,1.6h0Z"/>
  <path class="st22" d="M281.4,350.6v-48s18.5,10.6,18.5,10.6v48s-18.5-10.6-18.5-10.6Z"/>
  <path d="M281.5,302.7l18.3,10.6v47.8l-18.3-10.6v-47.8ZM281.4,302.5v48.1l18.5,10.7v-48.1l-18.5-10.7Z"/>
  <path class="st23" d="M300,313.2l18.4-10.6v48l-18.4,10.6v-48Z"/>
  <path d="M318.3,302.7v47.9l-18.3,10.6v-47.8l18.3-10.6M318.4,302.5l-18.5,10.7v48.1l18.5-10.7v-48.1h0Z"/>
  <path class="st20" d="M281.5,302.5l18.4-10.6,18.4,10.6-18.4,10.6-18.4-10.6Z"/>
  <path class="st21" d="M299.9,292l18.3,10.6-18.3,10.6-18.3-10.6,18.3-10.6ZM299.9,291.8l-18.5,10.7,18.5,10.7,18.5-10.7-18.5-10.7Z"/>
  <path class="st22" d="M290.7,302.5v-2.5s9.2,5.3,9.2,5.3v2.5s-9.2-5.3-9.2-5.3Z"/>
  <path d="M290.8,300.1l9,5.2v2.4l-9-5.2v-2.4ZM290.7,299.9v2.7l9.3,5.4v-2.7l-9.3-5.4Z"/>
  <path class="st23" d="M300,305.2l9.1-5.2v2.6l-9.1,5.2v-2.6Z"/>
  <path d="M309,300.1v2.4l-9,5.2v-2.4l9-5.2ZM309.2,299.9l-9.3,5.4v2.7l9.3-5.4v-2.7Z"/>
  <path class="st20" d="M290.8,299.9l9.2-5.3,9.1,5.3-9.1,5.3-9.1-5.3Z"/>
  <path class="st21" d="M299.9,294.6l9,5.2-9,5.2-9-5.2,9-5.2ZM299.9,294.5l-9.3,5.4,9.3,5.4,9.3-5.4-9.3-5.4Z"/>
  <path class="st3" d="M286,310.6v32.1"/>
  <path class="st3" d="M290.6,313.2v32.1"/>
  <path class="st3" d="M295.3,315.9v32.1"/>
  <path class="st3" d="M304.5,315.9v32.1"/>
  <path class="st3" d="M309.2,313.2v32.1"/>
  <path class="st3" d="M313.8,310.5v32.1"/>
  <path class="st18" d="M323.6,376.8v9.5c0,0,3.9-2.3,3.9-2.3v-6.8c-.1,0-3.9-.4-3.9-.4Z"/>
  <path class="st23" d="M325.5,378.3c-.5,0-1-.1-1.4-.3-.2-.1-.4-.3-.5-.5,0,0,0-.2,0-.3v-10.9l3.9.5v10.4c0,0,0,.2,0,.2,0,.2-.2.4-.5.5-.4.2-.8.3-1.4.3h0Z"/>
  <path d="M323.7,366.5l3.7.4v10.3c0,0,0,.1,0,.2,0,.2-.2.3-.5.5-.4.2-.8.3-1.3.3s-1-.1-1.3-.3c-.2-.1-.4-.3-.5-.5,0,0,0-.2,0-.2v-10.7M323.6,366.4v10.9c0,.1,0,.2,0,.3,0,.2.3.4.5.5.4.2.9.3,1.4.3s1-.1,1.4-.3c.3-.1.4-.3.5-.5,0,0,0-.2,0-.3v-10.4l-3.9-.5h0Z"/>
  <path class="st23" d="M323.6,377.2c0,.1,0,.2,0,.3h0v-.3Z"/>
  <path d="M323.6,377.2v.3h0c0-.1,0-.2,0-.3Z"/>
  <path class="st23" d="M327.5,377.2v.3h0c0,0,0-.2,0-.3Z"/>
  <path d="M327.5,377.2c0,0,0,.2,0,.3h0v-.3Z"/>
  <path class="st22" d="M285.6,412.5v-12.8s37,21.4,37,21.4v12.7s-37-21.3-37-21.3Z"/>
  <path d="M285.7,399.8l36.9,21.3v12.6l-36.9-21.3v-12.6ZM285.6,399.7v12.8l37,21.4v-12.8l-37-21.4Z"/>
  <path class="st20" d="M285.7,399.7l29.5-17.1,7.3,4.2-7.3,4.2v12.9s18.4,10.7,18.4,10.7l-11,6.4-36.9-21.3Z"/>
  <path class="st21" d="M315.2,382.7l7.2,4.1-7.2,4.2h0v12.9h0c0,0,0,.1,0,.1l18.3,10.6-10.9,6.3-36.8-21.2,29.4-17ZM315.2,382.6l-29.6,17.1,37,21.4,11.1-6.4-18.5-10.7v-12.8l7.4-4.3-7.4-4.3Z"/>
  <path class="st23" d="M322.7,421.1l11.1-6.3v-12.9s14.7-8.4,14.7-8.4v25.5l-25.7,14.8v-12.7Z"/>
  <path d="M348.3,393.6v25.2l-25.5,14.7v-12.4l11-6.4h.1v-12.9l14.4-8.3M348.5,393.3l-14.8,8.5v12.8l-11.1,6.4v12.8l25.9-15v-25.7h0Z"/>
  <path class="st18" d="M327.4,366.8c0,.2-.2.4-.5.5-.8.4-2,.4-2.8,0-.5-.3-.6-.6-.6-1v-5s3.8.1,3.8.1v5c0,0,0,.3,0,.3h0Z"/>
  <path class="st18" d="M327.5,366.8h0"/>
  <path class="st20" d="M315.3,391.1l14.7-8.5,18.4,10.6-14.7,8.5-18.4-10.6Z"/>
  <path class="st21" d="M330,382.7l18.3,10.6-14.6,8.4-18.3-10.6,14.6-8.4ZM330,382.6l-14.8,8.5,18.5,10.7,14.8-8.5-18.5-10.7Z"/>
  <path class="st23" d="M322.2,416.5l6.1-3.5v1.7l-6.1,3.5v-1.7Z"/>
  <path d="M328.2,413.2v1.4l-6,3.4v-1.4l6-3.4ZM328.4,412.8l-6.4,3.7v1.8l6.4-3.7v-1.8Z"/>
  <path class="st22" d="M317.3,415.5l4.7,1v1.7s-4.7-2.7-4.7-2.7Z"/>
  <path d="M317.8,415.8l4.2.8v1.6l-4.2-2.4ZM317.3,415.6l4.8,2.8v-1.8l-4.8-.9Z"/>
  <path class="st20" d="M317.5,415.5l6.2-3.6,4.6.9-6.2,3.6-4.6-.9Z"/>
  <path class="st21" d="M323.7,412l4.4.9-6,3.5-4.4-.9,6-3.5ZM323.7,411.9l-6.4,3.7,4.8.9,6.4-3.7-4.8-.9Z"/>
  <path class="st23" d="M314.8,412.2l6.2-3.5v1.7l-6.2,3.5v-1.7Z"/>
  <path d="M320.8,408.9v1.4l-6,3.4v-1.4l6-3.4ZM321,408.5l-6.4,3.7v1.8l6.4-3.7v-1.8Z"/>
  <path class="st22" d="M309.9,411.3l4.7,1v1.7s-4.7-2.7-4.7-2.7Z"/>
  <path d="M310.4,411.5l4.2.8v1.6l-4.2-2.4ZM309.9,411.3l4.8,2.8v-1.8l-4.8-.9Z"/>
  <path class="st20" d="M310,411.3l6.2-3.6,4.6.9-6.2,3.6-4.6-.9Z"/>
  <path class="st21" d="M316.3,407.8l4.4.9-6,3.5-4.4-.9,6-3.5ZM316.2,407.6l-6.4,3.7,4.8.9,6.4-3.7-4.8-.9Z"/>
  <path class="st23" d="M307.3,407.9l6.2-3.5v1.7l-6.2,3.5v-1.7Z"/>
  <path d="M313.4,404.6v1.4l-6,3.4v-1.4l6-3.4ZM313.6,404.3l-6.4,3.7v1.8l6.4-3.7v-1.8Z"/>
  <path class="st22" d="M302.5,407l4.7,1v1.7s-4.7-2.7-4.7-2.7Z"/>
  <path d="M303,407.2l4.2.8v1.6l-4.2-2.4ZM302.5,407l4.8,2.8v-1.8l-4.8-.9Z"/>
  <path class="st20" d="M302.6,407l6.2-3.6,4.6.9-6.2,3.6-4.6-.9Z"/>
  <path class="st21" d="M308.9,403.5l4.4.9-6,3.5-4.4-.9,6-3.5ZM308.8,403.4l-6.4,3.7,4.8.9,6.4-3.7-4.8-.9Z"/>
  <path class="st23" d="M300.4,421v-8.3s7.4,4.2,7.4,4.2v8.3s-7.4-4.2-7.4-4.2Z"/>
  <path d="M300.6,412.8l7.1,4v8.1l-7.1-4v-8.1ZM300.4,412.5v8.5l7.5,4.2v-8.5l-7.5-4.2Z"/>
  <path class="st20" d="M325.5,362.4c-.5,0-1-.1-1.4-.3-.4-.2-.5-.5-.5-.8s.2-.5.5-.7c.4-.2.8-.3,1.4-.3s1,.1,1.4.3c.4.2.5.5.5.8s-.2.5-.5.7c-.4.2-.8.3-1.4.3Z"/>
  <path class="st21" d="M325.5,360.3c.5,0,1,.1,1.3.3.3.2.5.4.5.7s-.2.5-.5.7c-.4.2-.8.3-1.3.3s-1-.1-1.3-.3c-.3-.2-.5-.4-.5-.7s.2-.5.5-.7c.4-.2.8-.3,1.3-.3M325.5,360.2c-.5,0-1,.1-1.4.3-.8.4-.8,1.2,0,1.6.4.2.9.3,1.4.3s1-.1,1.4-.3c.8-.4.8-1.2,0-1.6-.4-.2-.9-.3-1.4-.3Z"/>
  <path class="st18" d="M327.5,366.6h0c0-.1,0,0,0,0Z"/>
  <path class="st18" d="M317.1,373.1v10.6c0,0,3.9,2.2,3.9,2.2v-12.4c0,0-3.9-.4-3.9-.4Z"/>
  <path class="st23" d="M319,374.6c-.5,0-1-.1-1.4-.3-.2-.1-.4-.3-.5-.5,0,0,0-.2,0-.3v-10.9l3.9.5v10.4c0,0,0,.2,0,.2,0,.2-.2.4-.5.5-.4.2-.8.3-1.4.3h0Z"/>
  <path d="M317.2,362.8l3.7.4v10.3c0,0,0,.1,0,.2,0,.2-.2.3-.5.5-.4.2-.8.3-1.3.3s-1-.1-1.3-.3c-.2-.1-.4-.3-.5-.5,0,0,0-.2,0-.2v-10.7ZM317.1,362.6v10.9c0,.1,0,.2,0,.3,0,.2.3.4.5.5.4.2.9.3,1.4.3s1-.1,1.4-.3c.3-.1.4-.3.5-.5,0,0,0-.2,0-.3v-10.4l-3.9-.5h0Z"/>
  <path class="st23" d="M317.1,373.5c0,.1,0,.2,0,.3h0v-.3Z"/>
  <path d="M317.1,373.5v.3h0c0-.1,0-.2,0-.3Z"/>
  <path class="st23" d="M321,373.5v.3h0c0,0,0-.2,0-.3Z"/>
  <path d="M321,373.5c0,0,0,.2,0,.3h0v-.3Z"/>
  <path class="st18" d="M320.9,363.1c0,.2-.2.4-.5.5-.8.4-2,.4-2.8,0-.5-.3-.6-.6-.6-1v-5s3.8.1,3.8.1v5c0,0,0,.3,0,.3h0Z"/>
  <path class="st18" d="M321,363.1h0"/>
  <path class="st20" d="M319,358.7c-.5,0-1-.1-1.4-.3-.4-.2-.5-.5-.5-.8s.2-.5.5-.7c.4-.2.8-.3,1.4-.3s1,.1,1.4.3c.4.2.5.5.5.8s-.2.5-.5.7c-.4.2-.8.3-1.4.3h0Z"/>
  <path class="st21" d="M319,356.6c.5,0,1,.1,1.3.3.3.2.5.4.5.7s-.2.5-.5.7c-.4.2-.8.3-1.3.3s-1-.1-1.3-.3c-.3-.2-.5-.4-.5-.7s.2-.5.5-.7c.4-.2.8-.3,1.3-.3M319,356.5c-.5,0-1,.1-1.4.3-.8.4-.8,1.2,0,1.6.4.2.9.3,1.4.3s1-.1,1.4-.3c.8-.4.8-1.2,0-1.6-.4-.2-.9-.3-1.4-.3Z"/>
  <path class="st18" d="M321,362.9h0c0-.1,0,0,0,0Z"/>
  <path class="st18" d="M329.9,380.4v2.2c0,0,3.9,2.1,3.9,2.1v-3.9c-.1,0-3.9-.4-3.9-.4Z"/>
  <path class="st23" d="M331.8,381.9c-.5,0-1-.1-1.4-.3-.2-.1-.4-.3-.5-.5,0,0,0-.2,0-.3v-10.9l3.9.5v10.4c0,0,0,.2,0,.2,0,.2-.2.4-.5.5-.4.2-.8.3-1.4.3h0Z"/>
  <path d="M330,370.1l3.7.4v10.3c0,0,0,.1,0,.2,0,.2-.2.3-.5.5-.4.2-.8.3-1.3.3s-1-.1-1.3-.3c-.2-.1-.4-.3-.5-.5,0,0,0-.2,0-.2v-10.7M329.9,370v10.9c0,.1,0,.2,0,.3,0,.2.3.4.5.5.4.2.9.3,1.4.3s1-.1,1.4-.3c.3-.1.4-.3.5-.5,0,0,0-.2,0-.3v-10.4l-3.9-.5h0Z"/>
  <path class="st23" d="M329.9,380.8c0,.1,0,.2,0,.3h0v-.3Z"/>
  <path d="M329.9,380.8v.3h0c0-.1,0-.2,0-.3Z"/>
  <path class="st23" d="M333.8,380.8v.3h0c0,0,0-.2,0-.3Z"/>
  <path d="M333.8,380.8c0,0,0,.2,0,.3h0v-.3Z"/>
  <path class="st18" d="M333.7,370.4c0,.2-.2.4-.5.5-.8.4-2,.4-2.8,0-.5-.3-.6-.6-.6-1v-5s3.8.1,3.8.1v5c0,0,0,.3,0,.3h0Z"/>
  <path class="st18" d="M333.8,370.4h0"/>
  <path class="st20" d="M331.8,366c-.5,0-1-.1-1.4-.3-.4-.2-.5-.5-.5-.8s.2-.5.5-.7c.4-.2.8-.3,1.4-.3s1,.1,1.4.3c.4.2.5.5.5.8s-.2.5-.5.7c-.4.2-.8.3-1.4.3h0Z"/>
  <path class="st21" d="M331.8,363.9c.5,0,1,.1,1.3.3.3.2.5.4.5.7s-.2.5-.5.7c-.4.2-.8.3-1.3.3s-1-.1-1.3-.3c-.3-.2-.5-.4-.5-.7s.2-.5.5-.7c.4-.2.8-.3,1.3-.3M331.8,363.8c-.5,0-1,.1-1.4.3-.8.4-.8,1.2,0,1.6.4.2.9.3,1.4.3s1-.1,1.4-.3c.8-.4.8-1.2,0-1.6-.4-.2-.9-.3-1.4-.3Z"/>
  <path class="st18" d="M333.8,370.2h0c0-.1,0,0,0,0Z"/>
  <path class="st22" d="M315.2,403.9v-12.8s18.5,10.7,18.5,10.7v12.7s-18.5-10.7-18.5-10.7Z"/>
  <path d="M315.3,391.3l18.3,10.6v12.6l-18.3-10.6v-12.6ZM315.2,391.1v12.8l18.5,10.7v-12.8l-18.5-10.7Z"/>
  <path class="st5" d="M322.6,437.6c-.9,0-1.8-.5-3.7-1.6l-19.1-11v-4.2s22.7,13.2,22.7,13.2l26-15v-4.3s3.6,2.2,3.6,2.2c1.9,1.1,2.8,1.6,2.8,2.1s-.9,1-2.7,2.1l-25.9,15c-1.8,1.1-2.8,1.6-3.7,1.6h0Z"/>
  <path class="st23" d="M185.7,418.3l12.5-7.1v26.1l-12.5,7.1v-26.1Z"/>
  <path d="M198,411.3v25.9l-12.3,7.1v-25.9l12.3-7.1M198.2,411l-12.6,7.3v26.3l12.6-7.3v-26.3Z"/>
  <path class="st22" d="M170.4,435.8v-26.1s15.1,8.7,15.1,8.7v26.1s-15.1-8.7-15.1-8.7Z"/>
  <path d="M170.5,409.8l14.9,8.6v26l-14.9-8.6v-26ZM170.4,409.5v26.3l15.2,8.8v-26.3l-15.2-8.8Z"/>
  <path class="st20" d="M170.5,409.5l12.6-7.2,15,8.7-12.5,7.2-15-8.7Z"/>
  <path class="st21" d="M183.1,402.4l14.9,8.6-12.4,7.1-14.9-8.6,12.4-7.1ZM183.1,402.2l-12.7,7.3,15.2,8.8,12.6-7.3-15.2-8.8h0Z"/>
  <path class="st1" d="M183.2,403l13.8,8-11.5,6.6-13.8-8,11.5-6.6Z"/>
  <path class="st23" d="M171.9,409.6l11.2-6.5v.9l-10.4,6-.8-.5Z"/>
  <path d="M183,403.3v.6l-10.3,6-.6-.4,10.9-6.3ZM183.2,403l-11.5,6.6,1,.6,10.5-6.1v-1.1h0Z"/>
  <path class="st22" d="M183.2,404v-.9s13.6,7.8,13.6,7.8l-1,.5-12.6-7.5Z"/>
  <path d="M183.3,403.2l13.4,7.7-.8.5-12.6-7.4v-.8ZM183.2,403v1.1l12.7,7.5,1.1-.6-13.8-8h0Z"/>
  <path class="st20" d="M172.8,410.2l10.4-6.1,12.5,7.5-10.3,5.9-12.7-7.3Z"/>
  <path class="st21" d="M183.2,404.2l12.4,7.4-10.1,5.9-12.5-7.2,10.2-6M183.2,404l-10.5,6.1,12.8,7.4,10.4-6-12.7-7.5h0Z"/>
  <g>
    <path class="st7" d="M196.9,414.6l-10.1,5.9"/>
    <path class="st7" d="M196.9,416.1l-10.1,5.9"/>
    <path class="st7" d="M196.9,417.6l-10.1,5.9"/>
    <path class="st7" d="M196.9,419.1l-10.1,5.9"/>
    <path class="st7" d="M196.9,420.6l-10.1,5.9"/>
    <path class="st7" d="M196.9,422.1l-10.1,5.9"/>
    <path class="st7" d="M196.9,423.6l-10.1,5.9"/>
    <path class="st7" d="M196.9,425.1l-10.1,5.9"/>
    <path class="st7" d="M196.9,426.5l-10.1,5.9"/>
    <path class="st7" d="M196.9,428l-10.1,5.9"/>
    <path class="st7" d="M196.9,429.5l-10.1,5.9"/>
    <path class="st7" d="M196.9,431l-10.1,5.9"/>
    <path class="st7" d="M196.9,432.5l-10.1,5.9"/>
    <path class="st7" d="M196.9,434l-10.1,5.9"/>
    <path class="st7" d="M171.6,413l12.7,7.5"/>
    <path class="st7" d="M171.6,414.5l12.7,7.5"/>
    <path class="st7" d="M171.6,416l12.7,7.5"/>
    <path class="st7" d="M171.6,417.5l12.7,7.5"/>
    <path class="st7" d="M171.6,419l12.7,7.5"/>
    <path class="st7" d="M171.6,420.4l12.7,7.5"/>
    <path class="st7" d="M171.6,421.9l12.7,7.5"/>
    <path class="st7" d="M171.6,423.4l12.7,7.5"/>
    <path class="st7" d="M171.6,424.9l12.7,7.5"/>
    <path class="st7" d="M171.6,426.5l12.7,7.4"/>
    <path class="st7" d="M171.6,427.9l12.7,7.5"/>
    <path class="st7" d="M171.6,429.4l12.7,7.5"/>
    <path class="st7" d="M171.6,430.9l12.7,7.5"/>
    <path class="st7" d="M171.6,432.4l12.7,7.5"/>
  </g>
  <path class="st23" d="M185.6,319.9l12.5-7.2v26.2l-12.5,7.2v-26.2Z"/>
  <path d="M198.1,312.8v26l-12.4,7.1v-26l12.4-7.1M198.2,312.6l-12.6,7.3v26.3l12.6-7.3v-26.3Z"/>
  <path class="st22" d="M170.4,337.4v-26.1s15.1,8.7,15.1,8.7v26.1s-15.1-8.7-15.1-8.7Z"/>
  <path d="M170.5,311.4l14.9,8.6v26l-14.9-8.6v-26ZM170.4,311.1v26.3l15.2,8.8v-26.3l-15.2-8.8h0Z"/>
  <path class="st20" d="M170.5,311.1l12.6-7.2,15,8.7-12.5,7.2-15.1-8.7Z"/>
  <path class="st21" d="M183.1,304l14.9,8.6-12.4,7.1-14.9-8.6,12.4-7.1ZM183.1,303.9l-12.7,7.3,15.2,8.8,12.6-7.3-15.2-8.8h0Z"/>
  <path class="st1" d="M183.2,304.6l13.8,8-11.5,6.6-13.8-8,11.5-6.6Z"/>
  <path class="st23" d="M171.8,311.2l11.3-6.5v1l-10.5,6.1-.9-.5Z"/>
  <path d="M183.1,304.8v.8l-10.4,6.1-.8-.4,11.2-6.4M183.2,304.6l-11.5,6.6,1,.6,10.5-6.1v-1.1h0Z"/>
  <path class="st22" d="M183.2,305.6v-.9s13.6,7.8,13.6,7.8l-1,.6-12.6-7.5Z"/>
  <path d="M183.3,304.8l13.4,7.7-.8.5-12.6-7.4v-.8ZM183.2,304.6v1.1l12.7,7.5,1.1-.6-13.8-8h0Z"/>
  <path class="st20" d="M172.8,311.8l10.4-6.1,12.5,7.5-10.3,5.9-12.7-7.3Z"/>
  <path class="st21" d="M183.2,305.8l12.4,7.4-10.1,5.9-12.5-7.2,10.2-6M183.2,305.6l-10.5,6.1,12.8,7.4,10.4-6-12.7-7.5h0Z"/>
  <path class="st7" d="M197,316.3l-10.1,5.9"/>
  <path class="st7" d="M197,317.8l-10.1,5.9"/>
  <path class="st7" d="M197,319.2l-10.1,5.9"/>
  <path class="st7" d="M197,320.7l-10.1,5.9"/>
  <path class="st7" d="M197,322.2l-10.1,5.9"/>
  <path class="st7" d="M197,323.7l-10.1,5.9"/>
  <path class="st7" d="M197,325.2l-10.1,5.9"/>
  <path class="st7" d="M197,326.7l-10.1,5.9"/>
  <path class="st7" d="M197,328.2l-10.1,5.9"/>
  <path class="st7" d="M197,329.7l-10.1,5.9"/>
  <path class="st7" d="M197,331.2l-10.1,5.9"/>
  <path class="st7" d="M197,332.6l-10.1,5.9"/>
  <path class="st7" d="M197,334.1l-10.1,5.9"/>
  <path class="st7" d="M197,335.6l-10.1,5.9"/>
  <path class="st7" d="M171.7,314.6l12.7,7.5"/>
  <path class="st7" d="M171.7,316.1l12.7,7.5"/>
  <path class="st7" d="M171.7,317.6l12.7,7.5"/>
  <path class="st7" d="M171.7,319.1l12.7,7.5"/>
  <path class="st7" d="M171.7,320.6l12.7,7.5"/>
  <path class="st7" d="M171.7,322.1l12.7,7.5"/>
  <path class="st7" d="M171.7,323.5l12.7,7.5"/>
  <path class="st7" d="M171.7,325l12.7,7.5"/>
  <path class="st7" d="M171.7,326.5l12.7,7.5"/>
  <path class="st7" d="M171.7,328.2l12.7,7.4"/>
  <path class="st7" d="M171.7,329.5l12.7,7.5"/>
  <path class="st7" d="M171.7,331l12.7,7.5"/>
  <path class="st7" d="M171.7,332.5l12.7,7.5"/>
  <path class="st7" d="M171.7,334l12.7,7.5"/>
  <path class="st23" d="M167.1,330.6l12.5-7.2v26.2l-12.5,7.2v-26.2Z"/>
  <path d="M179.6,323.5v26l-12.4,7.1v-26l12.4-7.1M179.7,323.3l-12.6,7.3v26.3l12.6-7.3v-26.3Z"/>
  <path class="st22" d="M151.9,348.1v-26.1s15.1,8.7,15.1,8.7v26.1s-15.1-8.7-15.1-8.7Z"/>
  <path d="M152,322.1l14.9,8.6v26l-14.9-8.6v-26ZM151.9,321.8v26.3l15.2,8.8v-26.3l-15.2-8.8h0Z"/>
  <path class="st20" d="M152,321.8l12.6-7.2,15,8.7-12.5,7.2-15-8.7Z"/>
  <path class="st21" d="M164.6,314.7l14.9,8.6-12.4,7.1-14.9-8.6,12.4-7.1ZM164.6,314.6l-12.7,7.3,15.2,8.8,12.6-7.3-15.2-8.8Z"/>
  <path class="st1" d="M164.7,315.3l13.8,8-11.5,6.6-13.8-8,11.5-6.6Z"/>
  <path class="st23" d="M153.3,321.9l11.3-6.5v1l-10.4,6.1-.9-.5Z"/>
  <path d="M164.5,315.5v.8l-10.4,6.1-.7-.4,11.1-6.4M164.7,315.3l-11.5,6.6,1,.6,10.5-6.1v-1.1h0Z"/>
  <path class="st22" d="M164.7,316.3v-.9s13.6,7.8,13.6,7.8l-1,.6-12.6-7.5Z"/>
  <path d="M164.8,315.5l13.4,7.7-.8.5-12.6-7.4v-.8ZM164.7,315.3v1.1l12.7,7.5,1.1-.6-13.8-8h0Z"/>
  <path class="st20" d="M154.3,322.5l10.4-6.1,12.5,7.5-10.3,5.9-12.7-7.3Z"/>
  <path class="st21" d="M164.7,316.5l12.4,7.4-10.1,5.9-12.5-7.2,10.2-6M164.7,316.3l-10.5,6.1,12.8,7.4,10.4-6-12.7-7.5h0Z"/>
  <path class="st7" d="M178.4,327l-10.1,5.9"/>
  <path class="st7" d="M178.4,328.4l-10.1,5.9"/>
  <path class="st7" d="M178.4,329.9l-10.1,5.9"/>
  <path class="st7" d="M178.4,331.4l-10.1,5.9"/>
  <path class="st7" d="M178.4,332.9l-10.1,5.9"/>
  <path class="st7" d="M178.4,334.4l-10.1,5.9"/>
  <path class="st7" d="M178.4,335.9l-10.1,5.9"/>
  <path class="st7" d="M178.4,337.4l-10.1,5.9"/>
  <path class="st7" d="M178.4,338.9l-10.1,5.9"/>
  <path class="st7" d="M178.4,340.4l-10.1,5.9"/>
  <path class="st7" d="M178.4,341.9l-10.1,5.9"/>
  <path class="st7" d="M178.4,343.3l-10.1,5.9"/>
  <path class="st7" d="M178.4,344.8l-10.1,5.9"/>
  <path class="st7" d="M178.4,346.3l-10.1,5.9"/>
  <path class="st7" d="M153.1,325.3l12.7,7.5"/>
  <path class="st7" d="M153.1,326.8l12.7,7.5"/>
  <path class="st7" d="M153.1,328.3l12.7,7.5"/>
  <path class="st7" d="M153.1,329.8l12.7,7.5"/>
  <path class="st7" d="M153.1,331.3l12.7,7.5"/>
  <path class="st7" d="M153.1,332.8l12.7,7.5"/>
  <path class="st7" d="M153.1,334.2l12.7,7.5"/>
  <path class="st7" d="M153.1,335.7l12.7,7.5"/>
  <path class="st7" d="M153.1,337.2l12.7,7.5"/>
  <path class="st7" d="M153.1,338.9l12.7,7.3"/>
  <path class="st7" d="M153.1,340.2l12.7,7.5"/>
  <path class="st7" d="M153.1,341.7l12.7,7.5"/>
  <path class="st7" d="M153.1,343.2l12.7,7.5"/>
  <path class="st7" d="M153.1,344.7l12.7,7.5"/>
  <path class="st5" d="M285.6,459c-.9,0-1.8-.5-3.7-1.6l-44.2-25.8c-1.9-1-2.9-1.5-2.9-2,0-.5,1-1.1,2.9-2.2l5.4-3.1v6.4c0,0,16.6,9.6,16.6,9.6l11.8-6.9v13.6c0,0,14.2,8.3,14.2,8.3l14.3-8.2v-5s4.2,2.5,4.2,2.5c1.8,1.1,2.8,1.6,2.8,2.1s-.9,1-2.8,2.1l-14.8,8.5c-1.9,1.1-2.8,1.6-3.7,1.6h0Z"/>
  <path class="st23" d="M167.1,434.8l9.9-5.7v20.3l-9.9,5.7v-20.3Z"/>
  <path d="M177,429.3v20l-9.7,5.6v-20l9.7-5.6ZM177.2,429l-10.1,5.8v20.5l10.1-5.8v-20.5Z"/>
  <path class="st22" d="M144.3,442.1v-20.3s22.7,13.1,22.7,13.1v20.3s-22.7-13.1-22.7-13.1Z"/>
  <path d="M144.4,421.9l22.5,13v20.1l-22.5-13v-20.1ZM144.3,421.7v20.5l22.8,13.1v-20.5l-22.8-13.1Z"/>
  <path class="st20" d="M144.3,421.6l10.1-5.8,22.7,13.1-10.1,5.8-22.8-13.1Z"/>
  <path class="st21" d="M154.4,415.9l22.6,13-10,5.8-22.6-13.1,10-5.8M154.4,415.8l-10.1,5.8,22.8,13.1,10.1-5.8-22.8-13.1Z"/>
  <path class="st20" d="M156.9,434.8v-2.9s7.6,4.4,7.6,4.4v2.8s-7.6-4.4-7.6-4.4Z"/>
  <path class="st21" d="M157,432l7.4,4.3v2.7l-7.4-4.3v-2.7ZM156.9,431.9v2.9l7.6,4.4v-2.9l-7.6-4.4Z"/>
  <path class="st20" d="M146.8,428.9v-2.9s7.6,4.4,7.6,4.4v2.8s-7.6-4.4-7.6-4.4Z"/>
  <path class="st21" d="M146.9,426.2l7.4,4.3v2.7l-7.4-4.3v-2.7ZM146.8,426.1v2.9l7.6,4.4v-2.9l-7.6-4.4Z"/>
  <path class="st20" d="M156.9,440.6v-2.9s7.6,4.4,7.6,4.4v2.8s-7.6-4.4-7.6-4.4Z"/>
  <path class="st21" d="M157,437.9l7.4,4.3v2.7l-7.4-4.3v-2.7ZM156.9,437.7v2.9l7.6,4.4v-2.9l-7.6-4.4Z"/>
  <path class="st20" d="M146.8,434.8v-2.9s7.6,4.4,7.6,4.4v2.8s-7.6-4.4-7.6-4.4Z"/>
  <path class="st21" d="M146.9,432l7.4,4.3v2.7l-7.4-4.3v-2.7ZM146.8,431.9v2.9l7.6,4.4v-2.9l-7.6-4.4Z"/>
  <path class="st20" d="M156.9,446.5v-2.9s7.6,4.4,7.6,4.4v2.8s-7.6-4.4-7.6-4.4Z"/>
  <path class="st21" d="M157,443.7l7.4,4.3v2.7l-7.4-4.3v-2.7ZM156.9,443.6v2.9l7.6,4.4v-2.9l-7.6-4.4Z"/>
  <path class="st19" d="M154.4,442.1v2.9l-7.6-4.4v-2.9l7.6,4.4Z"/>
  <path class="st22" d="M149.8,421.8v-1.2s2.1,1.2,2.1,1.2v1.2s-2.1-1.2-2.1-1.2Z"/>
  <path d="M149.9,420.8l1.9,1.1v1l-1.9-1.1v-1ZM149.7,420.5v1.4l2.1,1.2v-1.4l-2.1-1.2Z"/>
  <path class="st23" d="M152,421.8l4.1-2.3v1.2l-4.1,2.3v-1.2Z"/>
  <path d="M156,419.6v.9l-3.9,2.3v-.9l3.9-2.3ZM156.2,419.3l-4.3,2.5v1.4l4.3-2.5v-1.4Z"/>
  <path class="st20" d="M149.7,420.5l4.3-2.4,2.1,1.2-4.3,2.4-2.1-1.2Z"/>
  <path class="st21" d="M154,418.1l2,1.2-4.2,2.4-2-1.2,4.2-2.4ZM154,418.1l-4.3,2.5,2.1,1.2,4.3-2.5-2.1-1.2Z"/>
  <path class="st22" d="M157.3,426.2v-1.2s2.1,1.2,2.1,1.2v1.2s-2.1-1.2-2.1-1.2Z"/>
  <path d="M157.4,425.2l1.9,1.1v1l-1.9-1.1v-1ZM157.3,424.9v1.4l2.1,1.2v-1.4l-2.1-1.2Z"/>
  <path class="st23" d="M159.6,426.2l4.1-2.3v1.2l-4.1,2.3v-1.2Z"/>
  <path d="M163.6,424v.9l-3.9,2.3v-.9l3.9-2.3ZM163.8,423.7l-4.3,2.5v1.4l4.3-2.5v-1.4Z"/>
  <path class="st20" d="M157.3,424.9l4.3-2.4,2.1,1.2-4.3,2.4-2.1-1.2Z"/>
  <path class="st21" d="M161.6,422.5l2,1.2-4.2,2.4-2-1.2,4.2-2.4ZM161.6,422.5l-4.3,2.5,2.1,1.2,4.3-2.5-2.1-1.2Z"/>
  <path class="st14" d="M296.7,418.9v-8.6l-7.4-4.3v8.5l7.4,4.3Z"/>
  <path class="st23" d="M230.1,320.5l18.4-10.6v47l-18.4,10.6v-46.9Z"/>
  <path d="M248.4,310v46.8l-18.3,10.6v-46.8l18.3-10.6ZM248.5,309.8l-18.5,10.7v47l18.5-10.7v-47Z"/>
  <path class="st22" d="M211.5,356.9v-46.9s18.4,10.6,18.4,10.6v46.9s-18.4-10.6-18.4-10.6Z"/>
  <path d="M211.6,310l18.3,10.6v46.8l-18.3-10.5v-46.8ZM211.5,309.8v47.1l18.5,10.7v-47l-18.5-10.7Z"/>
  <path class="st17" d="M215.2,316.3l11.1,6.4v4.3s-11.1-6.4-11.1-6.4v-4.3Z"/>
  <path class="st17" d="M215.2,324.8l11.1,6.4v4.3s-11.1-6.4-11.1-6.4v-4.3Z"/>
  <path class="st17" d="M215.2,333.4l11.1,6.4v4.3s-11.1-6.4-11.1-6.4v-4.3Z"/>
  <path class="st17" d="M215.2,342l11.1,6.4v4.3s-11.1-6.4-11.1-6.4v-4.3Z"/>
  <path class="st17" d="M215.2,350.5l11.1,6.4v4.3s-11.1-6.4-11.1-6.4v-4.3Z"/>
  <path class="st22" d="M233.8,322.7l11-6.3v4.2s-11,6.3-11,6.3v-4.2Z"/>
  <path d="M244.7,316.5v4s-10.8,6.3-10.8,6.3v-4s10.8-6.3,10.8-6.3ZM244.8,316.3l-11.1,6.4v4.3s11.1-6.4,11.1-6.4v-4.3Z"/>
  <path class="st22" d="M233.8,331.2l11-6.3v4.2l-11,6.3v-4.2Z"/>
  <path d="M244.7,325v4l-10.9,6.3v-4l10.9-6.3ZM244.8,324.8l-11.1,6.4v4.3l11.1-6.4v-4.3Z"/>
  <path class="st22" d="M233.8,339.8l11-6.3v4.2l-11,6.3v-4.2Z"/>
  <path d="M244.7,333.6v4l-10.9,6.3v-4l10.9-6.3ZM244.8,333.4l-11.1,6.4v4.3l11.1-6.4v-4.3Z"/>
  <path class="st22" d="M233.8,348.3l11-6.3v4.2l-11,6.3v-4.2Z"/>
  <path d="M244.7,342.1v4l-10.9,6.3v-4l10.9-6.3ZM244.8,341.9l-11.1,6.4v4.3l11.1-6.4v-4.3h0Z"/>
  <path class="st22" d="M233.8,356.9l11-6.3v4.2l-11,6.3v-4.2Z"/>
  <path d="M244.7,350.7v4l-10.9,6.3v-4l10.9-6.3ZM244.8,350.5l-11.1,6.4v4.3l11.1-6.4v-4.3Z"/>
  <path class="st17" d="M215.2,307.7l-3.7,2.1,18.5,10.7,18.5-10.7-18.5-10.7-14.8,8.6Z"/>
  <path class="st10" d="M214.9,309.9l15.1-8.8,15.1,8.8-15.1,8.7-15.1-8.7Z"/>
  <path class="st23" d="M215,309.9l15-8.6v1.8s-13.4,7.7-13.4,7.7l-1.6-.9Z"/>
  <path d="M229.9,301.3v1.7l-13.4,7.7-1.4-.8,14.8-8.5M230,301.1l-15.1,8.7,1.7,1,13.5-7.8v-1.9Z"/>
  <path class="st13" d="M243.5,310.8l-13.5-7.8v-2s15.1,8.8,15.1,8.8l-1.7,1Z"/>
  <path class="st10" d="M216.6,310.8l13.5-7.8,13.5,7.8-13.5,7.8-13.5-7.8Z"/>
  <path class="st23" d="M215.4,345.2l10.1-5.8v38c0,0-10.1,5.8-10.1,5.8v-37.9Z"/>
  <path d="M225.4,339.5v37.8l-10,5.8v-37.8l10-5.8ZM225.5,339.3l-10.1,5.8v38l10.1-5.9v-38h0Z"/>
  <path class="st22" d="M197.7,372.9v-37.8s17.6,10.2,17.6,10.2v37.8s-17.6-10.2-17.6-10.2Z"/>
  <path d="M197.8,335.2l17.4,10.1v37.7l-17.4-10.1v-37.7M197.7,334.9v38l17.7,10.2v-38l-17.7-10.2h0Z"/>
  <path class="st20" d="M197.7,334.9l10.1-5.8,17.7,10.2-10.1,5.8-17.7-10.2Z"/>
  <path class="st21" d="M207.8,329.2l17.6,10.1-10,5.8-17.6-10.1,10-5.8ZM207.8,329.1l-10.1,5.8,17.7,10.2,10.1-5.8-17.7-10.2Z"/>
  <path class="st9" d="M207.7,330.6l-7.7,4.4,15.4,8.9,7.7-4.4-15.4-8.9Z"/>
  <path class="st23" d="M200,335l7.7-4.4v1.2c0,0-6.6,3.8-6.6,3.8l-1.1-.6Z"/>
  <path d="M207.6,330.7v1.1l-6.5,3.8-.9-.5,7.4-4.3ZM207.7,330.6l-7.7,4.4,1.1.6,6.6-3.8v-1.3Z"/>
  <path class="st22" d="M207.7,331.8v-1.2s15.3,8.9,15.3,8.9l-1.1.6-14.2-8.2Z"/>
  <path d="M207.8,330.7l15.1,8.7-.9.5-14.2-8.2v-1.1M207.7,330.6v1.3l14.3,8.2,1.1-.6-15.4-8.9h0Z"/>
  <path class="st20" d="M201.1,335.7l6.6-3.8,14.3,8.2-6.6,3.8-14.3-8.2Z"/>
  <path class="st22" d="M218,346.6l5-2.9v5.8c0,0-5,2.9-5,2.9v-5.8Z"/>
  <path d="M222.9,343.9v5.7l-4.9,2.8v-5.7l4.9-2.8ZM223,343.7l-5.1,2.9v5.9l5.1-2.9v-5.8h0Z"/>
  <path class="st22" d="M218,355.4l5-2.9v5.8c0,0-5,2.9-5,2.9v-5.8Z"/>
  <path d="M222.9,352.6v5.7l-4.9,2.8v-5.7l4.9-2.8ZM223,352.5l-5.1,2.9v5.9l5.1-2.9v-5.8h0Z"/>
  <path class="st22" d="M218,364.2l5-2.9v5.8c0,0-5,2.9-5,2.9v-5.8Z"/>
  <path d="M222.9,361.4v5.7l-4.9,2.8v-5.7l4.9-2.8ZM223,361.2l-5.1,2.9v5.9l5.1-2.9v-5.8h0Z"/>
  <path class="st22" d="M218,372.9l5-2.9v5.8c0,0-5,2.9-5,2.9v-5.8Z"/>
  <path d="M222.9,370.1v5.7l-4.9,2.8v-5.7l4.9-2.8ZM223,370l-5.1,2.9v5.9l5.1-2.9v-5.8h0Z"/>
  <path class="st15" d="M212.9,346.6v5.8l-2.5-1.5v-5.9l2.5,1.5Z"/>
  <path class="st15" d="M207.8,343.7v5.9l-2.5-1.5v-5.9l2.5,1.5Z"/>
  <path class="st15" d="M202.7,340.8v5.8l-2.5-1.5v-5.9l2.5,1.5Z"/>
  <path class="st15" d="M212.9,355.4v5.8l-2.5-1.5v-5.9l2.5,1.5Z"/>
  <path class="st15" d="M207.8,352.5v5.8l-2.5-1.5v-5.9l2.5,1.5Z"/>
  <path class="st22" d="M200.2,353.9v-5.8s2.5,1.5,2.5,1.5v5.7s-2.5-1.4-2.5-1.4Z"/>
  <path d="M200.3,348.2l2.4,1.4v5.7l-2.4-1.4v-5.7M200.2,348.1v5.9l2.5,1.5v-5.8l-2.5-1.5Z"/>
  <path class="st22" d="M210.3,368.5v-5.8s2.5,1.5,2.5,1.5v5.7s-2.5-1.4-2.5-1.4Z"/>
  <path d="M210.4,362.8l2.4,1.4v5.7l-2.4-1.4v-5.7M210.3,362.7v5.9l2.5,1.5v-5.8l-2.5-1.5Z"/>
  <path class="st22" d="M205.3,365.6v-5.8s2.5,1.5,2.5,1.5v5.7s-2.5-1.4-2.5-1.4Z"/>
  <path d="M205.3,359.9l2.4,1.4v5.7l-2.4-1.4v-5.7M205.3,359.8v5.9l2.5,1.5v-5.8l-2.5-1.5Z"/>
  <path class="st22" d="M200.2,362.7v-5.8s2.5,1.5,2.5,1.5v5.7s-2.5-1.4-2.5-1.4Z"/>
  <path d="M200.3,357l2.4,1.4v5.7l-2.4-1.4v-5.7M200.2,356.9v5.9l2.5,1.5v-5.8l-2.5-1.5Z"/>
  <path class="st22" d="M210.3,377.3v-5.8s2.5,1.5,2.5,1.5v5.7s-2.5-1.4-2.5-1.4Z"/>
  <path d="M210.4,371.6l2.4,1.4v5.7l-2.4-1.4v-5.7M210.3,371.5v5.9l2.5,1.5v-5.8l-2.5-1.5Z"/>
  <path class="st22" d="M205.3,374.4v-5.8s2.5,1.5,2.5,1.5v5.7s-2.5-1.4-2.5-1.4Z"/>
  <path d="M205.3,368.7l2.4,1.4v5.7l-2.4-1.4v-5.7M205.3,368.5v5.9l2.5,1.5v-5.8l-2.5-1.5Z"/>
  <path class="st22" d="M200.2,371.4v-5.8s2.5,1.5,2.5,1.5v5.7s-2.5-1.4-2.5-1.4Z"/>
  <path d="M200.3,365.8l2.4,1.4v5.7l-2.4-1.4v-5.7M200.2,365.6v5.9l2.5,1.5v-5.8l-2.5-1.5Z"/>
  <path class="st23" d="M196.9,355.9l10.1-5.8v37.9c0,0-10.1,5.8-10.1,5.8v-37.9Z"/>
  <path d="M206.9,350.2v37.8l-10,5.8v-37.8l10-5.8ZM207,350l-10.1,5.8v38l10.1-5.9v-38h0Z"/>
  <path class="st22" d="M179.2,383.6v-37.8s17.6,10.2,17.6,10.2v37.8s-17.6-10.2-17.6-10.2Z"/>
  <path d="M179.3,345.9l17.4,10.1v37.7l-17.4-10.1v-37.7M179.2,345.6v38l17.7,10.2v-38l-17.7-10.2h0Z"/>
  <path class="st20" d="M179.2,345.6l10.1-5.8,17.7,10.2-10.1,5.8-17.7-10.2Z"/>
  <path class="st21" d="M189.3,339.9l17.6,10.1-10,5.8-17.6-10.1,10-5.8ZM189.3,339.8l-10.1,5.8,17.7,10.2,10.1-5.8-17.7-10.2Z"/>
  <path class="st9" d="M189.2,341.3l-7.7,4.4,15.4,8.9,7.7-4.4-15.4-8.9Z"/>
  <path class="st23" d="M181.5,345.7l7.7-4.4v1.2c0,0-6.6,3.8-6.6,3.8l-1.1-.6Z"/>
  <path d="M189.1,341.4v1.1l-6.5,3.8-.9-.5,7.4-4.3ZM189.2,341.3l-7.7,4.4,1.1.6,6.6-3.8v-1.3Z"/>
  <path class="st22" d="M189.2,342.5v-1.2s15.3,8.9,15.3,8.9l-1.1.5-14.2-8.2Z"/>
  <path d="M189.3,341.4l15.1,8.7-.9.5-14.2-8.2v-1.1M189.2,341.3v1.3l14.3,8.2,1.1-.6-15.4-8.9h0Z"/>
  <path class="st20" d="M182.6,346.4l6.6-3.8,14.3,8.2-6.6,3.8-14.3-8.2Z"/>
  <path class="st22" d="M199.4,357.3l5-2.9v5.8c0,0-5,2.9-5,2.9v-5.8Z"/>
  <path d="M204.4,354.5v5.7l-4.9,2.8v-5.7l4.9-2.8ZM204.5,354.4l-5.1,2.9v5.9l5.1-2.9v-5.8h0Z"/>
  <path class="st22" d="M199.4,366.1l5-2.9v5.8c0,0-5,2.9-5,2.9v-5.8Z"/>
  <path d="M204.4,363.3v5.7l-4.9,2.8v-5.7l4.9-2.8ZM204.5,363.2l-5.1,2.9v5.9l5.1-2.9v-5.8h0Z"/>
  <path class="st22" d="M199.4,374.9l5-2.9v5.8c0,0-5,2.9-5,2.9v-5.8Z"/>
  <path d="M204.4,372.1v5.7l-4.9,2.8v-5.7l4.9-2.8ZM204.5,371.9l-5.1,2.9v5.9l5.1-2.9v-5.8h0Z"/>
  <path class="st22" d="M199.4,383.6l5-2.9v5.8c0,0-5,2.9-5,2.9v-5.8Z"/>
  <path d="M204.4,380.8v5.7l-4.9,2.8v-5.7l4.9-2.8ZM204.5,380.7l-5.1,2.9v5.9l5.1-2.9v-5.8h0Z"/>
  <path class="st15" d="M194.3,357.3v5.8l-2.5-1.5v-5.9l2.5,1.5Z"/>
  <path class="st15" d="M189.3,354.4v5.8l-2.5-1.5v-5.9l2.5,1.5Z"/>
  <path class="st15" d="M184.2,351.5v5.9l-2.5-1.5v-5.9l2.5,1.5Z"/>
  <path class="st15" d="M194.3,366.1v5.8l-2.5-1.5v-5.9l2.5,1.5Z"/>
  <path class="st15" d="M189.3,363.2v5.8l-2.5-1.5v-5.9l2.5,1.5Z"/>
  <path class="st15" d="M184.2,360.2v5.8l-2.5-1.5v-5.9l2.5,1.5Z"/>
  <path class="st15" d="M194.3,374.9v5.8l-2.5-1.5v-5.9l2.5,1.5Z"/>
  <path class="st15" d="M189.3,371.9v5.9l-2.5-1.5v-5.9l2.5,1.5Z"/>
  <path class="st15" d="M184.2,369v5.9l-2.5-1.5v-5.9l2.5,1.5Z"/>
  <path class="st15" d="M194.3,383.6v5.8l-2.5-1.5v-5.9l2.5,1.5Z"/>
  <path class="st15" d="M189.3,380.7v5.8l-2.5-1.5v-5.9l2.5,1.5Z"/>
  <path class="st15" d="M184.2,377.8v5.8l-2.5-1.5v-5.9l2.5,1.5Z"/>
  <path class="st22" d="M237.4,380.3l-11.1,6.5c-2.5,1.4-5,1.4-7.4,0l-18.5-10.7c-2.5-1.4-2.5-2.9,0-4.3l4.5-2.6v5.2l17.7,10.2,3.7-19.5,3.7,2.4,2.6-1.5,15.9-9.2v-4.4c.1,0,14.8,8.7,14.8,8.7,2.5,1.4,2.5,2.8,0,4.2l-25.9,14.9h0Z"/>
  <path class="st6" d="M289.3,371.9l-74.1,42.8c-2.5,1.4-4.9,1.4-7.4,0l-14.9-8.6-25.9-15c-2.5-1.4-2.5-2.9,0-4.3l12.1-7v3.8l16.4,9.5v10.9l15.4,8.9,15.4-8.9v-17.1s11.1-6.4,11.1-6.4l14.8,8.5,33.3-19.2v-4.3l3.7,2.1c2.5,1.4,2.5,2.9,0,4.3h0Z"/>
  <path class="st23" d="M252.4,359.4h-1.2v7.7c.4.3.8.3,1.2,0v-7.7Z"/>
  <circle class="st23" cx="251.5" cy="356.2" r="5.4" transform="translate(-140.4 547.4) rotate(-80.8)"/>
  <circle class="st23" cx="253.9" cy="362.8" r="1.1"/>
  <path class="st2" d="M253.9,363.4c0,.8-.7,1.5-1.5,1.5"/>
  <path class="st23" d="M75.5,397.7c-8.2,0-15.8-1.8-21.5-5.1-5.7-3.3-8.9-7.7-8.9-12.4s3.2-9.2,9-12.5c5.8-3.4,13.6-5.2,21.8-5.2s15.8,1.8,21.5,5.1c5.7,3.3,8.9,7.7,8.9,12.4s-3.2,9.2-9,12.5c-5.8,3.4-13.6,5.2-21.8,5.2Z"/>
  <path d="M76,362.3v.3c8.1,0,15.7,1.8,21.5,5.1,5.7,3.3,8.8,7.6,8.8,12.2s-3.2,9.1-8.9,12.4c-5.8,3.4-13.5,5.2-21.8,5.2s-15.8-1.8-21.5-5.1c-5.7-3.3-8.8-7.6-8.8-12.2s3.2-9.1,8.9-12.4c5.8-3.4,13.5-5.2,21.7-5.2v-.3ZM76,362.3c-7.9,0-15.8,1.8-21.9,5.2-12.1,7-12.1,18.2-.2,25.1,6,3.4,13.8,5.2,21.6,5.2s15.8-1.8,21.9-5.2c12.1-7,12.1-18.2.2-25.1-6-3.4-13.8-5.2-21.6-5.2Z"/>
  <path class="st23" d="M211,373.8l15.4-8.8v39c0,0-15.4,8.8-15.4,8.8v-39Z"/>
  <path d="M226.2,365v38.9l-15.2,8.8v-38.9l15.2-8.8ZM226.3,364.9l-15.4,8.9v39.1l15.4-8.9v-39.1Z"/>
  <path class="st22" d="M195.6,403.9v-39s15.3,8.9,15.3,8.9v39s-15.3-8.8-15.3-8.8Z"/>
  <path d="M195.6,365l15.2,8.8v38.9l-15.2-8.8v-38.9M195.5,364.9v39.1l15.4,8.9v-39.1l-15.4-8.9Z"/>
  <path class="st15" d="M198.6,370.2l9.2,5.3v3.6s-9.2-5.3-9.2-5.3v-3.6Z"/>
  <path class="st15" d="M198.6,377.3l9.2,5.3v3.6s-9.2-5.3-9.2-5.3v-3.6Z"/>
  <path class="st15" d="M198.6,384.4l9.2,5.3v3.6s-9.2-5.3-9.2-5.3v-3.6Z"/>
  <path class="st15" d="M198.6,391.5l9.2,5.3v3.6s-9.2-5.3-9.2-5.3v-3.6Z"/>
  <path class="st15" d="M198.6,398.7l9.2,5.3v3.6s-9.2-5.3-9.2-5.3v-3.6Z"/>
  <path class="st22" d="M214,375.5l9.2-5.3v3.5c0,0-9.2,5.2-9.2,5.2v-3.5Z"/>
  <path d="M223.1,370.4v3.3l-9,5.2v-3.3l9-5.2M223.2,370.2l-9.2,5.3v3.6l9.2-5.3v-3.6h0Z"/>
  <path class="st22" d="M214,382.6l9.2-5.3v3.5c0,0-9.2,5.2-9.2,5.2v-3.5Z"/>
  <path d="M223.1,377.5v3.3l-9.1,5.2v-3.3l9.1-5.2ZM223.2,377.3l-9.2,5.3v3.6l9.2-5.3v-3.6h0Z"/>
  <path class="st22" d="M214,389.8l9.2-5.3v3.5c0,0-9.2,5.2-9.2,5.2v-3.5Z"/>
  <path d="M223.1,384.6v3.3l-9.1,5.2v-3.3l9.1-5.2ZM223.2,384.4l-9.2,5.3v3.6l9.2-5.3v-3.6Z"/>
  <path class="st22" d="M214,396.9l9.2-5.3v3.5c0,0-9.2,5.2-9.2,5.2v-3.5Z"/>
  <path d="M223.1,391.7v3.3l-9.1,5.2v-3.3l9.1-5.2ZM223.2,391.5l-9.2,5.3v3.6l9.2-5.3v-3.6Z"/>
  <path class="st22" d="M214,404l9.2-5.3v3.5c0,0-9.2,5.2-9.2,5.2v-3.5Z"/>
  <path d="M223.1,398.8v3.3l-9.1,5.2v-3.3l9.1-5.2ZM223.2,398.6l-9.2,5.3v3.6l9.2-5.3v-3.6h0Z"/>
  <path class="st15" d="M198.6,363.1l-3.1,1.8,15.4,8.9,15.4-8.9-15.4-8.9-12.3,7.1Z"/>
  <path class="st11" d="M198.4,364.9l12.6-7.3,12.6,7.3-12.6,7.3-12.6-7.3Z"/>
  <path class="st23" d="M198.4,364.8l12.6-7.2v1.6c0,0-11.2,6.4-11.2,6.4l-1.4-.8Z"/>
  <path d="M210.9,357.8v1.4l-11.1,6.4-1.2-.7,12.3-7.1ZM210.9,357.6l-12.6,7.3,1.4.8,11.2-6.5v-1.6h0Z"/>
  <path class="st11" d="M222.1,365.7l-11.2-6.5v-1.6l12.6,7.3-1.4.8Z"/>
  <path class="st11" d="M199.8,365.7l11.2-6.5,11.2,6.5-11.2,6.5-11.2-6.5Z"/>
  <path class="st22" d="M237.5,380.4v-29.7c0,0,14.7,8.5,14.7,8.5v29.7c0,0-14.7-8.5-14.7-8.5Z"/>
  <path d="M237.6,350.8l14.4,8.3v29.5l-14.4-8.3v-29.5ZM237.4,350.5v29.9l14.8,8.5v-29.9l-14.8-8.5Z"/>
  <path class="st23" d="M252.4,359l33.1-19.1v29.8l-33.1,19.1v-29.8Z"/>
  <path d="M285.4,340.1v29.5l-32.9,19v-29.5l32.9-19ZM285.6,339.8l-33.3,19.2v29.9l33.3-19.2v-29.9Z"/>
  <path class="st20" d="M237.6,350.5l33.2-19.2,14.7,8.5-33.2,19.2-14.7-8.5Z"/>
  <path class="st21" d="M270.8,331.4l14.6,8.4-33.1,19.1-14.6-8.4,33.1-19.1ZM270.8,331.2l-33.3,19.2,14.8,8.5,33.3-19.2-14.8-8.5h0Z"/>
  <path class="st18" d="M255.9,365.5v-4.3l11.1-6.4v4.3l-11.1,6.4Z"/>
  <path class="st18" d="M270.8,352.6v4.3l11.1-6.4v-4.3l-11.1,6.4Z"/>
  <path class="st18" d="M255.9,374v-4.3l11.1-6.4v4.3l-11.1,6.4Z"/>
  <path class="st18" d="M270.8,361.2v4.3l11.1-6.4v-4.3l-11.1,6.4Z"/>
  <path class="st18" d="M255.9,382.6v-4.3l11.1-6.4v4.3l-11.1,6.4Z"/>
  <path class="st18" d="M270.8,369.7v4.3l11.1-6.4v-4.3l-11.1,6.4Z"/>
  <path class="st23" d="M274.5,340l3-1.7v1.8l-3,1.7v-1.8Z"/>
  <path d="M277.5,338.4v1.6l-2.8,1.6v-1.6l2.8-1.6ZM277.6,338.1l-3.1,1.8v2l3.1-1.8v-2h0Z"/>
  <path class="st22" d="M268.2,338.3v-1.9s6.2,3.7,6.2,3.7v1.9s-6.2-3.6-6.2-3.6Z"/>
  <path d="M268.3,336.5l6.1,3.5v1.8l-6.1-3.5v-1.8ZM268.2,336.3v2l6.3,3.6v-2l-6.3-3.6Z"/>
  <path class="st20" d="M268.2,336.3l3.1-1.7,6.2,3.6-3.1,1.7-6.3-3.6Z"/>
  <path class="st21" d="M271.3,334.6l6.1,3.5-3,1.7-6.1-3.5,3-1.7ZM271.3,334.5l-3.1,1.8,6.3,3.6,3.1-1.8-6.3-3.6h0Z"/>
  <path class="st23" d="M263.4,346.4l3-1.7v1.8l-3,1.7v-1.8Z"/>
  <path d="M266.3,344.9v1.6l-2.8,1.6v-1.6l2.8-1.6ZM266.5,344.6l-3.1,1.8v2l3.1-1.8v-2Z"/>
  <path class="st22" d="M257.1,344.7v-1.9s6.2,3.7,6.2,3.7v1.9s-6.2-3.6-6.2-3.6Z"/>
  <path d="M257.2,342.9l6.1,3.5v1.8l-6.1-3.5v-1.8ZM257.1,342.8v2l6.3,3.6v-2l-6.3-3.6Z"/>
  <path class="st20" d="M257.1,342.7l3.1-1.7,6.2,3.6-3.1,1.7-6.3-3.6Z"/>
  <path class="st21" d="M260.2,341l6.1,3.5-3,1.7-6.1-3.5,3-1.7ZM260.2,340.9l-3.1,1.8,6.3,3.6,3.1-1.8-6.3-3.6h0Z"/>
  <path class="st23" d="M144.9,447.6l9.9-5.7v20.3l-9.9,5.7v-20.3Z"/>
  <path d="M154.8,442.1v20l-9.7,5.6v-20l9.7-5.6ZM154.9,441.8l-10.1,5.8v20.5l10.1-5.8v-20.5Z"/>
  <path class="st22" d="M122.1,454.9v-20.3s22.7,13.1,22.7,13.1v20.3s-22.7-13.1-22.7-13.1Z"/>
  <path d="M122.2,434.7l22.5,13v20.1l-22.5-13v-20.1M122.1,434.5v20.5l22.8,13.1v-20.5l-22.8-13.1Z"/>
  <path class="st20" d="M122.1,434.5l10.1-5.8,22.7,13.1-10.1,5.8-22.7-13.1Z"/>
  <path class="st21" d="M132.2,428.8l22.6,13-10,5.8-22.6-13,10-5.8ZM132.2,428.7l-10.1,5.8,22.8,13.1,10.1-5.8-22.8-13.1Z"/>
  <path class="st20" d="M134.7,447.6v-2.9s7.6,4.4,7.6,4.4v2.8s-7.6-4.4-7.6-4.4Z"/>
  <path class="st21" d="M134.8,444.9l7.4,4.3v2.7l-7.4-4.3v-2.7ZM134.7,444.7v2.9l7.6,4.4v-2.9l-7.6-4.4Z"/>
  <path class="st20" d="M124.6,441.8v-2.9s7.5,4.4,7.5,4.4v2.8s-7.5-4.3-7.5-4.3Z"/>
  <path class="st21" d="M124.7,439l7.4,4.3v2.7l-7.4-4.3v-2.7ZM124.6,438.9v2.9l7.6,4.4v-2.9l-7.6-4.4Z"/>
  <path class="st20" d="M134.7,453.5v-2.9s7.6,4.4,7.6,4.4v2.8s-7.6-4.4-7.6-4.4Z"/>
  <path class="st21" d="M134.8,450.7l7.4,4.3v2.7l-7.4-4.3v-2.7ZM134.7,450.6v2.9l7.6,4.4v-2.9l-7.6-4.4Z"/>
  <path class="st20" d="M124.6,447.6v-2.9s7.5,4.4,7.5,4.4v2.8s-7.5-4.4-7.5-4.4Z"/>
  <path class="st21" d="M124.7,444.9l7.4,4.3v2.7l-7.4-4.3v-2.7ZM124.6,444.7v2.9l7.6,4.4v-2.9l-7.6-4.4Z"/>
  <path class="st20" d="M134.7,459.3v-2.9s7.6,4.4,7.6,4.4v2.8s-7.6-4.3-7.6-4.3Z"/>
  <path class="st21" d="M134.8,456.6l7.4,4.3v2.7l-7.4-4.3v-2.7ZM134.7,456.4v2.9l7.6,4.4v-2.9l-7.6-4.4Z"/>
  <path class="st20" d="M124.6,453.5v-2.9s7.5,4.4,7.5,4.4v2.8s-7.5-4.4-7.5-4.4Z"/>
  <path class="st21" d="M124.7,450.7l7.4,4.3v2.7l-7.4-4.3v-2.7ZM124.6,450.6v2.9l7.6,4.4v-2.9l-7.6-4.4Z"/>
  <path class="st22" d="M127.5,434.7v-1.2s2.1,1.2,2.1,1.2v1.2s-2.1-1.2-2.1-1.2Z"/>
  <path d="M127.6,433.6l1.9,1.1v1l-1.9-1.1v-1ZM127.5,433.4v1.4l2.2,1.2v-1.4l-2.2-1.2Z"/>
  <path class="st23" d="M129.7,434.6l4.1-2.3v1.2l-4.1,2.3v-1.2Z"/>
  <path d="M133.7,432.5v.9l-3.9,2.3v-.9l3.9-2.3ZM133.9,432.1l-4.3,2.5v1.4l4.3-2.5v-1.4Z"/>
  <path class="st20" d="M127.5,433.4l4.3-2.4,2.1,1.2-4.3,2.4-2.1-1.2Z"/>
  <path class="st21" d="M131.8,431l2,1.2-4.2,2.4-2-1.2,4.2-2.4ZM131.8,430.9l-4.3,2.5,2.1,1.2,4.3-2.5-2.1-1.2Z"/>
  <path class="st22" d="M135.1,439v-1.2s2.1,1.2,2.1,1.2v1.2s-2.1-1.2-2.1-1.2Z"/>
  <path d="M135.2,438l1.9,1.1v1l-1.9-1.1v-1ZM135.1,437.8v1.4l2.1,1.2v-1.4l-2.1-1.2Z"/>
  <path class="st23" d="M137.3,439l4.1-2.3v1.2l-4.1,2.3v-1.2Z"/>
  <path d="M141.3,436.9v.9l-3.9,2.3v-.9l3.9-2.3ZM141.5,436.5l-4.3,2.5v1.4l4.3-2.5v-1.4Z"/>
  <path class="st20" d="M135.1,437.7l4.3-2.4,2.1,1.2-4.3,2.4-2.1-1.2Z"/>
  <path class="st21" d="M139.4,435.4l2,1.2-4.2,2.4-2-1.2,4.2-2.4ZM139.4,435.3l-4.3,2.5,2.1,1.2,4.3-2.5-2.1-1.2Z"/>
  <path class="st22" d="M76.9,392.7c-6.7,0-13-1.5-17.8-4.3-5-2.9-7.7-6.9-7.4-10.9,0-5.5,3-20.5,5.9-35,2.5-12.5,4.8-24.2,4.8-27.9h28.7c0,4,2.3,15.9,4.9,28.6,2.8,14.2,5.8,28.8,5.8,34.2.4,4.1-2.2,8.1-7.2,11-4.7,2.7-10.9,4.2-17.6,4.2h0Z"/>
  <path d="M62.5,314.8h28.5c0,4.1,2.4,16,4.9,28.6,2.8,14.1,5.7,28.7,5.8,34.1h0c.4,4.2-2.2,8.2-7.2,11-4.7,2.7-10.9,4.2-17.6,4.2s-13-1.5-17.8-4.3c-5-2.9-7.7-6.8-7.3-10.9,0-5.5,3-20.4,5.9-34.9,2.5-12.4,4.8-24,4.8-27.8M62.4,314.7c0,7.9-10.7,52.6-10.7,62.8-.3,3.9,2.2,7.9,7.4,11,4.9,2.9,11.4,4.3,17.8,4.3s12.8-1.4,17.6-4.2c5.2-3,7.6-7.1,7.2-11h0c0-10.2-10.7-54.5-10.7-62.8h-28.7s0,0,0,0Z"/>
  <path class="st20" d="M76.8,322.5c-3.8,0-7.5-.9-10.2-2.5-2.7-1.6-4.2-3.7-4.2-5.9s1.5-4.2,4.2-5.8c2.7-1.5,6.3-2.4,10.1-2.4s7.5.9,10.2,2.5c2.7,1.6,4.2,3.7,4.2,5.9s-1.5,4.2-4.2,5.8c-2.7,1.5-6.3,2.4-10.1,2.4Z"/>
  <path class="st21" d="M76.6,306c3.8,0,7.5.9,10.2,2.4,2.7,1.6,4.2,3.6,4.2,5.8s-1.5,4.2-4.1,5.8c-2.7,1.5-6.2,2.4-10.1,2.4s-7.5-.9-10.2-2.4c-2.7-1.6-4.2-3.6-4.2-5.8s1.5-4.2,4.1-5.8c2.7-1.5,6.2-2.4,10.1-2.4M76.6,306c-3.7,0-7.3.8-10.1,2.4-5.6,3.2-5.6,8.5,0,11.7,2.8,1.6,6.5,2.5,10.2,2.5s7.3-.8,10.1-2.4c5.6-3.2,5.6-8.5,0-11.7-2.8-1.6-6.5-2.5-10.2-2.5Z"/>
  <path class="st23" d="M76.8,321.5c-3.4,0-6.6-.8-9-2.2-2.4-1.4-3.7-3.2-3.7-5.2s1.3-3.7,3.7-5.1c2.4-1.4,5.5-2.1,8.9-2.1s6.6.8,9,2.2c2.4,1.4,3.7,3.2,3.7,5.2s-1.3,3.7-3.7,5.1c-2.4,1.4-5.5,2.1-8.9,2.1Z"/>
  <path d="M76.6,307c3.4,0,6.6.8,9,2.1,2.4,1.4,3.7,3.2,3.7,5.1s-1.3,3.7-3.6,5c-2.4,1.4-5.5,2.1-8.9,2.1s-6.6-.8-9-2.1c-2.4-1.4-3.7-3.2-3.7-5.1s1.3-3.7,3.6-5c2.4-1.4,5.5-2.1,8.9-2.1M76.6,306.9c-3.2,0-6.5.7-8.9,2.1-5,2.9-4.9,7.5,0,10.4,2.5,1.5,5.8,2.2,9.1,2.2s6.5-.7,8.9-2.1c4.9-2.9,4.9-7.5,0-10.4-2.5-1.5-5.8-2.2-9.1-2.2Z"/>
  <path class="st8" d="M55.1,355.2c-1.1,3.9.9,8.1,6.2,11.1,8.6,5,22.5,5,31,0,5.6-3.2,7.1-7.5,5.9-11.9"/>
  <path class="st12" d="M58.2,339.2c.4,2.4,2.3,5.1,5.5,7,7.2,4.2,18.9,4.2,26.1,0,3.4-2,5.2-4.5,5.3-7"/>
  <path class="st23" d="M178.8,387.7h-1.2v5.2c.4.2.8.2,1.2,0v-5.2Z"/>
  <path class="st23" d="M178.2,388.4c3.2,0,5.7-2.6,5.7-5.7s-3.1-6.2-5.7-9.9c-2.5,2.9-5.7,6.4-5.7,9.9s2.6,5.7,5.7,5.7Z"/>
  <path class="st23" d="M189.9,394h-1.2v5.2c.4.2.8.2,1.2,0v-5.2Z"/>
  <path class="st23" d="M189.3,394.8c3.2,0,5.7-2.6,5.7-5.7s-3.1-6.2-5.7-9.9c-2.5,2.9-5.7,6.4-5.7,9.9s2.6,5.7,5.7,5.7Z"/>
  <path class="st20" d="M127.2,318.9l12.5-7.2,12.4,7.2-12.5,7.2-12.5-7.2Z"/>
  <path class="st21" d="M139.7,311.8l12.3,7.1-12.3,7.1-12.3-7.1,12.3-7.1ZM139.7,311.6l-12.6,7.3,12.6,7.3,12.6-7.3-12.6-7.3Z"/>
  <path class="st23" d="M139.8,326.2l12.5-7.2v41.7s-12.5,7.2-12.5,7.2v-41.7Z"/>
  <path d="M152.2,319.1v41.5s-12.3,7.1-12.3,7.1v-41.5l12.3-7.1M152.3,318.9l-12.6,7.3v41.8l12.6-7.3v-41.8s0,0,0,0Z"/>
  <path class="st22" d="M127.2,360.6v-41.6s12.5,7.2,12.5,7.2v41.6s-12.5-7.2-12.5-7.2Z"/>
  <path d="M127.2,319.1l12.3,7.1v41.5l-12.3-7.1v-41.5ZM127.1,318.9v41.8l12.6,7.3v-41.8s-12.6-7.3-12.6-7.3Z"/>
  <path class="st20" d="M132.6,308.5l7.1-4.1,7,4.1-7.1,4.1-7.1-4.1Z"/>
  <path class="st21" d="M139.7,304.5l6.9,4-6.9,4-6.9-4,6.9-4ZM139.7,304.3l-7.2,4.2,7.2,4.2,7.2-4.2-7.2-4.2Z"/>
  <path class="st23" d="M139.8,312.6l7.1-4v11l-7.1,4v-11Z"/>
  <path d="M146.8,308.7v10.8l-6.9,4v-10.8l6.9-4M146.9,308.5l-7.2,4.2v11.1l7.2-4.2v-11.1h0Z"/>
  <path class="st22" d="M132.6,319.5v-10.9s7.1,4.1,7.1,4.1v10.9s-7.1-4.1-7.1-4.1Z"/>
  <path d="M132.6,308.7l6.9,4v10.8l-6.9-4v-10.8ZM132.5,308.5v11.1l7.2,4.2v-11.1l-7.2-4.2Z"/>
  <path class="st20" d="M138.4,299.9l1.4-.8,1.3.8-1.3.8-1.3-.8Z"/>
  <path class="st21" d="M139.7,299.2l1.2.7-1.2.7-1.2-.7,1.2-.7ZM139.7,299.1l-1.5.9,1.5.9,1.5-.9-1.5-.9Z"/>
  <path class="st20" d="M135.4,308.6l2.9-8.6,1.4.8v10.2s-4.3-2.5-4.3-2.5Z"/>
  <path class="st21" d="M138.3,300.1l1.2.7v10.1l-4.1-2.4,2.8-8.5ZM138.3,299.9l-2.9,8.7,4.4,2.5v-10.4l-1.5-.9Z"/>
  <path class="st23" d="M139.8,300.8l1.4-.7,2.9,8.6-4.3,2.4v-10.3Z"/>
  <path d="M141.1,300.1l2.8,8.5-4.1,2.4v-10.1l1.2-.7M141.2,299.9l-1.5.9v10.4l4.4-2.5-2.9-8.7Z"/>
  <path class="st8" d="M142.3,328.5v26.3"/>
  <path class="st8" d="M137.2,328.5v26.3"/>
  <path class="st8" d="M134.7,327v26.3"/>
  <path class="st8" d="M132.1,325.6v26.3"/>
  <path class="st8" d="M129.6,324.1v26.3"/>
  <path class="st8" d="M144.8,327v26.3"/>
  <path class="st8" d="M147.3,325.6v26.3"/>
  <path class="st8" d="M149.9,324.1v26.5"/>
  <path class="st23" d="M143.1,376.9l10.9-6.2v38.3l-10.9,6.2v-38.3Z"/>
  <path d="M153.9,370.8v38l-10.7,6.2v-38l10.7-6.2M154.1,370.5l-11.1,6.4v38.5l11.1-6.4v-38.5Z"/>
  <path class="st22" d="M131.9,408.9v-38.2c0,0,11,6.3,11,6.3v38.2c0,0-11-6.3-11-6.3Z"/>
  <path d="M132.1,370.8l10.7,6.2v38l-10.7-6.2v-38M131.9,370.5v38.5s11.1,6.4,11.1,6.4v-38.5l-11.1-6.4h0Z"/>
  <path class="st20" d="M132,370.5l11-6.4,11,6.4-11,6.4-11-6.4Z"/>
  <path class="st21" d="M143,364.2l10.9,6.3-10.9,6.3-10.9-6.3,10.9-6.3ZM143,364.1l-11.1,6.4,11.1,6.4,11.1-6.4-11.1-6.4h0Z"/>
  <path class="st22" d="M137.9,370.4v-1.4s5,2.9,5,2.9v1.4c0,0-5-2.9-5-2.9Z"/>
  <path d="M138.1,369.1l4.7,2.7v1.2l-4.7-2.7v-1.2ZM137.9,368.8v1.7l5.1,2.9v-1.7l-5.1-2.9Z"/>
  <path class="st23" d="M143.1,371.7l4.9-2.8v1.5l-4.9,2.8v-1.5Z"/>
  <path d="M147.9,369.1v1.2l-4.7,2.7v-1.2l4.7-2.7ZM148.1,368.8l-5.1,2.9v1.7l5.1-2.9v-1.7Z"/>
  <path class="st20" d="M138,368.8l5-2.9,4.9,2.9-5,2.9-5-2.9Z"/>
  <path class="st21" d="M143,366l4.9,2.8-4.9,2.8-4.9-2.8,4.9-2.8ZM143,365.8l-5.1,2.9,5.1,2.9,5.1-2.9-5.1-2.9Z"/>
  <path class="st10" d="M135.6,376.9v29.9"/>
  <path class="st10" d="M139.3,379v29.9"/>
  <path class="st10" d="M146.7,379v29.9"/>
  <path class="st10" d="M150.4,376.9v29.9"/>
  <path class="st23" d="M238.2,385.2h-1.2v7.7c.4.3.8.3,1.2,0v-7.7Z"/>
  <circle class="st23" cx="237.3" cy="382.1" r="5.4"/>
  <circle class="st23" cx="239.6" cy="388.7" r="1.1"/>
  <path class="st2" d="M239.6,389.3c0,.8-.7,1.5-1.5,1.5"/>
  <path class="st23" d="M259.7,398l16.6-9.6v42.3c0,0-16.6,9.5-16.6,9.5v-42.2Z"/>
  <path d="M276.2,388.6v42.1l-16.5,9.5v-42.1l16.5-9.5ZM276.3,388.4l-16.7,9.6v42.3l16.7-9.6v-42.3h0Z"/>
  <path class="st22" d="M243,430.6v-42.3s16.6,9.7,16.6,9.7v42.2s-16.6-9.6-16.6-9.6Z"/>
  <path d="M243.1,388.6l16.4,9.5v42.1l-16.4-9.5v-42.1ZM243,388.4v42.3l16.6,9.6v-42.3l-16.6-9.6h0Z"/>
  <path class="st16" d="M246.3,394.2l10,5.8v3.9s-10-5.8-10-5.8v-3.9Z"/>
  <path class="st16" d="M246.3,401.9l10,5.8v3.9s-10-5.8-10-5.8v-3.9Z"/>
  <path class="st16" d="M246.3,409.6l10,5.8v3.9s-10-5.8-10-5.8v-3.9Z"/>
  <path class="st16" d="M246.3,417.3l10,5.8v3.9s-10-5.8-10-5.8v-3.9Z"/>
  <path class="st16" d="M246.3,425l10,5.8v3.9s-10-5.8-10-5.8v-3.9Z"/>
  <path class="st22" d="M263,399.9l10-5.7v3.8c0,0-9.9,5.7-9.9,5.7v-3.8Z"/>
  <path d="M272.8,394.3v3.6l-9.8,5.7v-3.6l9.8-5.7M272.9,394.1l-10,5.8v3.9l10-5.8v-3.9h0Z"/>
  <path class="st22" d="M263,407.6l10-5.7v3.8c0,0-10,5.7-10,5.7v-3.8Z"/>
  <path d="M272.9,402v3.6l-9.8,5.7v-3.6l9.8-5.7ZM273,401.8l-10,5.8v3.9l10-5.8v-3.9Z"/>
  <path class="st22" d="M263,415.3l10-5.7v3.8c0,0-10,5.7-10,5.7v-3.8Z"/>
  <path d="M272.9,409.7v3.6l-9.8,5.7v-3.6l9.8-5.7ZM273,409.5l-10,5.8v3.9l10-5.8v-3.9Z"/>
  <path class="st22" d="M263,423l10-5.7v3.8c0,0-10,5.7-10,5.7v-3.8Z"/>
  <path d="M272.9,417.4v3.6l-9.8,5.7v-3.6l9.8-5.7ZM273,417.2l-10,5.8v3.9l10-5.8v-3.9Z"/>
  <path class="st22" d="M263,430.7l10-5.7v3.8c0,0-10,5.7-10,5.7v-3.8Z"/>
  <path d="M272.9,425.1v3.6l-9.8,5.7v-3.6l9.8-5.7ZM273,424.9l-10,5.8v3.9l10-5.8v-3.9Z"/>
  <path class="st16" d="M246.3,386.5l-3.3,1.9,16.6,9.6,16.7-9.6-16.6-9.6-13.3,7.7Z"/>
  <path class="st12" d="M246.1,388.4l13.6-7.9,13.6,7.9-13.6,7.9-13.6-7.9Z"/>
  <path class="st23" d="M246.1,388.3l13.6-7.8v1.7c0,0-12.1,6.9-12.1,6.9l-1.5-.9Z"/>
  <path d="M259.6,380.7v1.5l-12,6.9-1.3-.8,13.3-7.7ZM259.7,380.5l-13.6,7.9,1.5.9,12.1-7v-1.8h0Z"/>
  <path class="st12" d="M271.8,389.2l-12.1-7v-1.8l13.6,7.9-1.5.9Z"/>
  <path class="st12" d="M247.6,389.2l12.1-7,12.1,7-12.1,7-12.1-7Z"/>
  <path class="st23" d="M285.6,419.1l14.2-8.2v36.2c0,0-14.2,8.2-14.2,8.2v-36.1Z"/>
  <path d="M299.7,411v36l-14.1,8.1v-36l14.1-8.1M299.8,410.8l-14.3,8.2v36.2l14.3-8.2v-36.2Z"/>
  <path class="st22" d="M271.4,447v-36.2s14.2,8.3,14.2,8.3v36.1s-14.2-8.2-14.2-8.2Z"/>
  <path d="M271.4,411l14.1,8.1v36l-14.1-8.1v-36ZM271.3,410.8v36.2l14.2,8.2v-36.2l-14.2-8.2h0Z"/>
  <path class="st4" d="M274.2,415.8l8.5,4.9v3.3s-8.5-4.9-8.5-4.9v-3.3Z"/>
  <path class="st4" d="M274.2,422.4l8.5,4.9v3.3s-8.5-4.9-8.5-4.9v-3.3Z"/>
  <path class="st4" d="M274.2,429l8.5,4.9v3.3s-8.5-4.9-8.5-4.9v-3.3Z"/>
  <path class="st4" d="M274.2,435.5l8.5,4.9v3.3s-8.5-4.9-8.5-4.9v-3.3Z"/>
  <path class="st4" d="M274.2,442.1l8.5,4.9v3.3s-8.5-4.9-8.5-4.9v-3.3Z"/>
  <path class="st22" d="M288.5,420.7l8.5-4.9v3.3s-8.5,4.9-8.5,4.9v-3.2Z"/>
  <path d="M296.9,415.9v3.1l-8.4,4.8v-3.1l8.4-4.8M297,415.8l-8.5,5v3.3l8.5-4.9v-3.3h0,0Z"/>
  <path class="st22" d="M288.5,427.3l8.5-4.9v3.3c0,0-8.5,4.9-8.5,4.9v-3.2Z"/>
  <path d="M296.9,422.5v3.1l-8.4,4.8v-3.1l8.4-4.8ZM297,422.4l-8.6,5v3.3l8.6-5v-3.3Z"/>
  <path class="st22" d="M288.5,433.9l8.5-4.9v3.3c0,0-8.5,4.9-8.5,4.9v-3.2Z"/>
  <path d="M296.9,429.1v3.1l-8.4,4.8v-3.1l8.4-4.8ZM297,428.9l-8.6,4.9v3.3l8.6-4.9v-3.3Z"/>
  <path class="st22" d="M288.5,440.5l8.5-4.9v3.3c0,0-8.5,4.9-8.5,4.9v-3.2Z"/>
  <path d="M296.9,435.7v3.1l-8.4,4.8v-3.1l8.4-4.8ZM297,435.5l-8.6,5v3.3l8.6-5v-3.3Z"/>
  <path class="st22" d="M288.5,447l8.5-4.9v3.3c0,0-8.5,4.9-8.5,4.9v-3.2Z"/>
  <path d="M296.9,442.3v3.1l-8.4,4.8v-3.1l8.4-4.8ZM297,442.1l-8.6,4.9v3.3l8.6-4.9v-3.3Z"/>
  <path class="st4" d="M274.2,409.2l-2.8,1.6,14.2,8.2,14.3-8.2-14.2-8.2-11.4,6.6Z"/>
  <path class="st0" d="M273.9,410.8l11.7-6.7,11.6,6.7-11.6,6.7-11.7-6.7Z"/>
  <path class="st23" d="M274,410.8l11.7-6.6v1.5c0,0-10.4,5.9-10.4,5.9l-1.3-.7Z"/>
  <path d="M285.5,404.3v1.3l-10.3,5.9-1.1-.6,11.4-6.6ZM285.6,404.1l-11.6,6.7,1.3.7,10.4-6v-1.5Z"/>
  <path class="st0" d="M296,411.6l-10.4-6v-1.5s11.7,6.7,11.7,6.7l-1.3.8Z"/>
  <path class="st0" d="M275.2,411.6l10.4-6,10.4,6-10.4,6-10.4-6Z"/>
  <path class="st6" d="M98.7,428.2l11.1,6.4v-21.4l-11.1-6.4v21.4Z"/>
  <path class="st23" d="M109.9,413.2l25.7-14.8v21.2l-25.7,14.8v-21.2Z"/>
  <path d="M135.6,398.6v20.9l-25.5,14.8v-20.9l25.5-14.8ZM135.7,398.3l-25.9,15v21.4l25.9-15v-21.4Z"/>
  <path class="st20" d="M98.8,406.8l25.8-14.9,11,6.4-25.8,14.9-11-6.3Z"/>
  <path class="st21" d="M124.6,392l10.9,6.3-25.7,14.8-10.9-6.3,25.7-14.8ZM124.6,391.9l-25.9,15,11.1,6.4,25.9-15-11.1-6.4Z"/>
  <path class="st20" d="M102.4,417.5v-4.1s3.6,2.1,3.6,2.1v4.1s-3.6-2.1-3.6-2.1Z"/>
  <path class="st21" d="M102.5,413.4l3.5,2v4l-3.5-2v-4ZM102.4,413.2v4.3l3.7,2.1v-4.3l-3.7-2.1Z"/>
  <path class="st6" d="M117.2,413.2v4.3l-3.7,2.1v-4.3l3.7-2.1Z"/>
  <path class="st6" d="M124.6,409v4.3l-3.7,2.1v-4.3l3.7-2.1Z"/>
  <path class="st6" d="M132,404.7v4.3l-3.7,2.1v-4.3l3.7-2.1Z"/>
  <path class="st6" d="M117.2,421.8v4.3l-3.7,2.1v-4.3l3.7-2.1Z"/>
  <path class="st6" d="M124.6,417.5v4.3l-3.7,2.1v-4.3l3.7-2.1Z"/>
  <path class="st6" d="M132,413.2v4.3l-3.7,2.1v-4.3l3.7-2.1Z"/>
  <path class="st20" d="M102.4,426v-4.1s3.6,2.1,3.6,2.1v4.1s-3.6-2.1-3.6-2.1Z"/>
  <path class="st21" d="M102.5,422l3.5,2v4l-3.5-2v-4ZM102.4,421.8v4.3l3.7,2.1v-4.3l-3.7-2.1Z"/>
  <path class="st6" d="M111.7,410v-2.5l-7.4-4.3v2.5l7.4,4.3Z"/>
  <path class="st23" d="M111.8,407.5l18.3-10.5v2.3l-18.3,10.5v-2.3Z"/>
  <path d="M130,397.2v2l-18.1,10.5v-2l18.1-10.5ZM130.2,396.8l-18.5,10.7v2.5l18.5-10.7v-2.5Z"/>
  <path class="st20" d="M104.4,403.3l18.4-10.6,7.3,4.2-18.4,10.6-7.3-4.2Z"/>
  <path class="st21" d="M122.8,392.7l7.2,4.1-18.3,10.6-7.2-4.1,18.3-10.6M122.8,392.6l-18.5,10.7,7.4,4.3,18.5-10.7-7.4-4.3Z"/>
  <path class="st5" d="M109.6,438.3c-.9,0-1.8-.5-3.7-1.6l-11.1-6.4c-1.8-1-2.7-1.6-2.7-2s1-1,2.7-2l3.7-2.1v4.2l11.2,6.5,26-15v-8.5c0,0,7.2,4.2,7.2,4.2l11.2-6.4v-4.2c0,0,3.6,2.1,3.6,2.1,1.8,1,2.7,1.6,2.7,2s-1,1-2.7,2l-44.5,25.6c-1.8,1.1-2.8,1.6-3.7,1.6h0Z"/>
  <path class="st19" d="M204.1,438.2l-55.5,32.1c-2.5,1.4-4.9,1.4-7.4,0l-25.9-15c-2.5-1.4-2.5-2.8,0-4.3l6.8-4v7.9l22.8,13.1,10.1-5.8v-14l12.1,7,10.1-5.8v-9.7l8.4,4.9,12.6-7.3v-6.8l5.9,3.4c2.5,1.4,2.5,2.8,0,4.3h0Z"/>
</svg>