<?xml version="1.0" encoding="UTF-8"?>
<svg id="Calque_1" xmlns="http://www.w3.org/2000/svg" version="1.1" viewBox="0 0 352 190">
  <!-- Generator: Adobe Illustrator 29.1.0, SVG Export Plug-In . SVG Version: 2.1.0 Build 142)  -->
  <defs>
    <style>
      .st0, .st1, .st2, .st3, .st4, .st5, .st6, .st7, .st8, .st9 {
        stroke-miterlimit: 10;
      }

      .st0, .st1, .st2, .st3, .st5, .st6, .st7 {
        fill: none;
      }

      .st0, .st1, .st4, .st5, .st9 {
        stroke-width: .1px;
      }

      .st0, .st3, .st4, .st6, .st8 {
        stroke: #1d1d1b;
      }

      .st1, .st5, .st7, .st9 {
        stroke: #000;
      }

      .st2 {
        stroke: #991756;
      }

      .st2, .st6, .st8 {
        stroke-width: .2px;
      }

      .st3 {
        stroke-width: .3px;
      }

      .st3, .st5 {
        stroke-linecap: round;
      }

      .st4, .st10, .st8 {
        fill: #fff;
      }

      .st11 {
        fill: #1d1d1b;
      }

      .st12, .st9 {
        fill: #f5e8f0;
      }

      .st13 {
        fill: #991756;
      }

      .st7 {
        stroke-width: .8px;
      }
    </style>
  </defs>
  <path class="st12" d="M180.1,151.3l-55.5,32.1c-2.5,1.4-4.9,1.4-7.4,0l-25.9-15c-2.5-1.4-2.5-2.8,0-4.3l6.8-4v7.9l22.8,13.1,10.1-5.8v-14l12.1,7,10.1-5.8v-9.7l8.4,4.8,12.7-7.3v-6.8l5.9,3.4c2.5,1.4,2.5,2.9,0,4.3h-.1Z"/>
  <path class="st9" d="M128.4,69.5l4,2.4c2.5,1.4,2.5,2.9,0,4.3l-11.6,6.7c-2.5,1.4-4.9,1.4-7.4,0l-14.8-8.6c-2.5-1.4-2.5-2.9,0-4.3l4.5-2.6v6.3l12.6,7.3,12.6-7.3v-4.3h.1Z"/>
  <path class="st9" d="M275.9,78.2c-.9,0-1.8-.5-3.7-1.6l-18.5-10.7c-1.8-1.1-2.7-1.6-2.7-2.1s.9-1,2.7-2.1l3.7-2.1h37l3.7,2.1c1.8,1.1,2.8,1.6,2.8,2.1s-.9,1-2.8,2.1l-18.5,10.7c-1.8,1.1-2.8,1.6-3.7,1.6h0Z"/>
  <path class="st12" d="M257.4,63.8V15.8l18.5,10.6v48s-18.5-10.6-18.5-10.6Z"/>
  <path d="M257.5,15.9l18.3,10.6v47.8l-18.3-10.6V15.9ZM257.4,15.7v48.1l18.5,10.7V26.4l-18.5-10.7Z"/>
  <path class="st13" d="M276,26.4l18.4-10.6v48l-18.4,10.6V26.4Z"/>
  <path d="M294.3,15.9v47.8l-18.3,10.6V26.5l18.3-10.6M294.4,15.7l-18.5,10.7v48.1l18.5-10.7V15.7Z"/>
  <path class="st10" d="M257.5,15.7l18.4-10.6,18.4,10.6-18.4,10.6s-18.4-10.6-18.4-10.6Z"/>
  <path class="st11" d="M275.9,5.1l18.3,10.6-18.3,10.6-18.3-10.6s18.3-10.6,18.3-10.6ZM275.9,5l-18.5,10.7,18.5,10.7,18.5-10.7-18.5-10.7Z"/>
  <path class="st12" d="M266.7,15.6v-2.5l9.2,5.3v2.5s-9.2-5.3-9.2-5.3Z"/>
  <path d="M266.8,13.2l9,5.2v2.4l-9-5.2s0-2.4,0-2.4ZM266.7,13v2.7l9.3,5.4v-2.7l-9.3-5.4Z"/>
  <path class="st13" d="M276,18.4l9.1-5.2v2.6l-9.1,5.2v-2.6Z"/>
  <path d="M285,13.2v2.4l-9,5.2v-2.4l9-5.2ZM285.2,13l-9.3,5.4v2.7l9.3-5.4v-2.7Z"/>
  <path class="st10" d="M266.8,13l9.2-5.3,9.1,5.3-9.1,5.3-9.1-5.3h-.1Z"/>
  <path class="st11" d="M275.9,7.8l9,5.2-9,5.2-9-5.2s9-5.2,9-5.2ZM275.9,7.7l-9.3,5.4,9.3,5.4,9.3-5.4s-9.3-5.4-9.3-5.4Z"/>
  <path class="st3" d="M262,23.7v32.1"/>
  <path class="st3" d="M266.6,26.4v32.1"/>
  <path class="st3" d="M271.3,29.1v32.1"/>
  <path class="st3" d="M280.5,29.1v32.1"/>
  <path class="st3" d="M285.2,26.4v32.1"/>
  <path class="st3" d="M289.8,23.7v32.1"/>
  <path class="st9" d="M299.6,89.9v9.5l3.9-2.3v-6.8c-.1,0-3.9-.4-3.9-.4Z"/>
  <path class="st13" d="M301.5,91.4c-.5,0-1,0-1.4-.3s-.4-.3-.5-.5v-11.1l3.9.5v10.6c0,.2-.2.4-.5.5-.4.2-.8.3-1.4.3h-.1Z"/>
  <path d="M299.7,79.6l3.7.4v10.5c0,.2-.2.3-.5.5-.4.2-.8.3-1.3.3s-1,0-1.3-.3c-.2,0-.4-.3-.5-.5v-10.9h-.1ZM299.6,79.5v11.1c0,.2.3.4.5.5.4.2.9.3,1.4.3s1,0,1.4-.3c.3-.2.4-.3.5-.5v-10.7l-3.9-.4h.1Z"/>
  <path class="st13" d="M299.6,90.4v.3h0v-.3Z"/>
  <path d="M299.6,90.4v.3h0v-.3Z"/>
  <path class="st13" d="M303.5,90.4v.3h0v-.3Z"/>
  <path d="M303.5,90.4v.3h0v-.3Z"/>
  <path class="st12" d="M261.6,125.6v-12.8l37,21.4v12.7s-37-21.3-37-21.3Z"/>
  <path d="M261.7,113l36.9,21.3v12.6l-36.9-21.3v-12.6ZM261.6,112.8v12.8l37,21.4v-12.8s-37-21.4-37-21.4Z"/>
  <path class="st10" d="M261.7,112.8l29.5-17.1,7.3,4.2-7.3,4.2v12.9l18.4,10.7-11,6.3-36.9-21.3h0Z"/>
  <path class="st11" d="M291.2,95.9l7.2,4.1-7.2,4.2h0v12.9h0l18.3,10.6-10.9,6.3-36.8-21.2,29.4-17h0ZM291.2,95.7l-29.6,17.1,37,21.4,11.1-6.4-18.5-10.7v-12.8l7.4-4.3s-7.4-4.3-7.4-4.3Z"/>
  <path class="st13" d="M298.7,134.2l11.1-6.3v-12.9l14.7-8.4v25.5l-25.7,14.8v-12.7h-.1Z"/>
  <path d="M324.3,106.8v25.2l-25.5,14.7v-12.4l11-6.4h.1v-12.9l14.4-8.3M324.5,106.4l-14.8,8.6v12.8l-11.1,6.4v12.8l25.9-15v-25.7h0Z"/>
  <path class="st9" d="M303.4,80c0,.2-.2.4-.5.5-.8.4-2,.4-2.8,0-.5-.3-.6-.6-.6-1v-5h3.8v5.4h.1Z"/>
  <path class="st9" d="M303.5,80h0"/>
  <path class="st10" d="M291.3,104.3l14.7-8.5,18.4,10.7-14.7,8.5-18.4-10.6h0Z"/>
  <path class="st11" d="M306,95.9l18.3,10.6-14.6,8.4-18.3-10.6,14.6-8.4ZM306,95.7l-14.8,8.6,18.5,10.7,14.8-8.6-18.5-10.7Z"/>
  <path class="st13" d="M298.2,129.6l6.1-3.5v1.7l-6.1,3.5v-1.7Z"/>
  <path d="M304.2,126.3v1.4l-6,3.4v-1.4s6-3.4,6-3.4ZM304.4,126l-6.4,3.7v1.8l6.4-3.7v-1.8Z"/>
  <path class="st12" d="M293.3,128.7l4.7,1v1.7l-4.7-2.7Z"/>
  <path d="M293.8,128.9l4.2.8v1.6l-4.2-2.4h0ZM293.3,128.7l4.8,2.8v-1.8l-4.8-.9h0Z"/>
  <path class="st10" d="M293.5,128.7l6.2-3.6,4.6.9-6.2,3.6-4.6-.9h0Z"/>
  <path class="st11" d="M299.7,125.2l4.4.8-6,3.5-4.4-.9,6-3.5h0ZM299.7,125.1l-6.4,3.7,4.8.9,6.4-3.7-4.8-.9Z"/>
  <path class="st13" d="M290.8,125.4l6.2-3.5v1.7l-6.2,3.5v-1.7Z"/>
  <path d="M296.8,122v1.4l-6,3.4v-1.4l6-3.4ZM297,121.7l-6.4,3.7v1.8l6.4-3.7v-1.8Z"/>
  <path class="st12" d="M285.9,124.4l4.7,1v1.7l-4.7-2.7Z"/>
  <path d="M286.4,124.6l4.2.8v1.6l-4.2-2.4ZM285.9,124.4l4.8,2.8v-1.8l-4.8-.9h0Z"/>
  <path class="st10" d="M286,124.4l6.2-3.6,4.6.9-6.2,3.6-4.6-.9Z"/>
  <path class="st11" d="M292.3,120.9l4.4.8-6,3.5-4.4-.8,6-3.5ZM292.2,120.8l-6.4,3.7,4.8.9,6.4-3.7-4.8-.9Z"/>
  <path class="st13" d="M283.3,121.1l6.2-3.5v1.7l-6.2,3.5v-1.7Z"/>
  <path d="M289.4,117.8v1.4l-6,3.4v-1.4l6-3.4ZM289.6,117.4l-6.4,3.7v1.8l6.4-3.7v-1.8Z"/>
  <path class="st12" d="M278.5,120.1l4.7,1v1.7l-4.7-2.7Z"/>
  <path d="M279,120.4l4.2.8v1.6l-4.2-2.4ZM278.5,120.2l4.8,2.8v-1.8l-4.8-.9h0Z"/>
  <path class="st10" d="M278.6,120.2l6.2-3.6,4.6.9-6.2,3.6-4.6-.9Z"/>
  <path class="st11" d="M284.9,116.6l4.4.8-6,3.5-4.4-.8,6-3.5ZM284.8,116.5l-6.4,3.7,4.8.9,6.4-3.7-4.8-.9Z"/>
  <path class="st13" d="M276.4,134.1v-8.3l7.4,4.2v8.3l-7.4-4.2Z"/>
  <path d="M276.6,126l7.1,4v8.1l-7.1-4v-8.1ZM276.4,125.7v8.6l7.5,4.2v-8.6l-7.5-4.2Z"/>
  <path class="st10" d="M301.5,75.6c-.5,0-1,0-1.4-.3-.4-.2-.5-.5-.5-.8s.2-.5.5-.7c.4-.2.8-.3,1.4-.3s1,0,1.4.3c.4.2.5.5.5.8s-.2.5-.5.7c-.4.2-.8.3-1.4.3Z"/>
  <path class="st11" d="M301.5,73.5c.5,0,1,0,1.3.3.3.2.5.4.5.7s-.2.5-.5.7c-.4.2-.8.3-1.3.3s-1,0-1.3-.3c-.3-.2-.5-.4-.5-.7s.2-.5.5-.7c.4-.2.8-.3,1.3-.3M301.5,73.4c-.5,0-1,0-1.4.3-.8.4-.8,1.2,0,1.6.4.2.9.3,1.4.3s1,0,1.4-.3c.8-.4.8-1.2,0-1.6-.4-.2-.9-.3-1.4-.3Z"/>
  <path class="st9" d="M303.5,79.8h0c0,0,0,0,0,0Z"/>
  <path class="st9" d="M293.1,86.2v10.6l3.9,2.2v-12.4s-3.9-.4-3.9-.4Z"/>
  <path class="st13" d="M295,87.7c-.5,0-1,0-1.4-.3s-.4-.3-.5-.5v-11.1l3.9.5v10.6c0,.2-.2.4-.5.5-.4.2-.8.3-1.4.3h-.1Z"/>
  <path d="M293.2,75.9l3.7.4v10.5c0,.2-.2.3-.5.5-.4.2-.8.3-1.3.3s-1,0-1.3-.3c-.2,0-.4-.3-.5-.5v-10.9M293.1,75.8v11.1c0,.2.3.4.5.5.4.2.9.3,1.4.3s1,0,1.4-.3c.3-.2.4-.3.5-.5v-10.7l-3.9-.4h.1Z"/>
  <path class="st13" d="M293.1,86.6v.3h0v-.3Z"/>
  <path d="M293.1,86.6v.3h0v-.3Z"/>
  <path class="st13" d="M297,86.7v.3h0v-.3Z"/>
  <path d="M297,86.7v.3h0v-.3Z"/>
  <path class="st9" d="M296.9,76.2c0,.2-.2.4-.5.5-.8.4-2,.4-2.8,0-.5-.3-.6-.6-.6-1v-5h3.8v5.4h.1Z"/>
  <path class="st9" d="M297,76.2h0"/>
  <path class="st10" d="M295,71.8c-.5,0-1,0-1.4-.3-.4-.2-.5-.5-.5-.8s.2-.5.5-.7c.4-.2.8-.3,1.4-.3s1,0,1.4.3c.4.2.5.5.5.8s-.2.5-.5.7c-.4.2-.8.3-1.4.3h0Z"/>
  <path class="st11" d="M295,69.8c.5,0,1,0,1.3.3.3.2.5.4.5.7s-.2.5-.5.7c-.4.2-.8.3-1.3.3s-1,0-1.3-.3c-.3-.2-.5-.4-.5-.7s.2-.5.5-.7c.4-.2.8-.3,1.3-.3M295,69.6c-.5,0-1,0-1.4.3-.8.4-.8,1.2,0,1.6.4.2.9.3,1.4.3s1,0,1.4-.3c.8-.4.8-1.2,0-1.6-.4-.2-.9-.3-1.4-.3Z"/>
  <path class="st9" d="M297,76h0c0,0,0,0,0,0Z"/>
  <path class="st9" d="M305.9,93.6v2.2l3.9,2.1v-3.9c-.1,0-3.9-.4-3.9-.4Z"/>
  <path class="st13" d="M307.8,95.1c-.5,0-1,0-1.4-.3s-.4-.3-.5-.5v-11.1l3.9.5v10.6c0,.2-.2.4-.5.5-.4.2-.8.3-1.4.3h-.1Z"/>
  <path d="M306,83.3l3.7.4v10.5c0,.2-.2.3-.5.5-.4.2-.8.3-1.3.3s-1,0-1.3-.3c-.2,0-.4-.3-.5-.5v-10.9M305.9,83.1v11.1c0,.2.3.4.5.5.4.2.9.3,1.4.3s1,0,1.4-.3c.3-.2.4-.3.5-.5v-10.7l-3.9-.4h.1Z"/>
  <path class="st13" d="M305.9,94v.3h0v-.3Z"/>
  <path d="M305.9,94v.3h0v-.3Z"/>
  <path class="st13" d="M309.8,94v.3h0v-.3Z"/>
  <path d="M309.8,94v.3h0v-.3Z"/>
  <path class="st9" d="M309.7,83.6c0,.2-.2.4-.5.5-.8.4-2,.4-2.8,0-.5-.3-.6-.6-.6-1v-5h3.8v5.4h.1Z"/>
  <path class="st9" d="M309.8,83.6h0"/>
  <path class="st10" d="M307.8,79.2c-.5,0-1,0-1.4-.3-.4-.2-.5-.5-.5-.8s.2-.5.5-.7c.4-.2.8-.3,1.4-.3s1,0,1.4.3c.4.2.5.5.5.8s-.2.5-.5.7c-.4.2-.8.3-1.4.3Z"/>
  <path class="st11" d="M307.8,77.1c.5,0,1,0,1.3.3.3.2.5.4.5.7s-.2.5-.5.7c-.4.2-.8.3-1.3.3s-1,0-1.3-.3c-.3-.2-.5-.4-.5-.7s.2-.5.5-.7c.4-.2.8-.3,1.3-.3M307.8,77c-.5,0-1,0-1.4.3-.8.4-.8,1.2,0,1.6.4.2.9.3,1.4.3s1,0,1.4-.3c.8-.4.8-1.2,0-1.6-.4-.2-.9-.3-1.4-.3Z"/>
  <path class="st9" d="M309.8,83.4h0c0,0,0,0,0,0Z"/>
  <path class="st12" d="M291.2,117.1v-12.8l18.5,10.7v12.7s-18.5-10.6-18.5-10.6Z"/>
  <path d="M291.3,104.4l18.3,10.6v12.6l-18.3-10.6v-12.6ZM291.2,104.3v12.8l18.5,10.7v-12.8l-18.5-10.7Z"/>
  <path class="st9" d="M298.6,150.7c-.9,0-1.8-.5-3.7-1.6l-19.1-11v-4.2l22.7,13.2,26-15v-4.3l3.6,2.2c1.9,1.1,2.8,1.6,2.8,2.1s-.9,1-2.7,2.1l-25.9,15c-1.8,1.1-2.8,1.6-3.7,1.6h0Z"/>
  <path class="st13" d="M161.7,131.4l12.5-7.1v26.1l-12.5,7.1v-26.1Z"/>
  <path d="M174,124.5v25.8l-12.3,7.1v-25.9l12.3-7.1M174.2,124.1l-12.6,7.3v26.3l12.6-7.3s0-26.3,0-26.3Z"/>
  <path class="st9" d="M146.4,149l15.2,8.8v-26.3l-15.2-8.8v26.3Z"/>
  <path class="st10" d="M146.5,122.7l12.6-7.2,15,8.7-12.5,7.2-15-8.7h-.1Z"/>
  <path class="st11" d="M159.1,115.5l14.9,8.6-12.4,7.1-14.9-8.6,12.4-7.1ZM159.1,115.4l-12.7,7.3,15.2,8.8,12.6-7.3-15.2-8.8h0Z"/>
  <path class="st1" d="M159.2,116.1l13.8,7.9-11.5,6.6-13.8-8,11.5-6.6h0Z"/>
  <path class="st13" d="M147.9,122.8l11.2-6.5v.9l-10.4,6-.8-.5h0Z"/>
  <path d="M159,116.4v.6l-10.3,6-.6-.3,10.9-6.3h0ZM159.2,116.1l-11.5,6.6,1,.6,10.5-6.1v-1.1h0Z"/>
  <path class="st9" d="M172.9,124.1l-13.8-7.9v1.1l12.7,7.5,1.1-.6h0Z"/>
  <path class="st10" d="M148.8,123.3l10.4-6.1,12.5,7.5-10.3,5.9-12.7-7.3h.1Z"/>
  <path class="st11" d="M159.2,117.3l12.4,7.4-10.1,5.8-12.5-7.2,10.2-6M159.2,117.2l-10.5,6.1,12.8,7.4,10.4-6-12.7-7.5h0Z"/>
  <g>
    <path class="st5" d="M172.9,127.8l-10.1,5.9"/>
    <path class="st5" d="M172.9,129.3l-10.1,5.9"/>
    <path class="st5" d="M172.9,130.8l-10.1,5.9"/>
    <path class="st5" d="M172.9,132.3l-10.1,5.9"/>
    <path class="st5" d="M172.9,133.8l-10.1,5.9"/>
    <path class="st5" d="M172.9,135.2l-10.1,5.9"/>
    <path class="st5" d="M172.9,136.7l-10.1,5.9"/>
    <path class="st5" d="M172.9,138.2l-10.1,5.9"/>
    <path class="st5" d="M172.9,139.7l-10.1,5.9"/>
    <path class="st5" d="M172.9,141.2l-10.1,5.9"/>
    <path class="st5" d="M172.9,142.7l-10.1,5.9"/>
    <path class="st5" d="M172.9,144.2l-10.1,5.9"/>
    <path class="st5" d="M172.9,145.7l-10.1,5.9"/>
    <path class="st5" d="M172.9,147.2l-10.1,5.9"/>
    <path class="st5" d="M147.6,126.1l12.7,7.5"/>
    <path class="st5" d="M147.6,127.6l12.7,7.5"/>
    <path class="st5" d="M147.6,129.1l12.7,7.5"/>
    <path class="st5" d="M147.6,130.6l12.7,7.5"/>
    <path class="st5" d="M147.6,132.1l12.7,7.5"/>
    <path class="st5" d="M147.6,133.6l12.7,7.5"/>
    <path class="st5" d="M147.6,135.1l12.7,7.5"/>
    <path class="st5" d="M147.6,136.6l12.7,7.5"/>
    <path class="st5" d="M147.6,138.1l12.7,7.5"/>
    <path class="st5" d="M147.6,139.7l12.7,7.3"/>
    <path class="st5" d="M147.6,141l12.7,7.5"/>
    <path class="st5" d="M147.6,142.5l12.7,7.5"/>
    <path class="st5" d="M147.6,144l12.7,7.5"/>
    <path class="st5" d="M147.6,145.5l12.7,7.5"/>
    <path class="st9" d="M171.6,117.1v-10.9l-16.4-9.5v-3.8l-12.1,7c-2.5,1.4-2.5,2.9,0,4.3l25.9,15,14.9,8.6c2.4,1.4,4.9,1.4,7.4,0l74.1-42.8c2.5-1.4,2.5-2.8,0-4.3l-3.7-2.1v4.3l-33.3,19.2-14.8-8.6-11.1,6.4v17.1l-15.4,8.9-15.4-8.9"/>
  </g>
  <path class="st13" d="M161.6,33.1l12.5-7.2v26.2l-12.5,7.2v-26.2Z"/>
  <path d="M174.1,26v26l-12.4,7.2v-26l12.4-7.1M174.2,25.8l-12.6,7.3v26.3l12.6-7.3v-26.3Z"/>
  <path class="st12" d="M146.4,50.5v-26.1l15.1,8.7v26.1s-15.1-8.7-15.1-8.7Z"/>
  <path d="M146.5,24.5l14.9,8.6v26l-14.9-8.6v-26ZM146.4,24.3v26.3l15.2,8.8v-26.3l-15.2-8.8h0Z"/>
  <path class="st10" d="M146.5,24.3l12.6-7.2,15,8.7-12.5,7.2-15.1-8.7Z"/>
  <path class="st11" d="M159.1,17.2l14.9,8.6-12.4,7.1-14.9-8.6,12.4-7.1ZM159.1,17l-12.7,7.3,15.2,8.8,12.6-7.3-15.2-8.8h0Z"/>
  <path class="st1" d="M159.2,17.7l13.8,8-11.5,6.6-13.8-8s11.5-6.6,11.5-6.6Z"/>
  <path class="st13" d="M147.8,24.4l11.3-6.5v1l-10.4,6.1-.9-.5h0Z"/>
  <path d="M159.1,18v.8l-10.4,6.1-.7-.4,11.1-6.4h0ZM159.2,17.7l-11.5,6.6,1,.6,10.5-6.1v-1.1h0Z"/>
  <path class="st12" d="M159.2,18.8v-.9l13.6,7.8-1,.5-12.6-7.5h0Z"/>
  <path d="M159.3,18l13.4,7.7-.8.5-12.6-7.4v-.8h0ZM159.2,17.7v1.1l12.7,7.5,1.1-.6-13.8-8h0Z"/>
  <path class="st10" d="M148.8,25l10.4-6.1,12.5,7.5-10.3,5.9-12.7-7.3h.1Z"/>
  <path class="st11" d="M159.2,19l12.4,7.4-10.1,5.8-12.5-7.2,10.2-6h0ZM159.2,18.8l-10.5,6.1,12.8,7.4,10.4-6-12.7-7.5h0Z"/>
  <path class="st5" d="M173,29.4l-10.1,5.9"/>
  <path class="st5" d="M173,30.9l-10.1,5.9"/>
  <path class="st5" d="M173,32.4l-10.1,5.9"/>
  <path class="st5" d="M173,33.9l-10.1,5.9"/>
  <path class="st5" d="M173,35.4l-10.1,5.9"/>
  <path class="st5" d="M173,36.9l-10.1,5.9"/>
  <path class="st5" d="M173,38.3l-10.1,5.9"/>
  <path class="st5" d="M173,39.8l-10.1,5.9"/>
  <path class="st5" d="M173,41.3l-10.1,5.9"/>
  <path class="st5" d="M173,42.8l-10.1,5.9"/>
  <path class="st5" d="M173,44.3l-10.1,5.9"/>
  <path class="st5" d="M173,45.8l-10.1,5.9"/>
  <path class="st5" d="M173,47.3l-10.1,5.9"/>
  <path class="st5" d="M173,48.8l-10.1,5.9"/>
  <path class="st5" d="M147.7,27.8l12.7,7.5"/>
  <path class="st5" d="M147.7,29.3l12.7,7.5"/>
  <path class="st5" d="M147.7,30.8l12.7,7.5"/>
  <path class="st5" d="M147.7,32.2l12.7,7.5"/>
  <path class="st5" d="M147.7,33.7l12.7,7.5"/>
  <path class="st5" d="M147.7,35.2l12.7,7.5"/>
  <path class="st5" d="M147.7,36.7l12.7,7.5"/>
  <path class="st5" d="M147.7,38.2l12.7,7.5"/>
  <path class="st5" d="M147.7,39.7l12.7,7.5"/>
  <path class="st5" d="M147.7,41.3l12.7,7.3"/>
  <path class="st5" d="M147.7,42.7l12.7,7.5"/>
  <path class="st5" d="M147.7,44.2l12.7,7.5"/>
  <path class="st5" d="M147.7,45.6l12.7,7.5"/>
  <path class="st5" d="M147.7,47.1l12.7,7.5"/>
  <path class="st13" d="M143.1,43.8l12.5-7.2v26.2l-12.5,7.2v-26.2Z"/>
  <path d="M155.6,36.7v26l-12.4,7.2v-26l12.4-7.2M155.7,36.5l-12.6,7.3v26.3l12.6-7.3v-26.3Z"/>
  <path class="st12" d="M127.9,61.2v-26.1l15.1,8.7v26.1l-15.1-8.7Z"/>
  <path d="M128,35.2l14.9,8.6v26l-14.9-8.6s0-26,0-26ZM127.9,35v26.3l15.2,8.8v-26.3l-15.2-8.8h0Z"/>
  <path class="st10" d="M128,35l12.6-7.2,15,8.7-12.5,7.2-15-8.7h-.1Z"/>
  <path class="st11" d="M140.6,27.9l14.9,8.6-12.4,7.2-14.9-8.6,12.4-7.1h0ZM140.6,27.7l-12.7,7.3,15.2,8.8,12.6-7.3-15.2-8.8h0Z"/>
  <path class="st1" d="M140.7,28.4l13.8,8-11.5,6.6-13.8-8,11.5-6.6Z"/>
  <path class="st13" d="M129.3,35.1l11.3-6.5v1l-10.4,6.1-.9-.5h0Z"/>
  <path d="M140.5,28.7v.8l-10.4,6.1-.7-.4,11.1-6.4h0ZM140.7,28.4l-11.5,6.6,1,.6,10.5-6.1v-1.1h0Z"/>
  <path class="st12" d="M140.7,29.5v-.9l13.6,7.8-1,.6-12.6-7.5Z"/>
  <path d="M140.8,28.7l13.4,7.7-.8.5-12.6-7.4v-.8h0ZM140.7,28.4v1.1l12.7,7.5,1.1-.6-13.8-8h0Z"/>
  <path class="st10" d="M130.3,35.6l10.4-6.1,12.5,7.5-10.3,5.9-12.7-7.3h.1Z"/>
  <path class="st11" d="M140.7,29.7l12.4,7.4-10.1,5.8-12.5-7.2,10.2-6M140.7,29.5l-10.5,6.1,12.8,7.4,10.4-6-12.7-7.5h0Z"/>
  <path class="st5" d="M154.4,40.1l-10.1,5.9"/>
  <path class="st5" d="M154.4,41.6l-10.1,5.9"/>
  <path class="st5" d="M154.4,43.1l-10.1,5.9"/>
  <path class="st5" d="M154.4,44.6l-10.1,5.9"/>
  <path class="st5" d="M154.4,46.1l-10.1,5.9"/>
  <path class="st5" d="M154.4,47.6l-10.1,5.9"/>
  <path class="st5" d="M154.4,49l-10.1,5.9"/>
  <path class="st5" d="M154.4,50.5l-10.1,5.9"/>
  <path class="st5" d="M154.4,52l-10.1,5.9"/>
  <path class="st5" d="M154.4,53.5l-10.1,5.9"/>
  <path class="st5" d="M154.4,55l-10.1,5.9"/>
  <path class="st5" d="M154.4,56.5l-10.1,5.9"/>
  <path class="st5" d="M154.4,58l-10.1,5.9"/>
  <path class="st5" d="M154.4,59.5l-10.1,5.9"/>
  <path class="st5" d="M129.1,38.5l12.7,7.5"/>
  <path class="st5" d="M129.1,40l12.7,7.5"/>
  <path class="st5" d="M129.1,41.4l12.7,7.5"/>
  <path class="st5" d="M129.1,42.9l12.7,7.5"/>
  <path class="st5" d="M129.1,44.4l12.7,7.5"/>
  <path class="st5" d="M129.1,45.9l12.7,7.5"/>
  <path class="st5" d="M129.1,47.4l12.7,7.5"/>
  <path class="st5" d="M129.1,48.9l12.7,7.5"/>
  <path class="st5" d="M129.1,50.4l12.7,7.5"/>
  <path class="st5" d="M129.1,52l12.7,7.3"/>
  <path class="st5" d="M129.1,53.4l12.7,7.5"/>
  <path class="st5" d="M129.1,54.8l12.7,7.5"/>
  <path class="st5" d="M129.1,56.3l12.7,7.5"/>
  <path class="st5" d="M129.1,57.8l12.7,7.5"/>
  <path class="st9" d="M261.6,172.1c-.9,0-1.8-.5-3.7-1.6l-44.2-25.8c-1.9-1-2.9-1.5-2.9-2s1-1.1,2.9-2.2l5.4-3.1v6.4l16.6,9.6,11.8-6.9v13.6l14.2,8.3,14.3-8.2v-5l4.2,2.5c1.8,1.1,2.8,1.6,2.8,2.1s-.9,1-2.8,2.1l-14.8,8.5c-1.9,1.1-2.8,1.6-3.7,1.6h-.1Z"/>
  <path class="st13" d="M143.1,148l9.9-5.7v20.3l-9.9,5.7v-20.3Z"/>
  <path d="M153,142.5v20l-9.7,5.6v-20l9.7-5.6ZM153.2,142.1l-10.1,5.8v20.4l10.1-5.8v-20.4Z"/>
  <path class="st9" d="M143.1,168.4l-22.8-13.1v-20.4l22.8,13.1v20.4Z"/>
  <path class="st10" d="M120.3,134.8l10.1-5.8,22.7,13.1-10.1,5.8-22.8-13.1h.1Z"/>
  <path class="st11" d="M130.4,129.1l22.6,13.1-10,5.8-22.6-13.1,10-5.8ZM130.4,129l-10.1,5.8,22.8,13.1,10.1-5.8-22.8-13.1Z"/>
  <path class="st10" d="M132.9,147.9v-2.9l7.6,4.4v2.8l-7.6-4.4h0Z"/>
  <path class="st11" d="M133,145.2l7.4,4.3v2.7l-7.4-4.3v-2.7ZM132.9,145.1v2.9l7.6,4.4v-2.9l-7.6-4.4Z"/>
  <path class="st10" d="M122.8,142.1v-2.9l7.5,4.4v2.8l-7.5-4.4h0Z"/>
  <path class="st11" d="M122.9,139.4l7.4,4.3v2.7l-7.4-4.3v-2.7ZM122.8,139.2v2.9l7.6,4.4v-2.9s-7.6-4.4-7.6-4.4Z"/>
  <path class="st10" d="M132.9,153.8v-2.9l7.6,4.4v2.8l-7.6-4.4h0Z"/>
  <path class="st11" d="M133,151l7.4,4.3v2.7l-7.4-4.3v-2.7ZM132.9,150.9v2.9l7.6,4.4v-2.9l-7.6-4.4Z"/>
  <path class="st10" d="M122.8,147.9v-2.9l7.5,4.4v2.8l-7.5-4.4h0Z"/>
  <path class="st11" d="M122.9,145.2l7.4,4.3v2.7l-7.4-4.3v-2.7ZM122.8,145.1v2.9l7.6,4.4v-2.9s-7.6-4.4-7.6-4.4Z"/>
  <path class="st10" d="M132.9,159.6v-2.9l7.6,4.4v2.8l-7.6-4.4h0Z"/>
  <path class="st11" d="M133,156.9l7.4,4.3v2.7l-7.4-4.3v-2.7ZM132.9,156.7v2.9l7.6,4.4v-2.9l-7.6-4.4Z"/>
  <path class="st12" d="M130.4,155.3v2.9l-7.6-4.4v-2.9l7.6,4.4Z"/>
  <path class="st9" d="M127.9,136.3v-1.4l-2.1-1.2v1.4l2.1,1.2Z"/>
  <path class="st13" d="M128,134.9l4.1-2.3v1.2l-4.1,2.3v-1.2Z"/>
  <path d="M132,132.8v.9l-3.9,2.3v-.9l3.9-2.3ZM132.2,132.5l-4.3,2.5v1.4l4.3-2.5v-1.4Z"/>
  <path class="st10" d="M125.7,133.7l4.3-2.4,2.1,1.2-4.3,2.4s-2.1-1.2-2.1-1.2Z"/>
  <path class="st11" d="M130,131.3l2,1.1-4.1,2.4-2-1.1,4.1-2.4ZM130,131.2l-4.3,2.5,2.2,1.2,4.3-2.5-2.1-1.2h0Z"/>
  <path class="st9" d="M135.5,140.7v-1.4l-2.1-1.2v1.4l2.1,1.2Z"/>
  <path class="st13" d="M135.6,139.3l4.1-2.3v1.2l-4.1,2.3v-1.2Z"/>
  <path d="M139.6,137.2v.9l-3.9,2.3v-.9l3.9-2.3ZM139.8,136.8l-4.3,2.5v1.4l4.3-2.5v-1.4Z"/>
  <path class="st10" d="M133.3,138.1l4.3-2.4,2.1,1.2-4.3,2.4-2.1-1.2Z"/>
  <path class="st11" d="M137.6,135.7l2,1.2-4.2,2.4-2-1.2,4.2-2.4ZM137.6,135.6l-4.3,2.5,2.1,1.2,4.3-2.5-2.1-1.2Z"/>
  <path class="st7" d="M272.7,132.1v-8.6l-7.4-4.3v8.6l7.4,4.3Z"/>
  <path class="st13" d="M206.1,33.7l18.4-10.6v47l-18.4,10.6s0-47,0-47Z"/>
  <path d="M224.4,23.2v46.8l-18.3,10.6v-46.8s18.3-10.6,18.3-10.6ZM224.5,23l-18.5,10.7v47l18.5-10.7V23Z"/>
  <path class="st12" d="M187.5,70V23.1l18.4,10.6v46.9s-18.4-10.6-18.4-10.6Z"/>
  <path d="M187.6,23.2l18.3,10.6v46.8l-18.3-10.6V23.2ZM187.5,23v47.1l18.5,10.7v-47l-18.5-10.7h0Z"/>
  <path class="st8" d="M191.2,29.4l11.1,6.4v4.3l-11.1-6.4s0-4.3,0-4.3Z"/>
  <path class="st8" d="M191.2,38l11.1,6.4v4.3l-11.1-6.4v-4.3Z"/>
  <path class="st8" d="M191.2,46.6l11.1,6.4v4.3l-11.1-6.4v-4.3Z"/>
  <path class="st8" d="M191.2,55.1l11.1,6.4v4.3l-11.1-6.4v-4.3Z"/>
  <path class="st8" d="M191.2,63.7l11.1,6.4v4.3l-11.1-6.4v-4.3Z"/>
  <path class="st12" d="M209.8,35.8l11-6.3v4.2l-11,6.3v-4.2Z"/>
  <path d="M220.7,29.6v4l-10.8,6.3v-4s10.8-6.3,10.8-6.3ZM220.8,29.4l-11.1,6.4v4.3l11.1-6.4v-4.3h0Z"/>
  <path class="st12" d="M209.8,44.4l11-6.3v4.2l-11,6.3v-4.2Z"/>
  <path d="M220.7,38.2v4l-10.9,6.3v-4l10.9-6.3ZM220.8,38l-11.1,6.4v4.3l11.1-6.4v-4.3h0Z"/>
  <path class="st12" d="M209.8,53l11-6.3v4.2l-11,6.3v-4.2Z"/>
  <path d="M220.7,46.7v4l-10.9,6.3v-4l10.9-6.3ZM220.8,46.5l-11.1,6.4v4.3l11.1-6.4v-4.3Z"/>
  <path class="st12" d="M209.8,61.5l11-6.3v4.2l-11,6.3v-4.2Z"/>
  <path d="M220.7,55.3v4l-10.9,6.3v-4l10.9-6.3ZM220.8,55.1l-11.1,6.4v4.3l11.1-6.4v-4.3h0Z"/>
  <path class="st12" d="M209.8,70.1l11-6.3v4.2l-11,6.3v-4.2Z"/>
  <path d="M220.7,63.8v4l-10.9,6.3v-4s10.9-6.3,10.9-6.3ZM220.8,63.6l-11.1,6.4v4.3l11.1-6.4v-4.3h0Z"/>
  <path class="st8" d="M191.2,20.9l-3.7,2.1,18.5,10.7,18.5-10.7-18.5-10.7s-14.8,8.6-14.8,8.6Z"/>
  <path class="st6" d="M190.9,23l15.1-8.7,15.1,8.8-15.1,8.7-15.1-8.8Z"/>
  <path class="st13" d="M191,23l15-8.6v1.8l-13.4,7.7s-1.6-.9-1.6-.9Z"/>
  <path d="M205.9,14.5v1.7l-13.4,7.7-1.4-.8,14.8-8.5M206,14.3l-15.1,8.7,1.7,1,13.5-7.8v-1.9h0Z"/>
  <path class="st12" d="M206.1,16.2v-1.8l15,8.6-1.6.9-13.4-7.7Z"/>
  <path d="M206.2,14.5l14.8,8.5-1.4.8-13.3-7.7v-1.7M206.1,14.3v1.9l13.4,7.8,1.7-1-15.1-8.8h0Z"/>
  <path class="st6" d="M192.6,24l13.5-7.8,13.5,7.8-13.5,7.8-13.5-7.8Z"/>
  <path class="st13" d="M191.4,58.3l10.1-5.8v38l-10.1,5.8v-37.9h0Z"/>
  <path d="M201.4,52.6v37.8l-10,5.8v-37.8l10-5.8ZM201.5,52.5l-10.1,5.8v38l10.1-5.9v-38h0Z"/>
  <path class="st12" d="M173.7,86v-37.8l17.6,10.2v37.8l-17.6-10.2Z"/>
  <path d="M173.8,48.3l17.4,10.1v37.7l-17.4-10.1v-37.7M173.7,48.1v38l17.7,10.2v-38l-17.7-10.2h0Z"/>
  <path class="st10" d="M173.7,48.1l10.1-5.8,17.7,10.2-10.1,5.8-17.7-10.2Z"/>
  <path class="st11" d="M183.8,42.3l17.6,10.1-10,5.8-17.6-10.1,10-5.8ZM183.8,42.2l-10.1,5.8,17.7,10.2,10.1-5.8-17.7-10.2Z"/>
  <path class="st6" d="M183.7,43.8l-7.7,4.4,15.4,8.9,7.7-4.4s-15.4-8.9-15.4-8.9Z"/>
  <path class="st13" d="M176,48.2l7.7-4.4v1.2l-6.6,3.8-1.1-.6h0Z"/>
  <path d="M183.6,43.9v1.1l-6.5,3.8-.9-.5,7.4-4.3h0ZM183.7,43.8l-7.7,4.4,1.1.6,6.6-3.8v-1.3h0Z"/>
  <path class="st12" d="M183.7,45v-1.1l15.2,8.8-1,.5-14.2-8.2Z"/>
  <path d="M183.8,44l15,8.6-.8.5-14.1-8.2v-1h0ZM183.7,43.8v1.3l14.3,8.2,1.1-.6-15.4-8.9h0Z"/>
  <path class="st10" d="M177.1,48.8l6.6-3.8,14.3,8.2-6.6,3.8-14.3-8.2Z"/>
  <path class="st12" d="M194,59.8l5-2.9v5.8l-5,2.9v-5.8Z"/>
  <path d="M198.9,57v5.7l-4.9,2.8v-5.7l4.9-2.8ZM199,56.9l-5.1,2.9v5.8l5.1-2.9v-5.8h0Z"/>
  <path class="st12" d="M194,68.6l5-2.9v5.8l-5,2.8v-5.8h0Z"/>
  <path d="M198.9,65.8v5.7l-4.9,2.8v-5.7l4.9-2.8ZM199,65.6l-5.1,2.9v5.8l5.1-2.9v-5.8h0Z"/>
  <path class="st12" d="M194,77.3l5-2.9v5.8l-5,2.9v-5.8Z"/>
  <path d="M198.9,74.5v5.7l-4.9,2.8v-5.7l4.9-2.8ZM199,74.4l-5.1,2.9v5.8l5.1-2.9v-5.8h0Z"/>
  <path class="st12" d="M194,86.1l5-2.9v5.8l-5,2.8v-5.8h0Z"/>
  <path d="M198.9,83.3v5.7l-4.9,2.8v-5.7l4.9-2.8ZM199,83.2l-5.1,2.9v5.8l5.1-2.9v-5.8h0Z"/>
  <path class="st10" d="M186.4,64.1v-5.7l2.5,1.4v5.7l-2.5-1.4Z"/>
  <path class="st11" d="M186.4,58.5l2.3,1.3v5.5l-2.3-1.3v-5.5ZM186.3,58.3v5.9l2.5,1.4v-5.8l-2.5-1.5Z"/>
  <path class="st10" d="M181.3,61.2v-5.7l2.5,1.4v5.7l-2.5-1.4Z"/>
  <path class="st11" d="M181.4,55.6l2.3,1.3v5.5l-2.3-1.3v-5.6h0ZM181.3,55.4v5.9l2.5,1.5v-5.8l-2.5-1.5h0Z"/>
  <path class="st10" d="M176.2,58.3v-5.7l2.5,1.4v5.7l-2.5-1.4Z"/>
  <path class="st11" d="M176.3,52.7l2.3,1.3v5.5l-2.3-1.3v-5.6h0ZM176.2,52.5v5.9l2.5,1.5v-5.8l-2.5-1.5h0Z"/>
  <path class="st10" d="M186.4,72.9v-5.7l2.5,1.4v5.7l-2.5-1.4Z"/>
  <path class="st11" d="M186.4,67.3l2.3,1.3v5.5l-2.3-1.3v-5.5ZM186.3,67.1v5.9l2.5,1.4v-5.8l-2.5-1.5Z"/>
  <path class="st10" d="M181.3,70v-5.7l2.5,1.4v5.7l-2.5-1.4Z"/>
  <path class="st11" d="M181.4,64.4l2.3,1.3v5.5l-2.3-1.3v-5.5ZM181.3,64.2v5.9l2.5,1.4v-5.8l-2.5-1.5Z"/>
  <path class="st12" d="M176.2,67.1v-5.8l2.5,1.5v5.7l-2.5-1.4Z"/>
  <path d="M176.3,61.4l2.4,1.4v5.7l-2.4-1.4v-5.7M176.2,61.2v5.9l2.5,1.4v-5.8l-2.5-1.5Z"/>
  <path class="st12" d="M186.3,81.7v-5.8l2.5,1.5v5.7s-2.5-1.4-2.5-1.4Z"/>
  <path d="M186.4,76l2.4,1.4v5.7l-2.4-1.4v-5.7M186.3,75.8v5.9l2.5,1.4v-5.8l-2.5-1.5Z"/>
  <path class="st12" d="M181.3,78.8v-5.8l2.5,1.5v5.7s-2.5-1.4-2.5-1.4Z"/>
  <path d="M181.3,73.1l2.4,1.4v5.7l-2.4-1.4v-5.7M181.3,72.9v5.9l2.5,1.4v-5.8l-2.5-1.5Z"/>
  <path class="st12" d="M176.2,75.8v-5.8l2.5,1.5v5.7s-2.5-1.4-2.5-1.4Z"/>
  <path d="M176.3,70.2l2.4,1.4v5.7l-2.4-1.4v-5.7M176.2,70v5.9l2.5,1.4v-5.8l-2.5-1.5Z"/>
  <path class="st12" d="M186.3,90.4v-5.8l2.5,1.5v5.7s-2.5-1.4-2.5-1.4Z"/>
  <path d="M186.4,84.8l2.4,1.4v5.7l-2.4-1.4v-5.7M186.3,84.6v5.9l2.5,1.4v-5.8l-2.5-1.5Z"/>
  <path class="st12" d="M181.3,87.5v-5.8l2.5,1.5v5.7s-2.5-1.4-2.5-1.4Z"/>
  <path d="M181.3,81.8l2.4,1.4v5.7l-2.4-1.4v-5.7M181.3,81.7v5.9l2.5,1.4v-5.8l-2.5-1.5Z"/>
  <path class="st12" d="M176.2,84.6v-5.8l2.5,1.5v5.7s-2.5-1.4-2.5-1.4Z"/>
  <path d="M176.3,78.9l2.4,1.4v5.7l-2.4-1.4v-5.7M176.2,78.8v5.9l2.5,1.4v-5.8l-2.5-1.5Z"/>
  <path class="st13" d="M172.9,69l10.1-5.8v38l-10.1,5.8v-37.9h0Z"/>
  <path d="M182.9,63.3v37.8l-10,5.8v-37.8l10-5.7h0ZM183,63.2l-10.1,5.8v38l10.1-5.9v-38h0Z"/>
  <path class="st12" d="M155.2,96.7v-37.8l17.6,10.2v37.8l-17.6-10.2Z"/>
  <path d="M155.3,59l17.4,10.1v37.7l-17.4-10.1v-37.7M155.2,58.8v38l17.7,10.2v-38l-17.7-10.2h0Z"/>
  <path class="st10" d="M155.2,58.8l10.1-5.8,17.7,10.2-10.1,5.8-17.7-10.2Z"/>
  <path class="st11" d="M165.3,53l17.6,10.1-10,5.8-17.6-10.1s10-5.8,10-5.8ZM165.3,53l-10.1,5.8,17.7,10.2,10.1-5.8-17.7-10.2Z"/>
  <path class="st6" d="M165.2,54.4l-7.7,4.4,15.4,8.9,7.7-4.4-15.4-8.9Z"/>
  <path class="st13" d="M157.5,58.8l7.7-4.4v1.2l-6.6,3.8-1.1-.6h0Z"/>
  <path d="M165.1,54.6v1.1l-6.5,3.8-.9-.5,7.4-4.3h0ZM165.2,54.4l-7.7,4.4,1.1.6,6.6-3.8v-1.3h0Z"/>
  <path class="st12" d="M165.2,55.7v-1.1l15.2,8.8-1,.5-14.2-8.2Z"/>
  <path d="M165.3,54.7l15,8.6-.8.5-14.1-8.2v-1h0ZM165.2,54.4v1.3l14.3,8.2,1.1-.6-15.4-8.9h0Z"/>
  <path class="st10" d="M158.6,59.5l6.6-3.8,14.3,8.2-6.6,3.8s-14.3-8.2-14.3-8.2Z"/>
  <path class="st12" d="M175.4,70.5l5-2.9v5.8l-5,2.9v-5.8Z"/>
  <path d="M180.4,67.7v5.7l-4.9,2.8v-5.7l4.9-2.8ZM180.5,67.6l-5.1,2.9v5.8l5.1-2.9v-5.8h0Z"/>
  <path class="st12" d="M175.4,79.2l5-2.9v5.8l-5,2.9v-5.8Z"/>
  <path d="M180.4,76.5v5.7l-4.9,2.8v-5.7l4.9-2.8ZM180.5,76.3l-5.1,2.9v5.8l5.1-2.9v-5.8h0Z"/>
  <path class="st12" d="M175.4,88l5-2.9v5.8l-5,2.9v-5.8Z"/>
  <path d="M180.4,85.2v5.7l-4.9,2.8v-5.7l4.9-2.8ZM180.5,85.1l-5.1,2.9v5.8l5.1-2.9v-5.8h0Z"/>
  <path class="st12" d="M175.4,96.8l5-2.9v5.8l-5,2.8v-5.8h0Z"/>
  <path d="M180.4,94v5.7l-4.9,2.8v-5.7l4.9-2.8ZM180.5,93.9l-5.1,2.9v5.8l5.1-2.9v-5.8h0Z"/>
  <path class="st10" d="M167.8,74.8v-5.7l2.5,1.4v5.7l-2.5-1.4Z"/>
  <path class="st11" d="M167.9,69.2l2.3,1.3v5.5l-2.3-1.3v-5.5ZM167.8,69v5.9l2.5,1.4v-5.8l-2.5-1.5Z"/>
  <path class="st10" d="M162.8,71.9v-5.7l2.5,1.4v5.7l-2.5-1.4Z"/>
  <path class="st11" d="M162.9,66.3l2.3,1.3v5.5l-2.3-1.3v-5.5ZM162.7,66.1v5.9l2.5,1.4v-5.8l-2.5-1.5Z"/>
  <path class="st10" d="M157.7,69v-5.7l2.5,1.4v5.7s-2.5-1.4-2.5-1.4Z"/>
  <path class="st11" d="M157.8,63.4l2.3,1.3v5.5l-2.3-1.3v-5.5ZM157.7,63.2v5.9l2.5,1.4v-5.8s-2.5-1.5-2.5-1.5Z"/>
  <path class="st10" d="M167.8,83.6v-5.7l2.5,1.4v5.7l-2.5-1.4Z"/>
  <path class="st11" d="M167.9,78l2.3,1.3v5.5l-2.3-1.3v-5.5ZM167.8,77.8v5.9l2.5,1.4v-5.8l-2.5-1.5Z"/>
  <path class="st10" d="M162.8,80.7v-5.7l2.5,1.4v5.7l-2.5-1.4Z"/>
  <path class="st11" d="M162.9,75.1l2.3,1.3v5.5l-2.3-1.3v-5.5ZM162.7,74.9v5.9l2.5,1.4v-5.8l-2.5-1.5Z"/>
  <path class="st10" d="M157.7,77.7v-5.7l2.5,1.4v5.7l-2.5-1.4Z"/>
  <path class="st11" d="M157.8,72.2l2.3,1.3v5.5l-2.3-1.3v-5.5ZM157.7,71.9v5.9l2.5,1.4v-5.8l-2.5-1.5Z"/>
  <path class="st10" d="M167.8,92.3v-5.7l2.5,1.4v5.7l-2.5-1.4Z"/>
  <path class="st11" d="M167.9,86.8l2.3,1.3v5.5l-2.3-1.3v-5.5ZM167.8,86.5v5.9l2.5,1.4v-5.8l-2.5-1.5Z"/>
  <path class="st10" d="M162.8,89.4v-5.7l2.5,1.4v5.7l-2.5-1.4Z"/>
  <path class="st11" d="M162.9,83.8l2.3,1.3v5.5l-2.3-1.3v-5.5ZM162.7,83.6v5.9l2.5,1.4v-5.8l-2.5-1.5Z"/>
  <path class="st10" d="M157.7,86.5v-5.7l2.5,1.4v5.7l-2.5-1.4Z"/>
  <path class="st11" d="M157.8,80.9l2.3,1.3v5.5l-2.3-1.3v-5.5ZM157.7,80.7v5.9l2.5,1.4v-5.8l-2.5-1.5Z"/>
  <path class="st10" d="M167.8,101.1v-5.7l2.5,1.4v5.7l-2.5-1.4Z"/>
  <path class="st11" d="M167.9,95.5l2.3,1.3v5.5l-2.3-1.3v-5.5ZM167.8,95.3v5.9l2.5,1.4v-5.8l-2.5-1.5Z"/>
  <path class="st10" d="M162.8,98.2v-5.7l2.5,1.4v5.7l-2.5-1.4Z"/>
  <path class="st11" d="M162.9,92.6l2.3,1.3v5.5l-2.3-1.3v-5.5ZM162.7,92.4v5.9l2.5,1.4v-5.8l-2.5-1.5Z"/>
  <path class="st10" d="M157.7,95.3v-5.7l2.5,1.4v5.7l-2.5-1.4Z"/>
  <path class="st11" d="M157.8,89.7l2.3,1.3v5.5l-2.3-1.3v-5.5ZM157.7,89.5v5.9l2.5,1.4v-5.8l-2.5-1.5Z"/>
  <path class="st9" d="M213.4,93.5l-11.1,6.5c-2.5,1.4-5,1.4-7.4,0l-18.5-10.7c-2.5-1.4-2.5-2.9,0-4.3l4.5-2.6v5.2l17.7,10.2,3.7-19.8,3.7,2.6,2.6-1.4,15.9-9.2v-4.4c.1,0,14.8,8.7,14.8,8.7,2.5,1.4,2.5,2.8,0,4.2l-25.9,14.8h0v.2Z"/>
  <path class="st13" d="M228.4,72.6h-1.2v7.7c.4.3.8.3,1.2,0v-7.7Z"/>
  <circle class="st13" cx="227.5" cy="69.4" r="5.4"/>
  <circle class="st13" cx="229.9" cy="76" r="1.1"/>
  <path class="st2" d="M229.9,76.6c0,.8-.7,1.5-1.5,1.5"/>
  <path class="st13" d="M51.5,110.8c-8.2,0-15.8-1.8-21.5-5.1-5.7-3.3-8.9-7.7-8.9-12.3s3.2-9.2,9-12.5c5.8-3.4,13.6-5.2,21.8-5.2s15.8,1.8,21.5,5.1c5.7,3.3,8.9,7.7,8.9,12.3s-3.2,9.2-9,12.5c-5.8,3.4-13.6,5.2-21.8,5.2Z"/>
  <path d="M52,75.4v.3c8.1,0,15.8,1.8,21.5,5.1,5.7,3.3,8.8,7.6,8.8,12.2s-3.2,9.1-8.9,12.4c-5.8,3.4-13.5,5.2-21.8,5.2s-15.8-1.8-21.5-5.1c-5.7-3.3-8.8-7.6-8.8-12.2s3.2-9.1,8.9-12.4c5.8-3.4,13.5-5.2,21.8-5.2v-.3ZM52,75.4c-7.9,0-15.8,1.8-21.9,5.2-12.1,7-12.1,18.2-.2,25.1,6,3.4,13.8,5.2,21.6,5.2s15.8-1.8,21.9-5.2c12.1-7,12.1-18.2.2-25.1-6-3.4-13.8-5.2-21.6-5.2Z"/>
  <path class="st13" d="M187,86.9l15.4-8.8v39l-15.4,8.8v-39Z"/>
  <path d="M202.2,78.2v38.8l-15.2,8.8v-38.8l15.2-8.8ZM202.3,78l-15.4,8.9v39.1l15.4-8.9v-39.1Z"/>
  <path class="st12" d="M171.6,117.1v-39l15.3,8.9v38.9l-15.3-8.8Z"/>
  <path d="M171.6,78.2l15.2,8.8v38.8l-15.2-8.8v-38.8M171.5,78v39.1l15.4,8.9v-39.1l-15.4-8.9Z"/>
  <path class="st4" d="M174.6,83.4l9.2,5.3v3.6l-9.2-5.3v-3.5h0Z"/>
  <path class="st4" d="M174.6,90.5l9.2,5.3v3.6l-9.2-5.3v-3.5h0Z"/>
  <path class="st4" d="M174.6,97.6l9.2,5.3v3.6l-9.2-5.3v-3.5h0Z"/>
  <path class="st4" d="M174.6,104.7l9.2,5.3v3.6l-9.2-5.3v-3.5h0Z"/>
  <path class="st4" d="M174.6,111.8l9.2,5.3v3.6l-9.2-5.3v-3.5h0Z"/>
  <path class="st12" d="M190,88.7l9.2-5.3v3.5l-9.2,5.2v-3.5h0Z"/>
  <path d="M199.1,83.5v3.3l-9,5.2v-3.3l9-5.2M199.2,83.4l-9.2,5.3v3.6l9.2-5.3v-3.6h0Z"/>
  <path class="st12" d="M190,95.8l9.2-5.3v3.5l-9.2,5.2v-3.5h0Z"/>
  <path d="M199.1,90.6v3.3l-9.1,5.2v-3.3l9.1-5.2ZM199.2,90.5l-9.2,5.3v3.6l9.2-5.3v-3.6Z"/>
  <path class="st12" d="M190,102.9l9.2-5.3v3.5l-9.2,5.2v-3.5h0Z"/>
  <path d="M199.1,97.7v3.3l-9.1,5.2v-3.3l9.1-5.2ZM199.2,97.6l-9.2,5.3v3.6l9.2-5.3v-3.6Z"/>
  <path class="st12" d="M190,110l9.2-5.3v3.5l-9.2,5.2v-3.5h0Z"/>
  <path d="M199.1,104.8v3.3l-9.1,5.2v-3.3l9.1-5.2ZM199.2,104.7l-9.2,5.3v3.6l9.2-5.3v-3.6h0Z"/>
  <path class="st12" d="M190,117.1l9.2-5.3v3.5l-9.2,5.2v-3.5h0Z"/>
  <path d="M199.1,111.9v3.3l-9.1,5.2v-3.3l9.1-5.2ZM199.2,111.8l-9.2,5.3v3.6l9.2-5.3v-3.6Z"/>
  <path class="st4" d="M174.6,76.3l-3.1,1.8,15.4,8.9,15.4-8.9-15.4-8.9-12.3,7.1h0Z"/>
  <path class="st0" d="M174.4,78l12.6-7.3,12.6,7.3-12.6,7.3-12.6-7.3Z"/>
  <path class="st13" d="M174.4,78l12.6-7.2v1.6l-11.2,6.4-1.4-.8h0Z"/>
  <path d="M186.9,70.9v1.4l-11.1,6.4-1.2-.7s12.3-7.1,12.3-7.1ZM186.9,70.8l-12.6,7.3,1.4.8,11.2-6.4v-1.6h0Z"/>
  <path class="st0" d="M198.1,78.8l-11.2-6.4v-1.6l12.6,7.3-1.4.8h0Z"/>
  <path class="st0" d="M175.8,78.8l11.2-6.4,11.2,6.4-11.2,6.4-11.2-6.5h0Z"/>
  <path class="st12" d="M213.5,93.5v-29.7l14.7,8.5v29.7l-14.7-8.5Z"/>
  <path d="M213.6,64l14.4,8.3v29.5l-14.4-8.3v-29.5ZM213.4,63.6v29.9l14.8,8.6v-29.9l-14.8-8.5h0Z"/>
  <path class="st13" d="M228.4,72.2l33.1-19.1v29.8l-33.1,19.1v-29.8Z"/>
  <path d="M261.4,53.3v29.5l-32.9,19v-29.5s32.9-19,32.9-19ZM261.6,53l-33.3,19.2v29.9l33.3-19.2s0-29.9,0-29.9Z"/>
  <path class="st10" d="M213.6,63.7l33.2-19.2,14.7,8.5-33.2,19.2s-14.7-8.5-14.7-8.5Z"/>
  <path class="st11" d="M246.8,44.5l14.6,8.4-33.1,19.1-14.6-8.4,33.1-19.1h0ZM246.8,44.4l-33.3,19.2,14.8,8.6,33.3-19.2-14.8-8.5h0Z"/>
  <path class="st9" d="M231.9,78.6v-4.3l11.1-6.4v4.3l-11.1,6.4Z"/>
  <path class="st9" d="M246.8,65.8v4.3l11.1-6.4v-4.3l-11.1,6.4h0Z"/>
  <path class="st9" d="M231.9,87.2v-4.3l11.1-6.4v4.3l-11.1,6.4Z"/>
  <path class="st9" d="M246.8,74.3v4.3l11.1-6.4v-4.3l-11.1,6.4h0Z"/>
  <path class="st9" d="M231.9,95.7v-4.3l11.1-6.4v4.3l-11.1,6.4Z"/>
  <path class="st9" d="M246.8,82.9v4.3l11.1-6.4v-4.3l-11.1,6.4h0Z"/>
  <path class="st13" d="M250.6,53.1l3-1.7v1.8l-3,1.7v-1.8Z"/>
  <path d="M253.4,51.6v1.6l-2.8,1.6v-1.6l2.8-1.6ZM253.6,51.3l-3.1,1.8v2l3.1-1.8v-2h0Z"/>
  <path class="st12" d="M244.2,51.4v-1.9l6.2,3.7v1.8l-6.2-3.6Z"/>
  <path d="M244.3,49.7l6.1,3.5v1.8l-6.1-3.5v-1.8ZM244.2,49.5v2l6.3,3.6v-2l-6.3-3.6Z"/>
  <path class="st10" d="M244.2,49.4l3.1-1.7,6.2,3.6-3.1,1.7-6.3-3.6h.1Z"/>
  <path class="st11" d="M247.3,47.8l6.1,3.5-2.9,1.7-6.1-3.5,2.9-1.7ZM247.3,47.7l-3.1,1.8,6.3,3.6,3.1-1.8-6.3-3.6h0Z"/>
  <path class="st13" d="M239.4,59.5l3-1.7v1.8l-3,1.7v-1.8Z"/>
  <path d="M242.3,58v1.6l-2.8,1.6v-1.6l2.8-1.6ZM242.5,57.7l-3.1,1.8v2l3.1-1.8v-2h0Z"/>
  <path class="st12" d="M233.1,57.8v-1.9l6.2,3.7v1.8l-6.2-3.6Z"/>
  <path d="M233.2,56.1l6.1,3.5v1.8l-6.1-3.5v-1.8ZM233.1,55.9v2l6.3,3.6v-2l-6.3-3.6Z"/>
  <path class="st10" d="M233.1,55.9l3.1-1.7,6.2,3.6-3.1,1.7-6.3-3.6h.1Z"/>
  <path class="st11" d="M236.2,54.2l6.1,3.5-2.9,1.7-6.1-3.5,2.9-1.7ZM236.2,54.1l-3.1,1.8,6.3,3.6,3.1-1.8-6.3-3.6h0Z"/>
  <path class="st13" d="M120.9,160.8l9.9-5.7v20.3l-9.9,5.7v-20.3Z"/>
  <path d="M130.8,155.3v20l-9.7,5.6v-20l9.7-5.6ZM130.9,155l-10.1,5.8v20.4l10.1-5.8v-20.4Z"/>
  <path class="st9" d="M120.8,181.3l-22.8-13.1v-20.4l22.8,13.1v20.4Z"/>
  <path class="st10" d="M98.1,147.6l10.1-5.8,22.7,13.1-10.1,5.8-22.8-13.1h0Z"/>
  <path class="st11" d="M108.2,141.9l22.6,13.1-10,5.8-22.6-13.1s10-5.8,10-5.8ZM108.2,141.8l-10.1,5.8,22.8,13.1,10.1-5.8-22.8-13.1Z"/>
  <path class="st10" d="M110.7,160.8v-2.9l7.5,4.4v2.8l-7.5-4.4h0Z"/>
  <path class="st11" d="M110.8,158l7.4,4.3v2.7l-7.4-4.3v-2.7ZM110.7,157.9v2.9l7.6,4.4v-2.9l-7.6-4.4Z"/>
  <path class="st10" d="M100.6,154.9v-2.9l7.5,4.4v2.8l-7.5-4.4h0Z"/>
  <path class="st11" d="M100.7,152.2l7.4,4.3v2.7l-7.4-4.3v-2.7ZM100.6,152v2.9l7.6,4.4v-2.9l-7.6-4.4Z"/>
  <path class="st10" d="M110.7,166.6v-2.9l7.5,4.4v2.8l-7.5-4.4h0Z"/>
  <path class="st11" d="M110.8,163.9l7.4,4.3v2.7l-7.4-4.3v-2.7ZM110.7,163.7v2.9l7.6,4.4v-2.9l-7.6-4.4Z"/>
  <path class="st10" d="M100.6,160.8v-2.9l7.5,4.4v2.8l-7.5-4.4h0Z"/>
  <path class="st11" d="M100.7,158l7.4,4.3v2.7l-7.4-4.3v-2.7ZM100.6,157.9v2.9l7.6,4.4v-2.9l-7.6-4.4Z"/>
  <path class="st10" d="M110.7,172.5v-2.9l7.5,4.4v2.8l-7.5-4.4h0Z"/>
  <path class="st11" d="M110.8,169.7l7.4,4.3v2.7l-7.4-4.3v-2.7ZM110.7,169.6v2.9l7.6,4.4v-2.9l-7.6-4.4Z"/>
  <path class="st10" d="M100.6,166.6v-2.9l7.5,4.4v2.8l-7.5-4.4h0Z"/>
  <path class="st11" d="M100.7,163.9l7.4,4.3v2.7l-7.4-4.3v-2.7ZM100.6,163.7v2.9l7.6,4.4v-2.9l-7.6-4.4Z"/>
  <path class="st9" d="M105.6,149.1v-1.4l-2.2-1.2v1.4l2.2,1.2Z"/>
  <path class="st13" d="M105.7,147.8l4.1-2.3v1.2l-4.1,2.3v-1.2Z"/>
  <path d="M109.7,145.6v.9l-3.9,2.3v-.9l3.9-2.3ZM109.9,145.3l-4.3,2.5v1.4l4.3-2.5v-1.4Z"/>
  <path class="st10" d="M103.5,146.5l4.3-2.4,2.1,1.2-4.3,2.4-2.1-1.2Z"/>
  <path class="st11" d="M107.8,144.1l2,1.2-4.2,2.4-2-1.2,4.2-2.4ZM107.8,144.1l-4.3,2.5,2.2,1.2,4.3-2.5-2.2-1.2Z"/>
  <path class="st9" d="M113.2,153.5v-1.4l-2.2-1.2v1.4l2.2,1.2Z"/>
  <path class="st13" d="M113.3,152.1l4.1-2.3v1.2l-4.1,2.3v-1.2Z"/>
  <path d="M117.3,150v.9l-3.9,2.3v-.9l3.9-2.3ZM117.5,149.7l-4.3,2.5v1.4l4.3-2.5v-1.4Z"/>
  <path class="st9" d="M111.1,150.9l2.2,1.2,4.3-2.5-2.2-1.2-4.3,2.5Z"/>
  <path class="st12" d="M52.9,105.9c-6.7,0-13-1.5-17.8-4.3-5-2.9-7.7-6.9-7.4-10.9,0-5.5,3-20.5,5.9-35,2.5-12.5,4.8-24.2,4.8-27.9h28.7c0,4,2.3,15.9,4.9,28.6,2.8,14.2,5.8,28.8,5.8,34.2.4,4.1-2.2,8.1-7.2,11-4.7,2.7-10.9,4.2-17.6,4.2h-.1Z"/>
  <path d="M38.5,27.9h28.5c0,4.1,2.4,16,4.9,28.6,2.8,14.1,5.7,28.7,5.8,34.1h0c.4,4.2-2.2,8.2-7.2,11-4.7,2.7-10.9,4.2-17.6,4.2s-13-1.5-17.8-4.3c-5-2.9-7.7-6.8-7.3-10.9,0-5.4,3-20.4,5.9-34.9,2.5-12.4,4.8-24,4.8-27.8M38.4,27.8c0,7.8-10.7,52.6-10.7,62.8-.3,3.9,2.1,7.9,7.4,11,4.9,2.8,11.4,4.3,17.8,4.3s12.8-1.4,17.6-4.2c5.2-3,7.6-7.1,7.2-11h0c0-10.2-10.7-54.5-10.7-62.8h-28.7.1Z"/>
  <path class="st10" d="M52.8,35.7c-3.8,0-7.5-.9-10.2-2.5-2.7-1.6-4.2-3.7-4.2-5.9s1.5-4.2,4.2-5.8c2.7-1.5,6.3-2.4,10.1-2.4s7.5.9,10.2,2.5,4.2,3.7,4.2,5.9-1.5,4.2-4.2,5.8c-2.7,1.5-6.3,2.4-10.1,2.4Z"/>
  <path class="st11" d="M52.6,19.2c3.8,0,7.5.9,10.2,2.4,2.7,1.6,4.2,3.6,4.2,5.8s-1.5,4.2-4.1,5.8c-2.7,1.5-6.2,2.4-10,2.4s-7.5-.9-10.2-2.4c-2.7-1.6-4.2-3.6-4.2-5.8s1.5-4.2,4.1-5.8c2.7-1.5,6.2-2.4,10-2.4M52.6,19.1c-3.7,0-7.3.8-10.1,2.4-5.6,3.2-5.6,8.5,0,11.7,2.8,1.6,6.5,2.5,10.2,2.5s7.3-.8,10.1-2.4c5.6-3.2,5.6-8.5,0-11.7s-6.5-2.5-10.2-2.5Z"/>
  <path class="st13" d="M52.8,34.7c-3.4,0-6.6-.8-9-2.2-2.4-1.4-3.7-3.2-3.7-5.2s1.3-3.7,3.7-5.1,5.5-2.1,8.9-2.1,6.6.8,9,2.2c2.4,1.4,3.7,3.2,3.7,5.2s-1.3,3.7-3.7,5.1c-2.4,1.4-5.5,2.1-8.9,2.1h0Z"/>
  <path d="M52.6,20.2c3.4,0,6.6.8,9,2.1,2.4,1.4,3.7,3.2,3.7,5.1s-1.3,3.7-3.6,5c-2.4,1.4-5.5,2.1-8.9,2.1s-6.6-.8-9-2.2c-2.4-1.4-3.7-3.2-3.7-5.1s1.3-3.7,3.6-5c2.4-1.4,5.5-2.1,8.9-2.1M52.6,20.1c-3.2,0-6.5.7-8.9,2.1-5,2.9-4.9,7.5,0,10.4,2.5,1.5,5.8,2.2,9.1,2.2s6.5-.7,8.9-2.1c4.9-2.9,4.9-7.5,0-10.4-2.5-1.5-5.8-2.2-9.1-2.2Z"/>
  <path class="st6" d="M31.1,68.4c-1.1,3.9.9,8.1,6.2,11.1,8.6,5,22.5,5,31,0,5.6-3.2,7.1-7.5,5.9-11.9"/>
  <path class="st0" d="M34.2,52.4c.4,2.4,2.3,5.1,5.5,7,7.2,4.2,18.9,4.2,26.1,0,3.4-2,5.2-4.5,5.3-7"/>
  <path class="st13" d="M154.8,100.8h-1.2v5.2c.4.2.8.2,1.2,0v-5.2Z"/>
  <path class="st13" d="M154.2,101.6c3.2,0,5.7-2.6,5.7-5.7s-3.1-6.2-5.7-9.9c-2.5,2.9-5.7,6.4-5.7,9.9s2.6,5.7,5.7,5.7Z"/>
  <path class="st13" d="M165.9,107.2h-1.2v5.2c.4.2.8.2,1.2,0v-5.2Z"/>
  <path class="st13" d="M165.3,107.9c3.2,0,5.7-2.6,5.7-5.7s-3.1-6.2-5.7-9.9c-2.5,2.9-5.7,6.4-5.7,9.9s2.6,5.7,5.7,5.7Z"/>
  <path class="st10" d="M103.2,32l12.5-7.2,12.4,7.2-12.5,7.2-12.5-7.2h.1Z"/>
  <path class="st11" d="M115.7,24.9l12.3,7.1-12.3,7.1-12.3-7.1s12.3-7.1,12.3-7.1ZM115.7,24.8l-12.6,7.3,12.6,7.3,12.6-7.3s-12.6-7.3-12.6-7.3Z"/>
  <path class="st13" d="M115.8,39.3l12.5-7.2v41.7l-12.5,7.2v-41.7Z"/>
  <path d="M128.2,32.3v41.5l-12.3,7.2v-41.5l12.3-7.1M128.3,32l-12.6,7.3v41.8l12.6-7.3V32h0Z"/>
  <path class="st12" d="M103.2,73.8v-41.6l12.5,7.2v41.6l-12.5-7.2Z"/>
  <path d="M103.2,32.3l12.3,7.1v41.5l-12.3-7.1s0-41.5,0-41.5ZM103.1,32v41.8l12.6,7.3v-41.8s-12.6-7.3-12.6-7.3Z"/>
  <path class="st10" d="M108.7,21.6l7.1-4.1,7,4.1-7.1,4.1-7.1-4.1h0Z"/>
  <path class="st11" d="M115.7,17.6l6.9,4-6.9,4-6.9-4,6.9-4ZM115.7,17.5l-7.2,4.2,7.2,4.2,7.2-4.2-7.2-4.2Z"/>
  <path class="st13" d="M115.8,25.8l7.1-4v11l-7.1,4v-11Z"/>
  <path d="M122.8,21.9v10.8l-6.9,4v-10.8l6.9-4M122.9,21.6l-7.2,4.2v11.1l7.2-4.2v-11.1h0Z"/>
  <path class="st12" d="M108.6,32.7v-10.9l7.1,4.1v10.9s-7.1-4.1-7.1-4.1Z"/>
  <path d="M108.7,21.9l6.9,4v10.8l-6.9-4v-10.8ZM108.5,21.6v11.1l7.2,4.2v-11.1s-7.2-4.2-7.2-4.2Z"/>
  <path class="st10" d="M114.4,13.1l1.4-.8,1.3.8-1.3.8-1.3-.8h0Z"/>
  <path class="st11" d="M115.7,12.4l1.2.7-1.2.7-1.2-.7,1.2-.7ZM115.7,12.2l-1.5.9,1.5.9,1.5-.9-1.5-.9Z"/>
  <path class="st10" d="M111.4,21.7l2.9-8.6,1.4.8v10.2l-4.3-2.5h0Z"/>
  <path class="st11" d="M114.3,13.3l1.2.7v10.1l-4.1-2.4,2.8-8.5h0ZM114.3,13.1l-2.9,8.7,4.4,2.5v-10.4l-1.5-.9h0Z"/>
  <path class="st13" d="M115.8,13.9l1.4-.8,2.9,8.7-4.3,2.4s0-10.3,0-10.3Z"/>
  <path d="M117.1,13.3l2.8,8.5-4.1,2.4v-10.1l1.2-.7M117.2,13.1l-1.5.9v10.4l4.4-2.5-2.9-8.7h0Z"/>
  <path class="st6" d="M118.3,41.7v26.3"/>
  <path class="st6" d="M113.2,41.7v26.3"/>
  <path class="st6" d="M110.7,40.2v26.3"/>
  <path class="st6" d="M108.1,38.7v26.3"/>
  <path class="st6" d="M105.6,37.3v26.3"/>
  <path class="st6" d="M120.8,40.2v26.3"/>
  <path class="st6" d="M123.3,38.7v26.3"/>
  <path class="st6" d="M125.8,37.3v26.5"/>
  <path class="st13" d="M119.1,90l10.9-6.2v38.3l-10.9,6.2v-38.3Z"/>
  <path d="M129.9,84v38l-10.7,6.2v-38l10.7-6.2M130.1,83.6l-11.1,6.4v38.5l11.1-6.4v-38.5Z"/>
  <path class="st12" d="M107.9,122v-38.2l11,6.3v38.2l-11-6.3Z"/>
  <path d="M108.1,84l10.7,6.2v38l-10.7-6.2v-38.1M107.9,83.6v38.5l11.1,6.4v-38.5l-11.1-6.4h0Z"/>
  <path class="st10" d="M108,83.6l11-6.4,11,6.4-11,6.3-11-6.4h0Z"/>
  <path class="st11" d="M119,77.3l10.9,6.3-10.9,6.3-10.9-6.3s10.9-6.3,10.9-6.3ZM119,77.2l-11.1,6.4,11.1,6.4,11.1-6.4-11.1-6.4h0Z"/>
  <path class="st12" d="M113.9,83.5v-1.4l5,2.9v1.4l-5-2.8h0Z"/>
  <path d="M114.1,82.2l4.7,2.7v1.2l-4.7-2.7v-1.2ZM113.9,81.9v1.7l5.1,2.9v-1.7l-5.1-2.9Z"/>
  <path class="st13" d="M119.1,84.8l4.9-2.8v1.5l-4.9,2.8v-1.5Z"/>
  <path d="M123.9,82.2v1.2l-4.7,2.7v-1.2l4.7-2.7ZM124.1,81.9l-5.1,2.9v1.7l5.1-2.9v-1.7Z"/>
  <path class="st10" d="M114,81.9l5-2.9,4.9,2.9-5,2.9-5-2.9h0Z"/>
  <path class="st11" d="M119,79.1l4.9,2.8-4.9,2.8-4.9-2.8,4.9-2.8ZM119,79l-5.1,2.9,5.1,2.9,5.1-2.9-5.1-2.9Z"/>
  <path class="st6" d="M111.6,90v29.9"/>
  <path class="st6" d="M115.3,92.2v29.9"/>
  <path class="st6" d="M122.7,92.2v29.9"/>
  <path class="st6" d="M126.4,90v29.9"/>
  <path class="st13" d="M214.2,98.4h-1.2v7.7c.4.3.8.3,1.2,0v-7.7Z"/>
  <circle class="st13" cx="213.3" cy="95.2" r="5.4"/>
  <circle class="st13" cx="215.6" cy="101.8" r="1.1"/>
  <path class="st2" d="M215.6,102.4c0,.8-.7,1.5-1.5,1.5"/>
  <path class="st13" d="M235.7,111.2l16.6-9.6v42.3l-16.6,9.5v-42.2Z"/>
  <path d="M252.2,101.7v42.1l-16.5,9.5v-42.1s16.5-9.5,16.5-9.5ZM252.3,101.5l-16.7,9.6v42.3l16.7-9.6v-42.3h0Z"/>
  <path class="st12" d="M219,143.8v-42.3l16.6,9.7v42.2l-16.6-9.6h0Z"/>
  <path d="M219.1,101.7l16.4,9.5v42.1l-16.4-9.5v-42.1M219,101.5v42.3l16.6,9.6v-42.3s-16.6-9.6-16.6-9.6Z"/>
  <path class="st4" d="M222.3,107.3l10,5.8v3.9l-10-5.8v-3.8h0Z"/>
  <path class="st4" d="M222.3,115l10,5.8v3.9l-10-5.8v-3.8h0Z"/>
  <path class="st4" d="M222.3,122.7l10,5.8v3.9l-10-5.8v-3.8h0Z"/>
  <path class="st4" d="M222.3,130.4l10,5.8v3.9l-10-5.8v-3.9Z"/>
  <path class="st4" d="M222.3,138.1l10,5.8v3.9l-10-5.8v-3.8h0Z"/>
  <path class="st12" d="M239,113.1l9.9-5.7v3.8l-9.9,5.7v-3.8Z"/>
  <path d="M248.8,107.5v3.6l-9.8,5.7v-3.6l9.8-5.7M248.9,107.3l-10,5.8v3.8l10-5.8v-3.8h0Z"/>
  <path class="st12" d="M239,120.8l10-5.7v3.8l-10,5.7v-3.8Z"/>
  <path d="M248.9,115.2v3.6l-9.8,5.7v-3.6l9.8-5.7ZM249,115l-10,5.8v3.9l10-5.8v-3.9Z"/>
  <path class="st12" d="M239,128.5l10-5.7v3.8l-10,5.7v-3.8Z"/>
  <path d="M248.9,122.9v3.6l-9.8,5.7v-3.6s9.8-5.7,9.8-5.7ZM249,122.7l-10,5.8v3.9l10-5.8s0-3.9,0-3.9Z"/>
  <path class="st12" d="M239,136.1l10-5.7v3.8l-10,5.7v-3.8Z"/>
  <path d="M248.9,130.6v3.6l-9.8,5.7v-3.6l9.8-5.7ZM249,130.4l-10,5.8v3.9l10-5.8v-3.9Z"/>
  <path class="st12" d="M239,143.9l10-5.7v3.8l-10,5.7v-3.8Z"/>
  <path d="M248.9,138.2v3.6l-9.8,5.7v-3.6l9.8-5.7ZM249,138.1l-10,5.8v3.9l10-5.8v-3.9Z"/>
  <path class="st4" d="M222.3,99.6l-3.3,1.9,16.6,9.6,16.7-9.6-16.6-9.6-13.3,7.7h0Z"/>
  <path class="st0" d="M222.1,101.5l13.6-7.9,13.6,7.9-13.6,7.9-13.6-7.9Z"/>
  <path class="st13" d="M222.1,101.5l13.6-7.8v1.7l-12.1,6.9s-1.5-.8-1.5-.8Z"/>
  <path d="M235.6,93.8v1.5l-12,6.9-1.3-.8,13.3-7.7h0ZM235.7,93.7l-13.6,7.9,1.5.9,12.1-7v-1.8h0Z"/>
  <path class="st0" d="M247.8,102.4l-12.1-7v-1.8l13.6,7.9-1.5.9Z"/>
  <path class="st0" d="M223.6,102.4l12.1-7,12.1,7-12.1,7-12.1-7Z"/>
  <path class="st13" d="M261.6,132.2l14.2-8.2v36.2l-14.2,8.1v-36.1h0Z"/>
  <path d="M275.7,124.1v36l-14.1,8.1v-36l14.1-8.1M275.8,124l-14.3,8.2v36.2l14.3-8.2v-36.2Z"/>
  <path class="st12" d="M247.4,160.2v-36.2l14.2,8.3v36.1l-14.2-8.2h0Z"/>
  <path d="M247.4,124.1l14.1,8.1v36l-14.1-8.1v-36M247.3,124v36.2l14.2,8.2v-36.2l-14.2-8.2h0Z"/>
  <path class="st4" d="M250.2,128.9l8.5,4.9v3.3l-8.5-4.9v-3.3h0Z"/>
  <path class="st4" d="M250.2,135.5l8.5,4.9v3.3l-8.5-4.9v-3.3h0Z"/>
  <path class="st4" d="M250.2,142.1l8.5,4.9v3.3l-8.5-4.9v-3.3h0Z"/>
  <path class="st4" d="M250.2,148.7l8.5,4.9v3.3l-8.5-4.9v-3.3h0Z"/>
  <path class="st4" d="M250.2,155.3l8.5,4.9v3.3l-8.5-4.9v-3.3h0Z"/>
  <path class="st12" d="M264.5,133.9l8.5-4.9v3.3l-8.5,4.9v-3.2h0Z"/>
  <path d="M272.9,129.1v3.1l-8.4,4.8v-3.1l8.4-4.8M273,128.9l-8.5,4.9v3.3l8.5-4.9v-3.3h0Z"/>
  <path class="st12" d="M264.5,140.4l8.5-4.9v3.3l-8.5,4.9v-3.2h0Z"/>
  <path d="M272.9,135.7v3.1l-8.4,4.8v-3.1l8.4-4.8ZM273,135.5l-8.6,4.9v3.3l8.6-4.9v-3.3h0Z"/>
  <path class="st12" d="M264.5,147l8.5-4.9v3.3l-8.5,4.9v-3.2h0Z"/>
  <path d="M272.9,142.2v3.1l-8.4,4.8v-3.1l8.4-4.8ZM273,142.1l-8.6,4.9v3.3l8.6-4.9v-3.3h0Z"/>
  <path class="st12" d="M264.5,153.6l8.5-4.9v3.3l-8.5,4.9v-3.2h0Z"/>
  <path d="M272.9,148.8v3.1l-8.4,4.8v-3.1l8.4-4.8ZM273,148.7l-8.6,4.9v3.3l8.6-4.9v-3.3h0Z"/>
  <path class="st12" d="M264.5,160.2l8.5-4.9v3.3l-8.5,4.9v-3.2h0Z"/>
  <path d="M272.9,155.4v3.1l-8.4,4.8v-3.1l8.4-4.8ZM273,155.3l-8.6,4.9v3.3l8.6-4.9v-3.3h0Z"/>
  <path class="st4" d="M250.2,122.3l-2.8,1.6,14.2,8.2,14.3-8.2-14.2-8.2-11.4,6.6h0Z"/>
  <path class="st0" d="M249.9,124l11.7-6.7,11.6,6.7-11.6,6.7-11.7-6.7h0Z"/>
  <path class="st13" d="M250,123.9l11.7-6.7v1.5l-10.4,5.9-1.3-.7h0Z"/>
  <path d="M261.5,117.4v1.3l-10.3,5.9-1.1-.6s11.4-6.6,11.4-6.6ZM261.6,117.3l-11.6,6.7,1.3.7,10.4-6v-1.5h-.1Z"/>
  <path class="st0" d="M272,124.7l-10.4-6v-1.5l11.7,6.7-1.3.8h0Z"/>
  <path class="st0" d="M251.2,124.7l10.4-6,10.4,6-10.4,6-10.4-6h0Z"/>
  <path class="st9" d="M74.7,141.4l11.1,6.4v-21.4l-11.1-6.4v21.4h0Z"/>
  <path class="st13" d="M85.9,126.4l25.7-14.8v21.2l-25.7,14.8s0-21.2,0-21.2Z"/>
  <path d="M111.6,111.8v20.9l-25.5,14.8v-20.9l25.5-14.7M111.7,111.4l-25.9,15v21.4l25.9-15v-21.4Z"/>
  <path class="st10" d="M74.8,120l25.8-14.9,11,6.4-25.8,14.9-11-6.4Z"/>
  <path class="st11" d="M100.6,105.2l10.9,6.3-25.7,14.8-10.9-6.3s25.7-14.8,25.7-14.8ZM100.6,105l-25.9,15,11.1,6.4,25.9-15-11.1-6.4h0Z"/>
  <path class="st10" d="M78.4,130.6v-4.1l3.6,2.1v4.1l-3.6-2.1Z"/>
  <path class="st11" d="M78.5,126.6l3.5,2v4l-3.5-2v-4ZM78.4,126.4v4.3l3.7,2.1v-4.3l-3.7-2.1Z"/>
  <path class="st9" d="M93.2,126.4v4.3l-3.7,2.1v-4.3l3.7-2.1Z"/>
  <path class="st9" d="M100.6,122.1v4.3l-3.7,2.1v-4.3l3.7-2.1Z"/>
  <path class="st9" d="M108,117.8v4.3l-3.7,2.1v-4.3l3.7-2.1Z"/>
  <path class="st9" d="M93.2,134.9v4.3l-3.7,2.1v-4.3l3.7-2.1Z"/>
  <path class="st9" d="M100.6,130.7v4.3l-3.7,2.1v-4.3l3.7-2.1Z"/>
  <path class="st9" d="M108,126.4v4.3l-3.7,2.1v-4.3l3.7-2.1Z"/>
  <path class="st10" d="M78.4,139.2v-4.1l3.6,2.1v4.1l-3.6-2.1Z"/>
  <path class="st11" d="M78.5,135.1l3.5,2v4l-3.5-2v-4ZM78.4,134.9v4.3l3.7,2.1v-4.3l-3.7-2.1Z"/>
  <path class="st9" d="M87.7,123.2v-2.5l-7.4-4.3v2.5l7.4,4.3Z"/>
  <path class="st13" d="M87.8,120.7l18.3-10.5v2.3l-18.3,10.5v-2.3Z"/>
  <path d="M106,110.3v2l-18.1,10.5v-2l18.1-10.5ZM106.2,110l-18.5,10.7v2.5l18.5-10.7v-2.5Z"/>
  <path class="st10" d="M80.4,116.4l18.4-10.6,7.3,4.2-18.4,10.6-7.3-4.2Z"/>
  <path class="st11" d="M98.8,105.8l7.2,4.1-18.3,10.6-7.2-4.1,18.3-10.6M98.8,105.7l-18.5,10.7,7.4,4.3,18.5-10.7-7.4-4.3Z"/>
  <path class="st9" d="M85.6,151.4c-.9,0-1.8-.5-3.7-1.6l-11.1-6.4c-1.8-1-2.7-1.6-2.7-2.1s1-1,2.7-2.1l3.7-2.1v4.2l11.2,6.5,26-15v-8.5l7.2,4.2,11.2-6.4v-4.2l3.6,2.1c1.8,1,2.7,1.6,2.7,2.1s-1,1-2.7,2.1l-44.5,25.6c-1.8,1.1-2.8,1.6-3.7,1.6h0Z"/>
</svg>