<?xml version="1.0" encoding="UTF-8"?>
<svg id="Calque_1" data-name="Calque 1" xmlns="http://www.w3.org/2000/svg" viewBox="0 0 20 20">
  <defs>
    <style>
      .cls-1 {
        fill: #fff;
      }
    </style>
  </defs>
  <path d="M3.44,4.27c-.11-.13-.25-.22-.39-.28.14.07.28.16.39.28Z"/>
  <path d="M2.53,3.86s-.03,0-.04,0c0,0,0,0,.01,0,0,0,.02,0,.03,0Z"/>
  <path d="M2.49,3.85c-.13,0-.26.02-.39.07.13-.05.26-.07.39-.07Z"/>
  <path d="M2.95,3.94c-.13-.05-.28-.08-.42-.09.14,0,.28.03.42.09Z"/>
  <path d="M3.05,3.99s-.07-.03-.1-.04c.03.01.07.03.1.04Z"/>
  <path class="cls-1" d="M3.05,3.99c.14.07.28.16.39.28-.11-.13-.25-.21-.39-.28ZM2.95,3.94s.07.03.1.04c-.03-.02-.07-.03-.1-.04ZM2.1,3.92c.13-.05.26-.07.39-.07-.13,0-.26.02-.39.07ZM2.5,3.85s0,0-.01,0c.01,0,.03,0,.04,0,0,0-.02,0-.03,0ZM2.53,3.86c.14,0,.29.04.42.09-.14-.05-.28-.08-.42-.09Z"/>
  <g>
    <path d="M16.29,6.36v.02h-.03s.02-.01.03-.02Z"/>
    <path d="M16.29,6.36v.02h-.03s.02-.01.03-.02Z"/>
    <path d="M16.29,6.36v.02h-.03s.02-.01.03-.02Z"/>
    <path d="M16.29,6.36v.02h-.03s.02-.01.03-.02Z"/>
    <g>
      <path d="M10.92,16.16c0-.15.03-.3.1-.43H3.6c-.16,0-.28-.01-.41-.04-1.32-.21-2.32-1.47-2.32-2.94,0-1.15.61-2.13,1.48-2.63l-.58-.65c-1.01.68-1.7,1.9-1.7,3.28,0,1.9,1.29,3.53,2.98,3.8.16.04.34.05.55.05h7.47c-.08-.13-.14-.28-.15-.44Z"/>
      <path d="M17.89,9.25c-.16-1.84-1.53-3.31-3.27-3.48-.5-2.02-2.2-3.46-4.15-3.46s-3.75,1.5-4.2,3.62c-.53.18-1,.5-1.39.91l.56.62c.35-.36.78-.64,1.27-.76l.26-.07.04-.29c.28-1.83,1.74-3.17,3.45-3.17s3.12,1.3,3.44,3.09l.13.36h.33c1.48,0,2.71,1.31,2.74,2.93v.3s.27.1.27.1c1.08.42,1.81,1.54,1.81,2.79,0,.82-.31,1.57-.81,2.11v1.11c.97-.69,1.61-1.87,1.61-3.22,0-1.53-.83-2.9-2.1-3.51Z"/>
    </g>
    <path d="M17.62,11.72v5.8c0,.11-.1.2-.22.16l-5.61-1.46c-.16-.04-.17-.28,0-.34l2.25-.74-3.46-3.91c-.19-.22-.51-.23-.73-.05l-2.73,2.33c-.21.18-.53.16-.72-.05L1.56,8.06c-.48-.53-.44-1.35.08-1.83.53-.48,1.33-.44,1.81.09l3.21,3.57c.19.21.51.22.72.04l2.74-2.34c.22-.18.54-.16.73.05l5.24,5.9,1.24-1.91c.1-.14.32-.08.32.09Z"/>
  </g>
</svg>