<?xml version="1.0" encoding="UTF-8"?>
<svg id="Calque_1" data-name="Calque 1" xmlns="http://www.w3.org/2000/svg" viewBox="0 0 20 20">
  <defs>
    <style>
      .cls-1 {
        fill: #1d1d1b;
      }
    </style>
  </defs>
  <path d="M10,1c4.96,0,9,4.04,9,9s-4.04,9-9,9S1,14.96,1,10,5.04,1,10,1M10,0C4.48,0,0,4.48,0,10s4.48,10,10,10,10-4.48,10-10S15.52,0,10,0h0Z"/>
  <g>
    <circle class="cls-1" cx="13.21" cy="7.17" r="2.18"/>
    <circle class="cls-1" cx="6.79" cy="7.17" r="2.18"/>
  </g>
  <path class="cls-1" d="M10,16.56c2.75,0,5.19-1.77,6.11-4.31.12-.34-.12-.69-.48-.69l-11.21.2c-.36,0-.58.37-.45.7.97,2.45,3.34,4.1,6.03,4.1Z"/>
</svg>