<?xml version="1.0" encoding="UTF-8"?>
<svg id="Calque_1" data-name="Calque 1" xmlns="http://www.w3.org/2000/svg" viewBox="0 0 20 20">
  <style>
    .cls-1 {
      fill: #ffffff;
    }
  </style>
  <path class="cls-1" d="M10,1c4.96,0,9,4.04,9,9s-4.04,9-9,9S1,14.96,1,10,5.04,1,10,1M10,0C4.48,0,0,4.48,0,10s4.48,10,10,10,10-4.48,10-10S15.52,0,10,0h0Z"/>
  <path class="cls-1" d="M10,2.74c4,0,7.26,3.26,7.26,7.26s-3.26,7.26-7.26,7.26-7.26-3.26-7.26-7.26,3.26-7.26,7.26-7.26M10,1.74C5.44,1.74,1.74,5.44,1.74,10s3.7,8.26,8.26,8.26,8.26-3.7,8.26-8.26S14.56,1.74,10,1.74h0Z"/>
  <path class="cls-1" d="M12.89,5.02l-.43,2.02c-.41-.41-1.01-.62-1.81-.62s-1.43.28-1.92.85c-.28.32-.47.72-.59,1.2h4l-.23,1.13h-3.92c0,.11,0,.25,0,.43s0,.35.01.53h3.71l-.23,1.13h-3.32c.12.52.31.93.56,1.22.49.57,1.12.86,1.89.86.93,0,1.67-.29,2.23-.86v2.23c-.63.32-1.37.47-2.21.47-1.42,0-2.58-.49-3.5-1.46-.62-.66-1.03-1.48-1.23-2.47h-1.08l.23-1.13h.71c0-.12,0-.24,0-.37,0-.22,0-.42.01-.59h-.95l.23-1.13h.87c.2-.97.61-1.77,1.22-2.42.92-.98,2.12-1.47,3.62-1.47.82,0,1.52.15,2.13.44Z"/>
</svg>
